<svg width="80" height="80" viewBox="0 0 80 80" fill="none" xmlns="http://www.w3.org/2000/svg">
<circle cx="40" cy="40" r="40" fill="#1A88E1" fill-opacity="0.13"/>
<path d="M59.9036 41.4059C59.4547 36.7019 57.4373 32.2671 54.223 28.9185C51.4761 26.057 48.114 24.2181 44.5762 23.4005V20.8156C46.0211 20.4411 47.0952 19.0785 47.0952 17.459C47.0952 15.5517 45.6057 14 43.7748 14H36.7435C34.9126 14 33.4231 15.5517 33.4231 17.459C33.4231 19.0784 34.4971 20.441 35.942 20.8156V23.4077C32.4151 24.2288 29.0641 26.0651 26.325 28.9186C25.7255 29.5431 25.1728 30.1981 24.6668 30.879C24.6423 30.877 24.6178 30.8751 24.5928 30.8751H17.6336C17.0943 30.8751 16.657 31.3306 16.657 31.8924C16.657 32.4543 17.0943 32.9098 17.6336 32.9098H23.338C22.622 34.1586 22.0446 35.4701 21.6052 36.8201H10.9766C10.4373 36.8201 10 37.2756 10 37.8375C10 38.3994 10.4373 38.8548 10.9766 38.8548H21.0533C20.7718 40.1419 20.6103 41.4517 20.5686 42.7652H16.2501C15.7108 42.7652 15.2735 43.2207 15.2735 43.7826C15.2735 44.3445 15.7108 44.7999 16.2501 44.7999H20.5998C20.6822 46.1168 20.8854 47.4268 21.2095 48.7104H14.8829C14.3436 48.7104 13.9063 49.1658 13.9063 49.7277C13.9063 50.2896 14.3436 50.7451 14.8829 50.7451H21.8328C22.7908 53.3852 24.288 55.8597 26.325 57.9817C29.5424 61.3335 33.8038 63.4356 38.324 63.9008C38.9691 63.9671 39.6147 64 40.2594 64C44.0702 64 47.8326 62.8511 51.025 60.6854C51.477 60.3787 51.6048 59.7485 51.3105 59.2776C51.0161 58.8068 50.4112 58.6736 49.9592 58.9803C42.9711 63.7208 33.6123 62.6959 27.706 56.543C20.776 49.3236 20.776 37.5769 27.706 30.3575C34.6359 23.1382 45.9118 23.1382 52.8419 30.3575C58.7403 36.5023 59.7296 46.2436 55.194 53.5199C54.9003 53.9911 55.0289 54.6213 55.4812 54.9272C55.9337 55.2332 56.5384 55.0993 56.8321 54.628C59.2553 50.7402 60.3462 46.0446 59.9036 41.4059ZM35.3763 17.4591C35.3763 16.6737 35.9896 16.0348 36.7435 16.0348H43.7748C44.5287 16.0348 45.142 16.6737 45.142 17.4591C45.142 18.2445 44.5287 18.8834 43.7748 18.8834H43.5996H36.9186H36.7435C35.9896 18.8834 35.3763 18.2444 35.3763 17.4591ZM37.8951 23.0579V20.9181H42.623V23.0543C41.0531 22.8597 39.4648 22.861 37.8951 23.0579Z" fill="#1A88E1"/>
<path d="M53.5312 56.2451C53.2734 56.2451 53.0225 56.354 52.8409 56.5432C52.6583 56.7324 52.5547 56.9949 52.5547 57.2625C52.5547 57.53 52.6583 57.7925 52.8409 57.9817C53.0225 58.172 53.2735 58.2798 53.5312 58.2798C53.7881 58.2798 54.0391 58.172 54.2217 57.9817C54.4033 57.7925 54.5078 57.53 54.5078 57.2625C54.5078 56.9949 54.4034 56.7324 54.2217 56.5432C54.0391 56.354 53.788 56.2451 53.5312 56.2451Z" fill="#1A88E1"/>
<path d="M40.2745 27.668C31.9211 27.668 25.125 34.7478 25.125 43.4501C25.125 52.1525 31.9211 59.2323 40.2745 59.2323C48.628 59.2323 55.4241 52.1525 55.4241 43.4501C55.4241 34.7478 48.628 27.668 40.2745 27.668ZM40.2745 57.1975C32.998 57.1975 27.0782 51.0304 27.0782 43.4501C27.0782 35.8698 32.998 29.7027 40.2745 29.7027C47.5511 29.7027 53.4709 35.8698 53.4709 43.4501C53.4709 51.0304 47.5511 57.1975 40.2745 57.1975Z" fill="#1A88E1"/>
<path d="M46.4514 35.5763L41.6144 40.6151C41.2099 40.4068 40.7549 40.2891 40.274 40.2891C39.7929 40.2891 39.338 40.4068 38.9335 40.6151L36.7688 38.36C36.3873 37.9627 35.7691 37.9627 35.3876 38.36C35.0062 38.7572 35.0062 39.4014 35.3876 39.7987L37.5524 42.0539C37.3523 42.4753 37.2394 42.9493 37.2394 43.4503C37.2394 45.1934 38.6006 46.6116 40.274 46.6116C41.9473 46.6116 43.3086 45.1934 43.3086 43.4503C43.3086 42.9493 43.1956 42.4753 42.9956 42.0539L47.6906 37.1628L47.8325 37.015C48.2138 36.6177 48.2138 35.9736 47.8325 35.5763C47.4511 35.179 46.833 35.179 46.4514 35.5763ZM40.274 44.577C39.6777 44.577 39.1925 44.0716 39.1925 43.4504C39.1925 42.8292 39.6777 42.3238 40.274 42.3238C40.8703 42.3238 41.3554 42.8292 41.3554 43.4504C41.3554 44.0716 40.8703 44.577 40.274 44.577Z" fill="#1A88E1"/>
<path d="M50.7134 42.4463H49.8086C49.2693 42.4463 48.832 42.9018 48.832 43.4636C48.832 44.0255 49.2693 44.481 49.8086 44.481H50.7134C51.2526 44.481 51.6899 44.0255 51.6899 43.4636C51.6899 42.9018 51.2526 42.4463 50.7134 42.4463Z" fill="#1A88E1"/>
<path d="M30.7367 42.4189H29.832C29.2928 42.4189 28.8555 42.8744 28.8555 43.4363C28.8555 43.9982 29.2928 44.4536 29.832 44.4536H30.7367C31.276 44.4536 31.7133 43.9982 31.7133 43.4363C31.7133 42.8744 31.276 42.4189 30.7367 42.4189Z" fill="#1A88E1"/>
<path d="M40.2852 34.5318C40.8244 34.5318 41.2617 34.0764 41.2617 33.5145V32.572C41.2617 32.0102 40.8244 31.5547 40.2852 31.5547C39.7459 31.5547 39.3086 32.0102 39.3086 32.572V33.5145C39.3086 34.0764 39.7459 34.5318 40.2852 34.5318Z" fill="#1A88E1"/>
<path d="M40.2617 52.3682C39.7225 52.3682 39.2852 52.8236 39.2852 53.3855V54.328C39.2852 54.8898 39.7225 55.3453 40.2617 55.3453C40.801 55.3453 41.2383 54.8898 41.2383 54.328V53.3855C41.2383 52.8236 40.801 52.3682 40.2617 52.3682Z" fill="#1A88E1"/>
<path d="M10.9766 48.7109C10.7197 48.7109 10.4678 48.8198 10.2861 49.009C10.1045 49.1982 10 49.4607 10 49.7283C10 49.9969 10.1044 50.2583 10.2861 50.4475C10.4679 50.6368 10.7197 50.7456 10.9766 50.7456C11.2334 50.7456 11.4854 50.6368 11.6669 50.4475C11.8485 50.2583 11.9531 49.9958 11.9531 49.7283C11.9531 49.4607 11.8486 49.1982 11.6669 49.009C11.4854 48.8198 11.2334 48.7109 10.9766 48.7109Z" fill="#1A88E1"/>
</svg>
