<svg width="50" height="50" viewBox="0 0 50 50" fill="none" xmlns="http://www.w3.org/2000/svg">
<path d="M49.9036 27.4059C49.4547 22.7019 47.4373 18.2671 44.223 14.9185C41.4761 12.057 38.114 10.2181 34.5762 9.40047V6.81557C36.0211 6.44108 37.0952 5.07854 37.0952 3.45901C37.0952 1.55167 35.6057 0 33.7748 0H26.7435C24.9126 0 23.4231 1.55167 23.4231 3.45901C23.4231 5.07844 24.4971 6.44098 25.942 6.81557V9.40769C22.4151 10.2288 19.0641 12.0651 16.325 14.9186C15.7255 15.5431 15.1728 16.1981 14.6668 16.879C14.6423 16.877 14.6178 16.8751 14.5928 16.8751H7.63361C7.09435 16.8751 6.65703 17.3306 6.65703 17.8924C6.65703 18.4543 7.09435 18.9098 7.63361 18.9098H13.338C12.622 20.1586 12.0446 21.4701 11.6052 22.8201H0.976577C0.437311 22.8201 0 23.2756 0 23.8375C0 24.3994 0.437311 24.8548 0.976577 24.8548H11.0533C10.7718 26.1419 10.6103 27.4517 10.5686 28.7652H6.25009C5.71083 28.7652 5.27352 29.2207 5.27352 29.7826C5.27352 30.3445 5.71083 30.7999 6.25009 30.7999H10.5998C10.6822 32.1168 10.8854 33.4268 11.2095 34.7104H4.88289C4.34362 34.7104 3.90631 35.1658 3.90631 35.7277C3.90631 36.2896 4.34362 36.7451 4.88289 36.7451H11.8328C12.7908 39.3852 14.288 41.8597 16.325 43.9817C19.5424 47.3335 23.8038 49.4356 28.324 49.9008C28.9691 49.9671 29.6147 50 30.2594 50C34.0702 50 37.8326 48.8511 41.025 46.6854C41.477 46.3787 41.6048 45.7485 41.3105 45.2776C41.0161 44.8068 40.4112 44.6736 39.9592 44.9803C32.9711 49.7208 23.6123 48.6959 17.706 42.543C10.776 35.3236 10.776 23.5769 17.706 16.3575C24.6359 9.1382 35.9118 9.1382 42.8419 16.3575C48.7403 22.5023 49.7296 32.2436 45.194 39.5199C44.9003 39.9911 45.0289 40.6213 45.4812 40.9272C45.9337 41.2332 46.5384 41.0993 46.8321 40.628C49.2553 36.7402 50.3462 32.0446 49.9036 27.4059ZM25.3763 3.45911C25.3763 2.67371 25.9896 2.03481 26.7435 2.03481H33.7748C34.5287 2.03481 35.142 2.67371 35.142 3.45911C35.142 4.24451 34.5287 4.88341 33.7748 4.88341H33.5996H26.9186H26.7435C25.9896 4.88341 25.3763 4.24441 25.3763 3.45911ZM27.8951 9.05793V6.91812H32.623V9.05427C31.0531 8.85975 29.4648 8.86097 27.8951 9.05793Z" fill="#1A88E1"/>
<path d="M43.5312 42.2451C43.2734 42.2451 43.0225 42.354 42.8409 42.5432C42.6583 42.7324 42.5547 42.9949 42.5547 43.2625C42.5547 43.53 42.6583 43.7925 42.8409 43.9817C43.0225 44.172 43.2735 44.2798 43.5312 44.2798C43.7881 44.2798 44.0391 44.172 44.2217 43.9817C44.4033 43.7925 44.5078 43.53 44.5078 43.2625C44.5078 42.9949 44.4034 42.7324 44.2217 42.5432C44.0391 42.354 43.788 42.2451 43.5312 42.2451Z" fill="#1A88E1"/>
<path d="M30.2745 13.668C21.9211 13.668 15.125 20.7478 15.125 29.4501C15.125 38.1525 21.9211 45.2323 30.2745 45.2323C38.628 45.2323 45.4241 38.1525 45.4241 29.4501C45.4241 20.7478 38.628 13.668 30.2745 13.668ZM30.2745 43.1975C22.998 43.1975 17.0782 37.0304 17.0782 29.4501C17.0782 21.8698 22.998 15.7027 30.2745 15.7027C37.5511 15.7027 43.4709 21.8698 43.4709 29.4501C43.4709 37.0304 37.5511 43.1975 30.2745 43.1975Z" fill="#1A88E1"/>
<path d="M36.4514 21.5763L31.6144 26.6151C31.2099 26.4068 30.7549 26.2891 30.274 26.2891C29.7929 26.2891 29.338 26.4068 28.9335 26.6151L26.7688 24.36C26.3873 23.9627 25.7691 23.9627 25.3876 24.36C25.0062 24.7572 25.0062 25.4014 25.3876 25.7987L27.5524 28.0539C27.3523 28.4753 27.2394 28.9493 27.2394 29.4503C27.2394 31.1934 28.6006 32.6116 30.274 32.6116C31.9473 32.6116 33.3086 31.1934 33.3086 29.4503C33.3086 28.9493 33.1956 28.4753 32.9956 28.0539L37.6906 23.1628L37.8325 23.015C38.2138 22.6177 38.2138 21.9736 37.8325 21.5763C37.4511 21.179 36.833 21.179 36.4514 21.5763ZM30.274 30.577C29.6777 30.577 29.1925 30.0716 29.1925 29.4504C29.1925 28.8292 29.6777 28.3238 30.274 28.3238C30.8703 28.3238 31.3554 28.8292 31.3554 29.4504C31.3554 30.0716 30.8703 30.577 30.274 30.577Z" fill="#1A88E1"/>
<path d="M40.7134 28.4463H39.8086C39.2693 28.4463 38.832 28.9018 38.832 29.4636C38.832 30.0255 39.2693 30.481 39.8086 30.481H40.7134C41.2526 30.481 41.6899 30.0255 41.6899 29.4636C41.6899 28.9018 41.2526 28.4463 40.7134 28.4463Z" fill="#1A88E1"/>
<path d="M20.7367 28.4189H19.832C19.2928 28.4189 18.8555 28.8744 18.8555 29.4363C18.8555 29.9982 19.2928 30.4536 19.832 30.4536H20.7367C21.276 30.4536 21.7133 29.9982 21.7133 29.4363C21.7133 28.8744 21.276 28.4189 20.7367 28.4189Z" fill="#1A88E1"/>
<path d="M30.2852 20.5318C30.8244 20.5318 31.2617 20.0764 31.2617 19.5145V18.572C31.2617 18.0102 30.8244 17.5547 30.2852 17.5547C29.7459 17.5547 29.3086 18.0102 29.3086 18.572V19.5145C29.3086 20.0764 29.7459 20.5318 30.2852 20.5318Z" fill="#1A88E1"/>
<path d="M30.2617 38.3682C29.7225 38.3682 29.2852 38.8236 29.2852 39.3855V40.328C29.2852 40.8898 29.7225 41.3453 30.2617 41.3453C30.801 41.3453 31.2383 40.8898 31.2383 40.328V39.3855C31.2383 38.8236 30.801 38.3682 30.2617 38.3682Z" fill="#1A88E1"/>
<path d="M0.976562 34.7109C0.719726 34.7109 0.467773 34.8198 0.286133 35.009C0.104492 35.1982 0 35.4607 0 35.7283C0 35.9969 0.104394 36.2583 0.286133 36.4475C0.467871 36.6368 0.719726 36.7456 0.976562 36.7456C1.2334 36.7456 1.48535 36.6368 1.66689 36.4475C1.84853 36.2583 1.95312 35.9958 1.95312 35.7283C1.95312 35.4607 1.84863 35.1982 1.66689 35.009C1.48535 34.8198 1.2334 34.7109 0.976562 34.7109Z" fill="#1A88E1"/>
</svg>
