<svg width="50" height="50" viewBox="0 0 50 50" fill="none" xmlns="http://www.w3.org/2000/svg">
<path d="M37.252 0H6.65461C6.4292 1.07733e-05 6.21303 0.0878106 6.05364 0.244087C5.89425 0.400363 5.8047 0.612316 5.80469 0.833324V26.6664H7.50454V1.66665H36.402V3.33329H38.1019V0.833324C38.1019 0.612316 38.0123 0.400363 37.8529 0.244087C37.6936 0.0878106 37.4774 1.07733e-05 37.252 0Z" fill="#1A88E1"/>
<path d="M34.7009 7.49963V4.16633C34.7009 3.94532 34.6114 3.73337 34.452 3.57709C34.2926 3.42082 34.0764 3.33302 33.851 3.33301H10.0531C9.82764 3.33302 9.61146 3.42082 9.45208 3.57709C9.29269 3.73337 9.20314 3.94532 9.20312 4.16633V7.49963C9.20314 7.72063 9.29269 7.93259 9.45208 8.08886C9.61146 8.24514 9.82764 8.33294 10.0531 8.33295H33.851C34.0764 8.33294 34.2926 8.24514 34.452 8.08886C34.6114 7.93259 34.7009 7.72063 34.7009 7.49963ZM33.0011 6.6663H10.903V4.99965H33.0011V6.6663Z" fill="#1A88E1"/>
<path d="M14.3027 10.8333C14.3027 10.6123 14.2131 10.4004 14.0537 10.2441C13.8943 10.0878 13.6782 10 13.4528 10H10.0531C9.82764 10 9.61146 10.0878 9.45208 10.2441C9.29269 10.4004 9.20314 10.6123 9.20312 10.8333V14.1666C9.20314 14.3876 9.29269 14.5996 9.45208 14.7559C9.61146 14.9121 9.82764 14.9999 10.0531 14.9999H13.4528C13.6782 14.9999 13.8943 14.9121 14.0537 14.7559C14.2131 14.5996 14.3027 14.3876 14.3027 14.1666V10.8333ZM12.6028 13.3333H10.903V11.6666H12.6028V13.3333Z" fill="#1A88E1"/>
<path d="M21.1035 10.8333C21.1035 10.6123 21.0139 10.4004 20.8545 10.2441C20.6951 10.0878 20.479 10 20.2535 10H16.8538C16.6284 10 16.4122 10.0878 16.2529 10.2441C16.0935 10.4004 16.0039 10.6123 16.0039 10.8333V14.1666C16.0039 14.3876 16.0935 14.5996 16.2529 14.7559C16.4122 14.9121 16.6284 14.9999 16.8538 14.9999H20.2535C20.479 14.9999 20.6951 14.9121 20.8545 14.7559C21.0139 14.5996 21.1035 14.3876 21.1035 14.1666V10.8333ZM19.4036 13.3333H17.7038V11.6666H19.4036V13.3333Z" fill="#1A88E1"/>
<path d="M27.9003 10.8333C27.9003 10.6123 27.8108 10.4004 27.6514 10.2441C27.492 10.0878 27.2758 10 27.0504 10H23.6507C23.4253 10 23.2091 10.0878 23.0497 10.2441C22.8903 10.4004 22.8008 10.6123 22.8008 10.8333V14.1666C22.8008 14.3876 22.8903 14.5996 23.0497 14.7559C23.2091 14.9121 23.4253 14.9999 23.6507 14.9999H27.0504C27.2758 14.9999 27.492 14.9121 27.6514 14.7559C27.8108 14.5996 27.9003 14.3876 27.9003 14.1666V10.8333ZM26.2005 13.3333H24.5006V11.6666H26.2005V13.3333Z" fill="#1A88E1"/>
<path d="M27.9003 17.4993C27.9003 17.2783 27.8108 17.0664 27.6514 16.9101C27.492 16.7538 27.2758 16.666 27.0504 16.666H23.6507C23.4253 16.666 23.2091 16.7538 23.0497 16.9101C22.8903 17.0664 22.8008 17.2783 22.8008 17.4993V20.8326C22.8008 21.0536 22.8903 21.2656 23.0497 21.4219C23.2091 21.5781 23.4253 21.6659 23.6507 21.666H27.0504C27.2758 21.6659 27.492 21.5781 27.6514 21.4219C27.8108 21.2656 27.9003 21.0536 27.9003 20.8326V17.4993ZM26.2005 19.9993H24.5006V18.3327H26.2005V19.9993Z" fill="#1A88E1"/>
<path d="M29.6016 18.333V20.833C29.6016 21.054 29.6911 21.2659 29.8505 21.4222C30.0099 21.5785 30.2261 21.6663 30.4515 21.6663H32.1513V19.9997H31.3014V18.333H29.6016Z" fill="#1A88E1"/>
<path d="M32.1513 10H30.4515C30.2261 10 30.0099 10.0878 29.8505 10.2441C29.6911 10.4004 29.6016 10.6123 29.6016 10.8333V13.3333H31.3014V11.6666H32.1513V10Z" fill="#1A88E1"/>
<path d="M14.3027 17.4993C14.3027 17.2783 14.2131 17.0664 14.0537 16.9101C13.8943 16.7538 13.6782 16.666 13.4528 16.666H10.0531C9.82764 16.666 9.61146 16.7538 9.45208 16.9101C9.29269 17.0664 9.20314 17.2783 9.20312 17.4993V20.8326C9.20314 21.0536 9.29269 21.2656 9.45208 21.4219C9.61146 21.5781 9.82764 21.6659 10.0531 21.666H13.4528C13.6782 21.6659 13.8943 21.5781 14.0537 21.4219C14.2131 21.2656 14.3027 21.0536 14.3027 20.8326V17.4993ZM12.6028 19.9993H10.903V18.3327H12.6028V19.9993Z" fill="#1A88E1"/>
<path d="M21.1035 17.4993C21.1035 17.2783 21.0139 17.0664 20.8545 16.9101C20.6951 16.7538 20.479 16.666 20.2535 16.666H16.8538C16.6284 16.666 16.4122 16.7538 16.2529 16.9101C16.0935 17.0664 16.0039 17.2783 16.0039 17.4993V20.8326C16.0039 21.0536 16.0935 21.2656 16.2529 21.4219C16.4122 21.5781 16.6284 21.6659 16.8538 21.666H20.2535C20.479 21.6659 20.6951 21.5781 20.8545 21.4219C21.0139 21.2656 21.1035 21.0536 21.1035 20.8326V17.4993ZM19.4036 19.9993H17.7038V18.3327H19.4036V19.9993Z" fill="#1A88E1"/>
<path d="M14.3027 27.4996V24.1663C14.3027 23.9453 14.2131 23.7334 14.0537 23.5771C13.8943 23.4208 13.6782 23.333 13.4528 23.333H10.0531C9.82764 23.333 9.61146 23.4208 9.45208 23.5771C9.29269 23.7334 9.20314 23.9453 9.20312 24.1663V26.6663H10.903V24.9997H12.6028V27.4996H14.3027Z" fill="#1A88E1"/>
<path d="M27.9003 24.1663C27.9003 23.9453 27.8108 23.7334 27.6514 23.5771C27.492 23.4208 27.2758 23.333 27.0504 23.333H23.6507C23.4253 23.333 23.2091 23.4208 23.0497 23.5771C22.8903 23.7334 22.8008 23.9453 22.8008 24.1663V27.4996C22.8008 27.7206 22.8903 27.9326 23.0497 28.0889C23.2091 28.2451 23.4253 28.3329 23.6507 28.3329H27.0504C27.2758 28.3329 27.492 28.2451 27.6514 28.0889C27.8108 27.9326 27.9003 27.7206 27.9003 27.4996V24.1663ZM26.2005 26.6663H24.5006V24.9997H26.2005V26.6663Z" fill="#1A88E1"/>
<path d="M34.7011 27.4996V24.1663C34.7011 23.9453 34.6116 23.7334 34.4522 23.5771C34.2928 23.4208 34.0766 23.333 33.8512 23.333H30.4515C30.2261 23.333 30.0099 23.4208 29.8505 23.5771C29.6911 23.7334 29.6016 23.9453 29.6016 24.1663V27.4996C29.6016 27.7206 29.6911 27.9326 29.8505 28.0889C30.0099 28.2451 30.2261 28.3329 30.4515 28.3329H33.8512C34.0766 28.3329 34.2928 28.2451 34.4522 28.0889C34.6116 27.9326 34.7011 27.7206 34.7011 27.4996ZM33.0013 26.6663H31.3014V24.9997H33.0013V26.6663Z" fill="#1A88E1"/>
<path d="M27.9003 34.1666V30.8333C27.9003 30.6123 27.8108 30.4004 27.6514 30.2441C27.492 30.0878 27.2758 30 27.0504 30H23.6507C23.4253 30 23.2091 30.0878 23.0497 30.2441C22.8903 30.4004 22.8008 30.6123 22.8008 30.8333V34.1666H24.5006V31.6666H26.2005V34.1666H27.9003Z" fill="#1A88E1"/>
<path d="M21.1028 34.1666V30.8333C21.1028 30.6123 21.0133 30.4004 20.8539 30.2441C20.6945 30.0878 20.4783 30 20.2529 30H17.7031V31.6666H19.403V34.1666H21.1028Z" fill="#1A88E1"/>
<path d="M31.3014 31.6666H33.0013V30H30.4515C30.2261 30 30.0099 30.0878 29.8505 30.2441C29.6911 30.4004 29.6016 30.6123 29.6016 30.8333V32.5H31.3014V31.6666Z" fill="#1A88E1"/>
<path d="M17.452 28.089L18.5509 27.0116L19.6497 28.089L20.8517 26.9104L19.7529 25.8331L20.8517 24.7557L19.6497 23.5771L18.5509 24.6545L17.452 23.5771L16.25 24.7557L17.3488 25.8331L16.25 26.9104L17.452 28.089Z" fill="#1A88E1"/>
<path d="M38.9493 16.3215L36.6484 18.5773L37.8505 19.7559L40.4003 17.2559C40.5596 17.0996 40.6492 16.8876 40.6492 16.6666V12.5H38.9493V16.3215Z" fill="#1A88E1"/>
<path d="M41.5015 7.49966V5.83301H38.1018V7.49966H38.9518V9.21371C37.0088 9.42669 35.2228 10.361 33.9605 11.8248C32.6982 13.2885 32.0554 15.1706 32.1642 17.0845C32.273 18.9984 33.1251 20.7988 34.5454 22.116C35.9658 23.4331 37.8466 24.1671 39.8017 24.1671C41.7567 24.1671 43.6376 23.4331 45.058 22.116C46.4783 20.7988 47.3304 18.9984 47.4392 17.0845C47.548 15.1706 46.9052 13.2885 45.6429 11.8248C44.3806 10.361 42.5946 9.42669 40.6516 9.21371V7.49966H41.5015ZM45.7512 16.6662C45.7512 17.8199 45.4022 18.9477 44.7485 19.907C44.0948 20.8663 43.1656 21.6139 42.0785 22.0554C40.9913 22.497 39.7951 22.6125 38.641 22.3874C37.4869 22.1623 36.4268 21.6068 35.5948 20.791C34.7627 19.9752 34.1961 18.9358 33.9665 17.8042C33.737 16.6727 33.8548 15.4998 34.3051 14.4339C34.7554 13.368 35.5179 12.457 36.4963 11.816C37.4747 11.1751 38.625 10.8329 39.8017 10.8329C41.3791 10.8347 42.8913 11.4498 44.0067 12.5434C45.122 13.637 45.7494 15.1197 45.7512 16.6662Z" fill="#1A88E1"/>
<path d="M38.1022 25.833H36.4023V30.8329H38.1022V25.833Z" fill="#1A88E1"/>
<path d="M43.2006 30.833V31.6663H40.6508C40.4254 31.6663 40.2092 31.7541 40.0498 31.9104C39.8904 32.0667 39.8009 32.2786 39.8009 32.4996V33.3256C38.4941 32.5965 36.9794 32.3077 35.4891 32.5036C33.9988 32.6996 32.6152 33.3694 31.5505 34.4103L30.0997 35.8329H19.8276C19.3444 35.8328 18.8655 35.9229 18.4167 36.0985L16.2742 31.4302C16.0485 30.9382 15.7121 30.5026 15.2903 30.1562C14.8684 29.8097 14.3721 29.5613 13.8385 29.4295C13.3049 29.2978 12.7478 29.2861 12.209 29.3954C11.6701 29.5047 11.1634 29.7321 10.7269 30.0605L10.3666 29.5866C10.0471 29.1662 9.62867 28.8279 9.14692 28.6006C8.66517 28.3732 8.13445 28.2636 7.6001 28.2811C7.06575 28.2986 6.54366 28.4426 6.07842 28.7009C5.61318 28.9592 5.21862 29.324 4.92845 29.7643C4.24747 29.3636 3.44055 29.221 2.65972 29.3632C1.87889 29.5054 1.17807 29.9227 0.689284 30.5364C0.200502 31.1502 -0.0424869 31.918 0.00609865 32.6952C0.0546842 33.4724 0.39149 34.2054 0.953057 34.756L10.242 43.8631C14.1372 47.6828 19.3866 49.8797 24.8944 49.9952C30.4022 50.1107 35.7427 48.1358 39.8009 44.4829V46.6661C39.8009 46.8871 39.8904 47.0991 40.0498 47.2554C40.2092 47.4116 40.4254 47.4994 40.6508 47.4995H43.2006V49.1661C43.2006 49.3871 43.2901 49.5991 43.4495 49.7553C43.6089 49.9116 43.8251 49.9994 44.0505 49.9994H50V48.3328H44.9004V31.6663H50V29.9997H44.0505C43.8251 29.9997 43.6089 30.0875 43.4495 30.2437C43.2901 30.4 43.2006 30.612 43.2006 30.833ZM12.0764 31.1896C12.3112 31.0745 12.5673 31.0071 12.8293 30.9915C13.0914 30.9759 13.3539 31.0123 13.6012 31.0987C13.8485 31.185 14.0754 31.3195 14.2684 31.494C14.4614 31.6685 14.6164 31.8795 14.7241 32.1142L16.9961 37.0646C16.8184 37.2569 16.6613 37.4667 16.5276 37.6907L11.7432 31.3973C11.8468 31.3173 11.9585 31.2477 12.0764 31.1896ZM6.88034 30.1716C7.22296 29.9687 7.63044 29.8984 8.02311 29.9744C8.41578 30.0505 8.76542 30.2673 9.0037 30.5826L16.0032 39.7899C14.8947 39.1675 13.8756 38.4031 12.973 37.5169L6.2293 30.9049C6.36206 30.5993 6.58992 30.3426 6.88034 30.1716H6.88034ZM39.2603 42.6842C35.5717 46.3009 30.5688 48.3327 25.3522 48.3328C20.1357 48.3328 15.1327 46.3011 11.444 42.6845L2.15501 33.5774C1.86475 33.2914 1.70203 32.9042 1.70255 32.5007C1.70307 32.0972 1.86677 31.7104 2.15777 31.4251C2.44876 31.1398 2.84328 30.9793 3.2548 30.9787C3.66632 30.9782 4.06125 31.1378 4.35297 31.4224L11.7709 38.6954C13.2734 40.1714 15.0601 41.34 17.0272 42.1333C17.3844 42.5117 17.8176 42.8136 18.2995 43.0201C18.7814 43.2265 19.3017 43.333 19.8276 43.3328H30.4517V41.6662H19.8276C19.2641 41.6662 18.7236 41.4467 18.3251 41.056C17.9267 40.6653 17.7028 40.1354 17.7028 39.5829C17.7028 39.0303 17.9267 38.5004 18.3251 38.1098C18.7236 37.7191 19.2641 37.4996 19.8276 37.4996H30.4517C30.6771 37.4996 30.8933 37.4118 31.0527 37.2555L32.7526 35.5889C33.6794 34.6824 34.9227 34.1548 36.2311 34.1127C37.5395 34.0706 38.8154 34.5171 39.8009 35.362V42.1543L39.2603 42.6842ZM41.5007 45.8328V33.333H43.2006V45.8328H41.5007Z" fill="#1A88E1"/>
</svg>
