<svg width="80" height="80" viewBox="0 0 80 80" fill="none" xmlns="http://www.w3.org/2000/svg">
<circle cx="40" cy="40" r="40" fill="#1A88E1" fill-opacity="0.13"/>
<path d="M52.252 15H21.6546C21.4292 15 21.213 15.0878 21.0536 15.2441C20.8942 15.4004 20.8047 15.6123 20.8047 15.8333V41.6664H22.5045V16.6666H51.402V18.3333H53.1019V15.8333C53.1019 15.6123 53.0123 15.4004 52.8529 15.2441C52.6936 15.0878 52.4774 15 52.252 15Z" fill="#1A88E1"/>
<path d="M49.7009 22.4996V19.1663C49.7009 18.9453 49.6114 18.7334 49.452 18.5771C49.2926 18.4208 49.0764 18.333 48.851 18.333H25.0531C24.8276 18.333 24.6115 18.4208 24.4521 18.5771C24.2927 18.7334 24.2031 18.9453 24.2031 19.1663V22.4996C24.2031 22.7206 24.2927 22.9326 24.4521 23.0889C24.6115 23.2451 24.8276 23.3329 25.0531 23.3329H48.851C49.0764 23.3329 49.2926 23.2451 49.452 23.0889C49.6114 22.9326 49.7009 22.7206 49.7009 22.4996ZM48.0011 21.6663H25.903V19.9997H48.0011V21.6663Z" fill="#1A88E1"/>
<path d="M29.3027 25.8333C29.3027 25.6123 29.2131 25.4004 29.0537 25.2441C28.8943 25.0878 28.6782 25 28.4528 25H25.0531C24.8276 25 24.6115 25.0878 24.4521 25.2441C24.2927 25.4004 24.2031 25.6123 24.2031 25.8333V29.1666C24.2031 29.3876 24.2927 29.5996 24.4521 29.7559C24.6115 29.9121 24.8276 29.9999 25.0531 29.9999H28.4528C28.6782 29.9999 28.8943 29.9121 29.0537 29.7559C29.2131 29.5996 29.3027 29.3876 29.3027 29.1666V25.8333ZM27.6028 28.3333H25.903V26.6666H27.6028V28.3333Z" fill="#1A88E1"/>
<path d="M36.1035 25.8333C36.1035 25.6123 36.0139 25.4004 35.8545 25.2441C35.6951 25.0878 35.479 25 35.2535 25H31.8538C31.6284 25 31.4122 25.0878 31.2529 25.2441C31.0935 25.4004 31.0039 25.6123 31.0039 25.8333V29.1666C31.0039 29.3876 31.0935 29.5996 31.2529 29.7559C31.4122 29.9121 31.6284 29.9999 31.8538 29.9999H35.2535C35.479 29.9999 35.6951 29.9121 35.8545 29.7559C36.0139 29.5996 36.1035 29.3876 36.1035 29.1666V25.8333ZM34.4036 28.3333H32.7038V26.6666H34.4036V28.3333Z" fill="#1A88E1"/>
<path d="M42.9003 25.8333C42.9003 25.6123 42.8108 25.4004 42.6514 25.2441C42.492 25.0878 42.2758 25 42.0504 25H38.6507C38.4253 25 38.2091 25.0878 38.0497 25.2441C37.8903 25.4004 37.8008 25.6123 37.8008 25.8333V29.1666C37.8008 29.3876 37.8903 29.5996 38.0497 29.7559C38.2091 29.9121 38.4253 29.9999 38.6507 29.9999H42.0504C42.2758 29.9999 42.492 29.9121 42.6514 29.7559C42.8108 29.5996 42.9003 29.3876 42.9003 29.1666V25.8333ZM41.2005 28.3333H39.5006V26.6666H41.2005V28.3333Z" fill="#1A88E1"/>
<path d="M42.9003 32.4993C42.9003 32.2783 42.8108 32.0664 42.6514 31.9101C42.492 31.7538 42.2758 31.666 42.0504 31.666H38.6507C38.4253 31.666 38.2091 31.7538 38.0497 31.9101C37.8903 32.0664 37.8008 32.2783 37.8008 32.4993V35.8326C37.8008 36.0536 37.8903 36.2656 38.0497 36.4219C38.2091 36.5781 38.4253 36.6659 38.6507 36.666H42.0504C42.2758 36.6659 42.492 36.5781 42.6514 36.4219C42.8108 36.2656 42.9003 36.0536 42.9003 35.8326V32.4993ZM41.2005 34.9993H39.5006V33.3327H41.2005V34.9993Z" fill="#1A88E1"/>
<path d="M44.6016 33.333V35.833C44.6016 36.054 44.6911 36.2659 44.8505 36.4222C45.0099 36.5785 45.2261 36.6663 45.4515 36.6663H47.1513V34.9997H46.3014V33.333H44.6016Z" fill="#1A88E1"/>
<path d="M47.1513 25H45.4515C45.2261 25 45.0099 25.0878 44.8505 25.2441C44.6911 25.4004 44.6016 25.6123 44.6016 25.8333V28.3333H46.3014V26.6666H47.1513V25Z" fill="#1A88E1"/>
<path d="M29.3027 32.4993C29.3027 32.2783 29.2131 32.0664 29.0537 31.9101C28.8943 31.7538 28.6782 31.666 28.4528 31.666H25.0531C24.8276 31.666 24.6115 31.7538 24.4521 31.9101C24.2927 32.0664 24.2031 32.2783 24.2031 32.4993V35.8326C24.2031 36.0536 24.2927 36.2656 24.4521 36.4219C24.6115 36.5781 24.8276 36.6659 25.0531 36.666H28.4528C28.6782 36.6659 28.8943 36.5781 29.0537 36.4219C29.2131 36.2656 29.3027 36.0536 29.3027 35.8326V32.4993ZM27.6028 34.9993H25.903V33.3327H27.6028V34.9993Z" fill="#1A88E1"/>
<path d="M36.1035 32.4993C36.1035 32.2783 36.0139 32.0664 35.8545 31.9101C35.6951 31.7538 35.479 31.666 35.2535 31.666H31.8538C31.6284 31.666 31.4122 31.7538 31.2529 31.9101C31.0935 32.0664 31.0039 32.2783 31.0039 32.4993V35.8326C31.0039 36.0536 31.0935 36.2656 31.2529 36.4219C31.4122 36.5781 31.6284 36.6659 31.8538 36.666H35.2535C35.479 36.6659 35.6951 36.5781 35.8545 36.4219C36.0139 36.2656 36.1035 36.0536 36.1035 35.8326V32.4993ZM34.4036 34.9993H32.7038V33.3327H34.4036V34.9993Z" fill="#1A88E1"/>
<path d="M29.3027 42.4996V39.1663C29.3027 38.9453 29.2131 38.7334 29.0537 38.5771C28.8943 38.4208 28.6782 38.333 28.4528 38.333H25.0531C24.8276 38.333 24.6115 38.4208 24.4521 38.5771C24.2927 38.7334 24.2031 38.9453 24.2031 39.1663V41.6663H25.903V39.9997H27.6028V42.4996H29.3027Z" fill="#1A88E1"/>
<path d="M42.9003 39.1663C42.9003 38.9453 42.8108 38.7334 42.6514 38.5771C42.492 38.4208 42.2758 38.333 42.0504 38.333H38.6507C38.4253 38.333 38.2091 38.4208 38.0497 38.5771C37.8903 38.7334 37.8008 38.9453 37.8008 39.1663V42.4996C37.8008 42.7206 37.8903 42.9326 38.0497 43.0889C38.2091 43.2451 38.4253 43.3329 38.6507 43.3329H42.0504C42.2758 43.3329 42.492 43.2451 42.6514 43.0889C42.8108 42.9326 42.9003 42.7206 42.9003 42.4996V39.1663ZM41.2005 41.6663H39.5006V39.9997H41.2005V41.6663Z" fill="#1A88E1"/>
<path d="M49.7011 42.4996V39.1663C49.7011 38.9453 49.6116 38.7334 49.4522 38.5771C49.2928 38.4208 49.0766 38.333 48.8512 38.333H45.4515C45.2261 38.333 45.0099 38.4208 44.8505 38.5771C44.6911 38.7334 44.6016 38.9453 44.6016 39.1663V42.4996C44.6016 42.7206 44.6911 42.9326 44.8505 43.0889C45.0099 43.2451 45.2261 43.3329 45.4515 43.3329H48.8512C49.0766 43.3329 49.2928 43.2451 49.4522 43.0889C49.6116 42.9326 49.7011 42.7206 49.7011 42.4996ZM48.0013 41.6663H46.3014V39.9997H48.0013V41.6663Z" fill="#1A88E1"/>
<path d="M42.9003 49.1666V45.8333C42.9003 45.6123 42.8108 45.4004 42.6514 45.2441C42.492 45.0878 42.2758 45 42.0504 45H38.6507C38.4253 45 38.2091 45.0878 38.0497 45.2441C37.8903 45.4004 37.8008 45.6123 37.8008 45.8333V49.1666H39.5006V46.6666H41.2005V49.1666H42.9003Z" fill="#1A88E1"/>
<path d="M36.1028 49.1666V45.8333C36.1028 45.6123 36.0133 45.4004 35.8539 45.2441C35.6945 45.0878 35.4783 45 35.2529 45H32.7031V46.6666H34.403V49.1666H36.1028Z" fill="#1A88E1"/>
<path d="M46.3014 46.6666H48.0013V45H45.4515C45.2261 45 45.0099 45.0878 44.8505 45.2441C44.6911 45.4004 44.6016 45.6123 44.6016 45.8333V47.5H46.3014V46.6666Z" fill="#1A88E1"/>
<path d="M32.452 43.089L33.5509 42.0116L34.6497 43.089L35.8517 41.9104L34.7529 40.8331L35.8517 39.7557L34.6497 38.5771L33.5509 39.6545L32.452 38.5771L31.25 39.7557L32.3488 40.8331L31.25 41.9104L32.452 43.089Z" fill="#1A88E1"/>
<path d="M53.9493 31.3215L51.6484 33.5773L52.8505 34.7559L55.4003 32.2559C55.5596 32.0996 55.6492 31.8876 55.6492 31.6666V27.5H53.9493V31.3215Z" fill="#1A88E1"/>
<path d="M56.5015 22.4997V20.833H53.1018V22.4997H53.9518V24.2137C52.0088 24.4267 50.2228 25.361 48.9605 26.8248C47.6982 28.2885 47.0554 30.1706 47.1642 32.0845C47.273 33.9984 48.1251 35.7988 49.5454 37.116C50.9658 38.4331 52.8466 39.1671 54.8017 39.1671C56.7567 39.1671 58.6376 38.4331 60.058 37.116C61.4783 35.7988 62.3304 33.9984 62.4392 32.0845C62.548 30.1706 61.9052 28.2885 60.6429 26.8248C59.3806 25.361 57.5946 24.4267 55.6516 24.2137V22.4997H56.5015ZM60.7512 31.6662C60.7512 32.8199 60.4022 33.9477 59.7485 34.907C59.0948 35.8663 58.1656 36.6139 57.0785 37.0554C55.9913 37.497 54.7951 37.6125 53.641 37.3874C52.4869 37.1623 51.4268 36.6068 50.5948 35.791C49.7627 34.9752 49.1961 33.9358 48.9665 32.8042C48.737 31.6727 48.8548 30.4998 49.3051 29.4339C49.7554 28.368 50.5179 27.457 51.4963 26.816C52.4747 26.1751 53.625 25.8329 54.8017 25.8329C56.3791 25.8347 57.8913 26.4498 59.0067 27.5434C60.122 28.637 60.7494 30.1197 60.7512 31.6662Z" fill="#1A88E1"/>
<path d="M53.1022 40.833H51.4023V45.8329H53.1022V40.833Z" fill="#1A88E1"/>
<path d="M58.2006 45.833V46.6663H55.6508C55.4254 46.6663 55.2092 46.7541 55.0498 46.9104C54.8904 47.0667 54.8009 47.2786 54.8009 47.4996V48.3256C53.4941 47.5965 51.9794 47.3077 50.4891 47.5036C48.9988 47.6996 47.6152 48.3694 46.5505 49.4103L45.0997 50.8329H34.8276C34.3444 50.8328 33.8655 50.9229 33.4167 51.0985L31.2742 46.4302C31.0485 45.9382 30.7121 45.5026 30.2903 45.1562C29.8684 44.8097 29.3721 44.5613 28.8385 44.4295C28.3049 44.2978 27.7478 44.2861 27.209 44.3954C26.6701 44.5047 26.1634 44.7321 25.7269 45.0605L25.3666 44.5866C25.0471 44.1662 24.6287 43.8279 24.1469 43.6006C23.6652 43.3732 23.1344 43.2636 22.6001 43.2811C22.0658 43.2986 21.5437 43.4426 21.0784 43.7009C20.6132 43.9592 20.2186 44.324 19.9285 44.7643C19.2475 44.3636 18.4406 44.221 17.6597 44.3632C16.8789 44.5054 16.1781 44.9227 15.6893 45.5364C15.2005 46.1502 14.9575 46.918 15.0061 47.6952C15.0547 48.4724 15.3915 49.2054 15.9531 49.756L25.242 58.8631C29.1372 62.6828 34.3866 64.8797 39.8944 64.9952C45.4022 65.1107 50.7427 63.1358 54.8009 59.4829V61.6661C54.8009 61.8871 54.8904 62.0991 55.0498 62.2554C55.2092 62.4116 55.4254 62.4994 55.6508 62.4995H58.2006V64.1661C58.2006 64.3871 58.2901 64.5991 58.4495 64.7553C58.6089 64.9116 58.8251 64.9994 59.0505 64.9994H65V63.3328H59.9004V46.6663H65V44.9997H59.0505C58.8251 44.9997 58.6089 45.0875 58.4495 45.2437C58.2901 45.4 58.2006 45.612 58.2006 45.833ZM27.0764 46.1896C27.3112 46.0745 27.5673 46.0071 27.8293 45.9915C28.0914 45.9759 28.3539 46.0123 28.6012 46.0987C28.8485 46.185 29.0754 46.3195 29.2684 46.494C29.4614 46.6685 29.6164 46.8795 29.7241 47.1142L31.9961 52.0646C31.8184 52.2569 31.6613 52.4667 31.5276 52.6907L26.7432 46.3973C26.8468 46.3173 26.9585 46.2477 27.0764 46.1896ZM21.8803 45.1716C22.223 44.9687 22.6304 44.8984 23.0231 44.9744C23.4158 45.0505 23.7654 45.2673 24.0037 45.5826L31.0032 54.7899C29.8947 54.1675 28.8756 53.4031 27.973 52.5169L21.2293 45.9049C21.3621 45.5993 21.5899 45.3426 21.8803 45.1716H21.8803ZM54.2603 57.6842C50.5717 61.3009 45.5688 63.3327 40.3522 63.3328C35.1357 63.3328 30.1327 61.3011 26.444 57.6845L17.155 48.5774C16.8647 48.2914 16.702 47.9042 16.7026 47.5007C16.7031 47.0972 16.8668 46.7104 17.1578 46.4251C17.4488 46.1398 17.8433 45.9793 18.2548 45.9787C18.6663 45.9782 19.0612 46.1378 19.353 46.4224L26.7709 53.6954C28.2734 55.1714 30.0601 56.34 32.0272 57.1333C32.3844 57.5117 32.8176 57.8136 33.2995 58.0201C33.7814 58.2265 34.3017 58.333 34.8276 58.3328H45.4517V56.6662H34.8276C34.2641 56.6662 33.7236 56.4467 33.3251 56.056C32.9267 55.6653 32.7028 55.1354 32.7028 54.5829C32.7028 54.0303 32.9267 53.5004 33.3251 53.1098C33.7236 52.7191 34.2641 52.4996 34.8276 52.4996H45.4517C45.6771 52.4996 45.8933 52.4118 46.0527 52.2555L47.7526 50.5889C48.6794 49.6824 49.9227 49.1548 51.2311 49.1127C52.5395 49.0706 53.8154 49.5171 54.8009 50.362V57.1543L54.2603 57.6842ZM56.5007 60.8328V48.333H58.2006V60.8328H56.5007Z" fill="#1A88E1"/>
</svg>
