<svg width="57" height="59" viewBox="0 0 57 59" fill="none" xmlns="http://www.w3.org/2000/svg">
<path d="M10.764 53.459C10.6772 53.3252 10.5257 53.2378 10.3916 53.1374C9.41816 52.4077 8.4891 51.6452 7.71923 50.7733C7.56873 50.6023 7.39701 50.5324 7.14039 50.5468C6.38788 50.5901 5.63827 50.5764 4.89059 50.4769C3.42803 50.2823 2.51345 49.6042 2.11019 48.5004C1.67219 47.3001 1.27182 46.0915 0.856013 44.8866C0.844436 44.8524 0.849259 44.8144 0.846365 44.7779C0.795234 44.7376 0.812599 44.6753 0.77208 44.6312C0.765326 44.584 0.758573 44.5377 0.750855 44.4905C0.704547 44.4465 0.721913 44.3818 0.67464 44.3377C0.668851 44.2929 0.663063 44.2488 0.657275 44.204C0.63605 44.1751 0.613861 44.1469 0.589742 44.1196C0.582989 44.0709 0.575271 44.023 0.568518 43.9744C0.517386 43.9341 0.534751 43.8718 0.494232 43.8277C0.487479 43.7805 0.479761 43.7342 0.473007 43.687C0.426699 43.643 0.4431 43.5791 0.397757 43.535C0.391969 43.4902 0.385215 43.4453 0.379427 43.4012C0.358202 43.3723 0.336013 43.3442 0.311894 43.3168C0.305141 43.2682 0.297423 43.2195 0.29067 43.1716C0.238573 43.1314 0.256904 43.0698 0.216384 43.0257C0.209631 42.9786 0.201913 42.9314 0.19516 42.8843C0.147887 42.8402 0.165253 42.7764 0.118945 42.7323C0.113156 42.6851 0.108333 42.6388 0.102544 42.5916C0.0369411 42.3187 0.0359762 42.0466 0.103509 41.7745C0.109297 41.7273 0.115086 41.6794 0.121839 41.6323C0.165253 41.589 0.145958 41.5259 0.198054 41.4856C0.202878 41.462 0.208666 41.4377 0.21349 41.4141C0.239538 41.3868 0.268481 41.3609 0.286811 41.329C0.284882 41.3085 0.289705 41.2887 0.299353 41.2697C0.332154 41.2439 0.362061 41.2157 0.377497 41.1808C0.377497 41.1602 0.383286 41.1412 0.394863 41.123C0.423805 41.0972 0.450818 41.0705 0.473972 41.0417C0.476866 41.0181 0.484584 40.9961 0.499056 40.9755C0.517386 40.9497 0.541505 40.9292 0.572377 40.9124L0.5772 40.9071C0.604213 40.8813 0.632191 40.8562 0.662098 40.8319L0.661133 40.8326C0.693935 40.8091 0.726736 40.7847 0.752785 40.7558L0.74989 40.7581C0.786551 40.7368 0.818388 40.7118 0.845401 40.6829L0.842506 40.6851C0.879167 40.6646 0.911003 40.6388 0.938016 40.6099L0.935122 40.6122C0.971782 40.5916 1.00169 40.5658 1.0316 40.54L1.03063 40.5407C1.0615 40.5171 1.09334 40.4951 1.12614 40.4731L1.13193 40.4693C1.15316 40.4449 1.18017 40.4259 1.21297 40.4115C1.23902 40.4008 1.26796 40.394 1.29787 40.3917C1.33453 40.3727 1.36829 40.3522 1.4011 40.3294C1.42425 40.3203 1.44933 40.3157 1.47538 40.3165C1.5188 40.3035 1.55353 40.28 1.58729 40.2556C1.61238 40.2473 1.63746 40.2435 1.66447 40.245C1.70113 40.2275 1.73683 40.2085 1.77059 40.1888C1.80243 40.1842 1.83427 40.1804 1.8661 40.1758C1.91434 40.1325 1.99345 40.1477 2.04748 40.1158C2.10729 40.1105 2.16711 40.1044 2.22692 40.0991C2.28288 40.0618 2.36391 40.0755 2.41987 40.039C2.47679 40.0344 2.53371 40.0299 2.59063 40.0253C2.62633 40.0086 2.66202 39.9904 2.69675 39.9721C3.26017 39.849 3.81972 39.7098 4.38989 39.6095C4.6687 39.5609 4.77386 39.443 4.82306 39.2469C5.12985 38.0116 5.68072 36.8417 6.37727 35.7129C6.53259 35.462 6.70239 35.2157 6.88376 34.9763C7.01497 34.8037 7.02847 34.6798 6.86061 34.4928C5.68265 33.1785 5.00443 31.7106 4.72176 30.1188C4.62239 29.5609 4.65423 29.0036 4.62722 28.4464C4.61564 28.2002 4.72851 28.0664 5.02952 27.9934C5.974 27.7638 6.92911 27.5981 7.9199 27.5411C10.4649 27.3951 12.8382 27.8733 15.1102 28.7307C15.3562 28.8235 15.5462 28.8311 15.798 28.7414C17.9321 27.982 20.1703 27.5099 22.4866 27.2499C24.229 27.0546 25.98 26.9466 27.7368 26.9824C31.1925 27.0515 34.574 27.4567 37.8001 28.4898C40.02 29.2005 42.0344 30.1667 43.8201 31.4354C46.042 33.0135 47.6425 34.917 48.7153 37.107C48.8841 37.4522 48.886 37.4544 49.2912 37.291C50.1913 36.9276 50.8946 36.397 51.4445 35.7296C51.7803 35.3214 52.2424 35.2005 52.7527 35.3586C53.2139 35.5016 53.484 35.8132 53.4435 36.2572C53.3461 37.3267 53.0991 38.372 52.5791 39.3716C52.0417 40.4046 51.2477 41.2864 50.1392 41.985C49.9849 42.0823 49.9453 42.188 49.9463 42.3294C49.9482 42.6821 49.9395 43.0341 49.9357 43.3868C49.3607 44.1272 48.6091 44.7574 47.8875 45.4027C46.313 46.8106 44.5533 48.0633 42.6345 49.1777C39.3186 51.1032 35.6709 52.486 31.7048 53.3549C29.2138 53.9007 26.6737 54.2192 24.0987 54.3628C21.9599 54.4829 19.822 54.4525 17.6812 54.3187C15.5858 54.188 13.5145 53.9516 11.4528 53.6452C11.2136 53.611 10.9579 53.6027 10.764 53.459Z" fill="#E2A3B2"/>
<path d="M27.1374 25.152C21.675 25.1474 17.2536 21.6529 17.2565 17.342C17.2594 13.0524 21.7213 9.54191 27.1693 9.54419C32.6471 9.54647 37.0763 13.0569 37.0637 17.3861C37.0522 21.694 32.6259 25.1565 27.1374 25.152Z" fill="#F8D83A"/>
<path d="M46.6803 28.6224C41.2179 28.6179 36.7964 25.1234 36.7993 20.8124C36.8022 16.5228 41.2642 13.0124 46.7121 13.0146C52.19 13.0169 56.6191 16.5274 56.6066 20.8565C56.595 25.1644 52.1687 28.627 46.6803 28.6224Z" fill="#F8D83A"/>
<path d="M33.5377 15.6078C28.0753 15.6032 23.6538 12.1087 23.6567 7.7978C23.6596 3.50817 28.1216 -0.00227939 33.5695 1.11049e-06C39.0474 0.00228161 43.4765 3.51274 43.464 7.84189C43.4524 12.1498 39.0262 15.6123 33.5377 15.6078Z" fill="#F8D83A"/>
<path d="M19.5189 15.6078C14.0565 15.6032 9.63505 12.1087 9.63794 7.7978C9.64084 3.50817 14.1028 -0.00227939 19.5507 1.11049e-06C25.0286 0.00228161 29.4577 3.51274 29.4452 7.84189C29.4336 12.1498 25.0074 15.6123 19.5189 15.6078Z" fill="#F8D83A"/>
<path d="M10.7626 53.4589C11.4234 53.4931 12.0611 53.633 12.7114 53.7151C13.6944 53.8382 14.6766 53.9621 15.6673 54.0496C16.9495 54.1621 18.2345 54.2168 19.5206 54.2822C20.4457 54.3293 21.37 54.3605 22.2875 54.3217C24.4446 54.2305 26.5941 54.0929 28.7272 53.7759C32.2359 53.2544 35.5624 52.3498 38.7007 51.0188C40.5723 50.2252 42.3243 49.2841 43.9625 48.2115C44.8857 47.6071 45.7964 46.9891 46.6242 46.3088C47.6005 45.506 48.5576 44.6843 49.4046 43.7903C49.5522 43.6345 49.7201 43.4916 49.9333 43.3875C49.9092 44.888 49.4644 46.3209 48.7611 47.7052C47.8967 49.4049 46.6647 50.9245 45.0478 52.2411C44.7323 52.4988 44.631 52.7915 44.5712 53.1176C44.2673 54.774 43.9654 56.4296 43.6537 58.0853C43.5563 58.603 43.1974 58.8842 42.5366 58.9504C41.6152 59.0416 40.6881 58.977 39.7639 58.9869C39.3182 58.9914 38.8705 59.0188 38.4258 58.9519C37.8218 58.8607 37.4321 58.5551 37.3491 58.0815C37.2777 57.6733 37.214 57.2643 37.1436 56.8553C37.0973 56.5885 37.0452 56.5604 36.7307 56.6562C34.9575 57.1967 33.1322 57.5927 31.2529 57.8132C29.2828 58.0442 27.3041 58.1172 25.31 58.0032C22.9753 57.8694 20.7053 57.522 18.496 56.9154C18.1304 56.8151 18.1275 56.8227 18.0725 57.1298C18.0127 57.4658 17.9548 57.8025 17.8901 58.1377C17.8101 58.552 17.4184 58.8645 16.8945 58.9428C16.636 58.9815 16.3755 58.9922 16.1121 58.9914C15.1088 58.9884 14.1064 58.9876 13.103 58.9907C12.1161 58.9937 11.5826 58.5589 11.5662 57.9234C11.5604 57.7075 11.4784 57.4931 11.4379 57.2772C11.2121 56.0655 10.9874 54.8538 10.7645 53.6421C10.7548 53.5813 10.7626 53.5197 10.7626 53.4589Z" fill="#DF96A6"/>
<path d="M0.10359 41.7751C0.10359 42.0473 0.10359 42.3202 0.102625 42.5923C-0.0343689 42.3202 -0.0343688 42.0473 0.10359 41.7751Z" fill="#E4AAB9"/>
<path d="M2.04832 40.1166C2.00297 40.1645 1.93737 40.1759 1.86694 40.1767C1.91132 40.128 1.97307 40.109 2.04832 40.1166Z" fill="#E4AAB9"/>
<path d="M2.42001 40.0397C2.37177 40.0914 2.30328 40.1028 2.22803 40.0998C2.27723 40.0511 2.34187 40.0337 2.42001 40.0397Z" fill="#E4AAB9"/>
<path d="M0.198644 41.4863C0.199608 41.5441 0.185137 41.5966 0.121464 41.633C0.112781 41.573 0.1369 41.5236 0.198644 41.4863Z" fill="#E4AAB9"/>
<path d="M0.118947 42.7332C0.18455 42.7712 0.199021 42.8251 0.195162 42.8852C0.133418 42.8457 0.110264 42.794 0.118947 42.7332Z" fill="#E4AAB9"/>
<path d="M0.216835 43.0256C0.278579 43.0629 0.292085 43.1146 0.29112 43.1716C0.230341 43.1343 0.207187 43.0857 0.216835 43.0256Z" fill="#E4AAB9"/>
<path d="M0.396739 43.5359C0.462342 43.5739 0.476813 43.6279 0.47199 43.6879C0.41121 43.6484 0.389021 43.5975 0.396739 43.5359Z" fill="#E4AAB9"/>
<path d="M0.494056 43.8284C0.5558 43.8656 0.569307 43.9173 0.568342 43.9743C0.507563 43.9371 0.484409 43.8884 0.494056 43.8284Z" fill="#E4AAB9"/>
<path d="M0.673959 44.3386C0.740527 44.3766 0.754998 44.4306 0.750174 44.4914C0.68843 44.4519 0.666241 44.3994 0.673959 44.3386Z" fill="#E4AAB9"/>
<path d="M0.771227 44.6311C0.832971 44.6684 0.847442 44.7208 0.845512 44.7778C0.785698 44.7406 0.761579 44.6912 0.771227 44.6311Z" fill="#E4AAB9"/>
<path d="M2.69694 39.9729C2.66125 39.9907 2.62652 40.0085 2.59082 40.027C2.62555 40.0092 2.66125 39.9907 2.69694 39.9729Z" fill="#E4AAB9"/>
<path d="M1.77202 40.1887C1.73632 40.208 1.70159 40.2266 1.66589 40.2459C1.70062 40.2274 1.73632 40.208 1.77202 40.1887Z" fill="#E4AAB9"/>
<path d="M1.58775 40.2556C1.55109 40.2761 1.51347 40.2967 1.47681 40.3164C1.51347 40.2967 1.55109 40.2761 1.58775 40.2556Z" fill="#E4AAB9"/>
<path d="M1.40206 40.3301C1.36829 40.3506 1.33356 40.3719 1.29883 40.3924C1.33356 40.3719 1.36733 40.3506 1.40206 40.3301Z" fill="#E4AAB9"/>
<path d="M1.21556 40.4124C1.18855 40.4317 1.16153 40.4518 1.13452 40.4711C1.16153 40.4518 1.18855 40.4317 1.21556 40.4124Z" fill="#E4AAB9"/>
<path d="M1.12737 40.4739C1.09553 40.4967 1.0637 40.5187 1.03186 40.5415C1.06273 40.5187 1.09553 40.4959 1.12737 40.4739Z" fill="#E4AAB9"/>
<path d="M1.03251 40.5408C1.00067 40.5651 0.967872 40.5894 0.936035 40.613C0.967872 40.5887 1.00067 40.5643 1.03251 40.5408Z" fill="#E4AAB9"/>
<path d="M0.938284 40.6106C0.906447 40.6357 0.87461 40.6608 0.842773 40.6859C0.87461 40.6608 0.906447 40.6357 0.938284 40.6106Z" fill="#E4AAB9"/>
<path d="M0.845876 40.6836C0.81404 40.7087 0.782203 40.7338 0.750366 40.7589C0.783168 40.7338 0.815004 40.7087 0.845876 40.6836Z" fill="#E4AAB9"/>
<path d="M0.753882 40.7566C0.723011 40.7824 0.693103 40.8075 0.662231 40.8334C0.692139 40.8075 0.723011 40.7817 0.753882 40.7566Z" fill="#E4AAB9"/>
<path d="M0.5721 40.9124C0.547017 40.9336 0.522898 40.9549 0.498779 40.9754C0.522898 40.9549 0.547982 40.9336 0.5721 40.9124Z" fill="#E4AAB9"/>
<path d="M0.474373 41.0425C0.448325 41.0698 0.421312 41.0965 0.395264 41.1238C0.421312 41.0965 0.44736 41.0691 0.474373 41.0425Z" fill="#E4AAB9"/>
<path d="M0.377583 41.1807C0.351535 41.2103 0.325487 41.24 0.299438 41.2696C0.325487 41.24 0.351535 41.2103 0.377583 41.1807Z" fill="#E4AAB9"/>
<path d="M0.285479 41.3298C0.26136 41.358 0.237242 41.3868 0.212158 41.415C0.237242 41.3868 0.26136 41.358 0.285479 41.3298Z" fill="#E4AAB9"/>
<path d="M0.312256 43.3176C0.334445 43.3458 0.356634 43.3739 0.379788 43.402C0.356634 43.3739 0.334445 43.3458 0.312256 43.3176Z" fill="#E4AAB9"/>
<path d="M0.589478 44.1204C0.611667 44.1485 0.634821 44.1766 0.65701 44.2047C0.633856 44.1766 0.611667 44.1485 0.589478 44.1204Z" fill="#E4AAB9"/>
<path d="M0.662413 40.8325C0.634435 40.8576 0.605492 40.8827 0.577515 40.9078C0.606457 40.8827 0.634435 40.8576 0.662413 40.8325Z" fill="#E4AAB9"/>
<path d="M20.2297 29.893C20.2558 29.8968 20.2789 29.8923 20.3001 29.8801C20.358 29.8428 20.4391 29.8527 20.4998 29.82C20.5278 29.8231 20.5539 29.8193 20.578 29.8071C20.6378 29.7699 20.7188 29.7775 20.7825 29.7486C20.8385 29.7402 20.8954 29.7326 20.9513 29.7243C21.0112 29.6992 21.0854 29.7083 21.1385 29.6703C21.1694 29.6741 21.1993 29.6695 21.2273 29.6581C21.29 29.6254 21.3681 29.6292 21.4337 29.6034C21.4887 29.5966 21.5437 29.5897 21.5987 29.5829C21.6614 29.5532 21.7386 29.5563 21.8032 29.5297C21.8582 29.5236 21.9142 29.5175 21.9692 29.5107C22.0531 29.462 22.1708 29.5107 22.2509 29.4514C22.3116 29.4453 22.3724 29.4392 22.4332 29.4339C22.4978 29.4088 22.5731 29.4096 22.6368 29.3845C22.7236 29.3769 22.8104 29.3693 22.8963 29.3617C22.9831 29.3206 23.096 29.3639 23.178 29.3069C23.2378 29.3024 23.2986 29.297 23.3584 29.2925C23.4751 29.2355 23.6218 29.3031 23.7346 29.2347C23.8253 29.2286 23.917 29.2226 24.0077 29.2165C24.1263 29.1671 24.2701 29.2279 24.3858 29.1625C24.4756 29.1579 24.5653 29.1534 24.654 29.1488C24.8354 29.0796 25.0419 29.1663 25.2223 29.0903C25.3718 29.0857 25.5223 29.0812 25.6719 29.0766C26.105 28.9968 26.5507 29.1024 26.9839 29.0181C27.2183 29.0181 27.4528 29.0181 27.6872 29.0181C28.1194 29.1024 28.5661 28.996 28.9993 29.0774C29.1488 29.0819 29.2974 29.0872 29.4469 29.0918C29.5974 29.1587 29.772 29.088 29.9245 29.1458C30.0422 29.1526 30.1608 29.1595 30.2785 29.1655C30.3982 29.2241 30.5458 29.1655 30.6664 29.2203C30.7522 29.2264 30.8391 29.2332 30.9249 29.2393C31.0156 29.2841 31.1304 29.2492 31.2221 29.2917C31.2819 29.297 31.3426 29.3016 31.4025 29.3069C31.4845 29.3639 31.5983 29.3199 31.6842 29.3624C31.7449 29.3677 31.8067 29.3738 31.8675 29.3791C31.9475 29.4392 32.0633 29.3913 32.1472 29.4369C32.2051 29.443 32.263 29.4491 32.3209 29.4559C32.3807 29.4871 32.455 29.4825 32.5177 29.5069C32.5775 29.5137 32.6364 29.5205 32.6962 29.5274C32.7531 29.5616 32.8274 29.5555 32.8882 29.5798C32.947 29.5867 33.0049 29.5943 33.0638 29.6011C33.1226 29.6338 33.1988 29.627 33.2596 29.6551C33.3136 29.6619 33.3686 29.6695 33.4226 29.6764C33.4612 29.6901 33.4989 29.7053 33.5365 29.7205C33.5953 29.7288 33.6532 29.7379 33.7121 29.7463C33.7709 29.7798 33.8481 29.7714 33.9079 29.8026C33.9349 29.8155 33.9639 29.82 33.9957 29.817C34.0497 29.8543 34.1269 29.8451 34.1858 29.8725C34.2166 29.8771 34.2475 29.8824 34.2793 29.8869C34.289 29.9075 34.2986 29.928 34.3083 29.9485C34.2774 29.9865 34.2359 30.0146 34.1848 30.0344C33.2519 30.2032 32.2949 30.2085 31.3494 30.2997C30.0991 30.4198 28.842 30.4821 27.5888 30.5741C27.0669 30.603 26.5421 30.5369 26.0211 30.6091C25.8407 30.6144 25.6603 30.6205 25.4799 30.6258C25.2985 30.692 25.093 30.6076 24.9126 30.6828C24.793 30.6897 24.6724 30.6958 24.5527 30.7026C24.4341 30.7528 24.2894 30.692 24.1736 30.7566C24.0839 30.7627 23.9942 30.7687 23.9044 30.7748C23.8137 30.8159 23.7009 30.7794 23.6112 30.8273C23.5234 30.8341 23.4356 30.8417 23.3478 30.8485C23.2609 30.8911 23.1471 30.847 23.0661 30.904C23.0063 30.9094 22.9455 30.9147 22.8857 30.9208C22.8201 30.9481 22.7448 30.9481 22.6773 30.9709C22.5924 30.9801 22.5065 30.9892 22.4216 30.9975C22.3599 31.0203 22.2856 31.015 22.2287 31.0485C22.1698 31.0553 22.111 31.0622 22.0512 31.069C21.9904 31.0941 21.9151 31.088 21.8582 31.1215C21.7984 31.1291 21.7395 31.1367 21.6797 31.1443C21.6209 31.1671 21.5466 31.1579 21.4955 31.1975C21.4646 31.202 21.4347 31.2066 21.4038 31.2112C21.344 31.2416 21.2668 31.2332 21.208 31.2674C21.179 31.2644 21.152 31.2689 21.1269 31.2811C21.0681 31.3161 20.988 31.3077 20.9272 31.3396C20.8568 31.332 20.7893 31.3191 20.743 31.2704C20.7179 31.24 20.6841 31.2142 20.6774 31.1762C20.6658 31.1344 20.6532 31.0926 20.6417 31.05C20.6224 31.0219 20.6021 30.9937 20.5809 30.9664C20.5847 30.9443 20.578 30.9238 20.5616 30.9056C20.5182 30.8615 20.5346 30.7984 20.4844 30.7558C20.4767 30.7322 20.4699 30.7094 20.4622 30.6859C20.44 30.6555 20.4063 30.6296 20.3985 30.5931C20.386 30.5506 20.3744 30.5088 20.3619 30.4662C20.3435 30.4381 20.3233 30.4099 20.3011 30.3833C20.305 30.3605 20.2982 30.34 20.2818 30.3218C20.2394 30.2777 20.2558 30.2146 20.2046 30.1735C20.1969 30.15 20.1902 30.1256 20.1824 30.1021C20.1622 30.0717 20.1294 30.0466 20.1188 30.0124L20.1178 29.9789C20.139 29.9371 20.1757 29.9082 20.2297 29.893Z" fill="#59595B"/>
<path d="M7.1724 33.7038C6.85018 33.3595 6.66494 33.0295 6.48743 32.7034C5.94621 31.7091 5.56513 30.6768 5.39341 29.6004C5.35289 29.3496 5.41849 29.0926 5.31044 28.8425C5.25352 28.7087 5.36736 28.6206 5.52075 28.556C6.33404 28.2139 7.20906 28.0497 8.12075 27.9919C8.23941 27.9843 8.38895 27.9638 8.45359 28.0687C8.5134 28.166 8.37255 28.2108 8.31177 28.2747C7.64609 28.9695 7.31518 29.7654 7.14249 30.6145C7.00743 31.2789 7.06338 31.9448 7.05663 32.6107C7.05181 32.9528 7.19459 33.288 7.1724 33.7038Z" fill="#E8BAC9"/>
<path d="M12.2442 40.2594C12.2143 40.2549 12.1843 40.2511 12.1544 40.2465C12.1014 40.207 12.0242 40.2184 11.9663 40.1887C11.948 40.1728 11.9248 40.1659 11.8978 40.1682C11.8496 40.1583 11.8149 40.131 11.7753 40.1104L11.7666 40.1059C11.7502 40.08 11.7251 40.0633 11.6904 40.0542C11.5891 39.9721 11.4888 39.89 11.3875 39.8079C11.3662 39.7805 11.3441 39.7539 11.3199 39.7281C11.3093 39.706 11.2977 39.6832 11.2871 39.6612C11.2707 39.6323 11.2514 39.6057 11.2283 39.5806C11.2331 39.5563 11.2264 39.535 11.2061 39.516C11.1723 39.4635 11.1704 39.4035 11.1424 39.3503C11.1415 39.2423 11.1405 39.1336 11.1395 39.0257C11.1743 38.9755 11.1733 38.917 11.2022 38.866C11.21 38.8417 11.2167 38.8174 11.2244 38.7931C11.2785 38.752 11.262 38.6859 11.3103 38.6433L11.3132 38.6388C11.3441 38.6236 11.3653 38.603 11.3749 38.5749C11.401 38.5605 11.4145 38.5399 11.4154 38.5149C11.4347 38.4776 11.4656 38.4495 11.5081 38.4274L11.5042 38.4305C11.5293 38.3993 11.5621 38.3742 11.6007 38.3545L11.5968 38.3575C11.6248 38.324 11.6615 38.299 11.7097 38.2853C11.7406 38.2853 11.7647 38.2754 11.783 38.2556C11.8177 38.245 11.8467 38.2283 11.8698 38.2055L11.8708 38.2047C11.9248 38.1621 12.0097 38.1735 12.0657 38.1363C12.0975 38.1408 12.1265 38.1348 12.1525 38.1196C12.2461 38.0793 12.3599 38.112 12.4525 38.0679C12.5268 38.0686 12.6011 38.0686 12.6744 38.0694C12.7429 38.0899 12.8163 38.0952 12.8848 38.1142C12.9378 38.1234 12.9909 38.1325 13.0439 38.1408C13.0912 38.1462 13.124 38.1735 13.1636 38.191C13.1809 38.2077 13.2031 38.2153 13.2311 38.2131C13.2803 38.2229 13.316 38.2496 13.3527 38.2746L13.3565 38.2769C13.3816 38.3028 13.4115 38.3233 13.4482 38.3377L13.4617 38.3469C13.4771 38.3757 13.5041 38.3963 13.5418 38.4077L13.5572 38.4198C13.5726 38.4495 13.5977 38.4715 13.6344 38.4844L13.643 38.4936C13.6662 38.5217 13.6913 38.5491 13.7193 38.5741L13.7164 38.5711C13.7781 38.6068 13.7588 38.6768 13.8157 38.714L13.8167 38.7148C13.8707 38.7611 13.862 38.8265 13.8987 38.8782C13.9074 38.9223 13.9161 38.9656 13.9248 39.0097C13.9691 39.1298 13.972 39.2492 13.9219 39.3685C13.9132 39.4088 13.9045 39.4499 13.8968 39.4901C13.8939 39.5289 13.8563 39.5548 13.837 39.5874C13.8157 39.6057 13.8071 39.6277 13.8109 39.6521C13.7878 39.6779 13.7665 39.7045 13.7472 39.7326C13.7241 39.7471 13.7135 39.7653 13.7144 39.7881C13.699 39.8269 13.6662 39.855 13.6286 39.8801L13.6295 39.8794C13.6006 39.9052 13.5688 39.9288 13.5389 39.9538L13.5379 39.9546C13.5061 39.9782 13.4761 40.0033 13.4443 40.0261H13.4453C13.4125 40.055 13.3777 40.08 13.3305 40.0937C13.2996 40.093 13.2755 40.1028 13.2562 40.1218C13.2205 40.134 13.1887 40.1507 13.1597 40.1705C13.1308 40.1781 13.1009 40.1857 13.0719 40.1925C13.0343 40.2085 12.9967 40.2237 12.959 40.2382C12.9041 40.2458 12.8491 40.2526 12.7941 40.2602C12.6079 40.2952 12.4255 40.3012 12.2442 40.2594Z" fill="#3E3D40"/>
<path d="M27.6174 30.5361C28.2127 30.3483 28.8513 30.3932 29.4688 30.3293C30.257 30.2472 31.049 30.1735 31.8421 30.1332C32.6525 30.0922 33.4522 29.9614 34.2674 29.972C34.307 29.985 34.3273 30.0078 34.3273 30.042C34.3273 30.0884 34.3311 30.1362 34.2945 30.1773C34.2752 30.1955 34.2684 30.2161 34.2742 30.2389C34.2337 30.2868 34.2443 30.3491 34.2009 30.3962C34.1816 30.4137 34.1748 30.4335 34.1806 30.4563C34.1411 30.5049 34.1517 30.568 34.1063 30.6152C34.087 30.6326 34.0812 30.6524 34.087 30.6744C34.0475 30.7239 34.0591 30.787 34.0118 30.8341C33.9925 30.8508 33.9867 30.8698 33.9935 30.8919C33.9558 30.942 33.9664 31.0066 33.9182 31.0538C33.8989 31.0697 33.8931 31.0887 33.9008 31.11C33.8642 31.1617 33.8758 31.2263 33.8237 31.2735C33.7909 31.2993 33.7581 31.3251 33.7253 31.351C33.6944 31.3746 33.6645 31.373 33.6346 31.3502L33.6037 31.3366L33.569 31.3381C33.5014 31.3122 33.4185 31.3191 33.3577 31.278L33.3239 31.2643L33.2863 31.2659C33.2217 31.2385 33.1435 31.2431 33.0808 31.2104L33.0412 31.1959L32.9978 31.1967C32.9399 31.1625 32.8647 31.1693 32.8039 31.1435C32.7489 31.1359 32.6949 31.1275 32.6399 31.1199C32.5733 31.0948 32.4971 31.0963 32.4325 31.0682C32.3794 31.0606 32.3273 31.053 32.2743 31.0462C32.2058 31.0249 32.1286 31.0234 32.062 30.9952C32.007 30.9884 31.953 30.9816 31.898 30.9747C31.8324 30.9496 31.7581 30.9496 31.6916 30.9261C31.6318 30.92 31.5719 30.9131 31.5121 30.9071C31.4301 30.85 31.3163 30.8934 31.2285 30.8516C31.1436 30.844 31.0597 30.8356 30.9748 30.828C30.8802 30.7862 30.7664 30.8181 30.6718 30.7763C30.586 30.7695 30.5011 30.7626 30.4152 30.7558C30.2927 30.6995 30.146 30.755 30.0235 30.7026C29.9097 30.6782 29.7949 30.6668 29.6772 30.682C29.5218 30.622 29.3463 30.6851 29.19 30.6311C28.9825 30.6022 28.7751 30.5893 28.5658 30.6098C28.259 30.5224 27.9242 30.6456 27.6174 30.5361Z" fill="#3E3D40"/>
<path d="M0.95892 43.1178C0.784301 42.4344 0.814208 41.8141 1.43744 41.2736C2.20538 40.6062 3.21064 40.3622 4.30467 40.2185C2.91736 40.9901 1.641 41.8346 0.95892 43.1178Z" fill="#E4AAB9"/>
<path d="M27.6175 30.5361C27.932 30.5787 28.261 30.508 28.5678 30.6083C27.7188 30.6091 26.8699 30.6099 26.0209 30.6106C26.5457 30.4822 27.0888 30.5962 27.6175 30.5361Z" fill="#DF96A6"/>
<path d="M26.9855 29.0182C26.5533 29.114 26.1115 29.0668 25.6735 29.0767C26.1018 28.9422 26.5475 29.0342 26.9855 29.0182Z" fill="#DF96A6"/>
<path d="M29.0005 29.0765C28.5625 29.0667 28.1207 29.113 27.6885 29.0173C28.1265 29.0347 28.5722 28.942 29.0005 29.0765Z" fill="#DF96A6"/>
<path d="M25.2227 29.0902C25.0442 29.1777 24.8474 29.1495 24.6544 29.1488C24.8281 29.0355 25.0316 29.0971 25.2227 29.0902Z" fill="#DF96A6"/>
<path d="M12.2433 40.2595C12.4256 40.261 12.608 40.2626 12.7903 40.2641C12.607 40.3545 12.4237 40.3576 12.2433 40.2595Z" fill="#DF96A6"/>
<path d="M24.9127 30.6843C25.0902 30.5962 25.287 30.6235 25.48 30.6273C25.3063 30.7376 25.1037 30.6767 24.9127 30.6843Z" fill="#DF96A6"/>
<path d="M13.9196 39.3708C13.9205 39.2514 13.9215 39.1313 13.9224 39.012C14.0353 39.1321 14.0373 39.2522 13.9196 39.3708Z" fill="#DF96A6"/>
<path d="M29.1926 30.6297C29.3586 30.6221 29.5274 30.6024 29.6798 30.6807C29.5149 30.6822 29.3412 30.7293 29.1926 30.6297Z" fill="#DF96A6"/>
<path d="M29.9242 29.1451C29.7612 29.1512 29.5952 29.1717 29.4476 29.0911C29.6087 29.0927 29.7795 29.0455 29.9242 29.1451Z" fill="#DF96A6"/>
<path d="M24.1735 30.7573C24.2873 30.6851 24.4195 30.6927 24.5526 30.7033C24.4417 30.7892 24.3037 30.7588 24.1735 30.7573Z" fill="#DF96A6"/>
<path d="M30.0269 30.7012C30.1638 30.6913 30.2989 30.6845 30.4185 30.7544C30.2825 30.7597 30.1417 30.7917 30.0269 30.7012Z" fill="#DF96A6"/>
<path d="M23.7351 29.2341C23.6232 29.3063 23.4911 29.3002 23.3589 29.2918C23.4669 29.2029 23.6049 29.2341 23.7351 29.2341Z" fill="#DF96A6"/>
<path d="M30.6671 29.2195C30.5321 29.2279 30.396 29.2378 30.2793 29.1648C30.4134 29.161 30.5542 29.1291 30.6671 29.2195Z" fill="#DF96A6"/>
<path d="M24.3848 29.1617C24.2709 29.2316 24.1388 29.2263 24.0066 29.2156C24.1175 29.1305 24.2545 29.1609 24.3848 29.1617Z" fill="#DF96A6"/>
<path d="M32.1481 29.4362C32.0448 29.4461 31.9474 29.4385 31.8683 29.3784C31.9696 29.3746 32.0718 29.3663 32.1481 29.4362Z" fill="#DF96A6"/>
<path d="M23.0671 30.9048C23.1482 30.8448 23.2456 30.8379 23.3488 30.8493C23.2707 30.9192 23.1684 30.9101 23.0671 30.9048Z" fill="#DF96A6"/>
<path d="M31.2308 30.8501C31.3341 30.8403 31.4315 30.8494 31.5145 30.9056C31.4122 30.911 31.309 30.9201 31.2308 30.8501Z" fill="#DF96A6"/>
<path d="M31.6854 29.3625C31.5822 29.3739 31.4847 29.3663 31.4037 29.307C31.505 29.3017 31.6072 29.2926 31.6854 29.3625Z" fill="#DF96A6"/>
<path d="M23.1777 29.3071C23.0967 29.3664 22.9992 29.3732 22.896 29.3618C22.9741 29.2926 23.0764 29.3017 23.1777 29.3071Z" fill="#DF96A6"/>
<path d="M12.4509 38.0687C12.3602 38.1189 12.258 38.128 12.1509 38.1204C12.2348 38.0467 12.3429 38.0588 12.4509 38.0687Z" fill="#DF96A6"/>
<path d="M31.2224 29.2918C31.1153 29.3017 31.0121 29.3009 30.9253 29.2386C31.0314 29.2295 31.1395 29.2181 31.2224 29.2918Z" fill="#DF96A6"/>
<path d="M22.2511 29.4521C22.171 29.5129 22.0726 29.5213 21.9694 29.5114C22.0456 29.4392 22.1488 29.4475 22.2511 29.4521Z" fill="#DF96A6"/>
<path d="M23.6113 30.8281C23.6962 30.7665 23.7985 30.7642 23.9046 30.7756C23.8226 30.8478 23.7165 30.8364 23.6113 30.8281Z" fill="#DF96A6"/>
<path d="M30.6747 30.7749C30.7827 30.7658 30.8879 30.7658 30.9776 30.8266C30.8686 30.8365 30.7596 30.8494 30.6747 30.7749Z" fill="#DF96A6"/>
<path d="M22.6367 29.3846C22.5807 29.4317 22.5113 29.4441 22.4331 29.4348C22.4871 29.3838 22.5585 29.3761 22.6367 29.3846Z" fill="#DF96A6"/>
<path d="M32.5177 29.5069C32.4415 29.5154 32.3749 29.5007 32.3209 29.4551C32.3962 29.4489 32.4656 29.4574 32.5177 29.5069Z" fill="#DF96A6"/>
<path d="M21.8025 29.5305C21.7466 29.5777 21.6771 29.5924 21.598 29.5847C21.6511 29.5313 21.7234 29.5228 21.8025 29.5305Z" fill="#DF96A6"/>
<path d="M32.8885 29.5801C32.8133 29.5886 32.7486 29.5724 32.6965 29.5268C32.7699 29.5213 32.8374 29.5306 32.8885 29.5801Z" fill="#DF96A6"/>
<path d="M21.4331 29.6043C21.3772 29.6522 21.3068 29.6658 21.2267 29.659C21.2807 29.605 21.3531 29.5959 21.4331 29.6043Z" fill="#DF96A6"/>
<path d="M33.2586 29.6559C33.1824 29.6629 33.1158 29.6474 33.0627 29.601C33.139 29.5949 33.2084 29.6041 33.2586 29.6559Z" fill="#DF96A6"/>
<path d="M21.1375 29.6712C21.0873 29.716 21.0246 29.7338 20.9503 29.726C20.9986 29.6773 21.0651 29.6673 21.1375 29.6712Z" fill="#DF96A6"/>
<path d="M20.7818 29.7487C20.7268 29.7973 20.6573 29.8125 20.5773 29.8072C20.6294 29.7525 20.7017 29.7418 20.7818 29.7487Z" fill="#DF96A6"/>
<path d="M33.9089 29.8036C33.8317 29.8098 33.7651 29.7943 33.713 29.7464C33.7892 29.741 33.8587 29.7511 33.9089 29.8036Z" fill="#DF96A6"/>
<path d="M20.4998 29.82C20.4467 29.8687 20.3782 29.8839 20.3 29.8801C20.3502 29.8261 20.4206 29.8147 20.4998 29.82Z" fill="#DF96A6"/>
<path d="M34.1854 29.8743C34.1102 29.882 34.0465 29.8635 33.9954 29.8179C34.0687 29.8132 34.1362 29.8241 34.1854 29.8743Z" fill="#DF96A6"/>
<path d="M34.2948 30.1765C34.2967 30.1355 34.2987 30.0944 34.3006 30.0534C34.3064 30.0085 34.3305 29.9994 34.3739 30.0306C34.3758 30.0891 34.3594 30.1408 34.2948 30.1765Z" fill="#DF96A6"/>
<path d="M20.2071 30.1743C20.266 30.2131 20.2901 30.2625 20.2843 30.3226C20.2197 30.2853 20.2042 30.2328 20.2071 30.1743Z" fill="#DF96A6"/>
<path d="M34.2011 30.3956C34.1944 30.3341 34.2137 30.2801 34.2744 30.2383C34.2822 30.3006 34.2686 30.3561 34.2011 30.3956Z" fill="#DF96A6"/>
<path d="M34.1073 30.6144C34.0996 30.5521 34.1198 30.4981 34.1816 30.4556C34.1902 30.5187 34.1767 30.5749 34.1073 30.6144Z" fill="#DF96A6"/>
<path d="M34.0131 30.8342C34.0054 30.7711 34.0266 30.7171 34.0884 30.6746C34.097 30.7377 34.0826 30.7939 34.0131 30.8342Z" fill="#DF96A6"/>
<path d="M20.4871 30.7566C20.5469 30.7954 20.5701 30.8463 20.5643 30.9063C20.4987 30.8691 20.4833 30.8159 20.4871 30.7566Z" fill="#DF96A6"/>
<path d="M22.6787 30.9726C22.7366 30.9247 22.808 30.9123 22.8871 30.9216C22.8311 30.9749 22.7578 30.9819 22.6787 30.9726Z" fill="#DF96A6"/>
<path d="M31.6937 30.924C31.7719 30.9163 31.8423 30.9263 31.9002 30.9735C31.8211 30.9827 31.7487 30.9758 31.6937 30.924Z" fill="#DF96A6"/>
<path d="M33.9196 31.053C33.9128 30.9899 33.9331 30.9344 33.9948 30.8918C34.0054 30.9557 33.9939 31.0135 33.9196 31.053Z" fill="#DF96A6"/>
<path d="M22.2286 31.0502C22.2817 31.0046 22.3463 30.9891 22.4216 30.9984C22.3705 31.0471 22.3029 31.0564 22.2286 31.0502Z" fill="#DF96A6"/>
<path d="M32.0634 30.9939C32.1434 30.9861 32.2168 30.9954 32.2756 31.0457C32.1946 31.0549 32.1193 31.0503 32.0634 30.9939Z" fill="#DF96A6"/>
<path d="M21.8599 31.124C21.912 31.0776 21.9766 31.0613 22.0528 31.0706C22.0026 31.1193 21.9341 31.1294 21.8599 31.124Z" fill="#DF96A6"/>
<path d="M32.433 31.0669C32.5121 31.0599 32.5835 31.0707 32.6404 31.1194C32.5613 31.1287 32.488 31.1202 32.433 31.0669Z" fill="#DF96A6"/>
<path d="M21.4971 31.1992C21.5472 31.1551 21.608 31.1373 21.6813 31.1451C21.6331 31.193 21.5685 31.2023 21.4971 31.1992Z" fill="#DF96A6"/>
<path d="M32.8043 31.1427C32.8796 31.1357 32.9461 31.1512 32.9982 31.1968C32.923 31.2022 32.8545 31.193 32.8043 31.1427Z" fill="#DF96A6"/>
<path d="M33.8237 31.2721C33.817 31.2082 33.8382 31.1527 33.9009 31.1086C33.9105 31.174 33.899 31.2325 33.8237 31.2721Z" fill="#DF96A6"/>
<path d="M21.2096 31.2692C21.2617 31.2213 21.3283 31.2058 21.4054 31.212C21.3553 31.2646 21.2858 31.2746 21.2096 31.2692Z" fill="#DF96A6"/>
<path d="M33.0815 31.2097C33.1607 31.2028 33.2311 31.2165 33.287 31.2651C33.207 31.2735 33.1346 31.2636 33.0815 31.2097Z" fill="#DF96A6"/>
<path d="M20.929 31.3403C20.982 31.2917 21.0505 31.2764 21.1287 31.2818C21.0785 31.335 21.0081 31.3456 20.929 31.3403Z" fill="#DF96A6"/>
<path d="M33.3579 31.2774C33.4409 31.2705 33.5132 31.2865 33.5692 31.3374C33.4862 31.3458 33.411 31.3374 33.3579 31.2774Z" fill="#DF96A6"/>
<path d="M12.8832 38.1158C12.805 38.1243 12.7336 38.1143 12.6729 38.0702C12.752 38.0602 12.8253 38.0648 12.8832 38.1158Z" fill="#DF96A6"/>
<path d="M12.0651 38.137C12.014 38.1842 11.9484 38.2054 11.8702 38.2054C11.9156 38.1484 11.985 38.1332 12.0651 38.137Z" fill="#DF96A6"/>
<path d="M13.8143 38.7164C13.7536 38.6807 13.7188 38.6335 13.715 38.5735C13.7902 38.6031 13.8134 38.6548 13.8143 38.7164Z" fill="#DF96A6"/>
<path d="M11.3087 38.6433C11.3096 38.7034 11.2797 38.7528 11.2228 38.7931C11.2199 38.7323 11.2402 38.679 11.3087 38.6433Z" fill="#DF96A6"/>
<path d="M13.8965 38.8805C13.8337 38.8371 13.8125 38.7809 13.8145 38.717C13.8926 38.7558 13.9071 38.8151 13.8965 38.8805Z" fill="#DF96A6"/>
<path d="M11.2008 38.866C11.2085 38.926 11.1941 38.9808 11.1381 39.0256C11.1275 38.9648 11.1371 38.9093 11.2008 38.866Z" fill="#DF96A6"/>
<path d="M11.1414 39.3511C11.2002 39.3974 11.2118 39.4552 11.205 39.5168C11.1346 39.4735 11.1288 39.4142 11.1414 39.3511Z" fill="#DF96A6"/>
<path d="M11.9661 40.1887C12.0404 40.1849 12.1031 40.2047 12.1542 40.2465C12.0799 40.251 12.0133 40.2396 11.9661 40.1887Z" fill="#DF96A6"/>
<path d="M20.401 30.594C20.4222 30.6252 20.4435 30.6556 20.4647 30.6867C20.4435 30.6556 20.4222 30.6252 20.401 30.594Z" fill="#DF96A6"/>
<path d="M20.6791 31.177C20.7013 31.2082 20.7235 31.2401 20.7447 31.2713C20.7235 31.2393 20.7013 31.2082 20.6791 31.177Z" fill="#DF96A6"/>
<path d="M20.5815 30.9673C20.6018 30.9954 20.6221 31.0235 20.6423 31.0509C20.6221 31.0228 20.6018 30.9947 20.5815 30.9673Z" fill="#DF96A6"/>
<path d="M13.1621 38.1934C13.1226 38.1763 13.082 38.1593 13.0425 38.1423C13.083 38.1593 13.1226 38.1763 13.1621 38.1934Z" fill="#DF96A6"/>
<path d="M20.3043 30.384C20.3246 30.4114 20.3448 30.4395 20.3651 30.4669C20.3448 30.4388 20.3246 30.4114 20.3043 30.384Z" fill="#DF96A6"/>
<path d="M11.8689 38.2063C11.84 38.2233 11.811 38.2403 11.7821 38.2573C11.811 38.2403 11.84 38.2233 11.8689 38.2063Z" fill="#DF96A6"/>
<path d="M13.8348 39.5897C13.8551 39.557 13.8744 39.5251 13.8947 39.4924C13.8744 39.5251 13.8551 39.5578 13.8348 39.5897Z" fill="#DF96A6"/>
<path d="M11.2277 39.5813C11.247 39.6079 11.2672 39.6353 11.2865 39.6619C11.2663 39.6353 11.247 39.6079 11.2277 39.5813Z" fill="#DF96A6"/>
<path d="M13.7467 39.7356C13.7679 39.709 13.7892 39.6816 13.8104 39.655C13.7882 39.6816 13.767 39.7082 13.7467 39.7356Z" fill="#DF96A6"/>
<path d="M11.3192 39.7288C11.3414 39.7554 11.3646 39.782 11.3867 39.8086C11.3646 39.782 11.3414 39.7554 11.3192 39.7288Z" fill="#DF96A6"/>
<path d="M13.6261 39.8832C13.655 39.8528 13.683 39.8217 13.712 39.7913C13.683 39.8224 13.655 39.8528 13.6261 39.8832Z" fill="#DF96A6"/>
<path d="M13.5371 39.9576C13.567 39.9325 13.5979 39.9074 13.6278 39.8831C13.5979 39.9074 13.568 39.9325 13.5371 39.9576Z" fill="#DF96A6"/>
<path d="M13.4421 40.03C13.473 40.0064 13.5048 39.9821 13.5357 39.9585C13.5048 39.9821 13.474 40.0056 13.4421 40.03Z" fill="#DF96A6"/>
<path d="M13.3523 38.2762C13.3118 38.2556 13.2712 38.2351 13.2307 38.2146C13.2703 38.2351 13.3118 38.2556 13.3523 38.2762Z" fill="#DF96A6"/>
<path d="M11.6888 40.0549C11.7139 40.0727 11.74 40.0897 11.7651 40.1075C11.74 40.0897 11.7139 40.0727 11.6888 40.0549Z" fill="#DF96A6"/>
<path d="M13.3282 40.0967C13.3668 40.0739 13.4045 40.0519 13.4431 40.0291C13.4045 40.0519 13.3668 40.0747 13.3282 40.0967Z" fill="#DF96A6"/>
<path d="M20.1229 30.0132C20.1441 30.0428 20.1654 30.0732 20.1866 30.1029C20.1654 30.0732 20.1441 30.0428 20.1229 30.0132Z" fill="#DF96A6"/>
<path d="M11.7736 40.1104C11.8141 40.1297 11.8556 40.1498 11.8961 40.1691C11.8556 40.1498 11.815 40.1305 11.7736 40.1104Z" fill="#DF96A6"/>
<path d="M13.1571 40.1745C13.1889 40.1582 13.2217 40.1412 13.2536 40.125C13.2217 40.142 13.1889 40.1582 13.1571 40.1745Z" fill="#DF96A6"/>
<path d="M34.3744 30.0307C34.3503 30.0391 34.3252 30.0467 34.3011 30.0535C34.2905 30.0261 34.2789 29.9988 34.2683 29.9714C34.2799 29.9623 34.2915 29.9532 34.303 29.944C34.3329 29.9349 34.3571 29.941 34.3754 29.9623C34.3706 29.9851 34.3696 30.0079 34.3744 30.0307Z" fill="#59595B"/>
<path d="M11.7076 38.2861C11.67 38.3105 11.6324 38.334 11.5947 38.3583C11.616 38.3181 11.6536 38.2945 11.7076 38.2861Z" fill="#DF96A6"/>
<path d="M12.9561 40.2427C12.9937 40.2272 13.0313 40.2118 13.0689 40.1963C13.0313 40.2118 12.9937 40.2272 12.9561 40.2427Z" fill="#DF96A6"/>
<path d="M34.3741 29.963C34.3509 29.9553 34.3268 29.9493 34.3017 29.9447C34.2959 29.9257 34.2882 29.9067 34.2786 29.8877C34.3104 29.9128 34.3422 29.9379 34.3741 29.963Z" fill="#DF96A6"/>
<path d="M33.6351 31.3489C33.666 31.3419 33.6959 31.3419 33.7258 31.3496C33.6949 31.3875 33.6641 31.3868 33.6351 31.3489Z" fill="#DF96A6"/>
<path d="M13.4474 38.3394C13.4165 38.3189 13.3866 38.2983 13.3557 38.2786C13.3866 38.2983 13.4165 38.3189 13.4474 38.3394Z" fill="#DF96A6"/>
<path d="M20.2302 29.8931C20.1936 29.922 20.1569 29.9508 20.1212 29.979C20.1338 29.9326 20.1704 29.9045 20.2302 29.8931Z" fill="#DF96A6"/>
<path d="M11.5996 38.3552C11.5861 38.3955 11.5543 38.4214 11.5032 38.4312C11.535 38.4062 11.5678 38.3803 11.5996 38.3552Z" fill="#DF96A6"/>
<path d="M13.5419 38.4099C13.5149 38.3894 13.4888 38.3689 13.4618 38.3491C13.4888 38.3689 13.5149 38.3894 13.5419 38.4099Z" fill="#DF96A6"/>
<path d="M33.5368 29.7213C33.4992 29.7059 33.4606 29.6912 33.423 29.6765C33.4606 29.6912 33.4982 29.7067 33.5368 29.7213Z" fill="#DF96A6"/>
<path d="M11.5068 38.4282C11.4759 38.4571 11.4451 38.4868 11.4142 38.5156C11.4258 38.4731 11.4566 38.4442 11.5068 38.4282Z" fill="#DF96A6"/>
<path d="M13.6339 38.4867C13.6079 38.4654 13.5828 38.4434 13.5568 38.4221C13.5828 38.4434 13.6079 38.4647 13.6339 38.4867Z" fill="#DF96A6"/>
<path d="M13.7185 38.5764C13.6722 38.562 13.6472 38.5346 13.6423 38.4958C13.6674 38.5225 13.6935 38.5491 13.7185 38.5764Z" fill="#DF96A6"/>
<path d="M11.3741 38.575C11.3539 38.5962 11.3326 38.6175 11.3124 38.6388C11.3326 38.6175 11.3539 38.5962 11.3741 38.575Z" fill="#DF96A6"/>
<path d="M20.7136 20.2132C18.9761 18.0254 19.445 14.946 22.0093 13.0592C25.4496 10.5271 30.5435 11.2105 32.9939 13.786C32.7691 13.7366 32.6389 13.656 32.5125 13.5663C31.2757 12.6944 29.8266 12.2474 28.1711 12.1463C25.8721 12.0057 23.9359 12.6214 22.3441 13.881C21.14 14.8327 20.4657 16.0057 20.2785 17.3671C20.1579 18.2474 20.3364 19.0729 20.6548 19.9C20.6876 19.9882 20.7802 20.0703 20.7136 20.2132Z" fill="#F8DD5F"/>
<path d="M40.2564 23.6836C38.5188 21.4959 38.9877 18.4164 41.552 16.5297C44.9923 13.9976 50.0862 14.681 52.5366 17.2564C52.3119 17.207 52.1816 17.1264 52.0552 17.0367C50.8184 16.1648 49.3694 15.7178 47.7139 15.6167C45.4149 15.4761 43.4786 16.0918 41.8868 17.3514C40.6828 18.3032 40.0084 19.4761 39.8213 20.8376C39.7007 21.7178 39.8791 22.5434 40.1975 23.3705C40.2303 23.4586 40.3229 23.5407 40.2564 23.6836Z" fill="#F8DD5F"/>
<path d="M27.1138 10.669C25.3763 8.48123 25.8451 5.40179 28.4094 3.51505C31.8497 0.982934 36.9436 1.66633 39.3941 4.24177C39.1693 4.19236 39.039 4.11179 38.9127 4.02209C37.6758 3.15017 36.2268 2.70319 34.5713 2.60209C32.2723 2.46146 30.336 3.0772 28.7442 4.33679C27.5402 5.28852 26.8658 6.46146 26.6787 7.82292C26.5581 8.7032 26.7366 9.52874 27.0549 10.3558C27.0877 10.444 27.1803 10.5261 27.1138 10.669Z" fill="#F8DD5F"/>
<path d="M13.095 10.669C11.3575 8.48123 11.8263 5.40179 14.3906 3.51505C17.8309 0.982934 22.9248 1.66633 25.3753 4.24177C25.1505 4.19236 25.0202 4.11179 24.8939 4.02209C23.657 3.15017 22.208 2.70319 20.5525 2.60209C18.2535 2.46146 16.3172 3.0772 14.7254 4.33679C13.5214 5.28852 12.847 6.46146 12.6599 7.82292C12.5393 8.7032 12.7178 9.52874 13.0361 10.3558C13.0689 10.444 13.1615 10.5261 13.095 10.669Z" fill="#F8DD5F"/>
</svg>
