<svg width="322" height="236" viewBox="0 0 322 236" fill="none" xmlns="http://www.w3.org/2000/svg">
<path opacity="0.1" d="M187.088 35.3196C166.445 34.6086 146.783 27.98 128.01 20.734C109.237 13.4879 90.6373 5.4572 70.4905 1.61605C57.5305 -0.854069 42.7097 -1.19683 32.2687 5.70364C22.2182 12.3492 18.9725 23.833 17.2285 34.4698C15.9148 42.4806 15.1426 50.8994 18.7388 58.4089C21.2379 63.6126 25.6747 67.9891 28.7438 72.9747C39.4156 90.3279 31.8783 111.723 20.3032 128.663C14.889 136.611 8.5828 144.192 4.39673 152.653C0.210656 161.114 -1.72708 170.805 1.93467 179.433C5.56792 187.988 14.2193 194.413 23.5917 198.931C42.6299 208.109 65.0649 210.738 86.9413 212.225C135.37 215.505 184.056 214.089 232.61 212.672C250.58 212.143 268.627 211.607 286.306 208.845C296.12 207.313 306.253 204.88 313.377 199.002C322.424 191.54 324.667 178.907 318.603 169.542C308.436 153.851 280.319 149.953 273.212 133.113C269.299 123.844 273.317 113.519 279.002 104.922C291.198 86.4782 311.641 70.3006 312.719 49.2196C313.459 34.7417 303.631 20.2411 288.437 13.3916C272.508 6.2107 250.423 7.11433 238.672 19.0004C226.578 31.2405 205.314 35.9484 187.088 35.3196Z" fill="#6C63FF"/>
<path d="M189.267 214.12L133.699 213.412L133.862 211.996L136.549 188.626H185.348L188.939 211.996L189.212 213.766L189.267 214.12Z" fill="#D0D2D5"/>
<path opacity="0.1" d="M189.212 213.766H161.483L133.699 213.412L133.862 211.995H188.939L189.212 213.766Z" fill="black"/>
<path d="M198.171 212.35H124.438V214.12H198.171V212.35Z" fill="#D0D2D5"/>
<path d="M268.52 48.2592C268.523 47.6539 268.406 47.054 268.176 46.4937C267.946 45.9334 267.607 45.4237 267.179 44.9936C266.75 44.5635 266.241 44.2215 265.679 43.9872C265.118 43.7528 264.516 43.6307 263.907 43.6277H57.9914C57.3823 43.6303 56.7797 43.7522 56.218 43.9864C55.6563 44.2206 55.1466 44.5625 54.7179 44.9926C54.2892 45.4227 53.9499 45.9326 53.7195 46.4931C53.4891 47.0535 53.3721 47.6537 53.3751 48.2592V172.332H268.52V48.2592Z" fill="#444053"/>
<path d="M53.375 171.1V185.631C53.375 186.848 53.8614 188.016 54.7271 188.876C55.5928 189.737 56.767 190.22 57.9914 190.22H263.907C265.131 190.22 266.304 189.736 267.169 188.875C268.034 188.015 268.52 186.848 268.52 185.631V171.1H53.375Z" fill="#D0D2D5"/>
<path opacity="0.1" d="M260.681 51.4177H62.2773V162.955H260.681V51.4177Z" fill="#6C63FF"/>
<path d="M162.016 184.705C162.744 184.706 163.464 184.542 164.119 184.226C164.775 183.91 165.349 183.45 165.8 182.881C165.937 182.707 166.062 182.525 166.173 182.334L163.535 181.904L166.384 181.926C166.659 181.334 166.809 180.692 166.825 180.041C166.84 179.389 166.722 178.741 166.475 178.136L162.648 180.119L166.179 177.541C165.847 176.976 165.402 176.484 164.871 176.096C164.34 175.709 163.735 175.434 163.093 175.288C162.451 175.143 161.785 175.13 161.138 175.251C160.491 175.372 159.875 175.624 159.33 175.992C158.785 176.359 158.321 176.833 157.968 177.386C157.615 177.939 157.38 178.558 157.277 179.205C157.175 179.851 157.207 180.512 157.372 181.146C157.537 181.78 157.832 182.373 158.237 182.889C158.688 183.456 159.262 183.914 159.917 184.229C160.571 184.543 161.289 184.706 162.016 184.705Z" fill="#1A88E1"/>
<path opacity="0.1" d="M166.824 190.22L188.991 212.35L185.592 190.22H166.824Z" fill="black"/>
<path d="M197.592 71.5413H68.8464C68.4372 71.5413 68.1055 71.871 68.1055 72.2778V148.421C68.1055 148.828 68.4372 149.157 68.8464 149.157H197.592C198.001 149.157 198.333 148.828 198.333 148.421V72.2778C198.333 71.871 198.001 71.5413 197.592 71.5413Z" fill="white"/>
<path d="M260.739 51.4292H62.4062V57.9444H260.739V51.4292Z" fill="white"/>
<path d="M68.7387 52.5623H63.484C63.3612 52.5623 63.2617 52.6612 63.2617 52.7832V56.3071C63.2617 56.4291 63.3612 56.528 63.484 56.528H68.7387C68.8614 56.528 68.9609 56.4291 68.9609 56.3071V52.7832C68.9609 52.6612 68.8614 52.5623 68.7387 52.5623Z" fill="#1A88E1"/>
<path opacity="0.3" d="M190.759 52.5623H131.247C131.156 52.5623 131.082 52.6358 131.082 52.7266V56.3637C131.082 56.4545 131.156 56.528 131.247 56.528H190.759C190.85 56.528 190.924 56.4545 190.924 56.3637V52.7266C190.924 52.6358 190.85 52.5623 190.759 52.5623Z" fill="#6C63FF"/>
<path d="M189.149 54.953H189.004L188.949 54.9076C189.132 54.6919 189.233 54.4192 189.234 54.1371C189.233 53.9054 189.162 53.6794 189.031 53.4876C188.901 53.2958 188.716 53.1469 188.5 53.0595C188.284 52.9721 188.047 52.9503 187.818 52.9967C187.59 53.0431 187.381 53.1558 187.217 53.3204C187.053 53.485 186.941 53.6943 186.897 53.9217C186.852 54.1491 186.876 54.3846 186.966 54.5983C187.056 54.8121 187.208 54.9945 187.402 55.1227C187.596 55.2508 187.824 55.3189 188.058 55.3184C188.341 55.3167 188.615 55.2165 188.833 55.0351L188.887 55.0804V55.2277L189.799 56.1342L190.084 55.8509L189.149 54.953ZM188.055 54.953C187.892 54.9535 187.732 54.9059 187.596 54.8162C187.46 54.7264 187.354 54.5986 187.292 54.4489C187.229 54.2992 187.212 54.1344 187.244 53.9753C187.276 53.8162 187.354 53.6701 187.47 53.5554C187.585 53.4408 187.732 53.3627 187.892 53.3312C188.052 53.2998 188.218 53.3162 188.368 53.3785C188.519 53.4408 188.648 53.5462 188.738 53.6813C188.828 53.8163 188.876 53.975 188.875 54.1371C188.876 54.2445 188.855 54.3509 188.814 54.4502C188.773 54.5495 188.713 54.6398 188.637 54.7157C188.56 54.7916 188.47 54.8517 188.37 54.8924C188.27 54.9331 188.163 54.9537 188.055 54.953Z" fill="#444053"/>
<path d="M257.889 56.528C258.991 56.528 259.884 55.6403 259.884 54.5451C259.884 53.45 258.991 52.5623 257.889 52.5623C256.788 52.5623 255.895 53.45 255.895 54.5451C255.895 55.6403 256.788 56.528 257.889 56.528Z" fill="#1A88E1"/>
<path d="M225.568 65.0261H208.431C208.048 65.0261 207.738 65.3343 207.738 65.7145V76.8017C207.738 77.1818 208.048 77.49 208.431 77.49H225.568C225.951 77.49 226.261 77.1818 226.261 76.8017V65.7145C226.261 65.3343 225.951 65.0261 225.568 65.0261Z" fill="white"/>
<path d="M254.864 65.0261H231.275C231.179 65.0261 231.102 65.1035 231.102 65.1989V66.8362C231.102 66.9317 231.179 67.009 231.275 67.009H254.864C254.96 67.009 255.038 66.9317 255.038 66.8362V65.1989C255.038 65.1035 254.96 65.0261 254.864 65.0261Z" fill="white"/>
<path d="M254.864 69.2749H231.275C231.179 69.2749 231.102 69.3523 231.102 69.4477V71.085C231.102 71.1804 231.179 71.2578 231.275 71.2578H254.864C254.96 71.2578 255.038 71.1804 255.038 71.085V69.4477C255.038 69.3523 254.96 69.2749 254.864 69.2749Z" fill="white"/>
<path d="M254.864 73.5242H231.275C231.179 73.5242 231.102 73.6015 231.102 73.697V75.3343C231.102 75.4297 231.179 75.5071 231.275 75.5071H254.864C254.96 75.5071 255.038 75.4297 255.038 75.3343V73.697C255.038 73.6015 254.96 73.5242 254.864 73.5242Z" fill="white"/>
<path d="M225.568 84.5715H208.431C208.048 84.5715 207.738 84.8797 207.738 85.2599V96.3471C207.738 96.7273 208.048 97.0354 208.431 97.0354H225.568C225.951 97.0354 226.261 96.7273 226.261 96.3471V85.2599C226.261 84.8797 225.951 84.5715 225.568 84.5715Z" fill="white"/>
<path d="M254.864 84.5715H231.275C231.179 84.5715 231.102 84.6489 231.102 84.7443V86.3816C231.102 86.4771 231.179 86.5544 231.275 86.5544H254.864C254.96 86.5544 255.038 86.4771 255.038 86.3816V84.7443C255.038 84.6489 254.96 84.5715 254.864 84.5715Z" fill="white"/>
<path d="M254.864 88.821H231.275C231.179 88.821 231.102 88.8984 231.102 88.9938V90.6311C231.102 90.7266 231.179 90.8039 231.275 90.8039H254.864C254.96 90.8039 255.038 90.7266 255.038 90.6311V88.9938C255.038 88.8984 254.96 88.821 254.864 88.821Z" fill="white"/>
<path d="M254.85 93.0701H231.29C231.186 93.0701 231.102 93.1538 231.102 93.257V94.866C231.102 94.9693 231.186 95.053 231.29 95.053H254.85C254.954 95.053 255.038 94.9693 255.038 94.866V93.257C255.038 93.1538 254.954 93.0701 254.85 93.0701Z" fill="white"/>
<path d="M225.568 104.117H208.431C208.048 104.117 207.738 104.426 207.738 104.806V115.893C207.738 116.273 208.048 116.581 208.431 116.581H225.568C225.951 116.581 226.261 116.273 226.261 115.893V104.806C226.261 104.426 225.951 104.117 225.568 104.117Z" fill="white"/>
<path d="M254.85 104.117H231.29C231.186 104.117 231.102 104.201 231.102 104.304V105.913C231.102 106.017 231.186 106.1 231.29 106.1H254.85C254.954 106.1 255.038 106.017 255.038 105.913V104.304C255.038 104.201 254.954 104.117 254.85 104.117Z" fill="white"/>
<path d="M254.85 108.367H231.29C231.186 108.367 231.102 108.45 231.102 108.554V110.163C231.102 110.266 231.186 110.35 231.29 110.35H254.85C254.954 110.35 255.038 110.266 255.038 110.163V108.554C255.038 108.45 254.954 108.367 254.85 108.367Z" fill="white"/>
<path d="M254.85 112.616H231.29C231.186 112.616 231.102 112.699 231.102 112.803V114.412C231.102 114.515 231.186 114.599 231.29 114.599H254.85C254.954 114.599 255.038 114.515 255.038 114.412V112.803C255.038 112.699 254.954 112.616 254.85 112.616Z" fill="white"/>
<path d="M225.568 123.663H208.431C208.048 123.663 207.738 123.971 207.738 124.351V135.439C207.738 135.819 208.048 136.127 208.431 136.127H225.568C225.951 136.127 226.261 135.819 226.261 135.439V124.351C226.261 123.971 225.951 123.663 225.568 123.663Z" fill="white"/>
<path d="M254.85 123.663H231.29C231.186 123.663 231.102 123.747 231.102 123.85V125.459C231.102 125.562 231.186 125.646 231.29 125.646H254.85C254.954 125.646 255.038 125.562 255.038 125.459V123.85C255.038 123.747 254.954 123.663 254.85 123.663Z" fill="white"/>
<path d="M254.85 127.912H231.29C231.186 127.912 231.102 127.996 231.102 128.099V129.708C231.102 129.812 231.186 129.895 231.29 129.895H254.85C254.954 129.895 255.038 129.812 255.038 129.708V128.099C255.038 127.996 254.954 127.912 254.85 127.912Z" fill="white"/>
<path d="M254.85 132.161H231.29C231.186 132.161 231.102 132.245 231.102 132.348V133.957C231.102 134.06 231.186 134.144 231.29 134.144H254.85C254.954 134.144 255.038 134.06 255.038 133.957V132.348C255.038 132.245 254.954 132.161 254.85 132.161Z" fill="white"/>
<path d="M225.568 143.209H208.431C208.048 143.209 207.738 143.517 207.738 143.897V154.984C207.738 155.364 208.048 155.673 208.431 155.673H225.568C225.951 155.673 226.261 155.364 226.261 154.984V143.897C226.261 143.517 225.951 143.209 225.568 143.209Z" fill="white"/>
<path d="M254.85 143.209H231.29C231.186 143.209 231.102 143.292 231.102 143.396V145.005C231.102 145.108 231.186 145.192 231.29 145.192H254.85C254.954 145.192 255.038 145.108 255.038 145.005V143.396C255.038 143.292 254.954 143.209 254.85 143.209Z" fill="white"/>
<path d="M254.85 147.458H231.29C231.186 147.458 231.102 147.542 231.102 147.645V149.254C231.102 149.357 231.186 149.441 231.29 149.441H254.85C254.954 149.441 255.038 149.357 255.038 149.254V147.645C255.038 147.542 254.954 147.458 254.85 147.458Z" fill="white"/>
<path d="M254.85 151.707H231.29C231.186 151.707 231.102 151.791 231.102 151.894V153.503C231.102 153.606 231.186 153.69 231.29 153.69H254.85C254.954 153.69 255.038 153.606 255.038 153.503V151.894C255.038 151.791 254.954 151.707 254.85 151.707Z" fill="white"/>
<path opacity="0.1" d="M116.193 92.1096H86.8906V93.6194H116.193V92.1096Z" fill="#6C63FF"/>
<path opacity="0.1" d="M92.3172 84.1272H89.4961V92.1098H92.3172V84.1272Z" fill="#6C63FF"/>
<path opacity="0.1" d="M96.4383 84.1272H93.6172V92.1098H96.4383V84.1272Z" fill="#6C63FF"/>
<path opacity="0.1" d="M100.563 84.1272H97.7422V92.1098H100.563V84.1272Z" fill="#6C63FF"/>
<path opacity="0.1" d="M104.684 84.1272H101.863V92.1098H104.684V84.1272Z" fill="#6C63FF"/>
<path opacity="0.1" d="M108.809 84.1272H105.988V92.1098H108.809V84.1272Z" fill="#6C63FF"/>
<path opacity="0.1" d="M112.934 84.1272H110.113V92.1098H112.934V84.1272Z" fill="#6C63FF"/>
<path opacity="0.1" d="M92.3172 85.637H89.4961V86.5009H92.3172V85.637Z" fill="#6C63FF"/>
<path opacity="0.1" d="M96.4383 85.637H93.6172V86.5009H96.4383V85.637Z" fill="#6C63FF"/>
<path opacity="0.1" d="M100.563 85.637H97.7422V86.5009H100.563V85.637Z" fill="#6C63FF"/>
<path opacity="0.1" d="M104.684 85.637H101.863V86.5009H104.684V85.637Z" fill="#6C63FF"/>
<path opacity="0.1" d="M108.809 85.637H105.988V86.5009H108.809V85.637Z" fill="#6C63FF"/>
<path opacity="0.1" d="M112.934 85.637H110.113V86.5009H112.934V85.637Z" fill="#6C63FF"/>
<path opacity="0.1" d="M92.3172 89.5208H89.4961V90.3847H92.3172V89.5208Z" fill="#6C63FF"/>
<path opacity="0.1" d="M96.4383 89.5208H93.6172V90.3847H96.4383V89.5208Z" fill="#6C63FF"/>
<path opacity="0.1" d="M100.563 89.5208H97.7422V90.3847H100.563V89.5208Z" fill="#6C63FF"/>
<path opacity="0.1" d="M104.684 89.5208H101.863V90.3847H104.684V89.5208Z" fill="#6C63FF"/>
<path opacity="0.1" d="M108.809 89.5208H105.988V90.3847H108.809V89.5208Z" fill="#6C63FF"/>
<path opacity="0.1" d="M112.934 89.5208H110.113V90.3847H112.934V89.5208Z" fill="#6C63FF"/>
<path opacity="0.1" d="M180.439 95.9932H151.137V97.503H180.439V95.9932Z" fill="#6C63FF"/>
<path opacity="0.1" d="M156.559 88.0105H153.738V95.9931H156.559V88.0105Z" fill="#6C63FF"/>
<path opacity="0.1" d="M160.684 88.0105H157.863V95.9931H160.684V88.0105Z" fill="#6C63FF"/>
<path opacity="0.1" d="M164.805 88.0105H161.984V95.9931H164.805V88.0105Z" fill="#6C63FF"/>
<path opacity="0.1" d="M168.934 88.0105H166.113V95.9931H168.934V88.0105Z" fill="#6C63FF"/>
<path opacity="0.1" d="M173.055 88.0105H170.234V95.9931H173.055V88.0105Z" fill="#6C63FF"/>
<path opacity="0.1" d="M177.18 88.0105H174.359V95.9931H177.18V88.0105Z" fill="#6C63FF"/>
<path opacity="0.1" d="M156.559 89.5208H153.738V90.3847H156.559V89.5208Z" fill="#6C63FF"/>
<path opacity="0.1" d="M160.684 89.5208H157.863V90.3847H160.684V89.5208Z" fill="#6C63FF"/>
<path opacity="0.1" d="M164.805 89.5208H161.984V90.3847H164.805V89.5208Z" fill="#6C63FF"/>
<path opacity="0.1" d="M168.934 89.5208H166.113V90.3847H168.934V89.5208Z" fill="#6C63FF"/>
<path opacity="0.1" d="M173.055 89.5208H170.234V90.3847H173.055V89.5208Z" fill="#6C63FF"/>
<path opacity="0.1" d="M177.18 89.5208H174.359V90.3847H177.18V89.5208Z" fill="#6C63FF"/>
<path opacity="0.1" d="M156.559 93.4041H153.738V94.268H156.559V93.4041Z" fill="#6C63FF"/>
<path opacity="0.1" d="M160.684 93.4041H157.863V94.268H160.684V93.4041Z" fill="#6C63FF"/>
<path opacity="0.1" d="M164.805 93.4041H161.984V94.268H164.805V93.4041Z" fill="#6C63FF"/>
<path opacity="0.1" d="M168.934 93.4041H166.113V94.268H168.934V93.4041Z" fill="#6C63FF"/>
<path opacity="0.1" d="M173.055 93.4041H170.234V94.268H173.055V93.4041Z" fill="#6C63FF"/>
<path opacity="0.1" d="M177.18 93.4041H174.359V94.268H177.18V93.4041Z" fill="#6C63FF"/>
<path opacity="0.1" d="M180.439 106.995H151.137V108.505H180.439V106.995Z" fill="#6C63FF"/>
<path opacity="0.1" d="M156.559 99.0129H153.738V106.995H156.559V99.0129Z" fill="#6C63FF"/>
<path opacity="0.1" d="M160.684 99.0129H157.863V106.995H160.684V99.0129Z" fill="#6C63FF"/>
<path opacity="0.1" d="M164.805 99.0129H161.984V106.995H164.805V99.0129Z" fill="#6C63FF"/>
<path opacity="0.1" d="M168.934 99.0129H166.113V106.995H168.934V99.0129Z" fill="#6C63FF"/>
<path opacity="0.1" d="M173.055 99.0129H170.234V106.995H173.055V99.0129Z" fill="#6C63FF"/>
<path opacity="0.1" d="M177.18 99.0129H174.359V106.995H177.18V99.0129Z" fill="#6C63FF"/>
<path opacity="0.1" d="M156.559 100.523H153.738V101.387H156.559V100.523Z" fill="#6C63FF"/>
<path opacity="0.1" d="M160.684 100.523H157.863V101.387H160.684V100.523Z" fill="#6C63FF"/>
<path opacity="0.1" d="M164.805 100.523H161.984V101.387H164.805V100.523Z" fill="#6C63FF"/>
<path opacity="0.1" d="M168.934 100.523H166.113V101.387H168.934V100.523Z" fill="#6C63FF"/>
<path opacity="0.1" d="M173.055 100.523H170.234V101.387H173.055V100.523Z" fill="#6C63FF"/>
<path opacity="0.1" d="M177.18 100.523H174.359V101.387H177.18V100.523Z" fill="#6C63FF"/>
<path opacity="0.1" d="M156.559 104.406H153.738V105.27H156.559V104.406Z" fill="#6C63FF"/>
<path opacity="0.1" d="M160.684 104.406H157.863V105.27H160.684V104.406Z" fill="#6C63FF"/>
<path opacity="0.1" d="M164.805 104.406H161.984V105.27H164.805V104.406Z" fill="#6C63FF"/>
<path opacity="0.1" d="M168.934 104.406H166.113V105.27H168.934V104.406Z" fill="#6C63FF"/>
<path opacity="0.1" d="M173.055 104.406H170.234V105.27H173.055V104.406Z" fill="#6C63FF"/>
<path opacity="0.1" d="M177.18 104.406H174.359V105.27H177.18V104.406Z" fill="#6C63FF"/>
<path opacity="0.1" d="M104.864 109.182C104.645 108.904 104.445 108.611 104.265 108.307L108.486 107.619L103.926 107.653C103.489 106.706 103.25 105.681 103.225 104.64C103.199 103.598 103.387 102.563 103.778 101.596L109.89 104.746L104.245 100.622C104.771 99.7059 105.481 98.9077 106.331 98.2775C107.181 97.6473 108.153 97.1987 109.186 96.9597C110.219 96.7208 111.291 96.6968 112.333 96.8891C113.376 97.0814 114.368 97.486 115.246 98.0774C116.124 98.6688 116.869 99.4342 117.435 100.326C118.002 101.217 118.376 102.215 118.536 103.258C118.696 104.3 118.637 105.364 118.363 106.382C118.09 107.401 117.607 108.352 116.946 109.177C117.29 109.607 117.584 110.075 117.824 110.57L112.347 113.403L118.186 111.457C118.594 112.66 118.695 113.946 118.478 115.198C118.262 116.449 117.735 117.628 116.946 118.626C117.841 119.754 118.398 121.109 118.554 122.537C118.71 123.965 118.458 125.408 117.828 126.7C117.197 127.992 116.214 129.082 114.99 129.844C113.765 130.607 112.35 131.011 110.905 131.011C109.46 131.011 108.045 130.607 106.82 129.844C105.596 129.082 104.612 127.992 103.982 126.7C103.352 125.408 103.1 123.965 103.256 122.537C103.412 121.109 103.969 119.754 104.864 118.626C103.798 117.279 103.219 115.614 103.219 113.9C103.219 112.186 103.798 110.521 104.864 109.174V109.182Z" fill="#6C63FF"/>
<path opacity="0.1" d="M118.593 113.907C118.593 115.62 118.013 117.282 116.946 118.626C117.841 119.754 118.398 121.109 118.554 122.537C118.71 123.965 118.458 125.408 117.828 126.7C117.197 127.992 116.214 129.082 114.99 129.844C113.765 130.607 112.35 131.011 110.905 131.011C109.46 131.011 108.045 130.607 106.82 129.844C105.596 129.082 104.612 127.992 103.982 126.7C103.352 125.408 103.1 123.965 103.256 122.537C103.412 121.109 103.969 119.754 104.864 118.626C103.829 117.332 118.593 113.049 118.593 113.907Z" fill="#6C63FF"/>
<path opacity="0.2" d="M112.138 133.039C112.152 133.059 112.164 133.08 112.175 133.102H109.565C109.579 133.082 109.588 133.059 109.602 133.039C109.377 132.651 109.261 132.21 109.266 131.762C109.265 131.455 109.318 131.15 109.422 130.861C109.568 130.884 109.747 130.909 109.955 130.932C110.561 130.992 111.171 130.992 111.776 130.932C111.951 130.915 112.131 130.892 112.315 130.864C112.313 130.868 112.313 130.873 112.315 130.878C112.419 131.162 112.471 131.462 112.469 131.764C112.474 132.211 112.36 132.651 112.138 133.039Z" fill="#3F3D56"/>
<path opacity="0.1" d="M102.755 133.102H88.222C88.1906 133.019 88.1621 132.932 88.1365 132.847C87.6245 131.21 87.6837 129.449 88.3046 127.85C86.8859 126.875 85.8378 125.454 85.3288 123.816C84.8198 122.178 84.8793 120.417 85.4977 118.816C85.2057 118.616 84.9286 118.396 84.6685 118.156L88.4927 116.261L84.1442 117.632C83.4449 116.857 82.9124 115.947 82.5792 114.96C82.246 113.973 82.1192 112.928 82.2064 111.89L88.9913 113.108L82.3746 110.822C82.6028 109.792 83.0432 108.819 83.668 107.966C84.2929 107.112 85.0886 106.397 86.0052 105.864C86.9217 105.331 87.9393 104.993 88.9938 104.87C90.0483 104.748 91.117 104.843 92.1326 105.151C93.1482 105.459 94.0886 105.972 94.8949 106.659C95.7011 107.346 96.3556 108.191 96.8173 109.141C97.2789 110.092 97.5376 111.127 97.5772 112.182C97.6168 113.236 97.4363 114.288 97.0472 115.27C97.5061 115.587 97.9293 115.953 98.3096 116.36L93.9155 120.669L98.9165 117.094C99.666 118.125 100.145 119.325 100.31 120.587C100.475 121.848 100.322 123.13 99.8626 124.317C101.243 125.267 102.272 126.64 102.795 128.226C103.317 129.812 103.303 131.524 102.755 133.102Z" fill="#6C63FF"/>
<path opacity="0.1" d="M102.757 133.102H88.2235C88.1922 133.02 88.1637 132.932 88.138 132.847C87.626 131.21 87.6853 129.449 88.3062 127.85C86.9383 126.909 99.7701 118.482 100.024 119.304C100.536 120.941 100.476 122.703 99.8556 124.303C101.24 125.253 102.274 126.628 102.798 128.217C103.321 129.806 103.307 131.522 102.757 133.102Z" fill="#6C63FF"/>
<path opacity="0.1" d="M168.511 122.751C167.628 124.223 166.272 125.357 164.661 125.969C164.73 126.514 164.741 127.065 164.693 127.612L158.535 127.243L164.55 128.541C164.373 129.356 164.063 130.137 163.633 130.852C163.108 131.729 162.41 132.49 161.581 133.09H153.197V133.308H144.648C144.666 133.235 144.683 133.164 144.703 133.09C145.015 131.918 145.602 130.837 146.417 129.935C147.232 129.033 148.251 128.337 149.39 127.904C149.171 126.203 149.534 124.479 150.419 123.008C151.304 121.536 152.661 120.403 154.272 119.791C154.226 119.44 154.206 119.087 154.209 118.734L158.184 120.295L154.252 117.998C154.368 116.962 154.695 115.961 155.214 115.056C155.733 114.151 156.432 113.361 157.269 112.734L160.891 118.564L158.176 112.145C159.655 111.331 161.363 111.025 163.035 111.273C164.707 111.52 166.25 112.309 167.427 113.516C168.603 114.723 169.347 116.281 169.543 117.951C169.739 119.62 169.376 121.307 168.511 122.751Z" fill="#6C63FF"/>
<path opacity="0.1" d="M163.633 130.864C163.108 131.74 162.41 132.502 161.581 133.102H153.197V133.32H144.648C144.666 133.246 144.683 133.175 144.703 133.102C145.015 131.93 145.602 130.848 146.417 129.947C147.232 129.045 148.251 128.348 149.39 127.915C149.319 127.349 150.975 127.434 153.183 127.802C157.512 128.524 163.926 130.377 163.633 130.864Z" fill="#6C63FF"/>
<path d="M127.294 110.465C127.294 110.465 128.348 116.131 125.994 117.981C123.641 119.83 127.989 130.918 135.164 129.623C142.34 128.329 145.263 119.029 145.263 119.029C145.263 119.029 138.077 117.55 140.741 110.035L127.294 110.465Z" fill="#EE8E9E"/>
<path opacity="0.1" d="M127.294 110.465C127.294 110.465 128.348 116.131 125.994 117.981C123.641 119.83 127.989 130.918 135.164 129.623C142.34 128.329 145.263 119.029 145.263 119.029C145.263 119.029 138.077 117.55 140.741 110.035L127.294 110.465Z" fill="black"/>
<path d="M133.647 114.624C140.218 114.624 145.544 109.329 145.544 102.797C145.544 96.2656 140.218 90.9707 133.647 90.9707C127.077 90.9707 121.75 96.2656 121.75 102.797C121.75 109.329 127.077 114.624 133.647 114.624Z" fill="#EE8E9E"/>
<path d="M153.199 125.281V133.32H113.914V125.646C113.914 124.673 114.202 123.721 114.743 122.91C115.284 122.099 116.053 121.464 116.955 121.085L118.08 120.609C120.93 119.403 124.392 117.904 125.523 117.281C125.647 117.219 125.764 117.144 125.871 117.057C126.489 116.442 126.367 117.241 126.367 117.241C126.367 117.241 126.35 117.394 126.338 117.658C126.27 119.468 126.532 126.581 134.919 125.989C143.1 125.422 143.467 119.921 143.385 118.304C143.38 118.154 143.368 118.004 143.348 117.856C143.913 117.99 144.467 118.17 145.003 118.394C146.713 119.023 149.238 120.032 149.913 120.507C150.124 120.655 150.38 120.808 150.66 120.963C150.977 121.139 151.273 121.349 151.543 121.589C152.064 122.055 152.481 122.624 152.766 123.26C153.051 123.896 153.199 124.584 153.199 125.281Z" fill="#6C63FF"/>
<path opacity="0.1" d="M145.002 118.394C144.309 121.584 142.135 127.558 134.299 127.714C125.949 127.878 125.465 119.624 125.519 117.281C125.645 117.221 125.762 117.146 125.87 117.057C126.491 116.442 126.365 117.241 126.365 117.241C126.365 117.241 125.314 126.666 134.914 125.989C144.515 125.312 143.335 117.859 143.335 117.859C143.335 117.814 144.05 118.06 145.002 118.394Z" fill="black"/>
<path d="M119.563 103.39C119.958 103.291 120.373 103.313 120.756 103.452C121.138 103.591 121.47 103.84 121.709 104.169C122.142 104.772 122.207 105.5 122.261 106.197C122.777 106.304 123.068 105.724 123.116 105.285C123.307 103.497 123.321 101.676 123.926 99.9478C124.53 98.2199 125.849 96.5486 127.875 95.8885C128.567 95.6501 129.307 95.5802 130.032 95.6846C130.463 95.7554 130.867 95.9055 131.295 95.9679C132.776 96.2115 134.386 95.5146 135.774 95.999C136.646 96.3049 137.199 97.0103 137.606 97.7156C137.784 98.096 138.025 98.4437 138.319 98.7439C138.909 99.2708 139.832 99.4068 140.678 99.5711C141.525 99.7354 142.448 100.021 142.81 100.67C143.135 101.257 142.895 101.934 142.787 102.568C142.62 103.573 142.789 104.605 143.269 105.506C143.425 105.789 143.745 106.132 144.124 106.038C144.293 105.981 144.437 105.866 144.528 105.712C145.5 104.358 145.474 102.596 146.694 101.375C147.101 100.968 147.629 100.65 148.025 100.242C148.324 99.9401 148.544 99.5688 148.665 99.1615C148.785 98.7542 148.802 98.3237 148.714 97.9083C148.495 96.9735 147.743 96.2086 147.136 95.3871C146.347 94.3464 145.773 93.1615 145.446 91.9001C145.389 91.7534 145.389 91.5907 145.446 91.444C145.561 91.2953 145.709 91.175 145.879 91.0928C146.209 90.8726 146.448 90.5404 146.549 90.1582C146.651 89.7761 146.609 89.3701 146.432 89.0164C146.087 88.3167 145.329 87.7842 144.474 87.4669C143.607 87.1837 142.712 86.9938 141.804 86.9004C141.206 86.9853 140.505 86.6483 140.319 86.1724C140.237 85.9599 140.237 85.7305 140.154 85.518C140.042 85.3046 139.88 85.1212 139.681 84.9832C139.483 84.8451 139.254 84.7565 139.014 84.7249C138.504 84.6429 137.983 84.6797 137.49 84.8325C136.92 84.9911 136.273 85.2291 135.78 84.9515C135.521 84.807 135.378 84.5436 135.099 84.4246C134.529 84.1866 133.942 84.6682 133.534 85.0648C133.142 85.4809 132.66 85.8033 132.124 86.0081C131.841 86.1152 131.538 86.1603 131.236 86.1402C130.934 86.1202 130.64 86.0355 130.374 85.8919C129.984 85.6455 129.787 85.2489 129.477 84.9345C128.89 84.4144 128.139 84.1139 127.354 84.0847C126.546 84.042 125.736 84.1301 124.957 84.3453C123.469 84.7057 122.049 85.2985 120.748 86.1015C120.094 86.459 119.539 86.9718 119.132 87.5944C118.892 88.0717 118.768 88.5987 118.771 89.1325C118.708 90.8067 119.266 92.5686 120.723 93.7413C119.833 94.1096 119.534 95.0132 119.326 95.8149C118.993 97.0953 118.659 98.3955 118.785 99.6985C118.848 100.373 119.033 101.047 118.933 101.718C118.853 102.034 118.809 102.358 118.802 102.684C118.844 102.864 118.939 103.027 119.074 103.152C119.21 103.278 119.38 103.361 119.563 103.39Z" fill="#454B69"/>
<g opacity="0.1">
<path opacity="0.1" d="M148.532 97.3811C148.404 97.6587 148.231 97.9133 148.019 98.1346C147.623 98.5482 147.096 98.8683 146.688 99.2677C145.469 100.48 145.494 102.253 144.523 103.607C144.432 103.761 144.288 103.875 144.118 103.93C143.748 104.027 143.428 103.692 143.263 103.398C143.075 103.039 142.932 102.658 142.839 102.265C142.819 102.364 142.799 102.463 142.782 102.548C142.614 103.553 142.783 104.585 143.263 105.485C143.42 105.769 143.739 106.111 144.118 106.018C144.288 105.961 144.431 105.845 144.523 105.692C145.494 104.338 145.469 102.576 146.688 101.355C147.096 100.947 147.623 100.63 148.019 100.222C148.319 99.92 148.539 99.5487 148.659 99.1414C148.779 98.7341 148.797 98.3036 148.709 97.8882C148.665 97.7143 148.606 97.5446 148.532 97.3811Z" fill="black"/>
<path opacity="0.1" d="M145.874 88.9964C145.704 89.0778 145.556 89.1982 145.441 89.3477C145.384 89.4934 145.384 89.6551 145.441 89.8009C145.554 90.2411 145.697 90.6727 145.871 91.0926C146.202 90.8725 146.44 90.5402 146.542 90.1581C146.644 89.7759 146.602 89.37 146.424 89.0162C146.369 88.8996 146.302 88.7886 146.225 88.6848C146.124 88.8049 146.006 88.9098 145.874 88.9964Z" fill="black"/>
<path opacity="0.1" d="M120.741 91.6225C119.732 90.7955 119.067 89.6257 118.875 88.3394C118.824 88.5932 118.795 88.851 118.789 89.1099C118.724 90.3468 119.052 91.5727 119.727 92.6139C119.931 92.1707 120.292 91.8178 120.741 91.6225Z" fill="black"/>
<path opacity="0.1" d="M142.789 100.48C142.897 99.8428 143.136 99.1658 142.811 98.5823C142.45 97.9307 141.526 97.6475 140.68 97.4832C139.834 97.3189 138.91 97.1801 138.321 96.656C138.026 96.3558 137.785 96.0081 137.608 95.6277C137.206 94.9224 136.648 94.2114 135.776 93.9111C134.388 93.4267 132.778 94.1208 131.296 93.88C130.869 93.8092 130.464 93.6619 130.034 93.5967C129.309 93.4914 128.569 93.5613 127.877 93.8006C125.851 94.4635 124.531 96.1348 123.927 97.8599C123.323 99.585 123.309 101.406 123.118 103.197C123.069 103.633 122.779 104.217 122.263 104.109C122.209 103.409 122.143 102.693 121.71 102.078C121.471 101.75 121.139 101.501 120.757 101.363C120.374 101.225 119.959 101.203 119.564 101.302C119.325 101.248 119.112 101.113 118.963 100.919C118.994 101.179 118.994 101.441 118.963 101.701C118.883 102.017 118.839 102.341 118.832 102.667C118.869 102.848 118.959 103.015 119.092 103.144C119.224 103.274 119.393 103.361 119.576 103.395C119.971 103.297 120.386 103.319 120.769 103.457C121.151 103.596 121.483 103.846 121.722 104.174C122.155 104.777 122.22 105.505 122.274 106.202C122.79 106.31 123.081 105.729 123.129 105.29C123.32 103.503 123.334 101.681 123.939 99.9533C124.543 98.2253 125.862 96.554 127.888 95.894C128.58 95.6556 129.32 95.5856 130.045 95.6901C130.476 95.7609 130.88 95.911 131.308 95.9733C132.789 96.2169 134.399 95.5201 135.787 96.0045C136.659 96.3104 137.212 97.0158 137.619 97.7211C137.797 98.1015 138.038 98.4492 138.332 98.7494C138.922 99.2763 139.845 99.4122 140.691 99.5765C141.538 99.7408 142.401 100.007 142.78 100.608C142.766 100.565 142.78 100.523 142.789 100.48Z" fill="black"/>
<path opacity="0.1" d="M118.951 99.5991C118.998 99.0714 118.967 98.5397 118.857 98.0212C118.774 98.5686 118.756 99.1239 118.803 99.6755C118.803 99.8172 118.834 99.9588 118.854 100.098C118.886 99.9305 118.929 99.7662 118.951 99.5991Z" fill="black"/>
</g>
<path d="M105.004 144.75V139.637C105.004 139.598 105.019 139.562 105.046 139.535C105.074 139.507 105.111 139.492 105.149 139.492H105.733C105.772 139.492 105.809 139.507 105.836 139.535C105.863 139.562 105.879 139.598 105.879 139.637V141.764L108.25 139.58C108.305 139.534 108.373 139.504 108.445 139.494C108.517 139.484 108.59 139.495 108.656 139.524C108.723 139.554 108.779 139.601 108.82 139.661C108.86 139.721 108.883 139.791 108.885 139.863V144.495C108.883 144.567 108.86 144.637 108.82 144.697C108.779 144.757 108.723 144.804 108.656 144.834C108.59 144.863 108.517 144.874 108.445 144.864C108.373 144.854 108.305 144.824 108.25 144.778L105.879 142.608V144.724C105.879 144.763 105.863 144.799 105.836 144.826C105.809 144.853 105.772 144.869 105.733 144.869H105.149C105.115 144.869 105.081 144.858 105.055 144.836C105.028 144.814 105.01 144.783 105.004 144.75Z" fill="#444053"/>
<path d="M162.291 139.636V144.75C162.291 144.769 162.287 144.788 162.279 144.805C162.272 144.823 162.261 144.839 162.247 144.853C162.233 144.866 162.217 144.877 162.199 144.884C162.181 144.891 162.162 144.894 162.142 144.894H161.572C161.534 144.894 161.497 144.879 161.47 144.852C161.442 144.825 161.427 144.788 161.427 144.75V142.622L159.056 144.803C159 144.849 158.932 144.879 158.86 144.888C158.788 144.898 158.715 144.888 158.649 144.858C158.583 144.829 158.526 144.782 158.485 144.722C158.444 144.662 158.421 144.592 158.418 144.52V139.872C158.421 139.799 158.444 139.73 158.485 139.67C158.526 139.61 158.583 139.563 158.649 139.533C158.715 139.504 158.788 139.494 158.86 139.503C158.932 139.513 159 139.542 159.056 139.588L161.427 141.758V139.645C161.427 139.607 161.442 139.57 161.47 139.543C161.497 139.516 161.534 139.501 161.572 139.501H162.142C162.18 139.5 162.216 139.513 162.244 139.539C162.272 139.564 162.288 139.599 162.291 139.636Z" fill="#444053"/>
<path d="M132.679 144.971H131.519C131.368 144.971 131.223 144.911 131.116 144.805C131.009 144.698 130.949 144.554 130.949 144.404V140.172C130.949 140.022 131.009 139.878 131.116 139.771C131.223 139.665 131.368 139.605 131.519 139.605H132.679C132.83 139.605 132.975 139.665 133.082 139.771C133.189 139.878 133.249 140.022 133.249 140.172V144.404C133.249 144.554 133.189 144.698 133.082 144.805C132.975 144.911 132.83 144.971 132.679 144.971ZM136.355 144.404V140.172C136.355 140.022 136.295 139.878 136.188 139.771C136.081 139.665 135.936 139.605 135.785 139.605H134.614C134.463 139.605 134.318 139.665 134.211 139.771C134.104 139.878 134.044 140.022 134.044 140.172V144.404C134.044 144.554 134.104 144.698 134.211 144.805C134.318 144.911 134.463 144.971 134.614 144.971H135.774C135.849 144.972 135.925 144.959 135.995 144.931C136.066 144.903 136.13 144.861 136.184 144.809C136.238 144.756 136.281 144.693 136.31 144.624C136.34 144.554 136.355 144.479 136.355 144.404Z" fill="#444053"/>
<path opacity="0.6" d="M167.844 132.745H99.4531V133.501H167.844V132.745Z" fill="#444053"/>
<path d="M120.569 134.915C121.566 134.915 122.373 134.112 122.373 133.121C122.373 132.131 121.566 131.328 120.569 131.328C119.573 131.328 118.766 132.131 118.766 133.121C118.766 134.112 119.573 134.915 120.569 134.915Z" fill="#444053"/>
<path d="M120.572 132.745H99.4531V133.501H120.572V132.745Z" fill="#444053"/>
<path d="M272.732 218.111C282.091 218.111 289.678 216.66 289.678 214.87C289.678 213.081 282.091 211.63 272.732 211.63C263.372 211.63 255.785 213.081 255.785 214.87C255.785 216.66 263.372 218.111 272.732 218.111Z" fill="#AEACAC"/>
<path d="M272.449 216.06C273.538 216.06 274.42 214.911 274.42 213.494C274.42 212.076 273.538 210.927 272.449 210.927C271.359 210.927 270.477 212.076 270.477 213.494C270.477 214.911 271.359 216.06 272.449 216.06Z" fill="#3F3D56"/>
<path d="M272.449 212.921C273.538 212.921 274.42 211.772 274.42 210.355C274.42 208.938 273.538 207.789 272.449 207.789C271.359 207.789 270.477 208.938 270.477 210.355C270.477 211.772 271.359 212.921 272.449 212.921Z" fill="#3F3D56"/>
<path d="M272.449 209.786C273.538 209.786 274.42 208.637 274.42 207.219C274.42 205.802 273.538 204.653 272.449 204.653C271.359 204.653 270.477 205.802 270.477 207.219C270.477 208.637 271.359 209.786 272.449 209.786Z" fill="#3F3D56"/>
<path d="M272.449 206.647C273.538 206.647 274.42 205.498 274.42 204.081C274.42 202.663 273.538 201.514 272.449 201.514C271.359 201.514 270.477 202.663 270.477 204.081C270.477 205.498 271.359 206.647 272.449 206.647Z" fill="#3F3D56"/>
<path d="M272.449 203.509C273.538 203.509 274.42 202.36 274.42 200.942C274.42 199.525 273.538 198.376 272.449 198.376C271.359 198.376 270.477 199.525 270.477 200.942C270.477 202.36 271.359 203.509 272.449 203.509Z" fill="#3F3D56"/>
<path d="M272.449 200.37C273.538 200.37 274.42 199.221 274.42 197.803C274.42 196.386 273.538 195.237 272.449 195.237C271.359 195.237 270.477 196.386 270.477 197.803C270.477 199.221 271.359 200.37 272.449 200.37Z" fill="#3F3D56"/>
<path d="M272.449 197.231C273.538 197.231 274.42 196.082 274.42 194.665C274.42 193.247 273.538 192.098 272.449 192.098C271.359 192.098 270.477 193.247 270.477 194.665C270.477 196.082 271.359 197.231 272.449 197.231Z" fill="#3F3D56"/>
<path d="M279.832 173.193C280.101 172.851 280.347 172.491 280.567 172.117L275.381 171.267L280.989 171.309C281.526 170.146 281.819 168.885 281.85 167.605C281.881 166.326 281.649 165.053 281.169 163.865L273.651 167.746L280.587 162.678C279.938 161.561 279.063 160.589 278.019 159.823C276.975 159.057 275.783 158.512 274.518 158.224C273.253 157.936 271.942 157.909 270.666 158.147C269.39 158.384 268.177 158.88 267.103 159.604C266.029 160.328 265.116 161.264 264.421 162.354C263.726 163.443 263.265 164.664 263.065 165.939C262.866 167.214 262.933 168.516 263.262 169.764C263.591 171.012 264.175 172.179 264.977 173.193C264.559 173.721 264.198 174.29 263.9 174.893L270.631 178.368L263.456 175.975C262.952 177.455 262.827 179.037 263.093 180.577C263.358 182.117 264.006 183.567 264.977 184.796C263.881 186.181 263.2 187.846 263.011 189.598C262.822 191.351 263.132 193.121 263.907 194.706C264.682 196.291 265.89 197.628 267.393 198.563C268.896 199.498 270.633 199.994 272.406 199.994C274.179 199.994 275.916 199.498 277.419 198.563C278.922 197.628 280.13 196.291 280.905 194.706C281.68 193.121 281.991 191.351 281.801 189.598C281.612 187.846 280.931 186.181 279.835 184.796C281.144 183.14 281.856 181.095 281.856 178.989C281.856 176.883 281.144 174.838 279.835 173.182L279.832 173.193Z" fill="#6ECF21"/>
<path opacity="0.1" d="M262.957 179C262.953 181.107 263.665 183.153 264.977 184.807C263.882 186.193 263.2 187.857 263.011 189.609C262.822 191.362 263.132 193.132 263.907 194.717C264.682 196.303 265.89 197.639 267.393 198.574C268.896 199.509 270.633 200.005 272.406 200.005C274.179 200.005 275.917 199.509 277.42 198.574C278.923 197.639 280.131 196.303 280.905 194.717C281.68 193.132 281.991 191.362 281.802 189.609C281.612 187.857 280.931 186.193 279.835 184.807C281.1 183.212 262.957 177.946 262.957 179Z" fill="black"/>
<path opacity="0.1" d="M82.6369 235.555C98.2175 235.555 110.848 232.892 110.848 229.606C110.848 226.321 98.2175 223.658 82.6369 223.658C67.0563 223.658 54.4258 226.321 54.4258 229.606C54.4258 232.892 67.0563 235.555 82.6369 235.555Z" fill="#6C63FF"/>
<path d="M92.0851 228.915C91.5152 228.708 90.9054 228.742 90.3098 228.677C89.0732 228.535 87.9218 227.98 87.0442 227.102C86.4798 226.535 86.0359 225.86 85.739 225.119C85.9271 225.187 86.1152 225.258 86.309 225.334C85.739 224.012 86.3375 222.527 86.8618 221.19C87.7509 218.924 88.5915 216.646 89.3837 214.355C91.3784 208.551 93.0882 202.514 93.0511 196.339C93.0511 194.107 92.6379 191.996 92.5582 189.767C92.4983 188.113 92.7548 186.461 92.7434 184.804C92.7434 184.572 92.7434 184.342 92.7263 184.11C93.236 183.666 93.6365 183.112 93.8969 182.491C94.1573 181.869 94.2706 181.196 94.228 180.524C94.1991 180.174 94.1486 179.826 94.077 179.481C93.9761 178.884 93.8429 178.292 93.678 177.708C93.49 177.093 93.2335 176.504 93.0141 175.904C92.5895 174.739 92.3017 173.527 91.9398 172.343C92.0739 172.357 92.2048 172.392 92.3273 172.448C92.2361 172.341 92.1733 172.214 92.145 172.077C91.9322 171.323 91.8173 170.545 91.803 169.762L92.0452 169.655C92.1543 168.89 92.1147 168.112 91.9284 167.363C92.0652 166.148 92.2789 164.924 92.41 163.715C92.4584 163.261 92.4385 162.692 92.0196 162.581C91.9341 161.933 91.8999 161.276 91.8657 160.621C91.746 158.338 91.6273 156.056 91.5095 153.775C91.3898 151.483 91.2701 149.194 91.2245 146.9C91.1932 145.444 91.1761 143.937 90.8284 142.543C90.8885 141.875 90.8198 141.202 90.6261 140.56C90.0961 138.892 88.449 137.569 86.7791 137.662C86.2811 136.954 85.6654 136.335 84.9583 135.832C85.2917 135.09 85.6906 134.325 86.0183 133.725C88.6912 132.861 90.6461 130.24 90.6461 127.125C90.65 125.984 90.3814 124.859 89.8624 123.841C89.9115 123.716 89.9533 123.589 89.9878 123.459C90.1309 122.847 90.0862 122.207 89.8596 121.621C89.7794 121.395 89.6842 121.176 89.5746 120.963C89.5005 120.822 89.4207 120.68 89.3381 120.544L89.1928 120.326C89.1044 120.193 89.0132 120.065 88.9078 119.941C88.7054 119.671 88.4885 119.412 88.2581 119.165C87.9743 118.859 87.6613 118.582 87.3234 118.337C86.8652 117.999 86.3412 117.759 85.7846 117.632C85.4628 117.569 85.1352 117.54 84.8072 117.544C84.6106 117.544 84.4111 117.544 84.2145 117.561C83.8156 117.584 83.4195 117.612 83.0234 117.609C82.8923 117.609 82.7584 117.609 82.6273 117.59C81.93 117.497 81.2405 117.354 80.5642 117.162L80.2222 117.091C80.1054 117.068 79.9914 117.049 79.8745 117.034C79.5619 116.993 79.2467 116.974 78.9313 116.978H78.615C78.2991 116.993 77.9842 117.025 77.6718 117.074L77.3583 117.122C76.5668 117.245 75.7954 117.473 75.0644 117.799C74.9704 117.842 74.8735 117.89 74.7795 117.941L74.7225 117.972C74.6455 118.012 74.5686 118.054 74.4945 118.1L74.4517 118.125L74.2095 118.278L74.1896 118.292C71.927 119.805 70.5905 122.672 70.2514 125.516C69.8724 128.708 70.5364 131.926 71.2003 135.067L71.7988 137.9C71.8244 138.028 71.8529 138.152 71.8785 138.28C71.0371 138.966 70.3899 139.858 70.0007 140.869C69.4307 142.285 69.4165 143.818 69.4621 145.353C69.4621 145.665 69.4792 145.976 69.5105 146.288C69.4393 146.877 69.3766 147.469 69.3367 148.064C69.1572 150.812 69.4934 153.573 69.4051 156.327C69.3367 158.449 69.0147 160.576 69.1714 162.683C69.3082 164.553 69.8126 166.366 70.3113 168.17L71.0294 170.743C71.0527 170.876 71.1151 170.999 71.2089 171.097C71.3268 171.175 71.4711 171.205 71.6107 171.179C71.1436 172.234 70.7531 173.32 70.4424 174.431C70.2276 175.111 70.0863 175.811 70.0206 176.521C69.9266 177.819 70.2286 179.107 70.5307 180.368C70.9866 182.257 71.4407 184.153 71.8928 186.056C72.212 187.387 72.5302 188.718 72.8474 190.047C73.4743 192.67 74.1041 195.311 74.2209 198.01C74.2861 199.366 74.1904 200.725 73.936 202.058C73.1138 206.052 72.9943 210.156 73.5826 214.191C74.0582 217.594 74.8295 220.95 75.8879 224.221C76.1188 224.099 76.3524 223.986 76.5918 223.881L76.4921 224.065C76.1634 224.632 75.8595 225.213 75.5802 225.807C75.392 226.194 75.2292 226.592 75.0929 227C74.7282 228.133 74.6712 229.34 74.6199 230.532C74.5938 230.762 74.6141 230.994 74.6797 231.215C74.8364 231.643 75.2867 231.861 75.7056 231.98C76.9366 232.328 78.2161 232.204 79.4956 232.039C79.5015 232.068 79.5101 232.095 79.5212 232.122C79.6779 232.549 80.1253 232.767 80.5471 232.886C82.3081 233.385 84.1661 232.915 85.9813 232.745C87.7965 232.575 89.5803 232.699 91.3271 232.283C91.5875 232.228 91.8375 232.132 92.068 232C92.5171 231.687 92.8466 231.233 93.0027 230.711C93.0574 230.576 93.0938 230.434 93.111 230.289C93.1822 229.668 92.6493 229.122 92.0851 228.915ZM86.0582 202.681C85.9599 203.345 85.7681 203.991 85.4883 204.602C84.1175 207.499 83.1346 210.563 82.5646 213.715C82.1906 215.796 81.9744 217.903 81.9177 220.017C81.8892 221.575 81.9491 223.207 81.2965 224.606L81.533 224.57C81.4589 224.706 81.3877 224.853 81.3193 224.96L81.2851 225.023C80.8904 224.355 80.6265 223.619 80.5072 222.853C80.5072 222.827 80.3789 222.808 80.1823 222.796C79.3767 218.322 79.0975 213.769 79.3502 209.23C79.3541 208.68 79.4307 208.132 79.5782 207.602C79.7235 207.146 79.9686 206.729 80.1481 206.287C80.4328 205.545 80.6242 204.77 80.718 203.981C81.0284 201.965 81.1486 199.924 81.0771 197.885C81.0087 195.962 81.4561 194.05 81.8379 192.135C82.0203 191.226 82.1884 190.314 82.2796 189.402L82.2967 189.217C83.9921 191.998 85.177 195.056 85.796 198.248C86.1402 199.7 86.2289 201.2 86.0582 202.681ZM73.8619 161.743L73.9531 161.822C74.2285 162.063 74.4821 162.328 74.7111 162.613C74.825 162.737 74.9071 162.886 74.9504 163.049C75.0359 163.462 74.6911 163.814 74.409 164.117C74.2864 164.248 74.1713 164.386 74.0642 164.53C74.0034 163.601 73.9388 162.672 73.8704 161.743H73.8619Z" fill="url(#paint0_linear)"/>
<path d="M69.919 143.988L69.6055 146.393C69.5001 147.208 69.3946 148.021 69.3377 148.84C69.1467 151.565 69.5001 154.301 69.4089 157.032C69.3348 159.134 68.9986 161.233 69.161 163.332C69.3063 165.185 69.8363 166.986 70.3664 168.771L71.1187 171.32C71.1444 171.454 71.2099 171.576 71.3067 171.672C71.4517 171.757 71.6238 171.784 71.7883 171.748L75.1281 171.448C74.9143 170.473 74.6778 169.465 74.5581 168.465C74.467 167.683 74.4128 166.896 74.3558 166.108C74.1791 163.655 73.9768 161.202 73.7859 158.743L73.4297 154.437C73.2787 152.568 73.1219 150.69 72.6489 148.874C72.1742 147.04 71.2343 145.357 69.919 143.988Z" fill="#BE56EF"/>
<path opacity="0.1" d="M69.919 143.988L69.6055 146.393C69.5001 147.208 69.3946 148.021 69.3377 148.84C69.1467 151.565 69.5001 154.301 69.4089 157.032C69.3348 159.134 68.9986 161.233 69.161 163.332C69.3063 165.185 69.8363 166.986 70.3664 168.771L71.1187 171.32C71.1444 171.454 71.2099 171.576 71.3067 171.672C71.4517 171.757 71.6238 171.784 71.7883 171.748L75.1281 171.448C74.9143 170.473 74.6778 169.465 74.5581 168.465C74.467 167.683 74.4128 166.896 74.3558 166.108C74.1791 163.655 73.9768 161.202 73.7859 158.743L73.4297 154.437C73.2787 152.568 73.1219 150.69 72.6489 148.874C72.1742 147.04 71.2343 145.357 69.919 143.988Z" fill="black"/>
<path d="M75.8667 225.859C75.6706 226.242 75.4993 226.638 75.3537 227.043C74.9719 228.162 74.9149 229.363 74.8579 230.544C74.8327 230.771 74.854 231.002 74.9206 231.221C75.0859 231.646 75.5589 231.861 76.0006 231.977C77.85 232.473 79.7991 232.008 81.6998 231.838C83.6005 231.668 85.4784 231.793 87.3135 231.382C87.5845 231.33 87.8466 231.24 88.0915 231.113C88.5561 230.813 88.9031 230.363 89.0746 229.838C89.1299 229.704 89.1672 229.563 89.1857 229.419C89.2456 228.796 88.7013 228.258 88.1086 228.054C87.5159 227.85 86.869 227.881 86.2449 227.819C84.9596 227.688 83.7536 227.139 82.8139 226.258C81.8741 225.377 81.2532 224.212 81.0473 222.944C81.0245 222.808 77.9583 222.89 77.6277 223.065C77.2516 223.272 77.0236 223.785 76.8099 224.133C76.4736 224.694 76.1592 225.269 75.8667 225.859Z" fill="#A26565"/>
<path opacity="0.1" d="M75.8667 225.859C75.6706 226.242 75.4993 226.638 75.3537 227.043C74.9719 228.162 74.9149 229.363 74.8579 230.544C74.8327 230.771 74.854 231.002 74.9206 231.221C75.0859 231.646 75.5589 231.861 76.0006 231.977C77.85 232.473 79.7991 232.008 81.6998 231.838C83.6005 231.668 85.4784 231.793 87.3135 231.382C87.5845 231.33 87.8466 231.24 88.0915 231.113C88.5561 230.813 88.9031 230.363 89.0746 229.838C89.1299 229.704 89.1672 229.563 89.1857 229.419C89.2456 228.796 88.7013 228.258 88.1086 228.054C87.5159 227.85 86.869 227.881 86.2449 227.819C84.9596 227.688 83.7536 227.139 82.8139 226.258C81.8741 225.377 81.2532 224.212 81.0473 222.944C81.0245 222.808 77.9583 222.89 77.6277 223.065C77.2516 223.272 77.0236 223.785 76.8099 224.133C76.4736 224.694 76.1592 225.269 75.8667 225.859Z" fill="black"/>
<path d="M80.9534 226.759C80.7562 227.141 80.5848 227.536 80.4405 227.94C80.0558 229.074 79.9988 230.26 79.9447 231.442C79.9181 231.669 79.9395 231.9 80.0074 232.119C80.1698 232.544 80.6428 232.759 81.0845 232.878C82.9339 233.371 84.8859 232.906 86.7837 232.736C88.6816 232.566 90.5652 232.691 92.3975 232.28C92.6697 232.225 92.932 232.13 93.1754 231.997C93.6407 231.697 93.9879 231.247 94.1585 230.722C94.2138 230.588 94.2511 230.447 94.2697 230.303C94.3295 229.683 93.7852 229.142 93.1925 228.938C92.5998 228.734 91.9529 228.768 91.3289 228.702C90.0441 228.571 88.8387 228.023 87.8991 227.142C86.9595 226.262 86.3381 225.097 86.1312 223.83C86.1084 223.694 83.0422 223.774 82.7116 223.949C82.3326 224.156 82.1047 224.669 81.891 225.017C81.5661 225.592 81.2469 226.17 80.9534 226.759Z" fill="#A26565"/>
<path d="M94.2149 196.668C94.2548 202.789 92.4653 208.772 90.3651 214.514C89.533 216.791 88.6506 219.049 87.7178 221.287C87.165 222.612 86.5409 224.085 87.1337 225.394C85.4239 224.748 83.6856 224.369 81.8875 224.666C82.5714 223.278 82.5059 221.663 82.5372 220.134C82.5953 218.037 82.8201 215.949 83.2097 213.888C83.8133 210.751 84.8479 207.711 86.2845 204.854C86.5749 204.252 86.7755 203.61 86.88 202.951C87.1137 201.495 86.9313 199.999 86.6264 198.557C85.9705 195.372 84.7239 192.337 82.9504 189.606L82.9333 189.787C82.8269 190.698 82.6728 191.603 82.4717 192.498C82.0699 194.393 81.5997 196.291 81.671 198.197C81.7453 200.219 81.6193 202.243 81.2948 204.239C81.1903 205.024 80.9844 205.791 80.6821 206.523C80.4855 206.962 80.2291 207.372 80.0752 207.828C79.9211 208.353 79.8406 208.896 79.8358 209.443C79.6078 214.052 79.8358 218.732 80.7819 223.25C79.1947 223.125 77.6074 223.581 76.1883 224.289C75.0787 221.055 74.268 217.727 73.7661 214.346C73.1478 210.349 73.2734 206.272 74.1366 202.319C74.4056 201.001 74.5061 199.654 74.4358 198.311C74.3133 195.634 73.6522 193.016 72.9939 190.416L71.9908 186.45C71.5159 184.562 71.041 182.682 70.566 180.81C70.2497 179.561 69.9306 178.283 70.0303 176.997C70.0999 176.292 70.249 175.596 70.4749 174.924C71.1863 172.637 72.2505 170.473 73.6294 168.511C79.1206 168.816 84.6773 168.307 90.1571 167.887C90.4228 167.835 90.6985 167.882 90.9322 168.018C91.119 168.206 91.2304 168.456 91.2456 168.72L93.3059 180.334C93.6395 181.948 93.8349 183.588 93.8901 185.235C93.8901 186.878 93.6336 188.515 93.6963 190.155C93.7818 192.365 94.2035 194.455 94.2149 196.668Z" fill="#454B69"/>
<path opacity="0.1" d="M82.9368 189.787C82.8303 190.698 82.6762 191.603 82.4751 192.498C81.2812 190.444 79.9931 188.441 78.8932 186.337C78.6082 185.796 78.3404 185.246 78.0696 184.697L77.2575 183.054C77.1065 182.745 76.9554 182.436 76.8187 182.122C76.596 181.67 76.4249 181.195 76.3086 180.705C76.7075 180.632 77.6935 181.702 77.9899 181.983C78.5944 182.578 79.1652 183.206 79.6996 183.864C80.3487 184.595 80.9449 185.371 81.4835 186.187C82.1731 187.294 82.6648 188.512 82.9368 189.787Z" fill="black"/>
<path d="M87.5099 133.442C87.5099 133.442 84.4608 138.271 85.0251 139.283C85.5893 140.294 75.4219 138.385 75.4219 138.385C75.4219 138.385 80.9587 133.555 80.3916 131.532C79.8245 129.51 87.5099 133.442 87.5099 133.442Z" fill="#EFB7B9"/>
<path d="M84.7995 134.903C88.6065 134.903 91.6927 131.835 91.6927 128.051C91.6927 124.267 88.6065 121.199 84.7995 121.199C80.9924 121.199 77.9062 124.267 77.9062 128.051C77.9062 131.835 80.9924 134.903 84.7995 134.903Z" fill="#EFB7B9"/>
<path d="M87.6123 138.507C86.8741 137.488 85.8728 136.688 84.7142 136.189C84.0466 135.952 83.3562 135.783 82.6539 135.685L79.9041 135.204C79.2316 135.085 78.5106 134.974 77.8837 135.249C77.5667 135.411 77.278 135.622 77.0288 135.875C76.0742 136.756 75.1481 137.722 73.9484 138.232C73.6207 138.371 73.2787 138.473 72.951 138.611C71.6089 139.178 70.6058 140.385 70.0387 141.727C69.4403 143.127 69.4232 144.648 69.4688 146.169C69.468 146.694 69.5205 147.218 69.6255 147.733C69.7627 148.223 69.937 148.702 70.147 149.166C70.5259 150.159 70.8437 151.174 71.0988 152.206C71.8112 154.915 72.4039 157.654 72.8769 160.42C72.9171 160.817 73.0342 161.201 73.2217 161.553C73.4874 161.906 73.8088 162.213 74.1735 162.463C74.4628 162.699 74.729 162.962 74.9685 163.247C75.0879 163.364 75.1769 163.508 75.2279 163.667C75.3162 164.075 74.9429 164.426 74.6579 164.723C74.0447 165.345 73.6014 166.113 73.3699 166.953C73.227 167.125 73.1538 167.344 73.1648 167.567C73.2241 167.722 73.2465 167.889 73.2303 168.054C73.1742 168.205 73.0857 168.341 72.971 168.454C72.8395 168.624 72.7461 168.82 72.6969 169.03C72.6478 169.239 72.6441 169.456 72.686 169.666C74.8219 170.589 77.1079 171.121 79.4339 171.236C80.0038 171.264 80.5737 171.264 81.1437 171.332C81.5483 171.383 81.9472 171.465 82.3519 171.513C82.9391 171.568 83.5294 171.583 84.1186 171.559C87.1877 171.496 90.345 171.42 93.1633 170.21C93.4283 168.774 92.8555 167.309 92.4965 165.893C91.9266 163.627 91.7841 161.307 91.3566 159.021C91.0717 157.46 90.6442 155.922 90.402 154.35C90.1598 152.778 90.1171 151.149 90.5388 149.619C90.9235 148.265 91.0403 146.883 91.4393 145.532C91.8382 144.18 92.1175 142.716 91.6672 141.379C91.0973 139.725 89.3676 138.413 87.6123 138.507Z" fill="#BE56EF"/>
<path d="M90.9986 124.417C91.3349 123.201 90.6738 121.935 89.8873 120.946C89.0324 119.884 87.9438 118.927 86.6074 118.66C85.5217 118.442 84.3961 118.706 83.2904 118.618C82.313 118.541 81.3726 118.19 80.4009 118.051C79.5193 117.957 78.6285 117.99 77.7565 118.151C76.929 118.273 76.1201 118.497 75.3486 118.819C72.4135 120.114 70.6952 123.303 70.2962 126.467C69.8973 129.632 70.5954 132.821 71.2907 135.934L71.9205 138.75C72.5759 141.682 73.2313 144.625 73.4051 147.622C73.579 150.619 73.2541 153.695 72.0145 156.432C76.0233 154.291 79.1294 150.795 80.7714 146.577C81.2159 145.418 81.5465 144.214 82.0423 143.076C82.4669 142.095 83.0112 141.166 83.3873 140.166C83.8125 139.038 84.0166 137.839 83.9886 136.634C83.9658 135.727 83.8148 134.827 83.8404 133.92C83.866 133.014 84.0997 132.07 84.7295 131.413C85.2994 130.833 86.083 130.563 86.804 130.187C87.9389 129.607 88.9306 128.785 89.7077 127.779C90.1608 127.19 90.1865 126.929 90.3005 126.261C90.4144 125.592 90.8219 125.06 90.9986 124.417Z" fill="#A26565"/>
<path d="M91.0097 175.89C91.0809 176.595 90.9527 177.306 91.1066 178.006C91.2234 178.527 91.4941 178.997 91.6537 179.507C91.8116 180.096 91.893 180.702 91.8959 181.311C91.9187 181.821 91.8788 182.445 91.4229 182.682C91.2234 182.787 90.9841 182.787 90.776 182.878C90.568 182.969 90.3913 183.215 90.511 183.408C90.6307 183.6 90.8359 183.569 91.024 183.606C91.212 183.643 91.4144 183.835 91.3089 183.991C91.266 184.042 91.2083 184.079 91.1436 184.096C90.9534 184.154 90.7729 184.24 90.6079 184.351C90.5273 184.409 90.4642 184.488 90.4256 184.58C90.3869 184.671 90.3741 184.771 90.3885 184.869C90.4 184.916 90.422 184.96 90.4529 184.997C90.4838 185.034 90.5228 185.064 90.5669 185.084C90.611 185.105 90.6592 185.115 90.7077 185.114C90.7563 185.113 90.804 185.101 90.8473 185.079C90.7637 185.257 90.7181 185.449 90.7133 185.646C91.4428 185.957 92.2607 185.549 92.9446 185.155C93.2403 184.991 93.5258 184.81 93.7995 184.612C94.3527 184.189 94.7936 183.639 95.0837 183.008C95.3737 182.378 95.5042 181.686 95.4636 180.994C95.4311 180.647 95.3768 180.301 95.3012 179.96C95.196 179.366 95.0561 178.779 94.8823 178.201C94.6857 177.592 94.4178 177.011 94.187 176.414C93.6969 175.142 93.3806 173.81 92.936 172.522C92.9063 172.388 92.8308 172.269 92.7223 172.184C92.6243 172.136 92.5149 172.116 92.406 172.125C91.9071 172.099 91.4071 172.145 90.9214 172.261C90.6364 172.346 90.1491 172.544 90.0152 172.828C89.8813 173.111 90.095 173.349 90.2232 173.584C90.6328 174.295 90.8999 175.078 91.0097 175.89Z" fill="#EFB7B9"/>
<path opacity="0.1" d="M90.5426 141.469C90.689 141.618 90.8119 141.788 90.9074 141.973C91.8877 143.744 91.8991 145.86 91.9447 147.88C91.9959 150.146 92.1213 152.412 92.2467 154.692L92.62 161.491C92.6571 162.139 92.6912 162.788 92.7853 163.431C93.2241 163.542 93.2412 164.108 93.1928 164.564C92.8765 167.335 92.0928 170.187 92.9078 172.853C92.9392 172.99 93.0049 173.116 93.0987 173.221C92.6849 173.092 92.2422 173.086 91.825 173.204C91.4175 173.289 91.0242 173.439 90.6139 173.533C90.0953 173.649 89.5082 173.7 89.1549 174.099C88.7544 172.902 88.4355 171.679 88.2003 170.439C88.0065 169.306 87.9524 168.139 87.4907 167.091C87.3055 166.669 87.0547 166.278 86.8268 165.873C85.6328 163.754 85.0458 161.36 84.473 158.998C84.216 157.878 84.1543 156.723 84.2906 155.582C84.3735 155.061 84.4211 154.536 84.4331 154.01C84.3984 153.454 84.3251 152.901 84.2137 152.355C83.9716 150.754 84.0854 149.119 84.5471 147.565C84.9745 146.123 85.3507 144.605 86.2568 143.393C87.163 142.18 89.0295 141.489 90.5426 141.469Z" fill="black"/>
<path d="M90.8807 141.243C91.0271 141.393 91.15 141.564 91.2455 141.75C92.2257 143.518 92.2371 145.636 92.2827 147.656C92.334 149.922 92.4594 152.188 92.5848 154.455L92.9581 161.253C92.9951 161.902 93.0293 162.551 93.1234 163.194C93.5622 163.304 93.5793 163.871 93.528 164.327C93.2146 167.097 92.4309 169.947 93.2431 172.615C93.2745 172.752 93.3401 172.879 93.434 172.983C93.0201 172.854 92.5774 172.849 92.1602 172.966C91.7527 173.051 91.3595 173.201 90.9491 173.292C90.4305 173.411 89.8435 173.459 89.4901 173.859C89.0909 172.656 88.7748 171.427 88.5441 170.182C88.3503 169.049 88.2961 167.884 87.8345 166.836C87.634 166.419 87.4124 166.013 87.1705 165.618C85.9737 163.499 85.3895 161.103 84.8168 158.741C84.5597 157.621 84.498 156.465 84.6344 155.324C84.849 154.256 84.8227 153.154 84.5574 152.098C84.3153 150.497 84.4291 148.863 84.8909 147.311C85.3183 145.869 85.6944 144.35 86.6006 143.138C87.5068 141.926 89.3676 141.266 90.8807 141.243Z" fill="#BE56EF"/>
<g opacity="0.1">
<path opacity="0.1" d="M89.8871 120.946C89.0323 119.884 87.9437 118.927 86.6072 118.66C85.5215 118.442 84.3959 118.706 83.2903 118.618C82.3129 118.541 81.3725 118.19 80.4008 118.051C79.5191 117.957 78.6284 117.99 77.7564 118.151C76.9288 118.273 76.1199 118.497 75.3484 118.819C74.9317 119.005 74.5338 119.229 74.1602 119.49C74.8469 119.225 75.5607 119.035 76.2888 118.924C77.1598 118.763 78.0497 118.73 78.9304 118.825C79.905 118.949 80.8425 119.298 81.8228 119.374C82.9256 119.462 84.0511 119.202 85.1397 119.417C86.4762 119.683 87.5704 120.643 88.4167 121.706C89.2061 122.691 89.8643 123.958 89.5309 125.176C89.3543 125.816 88.9439 126.377 88.8328 127.037C88.7216 127.697 88.6932 127.966 88.2372 128.555C87.6526 129.311 86.9458 129.965 86.1456 130.49C86.365 130.388 86.5901 130.286 86.8039 130.175C87.9388 129.596 88.9305 128.774 89.7076 127.768C90.1607 127.178 90.1864 126.918 90.3003 126.249C90.4143 125.581 90.8218 125.031 90.9985 124.388C91.3347 123.201 90.6736 121.935 89.8871 120.946Z" fill="black"/>
<path opacity="0.1" d="M84.7306 131.43C84.8486 131.308 84.9773 131.197 85.1153 131.099C84.457 131.416 83.7646 131.694 83.2602 132.232C82.6304 132.886 82.4053 133.832 82.3711 134.739C82.3369 135.645 82.4993 136.546 82.5193 137.45C82.5473 138.655 82.3432 139.855 81.918 140.985C81.5419 141.985 80.9976 142.911 80.573 143.894C80.08 145.027 79.7495 146.234 79.3049 147.392C77.8803 151.05 75.3508 154.179 72.0641 156.349C72.047 156.386 72.0327 156.426 72.0156 156.463C76.0244 154.322 79.1305 150.826 80.7725 146.608C81.217 145.449 81.5476 144.245 82.0434 143.106C82.468 142.126 83.0123 141.197 83.3884 140.197C83.8136 139.069 84.0177 137.87 83.9897 136.665C83.9669 135.758 83.8158 134.858 83.8415 133.951C83.8671 133.045 84.1008 132.087 84.7306 131.43Z" fill="black"/>
</g>
<defs>
<linearGradient id="paint0_linear" x1="81.6926" y1="233.099" x2="81.6926" y2="116.986" gradientUnits="userSpaceOnUse">
<stop stop-color="#808080" stop-opacity="0.25"/>
<stop offset="0.54" stop-color="#808080" stop-opacity="0.12"/>
<stop offset="1" stop-color="#808080" stop-opacity="0.1"/>
</linearGradient>
</defs>
</svg>
