<?xml version="1.0" standalone="no"?>
<!DOCTYPE svg PUBLIC "-//W3C//DTD SVG 20010904//EN"
 "http://www.w3.org/TR/2001/REC-SVG-20010904/DTD/svg10.dtd">
<svg version="1.0" xmlns="http://www.w3.org/2000/svg"
 width="350.000000pt" height="350.000000pt" viewBox="0 0 350.000000 350.000000"
 preserveAspectRatio="xMidYMid meet">
<metadata>
Created by potrace 1.16, written by Peter Selinger 2001-2019
</metadata>
<g transform="translate(0.000000,350.000000) scale(0.100000,-0.100000)"
fill="#000000" stroke="none">
<path d="M726 3484 c-144 -35 -296 -157 -356 -286 -64 -137 -61 -57 -58 -1474
l3 -1289 26 -66 c37 -95 69 -146 135 -211 69 -69 169 -124 261 -143 102 -22
1939 -22 2031 0 195 46 361 212 407 406 13 55 15 210 15 1085 0 909 -2 1026
-16 1075 -36 121 -51 139 -407 496 -329 329 -345 343 -422 380 l-80 38 -740 2
c-613 1 -750 -1 -799 -13z m1464 -464 c5 -196 6 -207 32 -262 54 -116 169
-204 297 -228 29 -5 129 -10 222 -10 l168 0 6 -32 c3 -18 5 -476 3 -1018 l-3
-985 -24 -49 c-30 -60 -79 -108 -140 -138 l-46 -23 -955 0 -955 0 -46 23 c-60
29 -111 79 -138 135 l-21 44 2 1284 3 1284 33 52 c38 60 94 101 160 119 36 10
203 12 722 11 l675 -2 5 -205z"/>
<path d="M950 2471 c-55 -29 -80 -74 -80 -142 0 -54 3 -63 36 -99 21 -23 52
-44 73 -50 24 -8 189 -10 488 -8 440 3 452 4 480 24 54 40 75 83 71 145 -5 65
-32 109 -82 133 -30 14 -90 16 -493 16 -427 0 -461 -1 -493 -19z"/>
<path d="M975 1785 c-79 -28 -125 -112 -104 -190 14 -50 64 -100 114 -114 56
-15 1474 -15 1530 0 50 14 100 64 114 114 22 80 -31 171 -114 194 -28 7 -270
11 -770 11 -603 -1 -737 -3 -770 -15z"/>
<path d="M965 1086 c-40 -18 -84 -66 -94 -102 -10 -39 2 -110 26 -142 11 -15
35 -35 54 -44 31 -17 90 -18 799 -18 726 0 767 1 800 19 19 10 43 30 54 44 23
31 35 102 25 142 -11 39 -66 93 -109 105 -21 6 -321 10 -780 10 -600 -1 -751
-3 -775 -14z"/>
</g>
</svg>
