<svg width="131" height="158" viewBox="0 0 131 158" fill="none" xmlns="http://www.w3.org/2000/svg">
<g filter="url(#filter0_d)">
<circle cx="62.5" cy="63.5" r="61.5" fill="#3D59A6"/>
</g>
<path d="M69.59 57.62H87.53V73.22H70.11V126H49.83V73.22H39.04V57.62H49.83V54.5C49.83 46.5267 52.17 40.2 56.85 35.52C61.6167 30.84 68.29 28.5 76.87 28.5C79.9033 28.5 82.7633 28.8467 85.45 29.54C88.2233 30.1467 90.52 31.0567 92.34 32.27L87.01 46.96C84.67 45.3133 81.94 44.49 78.82 44.49C72.6667 44.49 69.59 47.87 69.59 54.63V57.62Z" fill="white"/>
<defs>
<filter id="filter0_d" x="0" y="2" width="131" height="133" filterUnits="userSpaceOnUse" color-interpolation-filters="sRGB">
<feFlood flood-opacity="0" result="BackgroundImageFix"/>
<feColorMatrix in="SourceAlpha" type="matrix" values="0 0 0 0 0 0 0 0 0 0 0 0 0 0 0 0 0 0 127 0"/>
<feOffset dx="3" dy="6"/>
<feGaussianBlur stdDeviation="2"/>
<feColorMatrix type="matrix" values="0 0 0 0 0.85 0 0 0 0 0.85 0 0 0 0 0.85 0 0 0 1 0"/>
<feBlend mode="normal" in2="BackgroundImageFix" result="effect1_dropShadow"/>
<feBlend mode="normal" in="SourceGraphic" in2="effect1_dropShadow" result="shape"/>
</filter>
</defs>
</svg>
