<svg width="93" height="65" viewBox="0 0 93 65" fill="none" xmlns="http://www.w3.org/2000/svg">
<path d="M48.1683 6.20952C48.7822 9.80298 47.0784 13.0134 47.0784 13.0134C47.0784 13.0134 44.3747 10.3981 43.7608 6.80386C43.1468 3.2096 44.8506 0 44.8506 0C44.8506 0 47.5543 2.61445 48.1683 6.20952Z" fill="#F50057"/>
<path d="M59.5845 11.9351C61.8123 11.9134 63.6314 12.9746 63.6314 12.9746C63.6314 12.9746 61.8386 14.0706 59.6108 14.0915C57.383 14.1125 55.5638 13.0521 55.5638 13.0521C55.5638 13.0521 57.3566 11.9569 59.5845 11.9351Z" fill="#F50057"/>
<path d="M53.3197 6.47243C51.2463 8.49577 50.8076 11.1401 50.8076 11.1401C50.8076 11.1401 53.7302 10.503 55.8027 8.47883C57.8753 6.45469 58.3157 3.81201 58.3157 3.81201C58.3157 3.81201 55.3931 4.44909 53.3197 6.47243Z" fill="#46455B"/>
<path opacity="0.1" d="M46.5 65C72.1812 65 93 62.4536 93 59.3125C93 56.1714 72.1812 53.625 46.5 53.625C20.8188 53.625 0 56.1714 0 59.3125C0 62.4536 20.8188 65 46.5 65Z" fill="#F50057"/>
<path d="M18.9179 44.0085H32.599V62.5234H17.8008V44.0085H18.9179Z" fill="#EEEFF0"/>
<path d="M30.7299 46.6633H19.6689V48.7867H30.7299V46.6633Z" fill="#F50057"/>
<path d="M29.7591 51.4084H20.6407V51.5415H29.7591V51.4084Z" fill="#373E46"/>
<path d="M29.7591 52.1382H20.6407V52.2712H29.7591V52.1382Z" fill="#373E46"/>
<path d="M29.7591 52.8679H20.6407V53.001H29.7591V52.8679Z" fill="#373E46"/>
<path d="M29.7591 53.5979H20.6407V53.731H29.7591V53.5979Z" fill="#373E46"/>
<path d="M29.7591 54.3276H20.6407V54.4607H29.7591V54.3276Z" fill="#373E46"/>
<path d="M29.7591 55.0583H20.6407V55.1914H29.7591V55.0583Z" fill="#373E46"/>
<path d="M29.7591 55.7881H20.6407V55.9211H29.7591V55.7881Z" fill="#373E46"/>
<path d="M29.7591 56.5181H20.6407V56.6511H29.7591V56.5181Z" fill="#373E46"/>
<path d="M29.7591 57.2478H20.6407V57.3809H29.7591V57.2478Z" fill="#373E46"/>
<path d="M29.7591 57.9775H20.6407V58.1106H29.7591V57.9775Z" fill="#373E46"/>
<path d="M29.7591 58.7083H20.6407V58.8413H29.7591V58.7083Z" fill="#373E46"/>
<path d="M40.2179 44.0085H53.8991V62.5234H39.1008V44.0085H40.2179Z" fill="#EEEFF0"/>
<path d="M52.03 46.6633H40.969V48.7867H52.03V46.6633Z" fill="#F50057"/>
<path d="M51.0592 51.4084H41.9408V51.5415H51.0592V51.4084Z" fill="#373E46"/>
<path d="M51.0592 52.1382H41.9408V52.2712H51.0592V52.1382Z" fill="#373E46"/>
<path d="M51.0592 52.8679H41.9408V53.001H51.0592V52.8679Z" fill="#373E46"/>
<path d="M51.0592 53.5979H41.9408V53.731H51.0592V53.5979Z" fill="#373E46"/>
<path d="M51.0592 54.3276H41.9408V54.4607H51.0592V54.3276Z" fill="#373E46"/>
<path d="M51.0592 55.0583H41.9408V55.1914H51.0592V55.0583Z" fill="#373E46"/>
<path d="M51.0592 55.7881H41.9408V55.9211H51.0592V55.7881Z" fill="#373E46"/>
<path d="M51.0592 56.5181H41.9408V56.6511H51.0592V56.5181Z" fill="#373E46"/>
<path d="M51.0592 57.2478H41.9408V57.3809H51.0592V57.2478Z" fill="#373E46"/>
<path d="M51.0592 57.9775H41.9408V58.1106H51.0592V57.9775Z" fill="#373E46"/>
<path d="M51.0592 58.7083H41.9408V58.8413H51.0592V58.7083Z" fill="#373E46"/>
<path d="M61.5181 44.0085H75.1993V62.5234H60.401V44.0085H61.5181Z" fill="#EEEFF0"/>
<path d="M73.331 46.6633H62.27V48.7867H73.331V46.6633Z" fill="#F50057"/>
<path d="M72.3593 51.4084H63.241V51.5415H72.3593V51.4084Z" fill="#373E46"/>
<path d="M72.3593 52.1382H63.241V52.2712H72.3593V52.1382Z" fill="#373E46"/>
<path d="M72.3593 52.8679H63.241V53.001H72.3593V52.8679Z" fill="#373E46"/>
<path d="M72.3593 53.5979H63.241V53.731H72.3593V53.5979Z" fill="#373E46"/>
<path d="M72.3593 54.3276H63.241V54.4607H72.3593V54.3276Z" fill="#373E46"/>
<path d="M72.3593 55.0583H63.241V55.1914H72.3593V55.0583Z" fill="#373E46"/>
<path d="M72.3593 55.7881H63.241V55.9211H72.3593V55.7881Z" fill="#373E46"/>
<path d="M72.3593 56.5181H63.241V56.6511H72.3593V56.5181Z" fill="#373E46"/>
<path d="M72.3593 57.2478H63.241V57.3809H72.3593V57.2478Z" fill="#373E46"/>
<path d="M72.3593 57.9775H63.241V58.1106H72.3593V57.9775Z" fill="#373E46"/>
<path d="M72.3593 58.7083H63.241V58.8413H72.3593V58.7083Z" fill="#373E46"/>
<path d="M46.5 44.0085V31.2668L25.2 44.0085" stroke="#373E46" stroke-miterlimit="10"/>
<path d="M67.8001 44.0085L46.5 31.2668" stroke="#373E46" stroke-miterlimit="10"/>
<g opacity="0.1">
<path opacity="0.1" d="M36.3218 7.05786H34.5117V37.0571H58.4883V7.05786H36.3218Z" fill="black"/>
</g>
<path d="M36.7323 7.6626H58.0051V36.4522H34.9949V7.6626H36.7323Z" fill="white"/>
<path d="M55.0998 11.79H37.9003V15.0924H55.0998V11.79Z" fill="#F50057"/>
<path d="M53.5895 19.168H39.4115V19.3744H53.5895V19.168Z" fill="#373E46"/>
<path d="M53.5895 20.3027H39.4115V20.5092H53.5895V20.3027Z" fill="#373E46"/>
<path d="M53.5895 21.4382H39.4115V21.6447H53.5895V21.4382Z" fill="#373E46"/>
<path d="M53.5895 22.5728H39.4115V22.7792H53.5895V22.5728Z" fill="#373E46"/>
<path d="M53.5895 23.7083H39.4115V23.9147H53.5895V23.7083Z" fill="#373E46"/>
<path d="M53.5895 24.8438H39.4115V25.0502H53.5895V24.8438Z" fill="#373E46"/>
<path d="M53.5895 25.9783H39.4115V26.1847H53.5895V25.9783Z" fill="#373E46"/>
<path d="M53.5895 27.1138H39.4115V27.3202H53.5895V27.1138Z" fill="#373E46"/>
<path d="M53.5895 28.2485H39.4115V28.455H53.5895V28.2485Z" fill="#373E46"/>
<path d="M53.5895 29.384H39.4115V29.5905H53.5895V29.384Z" fill="#373E46"/>
<path d="M53.5895 30.5186H39.4115V30.725H53.5895V30.5186Z" fill="#373E46"/>
<path d="M12.0462 56.6027C12.0616 56.9253 11.8319 57.2083 11.613 57.464C11.5144 57.5838 11.4254 57.7096 11.3469 57.8406C11.1089 58.2164 10.5976 58.3954 10.3206 58.7502C10.2543 58.8365 10.2025 58.9309 10.1435 59.022C9.943 59.3344 9.69107 59.6184 9.39606 59.8647L8.90018 60.2808C8.74971 60.3914 8.62348 60.5256 8.52781 60.6768C8.44475 60.8629 8.41178 61.0637 8.43154 61.2631V61.3292C8.43154 61.3445 8.43154 61.359 8.43154 61.3744C8.43199 61.6185 8.46245 61.8619 8.52236 62.1002C8.55503 62.1731 8.56013 62.2535 8.5369 62.3292C8.51394 62.3661 8.48239 62.3983 8.44434 62.4236C8.40629 62.449 8.36261 62.4668 8.3162 62.4759C8.22069 62.5114 8.11462 62.5176 8.01468 62.4937C7.92103 62.4555 7.84253 62.3931 7.78945 62.3147C7.497 61.9582 7.37894 61.5171 7.20456 61.105C7.19046 61.0607 7.18923 61.014 7.20098 60.9691C7.21273 60.9243 7.23709 60.8828 7.27177 60.8486C7.34112 60.7808 7.41744 60.719 7.49973 60.6639C7.84485 60.3962 8.0056 59.9921 8.13547 59.6026C8.26534 59.2131 8.39431 58.8059 8.69583 58.5002C8.8911 58.3019 9.14993 58.1591 9.36609 57.9809C9.91101 57.5341 10.1835 56.8833 10.3215 56.2382C10.4885 56.2101 10.6597 56.2082 10.8274 56.2326L11.7192 56.3374C11.8174 56.3387 11.9117 56.3716 11.9844 56.4301C12.0256 56.4802 12.0473 56.5407 12.0462 56.6027Z" fill="#EFB7B9"/>
<path d="M15.8546 57.2567C15.8359 57.3764 15.7885 57.491 15.7156 57.593C15.6082 57.7397 15.4867 57.8779 15.3523 58.0059C15.0118 58.3535 14.9536 58.8478 14.7366 59.2664C14.6666 59.4019 14.5786 59.5301 14.5077 59.6696C14.3206 60.0252 14.2516 60.4163 14.2107 60.8099C14.2062 60.8599 14.2007 60.9107 14.1971 60.9615C14.1935 61.0123 14.1862 61.0865 14.1808 61.1486C14.1671 61.3099 14.1553 61.4865 14.2334 61.6324C14.2743 61.7131 14.3397 61.7728 14.3424 61.8574C14.208 61.9736 13.9791 61.9599 13.8229 61.8663C13.6742 61.763 13.5601 61.6255 13.4933 61.4687C13.3495 61.1905 13.2454 60.8974 13.1836 60.5962C13.1599 60.4825 13.149 60.3478 13.2417 60.2655C13.2932 60.2295 13.3476 60.1966 13.4042 60.1672C13.5178 60.0865 13.5505 59.9494 13.5759 59.8228C13.6631 59.3879 13.7506 58.9532 13.8384 58.5188C13.8576 58.4123 13.8834 58.3067 13.9156 58.2027C13.99 57.9696 14.1036 57.71 14.3161 57.5575C14.3435 57.5351 14.364 57.5068 14.3758 57.4753C14.3875 57.4439 14.3901 57.4103 14.3833 57.3777C14.368 57.3127 14.3397 57.2507 14.2997 57.1946C14.1417 56.943 13.9519 56.6898 13.664 56.5495C13.9605 56.3292 14.2988 56.1575 14.663 56.0423C14.7269 56.0153 14.7979 56.0044 14.8683 56.0108C14.9061 56.0181 14.9423 56.0309 14.9754 56.0487C15.1651 56.1553 15.3311 56.2919 15.465 56.4519C15.6766 56.6874 15.8936 56.9592 15.8546 57.2567Z" fill="#EFB7B9"/>
<path d="M8.9134 62.3992C8.82507 62.3246 8.72272 62.2643 8.61097 62.221C8.58605 62.2076 8.55818 62.199 8.52923 62.196C8.4593 62.196 8.40663 62.2492 8.34759 62.2766C8.29878 62.3001 8.24415 62.3123 8.18866 62.3123C8.13316 62.3123 8.07854 62.3001 8.02972 62.2766C7.93316 62.2285 7.85191 62.1594 7.79359 62.0758C7.66644 61.9089 7.64101 61.7428 7.58834 61.5597L8.14325 61.467C8.24411 61.4459 8.34148 61.4134 8.43297 61.3702C8.43297 61.3549 8.43297 61.3404 8.43297 61.325V61.2589C8.33034 61.2855 8.11328 61.375 8.06151 61.3855C7.8945 61.4191 7.72522 61.4431 7.55473 61.4573C7.52839 61.4105 7.49025 61.3702 7.46391 61.3242C7.40156 61.2327 7.36193 61.1304 7.34766 61.0242C7.3465 60.982 7.33729 60.9403 7.32042 60.9009C7.31164 60.8812 7.29588 60.8647 7.27555 60.8538C7.25522 60.8429 7.23143 60.8382 7.2078 60.8404C7.18963 60.8445 7.17262 60.8519 7.15785 60.8621C7.0023 60.9578 6.8817 61.0918 6.81091 61.2476C6.70738 61.4783 6.72009 61.7363 6.68104 61.9823C6.64925 62.1669 6.58568 62.35 6.59658 62.5363C6.59636 62.5463 6.59952 62.5561 6.60566 62.5645C6.61503 62.5726 6.62717 62.5777 6.64017 62.579C6.75551 62.6016 6.88902 62.6218 6.98256 62.5581C7.07611 62.4944 7.08973 62.3734 7.1079 62.2686C7.132 62.1287 7.17945 61.9928 7.24867 61.8653C7.39185 62.0211 7.4667 62.2176 7.45937 62.4186C7.45937 62.529 7.44484 62.6556 7.53021 62.7363C7.57211 62.772 7.62326 62.7981 7.67916 62.8121C7.79314 62.8471 7.91145 62.8699 8.03154 62.8798C8.24978 62.8912 8.46877 62.8812 8.68454 62.85C8.75265 62.8427 8.82168 62.8347 8.88888 62.8218C8.92352 62.8164 8.95639 62.8043 8.98515 62.7863C9.01618 62.7606 9.0361 62.7261 9.04146 62.6887C9.04614 62.635 9.03705 62.581 9.01487 62.5309C8.99269 62.4808 8.958 62.4357 8.9134 62.3992Z" fill="#464353"/>
<path d="M14.6333 61.7822C14.5793 61.7393 14.518 61.7042 14.4517 61.6782C14.3987 61.649 14.3386 61.6313 14.2764 61.6266C14.2065 61.6328 14.1386 61.6511 14.0766 61.6806C14.0455 61.6951 14.0111 61.7034 13.9759 61.7048C13.9408 61.7062 13.9057 61.7007 13.8732 61.6887C13.8247 61.6572 13.7892 61.6124 13.7724 61.5613C13.6943 61.4 13.6361 61.2242 13.568 61.0564C13.5839 61.034 13.6074 61.0168 13.6352 61.0073C13.6563 61.0013 13.6785 60.9989 13.7006 61C13.8652 61.0044 14.0297 60.9901 14.1901 60.9573C14.1901 60.9064 14.1992 60.8556 14.2038 60.8056C14.0888 60.7961 13.9729 60.8048 13.8614 60.8315C13.7842 60.8579 13.7012 60.8681 13.6189 60.8613C13.5626 60.8508 13.509 60.8202 13.4545 60.8137C13.4291 60.771 13.4009 60.7331 13.3737 60.6879C13.3056 60.5806 13.2828 60.4557 13.2175 60.3508C13.2072 60.3329 13.192 60.3177 13.1733 60.3065C13.1545 60.2954 13.1328 60.2887 13.1103 60.2871C13.0862 60.29 13.0631 60.2971 13.0422 60.308C13.0213 60.319 13.0031 60.3335 12.9886 60.3508C12.871 60.4446 12.7737 60.5566 12.7016 60.6815C12.6746 60.7392 12.6539 60.7992 12.6398 60.8605C12.549 61.204 12.5054 61.556 12.51 61.9088C12.6105 61.9374 12.7167 61.9465 12.8215 61.9355C12.8754 61.6978 12.9411 61.4626 13.0186 61.2298C13.0193 61.2255 13.0209 61.2214 13.0234 61.2177C13.0259 61.2139 13.0292 61.2107 13.0331 61.2081C13.0503 61.2 13.0676 61.2161 13.0776 61.2306C13.1725 61.356 13.249 61.4914 13.3056 61.6339C13.3284 61.7378 13.3678 61.8382 13.4227 61.9322C13.4936 62.0183 13.596 62.0799 13.7124 62.1064C13.8283 62.1324 13.9472 62.1459 14.0666 62.1467L14.2483 62.1548C14.3441 62.165 14.4413 62.1584 14.5344 62.1354C14.581 62.1235 14.6228 62.1 14.6549 62.0677C14.6871 62.0354 14.7083 61.9957 14.716 61.9532C14.7169 61.9211 14.7099 61.8892 14.6957 61.8597C14.6814 61.8302 14.6601 61.8038 14.6333 61.7822Z" fill="#464353"/>
<path d="M15.4649 56.3316C15.385 56.3916 15.2878 56.4307 15.1843 56.4445L14.8764 56.5115C14.8588 56.5125 14.8415 56.5169 14.8259 56.5243C14.8102 56.5316 14.7965 56.5418 14.7856 56.5542C14.7683 56.5832 14.7802 56.6187 14.772 56.6502C14.7687 56.6627 14.7622 56.6743 14.7529 56.684C14.7092 56.7184 14.6522 56.7363 14.594 56.734C14.5433 56.7324 14.4928 56.7392 14.445 56.7542C14.4251 56.7618 14.4078 56.7741 14.3951 56.7897C14.3796 56.8099 14.3724 56.8349 14.356 56.8534C14.3282 56.8804 14.2906 56.8978 14.2498 56.9026C14.2076 56.9113 14.1648 56.9172 14.1217 56.9203C13.9506 56.9339 13.7787 56.906 13.624 56.8397C13.5878 56.8171 13.5434 56.8076 13.4996 56.8131C13.474 56.8214 13.4523 56.837 13.4378 56.8574C13.4219 56.8792 13.4046 56.9002 13.3861 56.9203C13.307 56.9961 13.169 56.976 13.0555 56.955C12.9846 56.9413 12.9138 56.93 12.843 56.9195C12.4165 56.8672 11.9866 56.8402 11.556 56.8389C10.9975 56.8236 10.4398 56.8099 9.90037 56.6929C9.78231 56.6679 9.63972 56.6123 9.64608 56.5002C9.64608 56.4389 9.7042 56.3865 9.7042 56.3252C9.7042 56.2212 9.5598 56.1639 9.44446 56.1478C9.48624 55.5768 9.87222 55.0776 10.0729 54.5349C10.1229 54.4002 10.1638 54.2623 10.2164 54.1317C10.4607 53.5317 10.9984 53.0704 11.4452 52.5704C11.514 52.5005 11.5704 52.4216 11.6123 52.3366C11.6507 52.2349 11.6706 52.1285 11.6714 52.0213L11.6959 51.6447C12.3505 51.6046 13.0082 51.641 13.6522 51.7527C13.6948 51.7569 13.7343 51.7743 13.7639 51.8019C13.7777 51.822 13.786 51.8446 13.7884 51.868C13.8138 52.0051 13.8311 52.1438 13.8411 52.2825C13.8418 52.3131 13.8466 52.3434 13.8556 52.3729C13.873 52.4101 13.8969 52.4446 13.9264 52.4753C14.3052 52.9019 14.5313 53.4236 14.7129 53.9502C14.8946 54.4768 15.039 55.0123 15.2679 55.5236C15.346 55.7002 15.4495 55.8986 15.4695 56.0881C15.5052 56.121 15.5247 56.1651 15.5239 56.2107C15.523 56.2563 15.5018 56.2998 15.4649 56.3316Z" fill="#464353"/>
<path opacity="0.1" d="M12.8465 56.9171C12.42 56.8648 11.9901 56.8378 11.5596 56.8365L11.595 55.776C11.6032 55.5414 11.6113 55.3059 11.6431 55.0728C11.6876 54.7414 11.7784 54.4156 11.8248 54.0849C11.8506 53.895 11.8625 53.7037 11.8602 53.5124C11.8476 53.3182 11.8537 53.1234 11.8783 52.9301C11.9083 52.7688 11.9855 52.5487 12.1508 52.4624C12.2607 52.5955 12.0918 52.9688 12.0727 53.1285C12.0318 53.4616 12.1326 53.793 12.2198 54.118C12.3243 54.5083 12.4096 54.9027 12.4923 55.297C12.6116 55.8357 12.7296 56.3757 12.8465 56.9171Z" fill="black"/>
<path opacity="0.1" d="M14.1255 56.9205C13.9544 56.934 13.7824 56.9061 13.6278 56.8398C13.5916 56.8173 13.5471 56.8078 13.5034 56.8132C13.4778 56.8215 13.4561 56.8371 13.4416 56.8576C13.2954 56.2415 13.3036 55.5995 13.1873 54.977C13.1464 54.7544 13.0892 54.5278 13.1374 54.3076C13.1891 54.0714 13.3571 53.8665 13.4225 53.6335C13.4574 53.4793 13.4696 53.3219 13.4589 53.1649C13.4501 53.0255 13.4119 52.8887 13.3462 52.7617C13.4997 52.7843 13.6251 52.9182 13.6868 53.0391C13.7533 53.1905 13.7872 53.3516 13.7867 53.5141C13.8113 53.906 13.8149 54.2972 13.8085 54.6891C13.8003 54.8717 13.8049 55.0546 13.8221 55.2367C13.8449 55.4165 13.8948 55.5923 13.913 55.7721C13.932 55.9883 13.9039 56.2092 13.9629 56.4173C14.0083 56.585 14.1119 56.7544 14.1255 56.9205Z" fill="black"/>
<path opacity="0.1" d="M14.7562 56.684C14.7125 56.7183 14.6555 56.7362 14.5972 56.734C14.5466 56.7323 14.4961 56.7392 14.4483 56.7541L14.1922 55.3493C14.1569 55.177 14.1323 55.0031 14.1186 54.8284C14.1077 54.626 14.125 54.4252 14.1095 54.2211C14.0808 53.9738 14.0282 53.7291 13.9524 53.4897C13.9125 53.347 13.7308 52.9195 13.8325 52.7986C13.9915 52.8897 14.0887 53.0849 14.1422 53.2413C14.1979 53.4222 14.2332 53.6075 14.2476 53.7945C14.2876 54.1547 14.3281 54.5157 14.3693 54.8776C14.4365 55.4776 14.5064 56.0872 14.7417 56.6517C14.7471 56.6614 14.7516 56.6727 14.7562 56.684Z" fill="black"/>
<path d="M16.0951 50.0351C16.2087 49.9496 16.3231 49.8633 16.4284 49.769C16.5759 49.6298 16.7122 49.4816 16.8362 49.3254C16.9754 49.1698 17.0911 48.9988 17.1804 48.8166C17.2713 48.6045 17.3021 48.3634 17.4638 48.1876C17.4824 48.1648 17.5079 48.1472 17.5374 48.1368C17.6282 48.1109 17.6981 48.2174 17.719 48.298C17.8053 48.7133 17.6 49.1279 17.3993 49.5077C17.3414 49.6378 17.2563 49.7571 17.1487 49.8593C17.0857 49.9073 17.0199 49.9522 16.9516 49.994C16.8507 50.0668 16.7576 50.1477 16.6737 50.2359C16.5302 50.3811 16.3921 50.5319 16.2622 50.6875C16.1104 50.8866 15.9419 51.0753 15.7582 51.252C15.5731 51.4293 15.3285 51.5487 15.0607 51.5923C15.137 51.5826 15.1116 51.1843 15.1034 51.1343C15.0916 51.0609 15.0353 50.973 15.0334 50.9044C15.0334 50.8173 15.0716 50.8044 15.1533 50.7431L16.0951 50.0351Z" fill="#EFB7B9"/>
<path opacity="0.1" d="M16.0951 50.0351C16.2087 49.9496 16.3231 49.8633 16.4284 49.769C16.5759 49.6298 16.7122 49.4816 16.8362 49.3254C16.9754 49.1698 17.0911 48.9988 17.1804 48.8166C17.2713 48.6045 17.3021 48.3634 17.4638 48.1876C17.4824 48.1648 17.5079 48.1472 17.5374 48.1368C17.6282 48.1109 17.6981 48.2174 17.719 48.298C17.8053 48.7133 17.6 49.1279 17.3993 49.5077C17.3414 49.6378 17.2563 49.7571 17.1487 49.8593C17.0857 49.9073 17.0199 49.9522 16.9516 49.994C16.8507 50.0668 16.7576 50.1477 16.6737 50.2359C16.5302 50.3811 16.3921 50.5319 16.2622 50.6875C16.1104 50.8866 15.9419 51.0753 15.7582 51.252C15.5731 51.4293 15.3285 51.5487 15.0607 51.5923C15.137 51.5826 15.1116 51.1843 15.1034 51.1343C15.0916 51.0609 15.0353 50.973 15.0334 50.9044C15.0334 50.8173 15.0716 50.8044 15.1533 50.7431L16.0951 50.0351Z" fill="black"/>
<path d="M12.8854 47.5222C12.8854 47.5222 12.6238 48.6746 12.3232 48.8698C12.0226 49.0649 13.9662 49.2915 13.9662 49.2915C13.9662 49.2915 14.0098 48.3706 14.5283 47.948C15.0469 47.5254 12.8854 47.5222 12.8854 47.5222Z" fill="#EFB7B9"/>
<path d="M12.3686 48.7527C12.2397 48.7694 12.1217 48.8267 12.0362 48.914C11.8328 49.1092 11.7919 49.4059 11.8618 49.6648C11.9479 49.9205 12.0861 50.1599 12.2696 50.3712C12.4808 50.664 12.7415 50.9262 13.0425 51.1486C13.2104 51.2565 13.3848 51.3564 13.5647 51.4478C13.8632 51.6107 14.1501 51.7898 14.4239 51.9841C14.4843 52.032 14.5529 52.0709 14.6273 52.0994C14.6913 52.117 14.7583 52.1247 14.8253 52.122C15.0524 52.1202 15.2763 52.0739 15.481 51.9865C15.5002 51.98 15.5171 51.9692 15.5301 51.9551C15.5373 51.9402 15.541 51.9241 15.541 51.9079C15.541 51.8917 15.5373 51.8756 15.5301 51.8607C15.4075 51.4236 15.6427 50.9269 15.4093 50.5269C15.1559 50.5994 14.8771 50.6785 14.6237 50.7519C14.5847 50.7655 14.5429 50.7718 14.5011 50.7704C14.4506 50.7611 14.4045 50.7386 14.3685 50.7059C14.096 50.4946 13.9198 50.2003 13.7618 49.9099C13.6038 49.6196 13.4503 49.3188 13.2032 49.0825C12.9562 48.8463 12.7301 48.7188 12.3686 48.7527Z" fill="#F50057"/>
<path opacity="0.1" d="M12.3686 48.7527C12.2397 48.7694 12.1217 48.8267 12.0362 48.914C11.8328 49.1092 11.7919 49.4059 11.8618 49.6648C11.9479 49.9205 12.0861 50.1599 12.2696 50.3712C12.4808 50.664 12.7415 50.9262 13.0425 51.1486C13.2104 51.2565 13.3848 51.3564 13.5647 51.4478C13.8632 51.6107 14.1501 51.7898 14.4239 51.9841C14.4843 52.032 14.5529 52.0709 14.6273 52.0994C14.6913 52.117 14.7583 52.1247 14.8253 52.122C15.0524 52.1202 15.2763 52.0739 15.481 51.9865C15.5002 51.98 15.5171 51.9692 15.5301 51.9551C15.5373 51.9402 15.541 51.9241 15.541 51.9079C15.541 51.8917 15.5373 51.8756 15.5301 51.8607C15.4075 51.4236 15.6427 50.9269 15.4093 50.5269C15.1559 50.5994 14.8771 50.6785 14.6237 50.7519C14.5847 50.7655 14.5429 50.7718 14.5011 50.7704C14.4506 50.7611 14.4045 50.7386 14.3685 50.7059C14.096 50.4946 13.9198 50.2003 13.7618 49.9099C13.6038 49.6196 13.4503 49.3188 13.2032 49.0825C12.9562 48.8463 12.7301 48.7188 12.3686 48.7527Z" fill="black"/>
<path d="M13.9019 48.3859C14.6182 48.3859 15.1988 47.8703 15.1988 47.2343C15.1988 46.5983 14.6182 46.0828 13.9019 46.0828C13.1856 46.0828 12.605 46.5983 12.605 47.2343C12.605 47.8703 13.1856 48.3859 13.9019 48.3859Z" fill="#EFB7B9"/>
<path d="M14.4198 50.5495V50.5543C14.3444 50.6777 14.2327 50.7817 14.1555 50.9043C14.0756 51.0473 14.0214 51.2005 13.9948 51.3583C13.9703 51.4631 13.9485 51.568 13.9285 51.6736C13.9085 51.7793 13.8885 51.8873 13.8704 51.9962C13.4789 51.8785 13.0448 52.0768 12.6388 52.0043C12.5199 51.9722 12.3985 51.9479 12.2756 51.9317C12.1847 51.9317 12.0939 51.9462 12.0031 51.9389C11.8532 51.926 11.7043 51.8422 11.5608 51.8849C11.4972 51.9043 11.4182 51.9446 11.3719 51.9002C11.3614 51.8884 11.3534 51.8751 11.3483 51.8607C11.3012 51.7729 11.2845 51.6747 11.3001 51.5785C11.3341 51.5016 11.3796 51.4292 11.4355 51.3631C11.5049 51.2334 11.5409 51.0915 11.5408 50.9478C11.5672 50.5777 11.5663 50.2043 11.6316 49.8382C11.697 49.4721 11.8442 49.1076 12.123 48.831C12.2517 48.6872 12.437 48.5921 12.6416 48.5648C13.3917 48.5108 13.9975 48.8777 14.3254 49.4608C14.5188 49.7979 14.6224 50.2148 14.4198 50.5495Z" fill="#F50057"/>
<path d="M16.6138 50.1891C16.7282 50.1029 16.8427 50.0174 16.9471 49.9222C17.0948 49.7835 17.2311 49.6356 17.3549 49.4795C17.4947 49.3238 17.6107 49.1524 17.7 48.9698C17.7908 48.7585 17.8208 48.5174 17.9834 48.3416C18.0014 48.3187 18.0267 48.301 18.056 48.2908C18.1469 48.265 18.2168 48.3714 18.2377 48.4521C18.3285 48.8674 18.1178 49.2827 17.9171 49.6617C17.8598 49.792 17.775 49.9113 17.6673 50.0133C17.6065 50.0633 17.5356 50.1029 17.4702 50.1472C17.3689 50.2196 17.2758 50.3006 17.1923 50.3891C17.0482 50.5354 16.9108 50.6859 16.78 50.8407C16.6282 51.0397 16.46 51.2283 16.2769 51.4052C16.0913 51.5825 15.8464 51.7021 15.5785 51.7464C15.6557 51.7367 15.6302 51.3375 15.6221 51.2875C15.594 51.2124 15.5707 51.1359 15.5521 51.0585C15.5521 50.9706 15.5903 50.9577 15.6711 50.8972L16.6138 50.1891Z" fill="#EFB7B9"/>
<path opacity="0.1" d="M14.2895 50.5884V50.5932C14.215 50.7166 14.1024 50.8198 14.0252 50.9432C13.9451 51.0861 13.8909 51.2393 13.8644 51.3972C13.8408 51.5021 13.8181 51.6069 13.7981 51.7125C13.6414 51.6334 13.4897 51.5464 13.344 51.4521C13.0425 51.23 12.7814 50.9677 12.5703 50.6747C12.3867 50.4634 12.2485 50.2239 12.1625 49.9682C12.0925 49.7094 12.1334 49.4126 12.3378 49.2174C12.4235 49.1314 12.5411 49.0756 12.6692 49.0602C13.0325 49.0255 13.2596 49.1497 13.5066 49.3828C13.7536 49.6158 13.9071 49.919 14.0652 50.2102C14.136 50.34 14.2077 50.4674 14.2895 50.5884Z" fill="black"/>
<path d="M12.8869 48.9059C12.7583 48.9228 12.6407 48.9801 12.5555 49.0672C12.3511 49.2624 12.3102 49.5591 12.3811 49.818C12.4519 50.0769 12.6172 50.3019 12.788 50.5244C12.9996 50.8172 13.2606 51.0793 13.5617 51.3018C13.7294 51.4095 13.9034 51.5091 14.0831 51.6002C14.3817 51.763 14.6686 51.9421 14.9422 52.1365C15.0023 52.1847 15.0711 52.2237 15.1456 52.2518C15.2099 52.2697 15.2772 52.2776 15.3445 52.2752C15.5717 52.2726 15.7954 52.2261 16.0003 52.1389C16.0196 52.1326 16.0365 52.1218 16.0493 52.1075C16.0565 52.0927 16.0602 52.0768 16.0602 52.0607C16.0602 52.0446 16.0565 52.0287 16.0493 52.0139C15.9276 51.576 16.1628 51.0793 15.9294 50.6793L15.1429 50.9043C15.1041 50.9183 15.0622 50.9247 15.0203 50.9228C14.9702 50.9131 14.9243 50.891 14.8877 50.8591C14.6153 50.6478 14.4391 50.3535 14.281 50.0623C14.123 49.7712 13.9704 49.472 13.7225 49.2358C13.4746 48.9995 13.2484 48.8696 12.8869 48.9059Z" fill="#F50057"/>
<path d="M14.7401 46.4295C14.8664 46.3029 14.8391 46.0973 14.7292 45.9594C14.607 45.8277 14.4514 45.7235 14.2751 45.6553C14.0072 45.5287 13.6993 45.407 13.4114 45.494C13.3011 45.5336 13.1953 45.5825 13.0954 45.64C12.9047 45.7344 12.694 45.794 12.4996 45.8819C12.2976 45.9609 12.1331 46.1001 12.0346 46.2755C11.9529 46.4505 11.9783 46.648 12.0001 46.84C12.0417 47.1314 12.0438 47.4263 12.0065 47.7182C11.9679 48.0117 11.8405 48.2904 11.6377 48.5246C11.4915 48.6859 11.2981 48.8165 11.21 49.0085C11.1669 49.1181 11.1427 49.2328 11.1382 49.3488L11.091 49.8439C11.0728 50.0415 11.0447 50.2568 10.8839 50.3947C11.0543 50.3791 11.2193 50.333 11.3692 50.2592C11.519 50.1855 11.6505 50.0857 11.7558 49.9657C11.9202 49.8044 12.0909 49.6335 12.14 49.4206C12.1772 49.2593 12.1463 49.0811 12.2553 48.9512C12.3834 48.798 12.6567 48.7964 12.8384 48.898C13.02 48.9996 13.1317 49.1738 13.2289 49.3439C13.3261 49.5141 13.4232 49.6923 13.5922 49.8125C13.7297 49.9055 13.8916 49.966 14.0626 49.9883C14.1187 50.0031 14.1777 50.0071 14.2356 50C14.2936 49.9929 14.3492 49.9749 14.3987 49.9472C14.5231 49.8585 14.5104 49.6883 14.4704 49.5512C14.4168 49.3698 14.3342 49.181 14.3923 48.9996C14.4114 48.9399 14.445 48.8835 14.4659 48.8238C14.4913 48.7369 14.5032 48.6474 14.5013 48.5577C14.5131 48.1077 14.5367 47.623 14.3723 47.1867C14.3196 47.048 14.178 46.9158 14.2506 46.7658C14.3423 46.5755 14.603 46.569 14.7401 46.4295Z" fill="#464353"/>
<g opacity="0.1">
<path opacity="0.1" d="M12.0337 47.2003C12.0405 46.9876 12.0305 46.7747 12.0037 46.5632C12.0037 46.5221 11.9938 46.4826 11.9901 46.4382C11.9784 46.5697 11.9829 46.702 12.0037 46.8326C12.0174 46.9543 12.0283 47.0769 12.0337 47.2003Z" fill="black"/>
<path opacity="0.1" d="M14.4005 49.6704C14.3509 49.6979 14.2953 49.7158 14.2374 49.7229C14.1795 49.73 14.1206 49.7261 14.0645 49.7115C13.8934 49.6893 13.7315 49.6288 13.594 49.5357C13.4269 49.4148 13.3306 49.2366 13.2307 49.0672C13.1308 48.8979 13.0218 48.722 12.8402 48.6212C12.6586 48.5204 12.3861 48.5213 12.2571 48.6745C12.1481 48.8043 12.179 48.9849 12.1418 49.1438C12.0927 49.3567 11.922 49.5285 11.7576 49.689C11.6745 49.7767 11.5804 49.8557 11.477 49.9244C11.3479 49.9974 11.2057 50.0504 11.0565 50.0809C11.0358 50.1958 10.9763 50.3024 10.8857 50.3865C11.0561 50.3708 11.2212 50.3248 11.371 50.251C11.5208 50.1773 11.6523 50.0775 11.7576 49.9575C11.922 49.7962 12.0927 49.6253 12.1418 49.4124C12.179 49.2511 12.1481 49.0728 12.2571 48.943C12.3852 48.7898 12.6586 48.7882 12.8402 48.8898C13.0218 48.9914 13.1335 49.1656 13.2307 49.3357C13.3279 49.5059 13.4251 49.6841 13.594 49.8043C13.7315 49.8973 13.8934 49.9578 14.0645 49.9801C14.1205 49.9949 14.1795 49.9989 14.2375 49.9918C14.2954 49.9847 14.351 49.9667 14.4005 49.939C14.5167 49.8583 14.5131 49.697 14.4795 49.5696C14.464 49.609 14.4367 49.6438 14.4005 49.6704Z" fill="black"/>
<path opacity="0.1" d="M14.7399 46.1609C14.6027 46.2996 14.3421 46.3068 14.2522 46.4915C14.2367 46.5292 14.2306 46.5695 14.2346 46.6095C14.2385 46.6495 14.2523 46.6882 14.2749 46.723C14.3793 46.5738 14.6127 46.5617 14.7399 46.4294C14.7831 46.3804 14.811 46.3223 14.8211 46.2608C14.8311 46.1992 14.8229 46.1364 14.7971 46.0786C14.7837 46.1088 14.7643 46.1367 14.7399 46.1609Z" fill="black"/>
<path opacity="0.1" d="M14.5034 48.281C14.5053 48.3707 14.4934 48.4602 14.4679 48.5471C14.4471 48.6068 14.4134 48.6624 14.3944 48.7229C14.3698 48.8138 14.3698 48.9086 14.3944 48.9995V48.9914C14.4134 48.9318 14.4471 48.8753 14.4679 48.8156C14.4934 48.7288 14.5053 48.6393 14.5034 48.5495C14.5079 48.3705 14.5143 48.1866 14.5106 48.002C14.5088 48.0955 14.5061 48.189 14.5034 48.281Z" fill="black"/>
</g>
<path d="M75.2101 54.1116C75.2101 58.1631 78.0727 61.442 81.6102 61.442L75.2101 54.1116Z" fill="#46455B"/>
<path d="M81.6102 61.4427C81.6102 57.3453 84.8053 54.03 88.7532 54.03L81.6102 61.4427Z" fill="#F50057"/>
<path d="M77.5297 54.4792C77.5297 58.3283 79.3552 61.4428 81.6102 61.4428L77.5297 54.4792Z" fill="#F50057"/>
<path d="M81.6102 61.4428C81.6102 56.2074 85.303 51.9705 89.8658 51.9705L81.6102 61.4428Z" fill="#46455B"/>
<path opacity="0.1" d="M81.3332 62.8429C82.212 62.8429 82.9244 62.736 82.9244 62.6042C82.9244 62.4724 82.212 62.3655 81.3332 62.3655C80.4545 62.3655 79.7421 62.4724 79.7421 62.6042C79.7421 62.736 80.4545 62.8429 81.3332 62.8429Z" fill="#F50057"/>
<path d="M80.2643 61.4945C80.2643 61.4945 81.1725 61.4695 81.4449 61.2969C81.7174 61.1244 82.8409 60.9171 82.909 61.1945C82.9771 61.4719 84.2713 62.5743 83.2477 62.5816C82.2242 62.5888 80.8664 62.4397 80.594 62.2921C80.3215 62.1445 80.2643 61.4945 80.2643 61.4945Z" fill="#A8A8A8"/>
<path opacity="0.2" d="M83.2668 62.4848C82.2423 62.492 80.8864 62.3428 80.613 62.1952C80.4051 62.0832 80.3224 61.6791 80.2942 61.4937H80.2643C80.2643 61.4937 80.3215 62.1436 80.5949 62.2912C80.8682 62.4388 82.2242 62.588 83.2486 62.5807C83.5447 62.5807 83.6464 62.4848 83.641 62.3469C83.6001 62.4307 83.4875 62.4831 83.2668 62.4848Z" fill="black"/>
</svg>
