<svg height="512" viewBox="0 0 512 512" width="512" xmlns="http://www.w3.org/2000/svg"><g><path d="m448 80a24 24 0 1 0 -24 24 24.027 24.027 0 0 0 24-24zm-32 0a8 8 0 1 1 8 8 8.009 8.009 0 0 1 -8-8z"/><path d="m462.62 153.75c22.15-32.65 33.38-57.46 33.38-73.75a72 72 0 0 0 -142.49-14.66 231.9 231.9 0 1 0 100.75 100.37c2.72-3.79 5.54-7.8 8.36-11.96zm-322.49-68.93a214.506 214.506 0 0 1 51.05-21.23c-12.93 11.49-24.79 27.02-35.08 46.24-11.45 21.36-20.35 46.14-26.46 73.07-24.72-7.33-46.25-16.95-62.9-28.4a217.4 217.4 0 0 1 73.39-69.68zm-81.62 83.45c18.33 12.47 41.48 22.77 67.9 30.5a410.578 410.578 0 0 0 -6.33 65.23h-87.93a215.56 215.56 0 0 1 26.36-95.73zm-26.35 111.73h87.92a407.563 407.563 0 0 0 7.6 71.92c-25.59 7.38-48.19 17.15-66.33 28.93a214.281 214.281 0 0 1 -29.19-100.85zm63.11 144.73a218.034 218.034 0 0 1 -25.33-30.38c16.67-10.88 37.5-19.95 61.21-26.86 6.03 24.47 14.42 47.02 24.95 66.68 10.32 19.28 22.22 34.83 35.19 46.34a214.619 214.619 0 0 1 -96.02-55.78zm144.73 62.71c-26.02-3.63-50.56-24.9-69.8-60.83-9.95-18.58-17.88-39.96-23.59-63.21 28.41-6.84 60.18-10.78 93.39-11.33zm0-151.37c-34.28.55-67.22 4.64-96.83 11.76a391.4 391.4 0 0 1 -7.09-67.83h103.92zm0-72.07h-103.92a394.585 394.585 0 0 1 5.82-61.07c29.87 7.28 63.21 11.45 98.1 12zm0-65.07a433.456 433.456 0 0 1 -94.92-11.85c5.79-25.76 14.25-49.4 25.12-69.69 19.24-35.93 43.78-57.2 69.8-60.83zm184-174.93a56.062 56.062 0 0 1 56 56c0 23.86-36.09 74.24-56 99.31-19.91-25.07-56-75.45-56-99.31a56.062 56.062 0 0 1 56-56zm-71.9 58.71c1.15 16.28 12.32 40.15 33.28 71.04 4.32 6.36 8.61 12.37 12.6 17.79a276.181 276.181 0 0 1 -31.61 11.38c-6.11-26.94-15.02-51.73-26.47-73.09-10.3-19.23-22.15-34.75-35.09-46.25a214.459 214.459 0 0 1 47.29 19.13zm-96.1-26.15c26.02 3.63 50.56 24.9 69.8 60.83 10.88 20.3 19.34 43.94 25.12 69.71-29.08 7.14-61.58 11.25-94.92 11.82zm0 158.37c34.76-.55 68.07-4.68 98.1-12.02a396.08 396.08 0 0 1 5.82 61.09h-103.92zm0 65.07h103.92a391.4 391.4 0 0 1 -7.09 67.83c-29.61-7.12-62.55-11.21-96.83-11.76zm0 207.44v-135.37c33.21.55 64.98 4.49 93.39 11.33-5.71 23.25-13.64 44.63-23.59 63.21-19.24 35.93-43.78 57.2-69.8 60.83zm144.73-62.71a214.619 214.619 0 0 1 -96.02 55.78c12.97-11.51 24.87-27.06 35.19-46.34 10.53-19.66 18.92-42.21 24.95-66.68 23.71 6.91 44.54 15.98 61.21 26.86a218.034 218.034 0 0 1 -25.33 30.38zm33.92-43.88c-18.14-11.78-40.74-21.55-66.33-28.93a407.563 407.563 0 0 0 7.6-71.92h87.92a214.281 214.281 0 0 1 -29.19 100.85zm29.19-116.85h-87.92a410.717 410.717 0 0 0 -6.33-65.25 290.763 290.763 0 0 0 38.3-14.1c5.75 7.41 9.65 12.09 9.97 12.48a8 8 0 0 0 12.28 0c.38-.46 5.81-6.98 13.41-16.95a216.525 216.525 0 0 1 20.29 83.82z"/></g></svg>