<svg width="80" height="80" viewBox="0 0 80 80" fill="none" xmlns="http://www.w3.org/2000/svg">
<path d="M41.5731 79.9685C19.4992 80.8374 0.900442 63.6474 0.0315413 41.5734V41.5733C-0.837359 19.4994 16.3525 0.900448 38.4263 0.0315416H38.4264C60.5002 -0.837365 79.099 16.3526 79.9679 38.4266V38.4267C80.8368 60.5006 63.6469 79.0996 41.5731 79.9685Z" fill="#E4E4E4"/>
<path d="M79.9692 38.4267C79.4051 24.0984 71.3693 11.8302 59.7634 5.2207C65.434 11.8238 69.0007 20.3148 69.3696 29.6874C70.2385 51.7613 53.0485 70.3603 30.9746 71.2292C23.229 71.534 15.9127 69.6129 9.63867 66.04C17.3234 74.9881 28.8729 80.4682 41.5742 79.9682C63.6481 79.0995 80.8381 60.5006 79.9692 38.4267Z" fill="#D2D2D2"/>
<path d="M39.9426 37.6449C45.0788 37.6449 49.2425 33.4812 49.2425 28.3449C49.2425 23.2087 45.0788 19.0449 39.9426 19.0449C34.8063 19.0449 30.6426 23.2087 30.6426 28.3449C30.6426 33.4812 34.8063 37.6449 39.9426 37.6449Z" fill="#B9B9B9"/>
<path d="M58.7975 60.7813H20.2519C19.5639 60.7813 19.0625 60.2453 19.0625 59.5574V53.5605C19.0625 47.4256 23.9794 42.5 30.1142 42.5H48.9354C55.0701 42.5 59.9999 47.4256 59.9999 53.5605V59.5574C59.9999 60.2453 59.4857 60.7813 58.7975 60.7813Z" fill="#D2D2D2"/>
<path d="M29.0626 53.9062H26.4062V60.7812H29.0626V53.9062Z" fill="#B9B9B9"/>
<path d="M52.4995 53.9062H49.9996V60.7812H52.4995V53.9062Z" fill="#B9B9B9"/>
</svg>
