<svg width="50" height="50" viewBox="0 0 50 50" fill="none" xmlns="http://www.w3.org/2000/svg">
<path d="M49.144 8.94318C48.6889 4.67911 45.3213 1.31073 41.0568 0.856018C30.3627 -0.285339 19.6373 -0.285339 8.94356 0.856018C4.67911 1.31111 1.31111 4.67911 0.856018 8.94318C-0.285339 19.6369 -0.285339 30.3627 0.856018 41.0564C1.31111 45.3209 4.67911 48.6889 8.94318 49.144C19.6369 50.2853 30.3627 50.2853 41.0568 49.144C45.3213 48.6889 48.6889 45.3209 49.144 41.0564C50.2853 30.3627 50.2853 19.6373 49.144 8.94318Z" fill="url(#paint0_radial)"/>
<path d="M46.4251 10.7513C46.0215 6.96754 43.033 3.97872 39.2489 3.57475C29.7594 2.56232 20.2418 2.56232 10.7523 3.57475C6.96851 3.97872 3.9797 6.96754 3.57572 10.7513C2.5633 20.2408 2.5633 29.7584 3.57572 39.2475C3.9797 43.0317 6.96851 46.0205 10.7523 46.4241C20.2418 47.4369 29.7594 47.4369 39.2485 46.4241C43.0327 46.0205 46.0215 43.0317 46.4251 39.2475C47.4379 29.7584 47.4379 20.2408 46.4251 10.7513Z" fill="url(#paint1_linear)"/>
<path d="M0.75 40.0195C0.784332 40.3651 0.819809 40.7108 0.856812 41.0564C1.3119 45.3204 4.6799 48.6884 8.94435 49.1435C19.6381 50.2849 30.3639 50.2849 41.0576 49.1435C45.3221 48.6884 48.6897 45.3204 49.1448 41.0564C49.1818 40.7108 49.2173 40.3651 49.252 40.0195H0.75Z" fill="url(#paint2_linear)"/>
<path d="M49.143 41.0567C49.7564 35.3106 50.0395 29.5554 49.9937 23.8009L38.5649 12.3721C37.137 10.7421 35.0515 9.72471 32.601 9.63659C27.5614 9.45501 22.5058 9.46416 17.4654 9.63735C13.2791 9.78155 10.3517 12.5953 9.60101 16.7308C9.46864 17.4609 9.3893 18.2006 9.28516 18.9361V31.0599C9.34276 31.4528 9.42744 31.8438 9.45377 32.239C9.62161 34.7545 10.6554 36.909 12.3106 38.3666L23.9408 49.9965C29.6484 50.0365 35.3563 49.7527 41.0559 49.1443C45.3203 48.6892 48.6879 45.3212 49.143 41.0567Z" fill="url(#paint3_linear)"/>
<path d="M49.1426 41.0573C48.6879 45.3209 45.3192 48.6897 41.0555 49.1444C35.3567 49.7525 29.6476 50.0367 23.9408 49.9966L12.3281 38.3839C13.6743 39.5623 15.4291 40.2798 17.4654 40.3565C22.5046 40.5457 27.5614 40.5407 32.6006 40.3592C37.1584 40.1944 40.4566 36.821 40.5988 32.2632C40.7507 27.4239 40.7507 22.572 40.5988 17.7327C40.534 15.63 39.7959 13.7799 38.5721 12.3799L49.9937 23.8015C50.0387 29.5552 49.7556 35.3112 49.1426 41.0573Z" fill="url(#paint4_linear)"/>
<path d="M30.9006 19.5856C29.4365 17.9914 27.3357 16.9912 25.0008 16.9912C20.578 16.9912 16.9922 20.577 16.9922 24.9998C16.9922 27.3348 17.9924 29.4355 19.5866 30.8996L38.1157 49.4287C39.0965 49.3433 40.0772 49.2483 41.0572 49.1438C45.3217 48.6887 48.6897 45.3207 49.1447 41.0562C49.2493 40.0762 49.3443 39.0955 49.4297 38.1147L30.9006 19.5856Z" fill="url(#paint5_linear)"/>
<path d="M49.9026 30.3858L34.9902 15.4737C34.6423 15.0171 34.0941 14.7207 33.4758 14.7207C32.4237 14.7207 31.5703 15.5737 31.5703 16.6261C31.5703 17.2445 31.8667 17.7927 32.3233 18.1406L49.636 35.4536C49.7534 33.7648 49.8423 32.0753 49.9026 30.3858Z" fill="url(#paint6_linear)"/>
<path d="M9.28516 18.9361C9.3893 18.2006 9.46864 17.4609 9.60101 16.7308C10.3514 12.5953 13.2791 9.78155 17.4654 9.63735C22.5058 9.46416 27.5614 9.45501 32.601 9.63659C37.1572 9.80062 40.457 13.1743 40.5992 17.7321C40.7507 22.5718 40.7507 27.4234 40.5992 32.2631C40.457 36.8209 37.1584 40.1942 32.6013 40.3586C27.5618 40.5406 22.505 40.5452 17.4658 40.356C12.9087 40.1847 9.75856 36.8033 9.45377 32.2387C9.42744 31.8438 9.34276 31.4525 9.28516 31.0595C9.28516 27.0183 9.28516 22.977 9.28516 18.9361ZM25.0032 37.6574C27.3096 37.6574 29.6183 37.7265 31.9216 37.6414C35.5329 37.5075 37.7542 35.3522 37.8385 31.7443C37.9431 27.2487 37.9431 22.7469 37.8385 18.2509C37.7542 14.6438 35.5314 12.4381 31.9216 12.3614C27.3397 12.2645 22.7529 12.2653 18.1711 12.3614C14.5887 12.4366 12.3609 14.5976 12.2637 18.1651C12.1401 22.7176 12.1401 27.278 12.2637 31.8305C12.3609 35.3976 14.5887 37.5087 18.1715 37.6414C20.4458 37.7261 22.7259 37.6574 25.0032 37.6574Z" fill="url(#paint7_linear)"/>
<path d="M9.28906 18.9361C9.3932 18.2006 9.47255 17.4609 9.60492 16.7308C10.3553 12.5953 13.2831 9.78155 17.4693 9.63735C22.5097 9.46416 27.5653 9.45501 32.6049 9.63659C37.1611 9.80062 40.4609 13.1743 40.6031 17.7321C40.7546 22.5718 40.7546 27.4234 40.6031 32.2631C40.4609 36.8209 37.1623 40.1942 32.6053 40.3586C27.5657 40.5406 22.5089 40.5452 17.4697 40.356C12.9126 40.1847 9.76247 36.8033 9.45767 32.2387C9.43135 31.8438 9.34666 31.4525 9.28906 31.0595C9.28906 27.0183 9.28906 22.977 9.28906 18.9361ZM25.0071 37.6574C27.3135 37.6574 29.6222 37.7265 31.9255 37.6414C35.5368 37.5075 37.7581 35.3522 37.8425 31.7443C37.947 27.2487 37.947 22.7469 37.8425 18.2509C37.7581 14.6438 35.5353 12.4381 31.9255 12.3614C27.3436 12.2645 22.7569 12.2653 18.175 12.3614C14.5926 12.4366 12.3649 14.5976 12.2676 18.1651C12.144 22.7176 12.144 27.278 12.2676 31.8305C12.3649 35.3976 14.5926 37.5087 18.1754 37.6414C20.4497 37.7261 22.7298 37.6574 25.0071 37.6574Z" fill="white"/>
<path d="M25.0047 16.9922C20.5819 16.9922 16.9961 20.5776 16.9961 25.0004C16.9961 29.4235 20.5819 33.009 25.0047 33.009C29.4278 33.009 33.0132 29.4235 33.0132 25.0004C33.0132 20.5776 29.4278 16.9922 25.0047 16.9922ZM25.0047 30.2517C22.1044 30.2517 19.7534 27.9007 19.7534 25.0004C19.7534 22.1001 22.1044 19.7491 25.0047 19.7491C27.905 19.7491 30.256 22.1001 30.256 25.0004C30.256 27.9007 27.905 30.2517 25.0047 30.2517Z" fill="white"/>
<path d="M35.3847 16.6261C35.3847 17.6782 34.5318 18.5312 33.4797 18.5312C32.4276 18.5312 31.5742 17.6782 31.5742 16.6261C31.5742 15.5737 32.4276 14.7207 33.4797 14.7207C34.5318 14.7207 35.3847 15.5737 35.3847 16.6261Z" fill="white"/>
<defs>
<radialGradient id="paint0_radial" cx="0" cy="0" r="1" gradientUnits="userSpaceOnUse" gradientTransform="translate(10.2497 43.696) scale(55.1412)">
<stop stop-color="#FAE100"/>
<stop offset="0.0544" stop-color="#FADC04"/>
<stop offset="0.1167" stop-color="#FBCE0E"/>
<stop offset="0.1829" stop-color="#FCB720"/>
<stop offset="0.2514" stop-color="#FE9838"/>
<stop offset="0.3054" stop-color="#FF7950"/>
<stop offset="0.4922" stop-color="#FF1C74"/>
<stop offset="1" stop-color="#6C1CD1"/>
</radialGradient>
<linearGradient id="paint1_linear" x1="19.1776" y1="21.7242" x2="-65.5283" y2="-25.9229" gradientUnits="userSpaceOnUse">
<stop stop-color="#A1B5D8" stop-opacity="0"/>
<stop offset="0.3094" stop-color="#90A2BD" stop-opacity="0.309804"/>
<stop offset="0.7554" stop-color="#7C8B9C" stop-opacity="0.756863"/>
<stop offset="1" stop-color="#748290"/>
</linearGradient>
<linearGradient id="paint2_linear" x1="25.0008" y1="44.1369" x2="25.0008" y2="51.9306" gradientUnits="userSpaceOnUse">
<stop stop-color="#FAE100" stop-opacity="0"/>
<stop offset="0.3068" stop-color="#FCA800" stop-opacity="0.305882"/>
<stop offset="0.6275" stop-color="#FE7300" stop-opacity="0.627451"/>
<stop offset="0.8685" stop-color="#FF5200" stop-opacity="0.866667"/>
<stop offset="1" stop-color="#FF4500"/>
</linearGradient>
<linearGradient id="paint3_linear" x1="22.1545" y1="22.085" x2="9.78036" y2="9.71084" gradientUnits="userSpaceOnUse">
<stop stop-color="#833AB4" stop-opacity="0"/>
<stop offset="1" stop-color="#833AB4"/>
</linearGradient>
<linearGradient id="paint4_linear" x1="34.2662" y1="45.7316" x2="28.09" y2="16.6154" gradientUnits="userSpaceOnUse">
<stop stop-color="#833AB4" stop-opacity="0"/>
<stop offset="1" stop-color="#833AB4"/>
</linearGradient>
<linearGradient id="paint5_linear" x1="36.6184" y1="36.6175" x2="11.8114" y2="11.8104" gradientUnits="userSpaceOnUse">
<stop stop-color="#833AB4" stop-opacity="0"/>
<stop offset="1" stop-color="#833AB4"/>
</linearGradient>
<linearGradient id="paint6_linear" x1="38.4572" y1="21.6075" x2="30.254" y2="13.4043" gradientUnits="userSpaceOnUse">
<stop stop-color="#833AB4" stop-opacity="0"/>
<stop offset="1" stop-color="#833AB4"/>
</linearGradient>
<linearGradient id="paint7_linear" x1="34.9266" y1="15.1418" x2="14.7005" y2="35.368" gradientUnits="userSpaceOnUse">
<stop stop-color="#833AB4"/>
<stop offset="0.0922" stop-color="#9C3495"/>
<stop offset="0.2927" stop-color="#DC2546"/>
<stop offset="0.392" stop-color="#FD1D1D"/>
<stop offset="0.5589" stop-color="#FC6831"/>
<stop offset="0.6887" stop-color="#FC9B40"/>
<stop offset="0.7521" stop-color="#FCAF45"/>
<stop offset="0.7806" stop-color="#FDB750"/>
<stop offset="0.8656" stop-color="#FECB6A"/>
<stop offset="0.9415" stop-color="#FFD87A"/>
<stop offset="1" stop-color="#FFDC80"/>
</linearGradient>
</defs>
</svg>
