<svg width="191" height="196" viewBox="0 0 191 196" fill="none" xmlns="http://www.w3.org/2000/svg">
<g filter="url(#filter0_dd)">
<circle cx="95.2602" cy="99.2592" r="61.5" transform="rotate(-127.649 95.2602 99.2592)" fill="url(#paint0_linear)"/>
</g>
<path d="M135.959 70.1834C135.192 62.9943 129.514 57.3157 122.324 56.5481C104.295 54.6246 86.2113 54.6246 68.1815 56.5481C60.9924 57.3157 55.3137 62.9943 54.5462 70.1834C52.6226 88.2131 52.6226 106.296 54.5462 124.325C55.3137 131.515 60.9924 137.194 68.1815 137.961C86.2113 139.885 104.295 139.885 122.324 137.961C129.513 137.194 135.192 131.515 135.959 124.325C137.883 106.296 137.883 88.2131 135.959 70.1834Z" fill="url(#paint1_linear)"/>
<path d="M141.139 127.766C142.305 116.848 142.842 105.914 142.755 94.9803L121.041 73.2659C118.328 70.1689 114.366 68.2359 109.71 68.0685C100.135 67.7235 90.529 67.7409 80.9524 68.0699C72.9986 68.3439 67.4366 73.6899 66.0103 81.5472C65.7588 82.9345 65.608 84.3398 65.4102 85.7372V108.772C65.5196 109.519 65.6805 110.262 65.7305 111.012C66.0494 115.792 68.0136 119.885 71.1584 122.655L93.2556 144.751C104.1 144.827 114.945 144.288 125.774 143.132C133.876 142.267 140.274 135.868 141.139 127.766Z" fill="url(#paint2_linear)"/>
<path d="M141.122 127.767C140.258 135.868 133.858 142.269 125.757 143.133C114.929 144.288 104.082 144.828 93.2396 144.752L71.1758 122.688C73.7335 124.927 77.0675 126.29 80.9364 126.436C90.5108 126.795 100.119 126.786 109.693 126.441C118.353 126.128 124.619 119.719 124.889 111.059C125.178 101.864 125.178 92.6459 124.889 83.4514C124.766 79.4564 123.364 75.9412 121.039 73.2812L142.739 94.9819C142.825 105.914 142.287 116.85 141.122 127.767Z" fill="url(#paint3_linear)"/>
<path d="M106.471 86.9742C103.689 83.9453 99.6974 82.0449 95.261 82.0449C86.8579 82.0449 80.0449 88.8579 80.0449 97.261C80.0449 101.697 81.9453 105.689 84.9742 108.47L120.179 143.675C122.042 143.513 123.906 143.332 125.768 143.134C133.87 142.269 140.269 135.87 141.134 127.768C141.333 125.906 141.513 124.042 141.675 122.179L106.471 86.9742Z" fill="url(#paint4_linear)"/>
<path d="M142.561 107.491L114.228 79.1583C113.567 78.2907 112.526 77.7275 111.351 77.7275C109.352 77.7275 107.73 79.3481 107.73 81.3478C107.73 82.5227 108.294 83.5642 109.161 84.2252L142.055 117.119C142.278 113.911 142.447 110.701 142.561 107.491Z" fill="url(#paint5_linear)"/>
<path d="M65.4102 85.7372C65.608 84.3398 65.7588 82.9345 66.0103 81.5472C67.4359 73.6899 72.9986 68.3439 80.9524 68.0699C90.529 67.7409 100.135 67.7235 109.71 68.0685C118.366 68.3802 124.636 74.7901 124.906 83.4498C125.194 92.6451 125.194 101.863 124.906 111.058C124.636 119.718 118.369 126.127 109.71 126.439C100.135 126.785 90.5275 126.794 80.9531 126.434C72.2949 126.109 66.3096 119.684 65.7305 111.012C65.6805 110.262 65.5196 109.518 65.4102 108.771C65.4102 101.093 65.4102 93.4148 65.4102 85.7372ZM95.2741 121.307C99.6562 121.307 104.043 121.438 108.419 121.277C115.28 121.022 119.501 116.927 119.661 110.072C119.859 101.531 119.859 92.9778 119.661 84.4355C119.501 77.582 115.277 73.3913 108.419 73.2456C99.7134 73.0615 90.9986 73.063 82.2933 73.2456C75.4868 73.3884 71.2541 77.4943 71.0693 84.2724C70.8344 92.9219 70.8344 101.587 71.0693 110.236C71.2541 117.014 75.4868 121.025 82.294 121.277C86.6151 121.438 90.9472 121.307 95.2741 121.307Z" fill="url(#paint6_linear)"/>
<path d="M65.4023 85.7352C65.6002 84.3379 65.751 82.9325 66.0025 81.5453C67.4281 73.6879 72.9908 68.342 80.9446 68.068C90.5212 67.7389 100.127 67.7215 109.702 68.0665C118.359 68.3782 124.628 74.7882 124.898 83.4478C125.186 92.6431 125.186 101.861 124.898 111.056C124.628 119.716 118.361 126.125 109.703 126.437C100.127 126.783 90.5197 126.792 80.9453 126.432C72.2871 126.107 66.3018 119.683 65.7227 111.01C65.6727 110.26 65.5118 109.516 65.4023 108.769C65.4023 101.091 65.4023 93.4128 65.4023 85.7352ZM95.2663 121.305C99.6483 121.305 104.035 121.436 108.411 121.275C115.272 121.02 119.493 116.925 119.653 110.07C119.852 101.529 119.852 92.9758 119.653 84.4335C119.493 77.58 115.27 73.3893 108.411 73.2437C99.7056 73.0596 90.9908 73.061 82.2854 73.2437C75.479 73.3864 71.2463 77.4923 71.0615 84.2705C70.8266 92.92 70.8266 101.585 71.0615 110.234C71.2463 117.012 75.479 121.023 82.2862 121.275C86.6073 121.436 90.9394 121.305 95.2663 121.305Z" fill="white"/>
<path d="M95.2669 82.043C86.8637 82.043 80.0508 88.8552 80.0508 97.2583C80.0508 105.662 86.8637 112.474 95.2669 112.474C103.671 112.474 110.483 105.662 110.483 97.2583C110.483 88.8552 103.671 82.043 95.2669 82.043ZM95.2669 107.236C89.7564 107.236 85.2895 102.769 85.2895 97.2583C85.2895 91.7478 89.7564 87.281 95.2669 87.281C100.777 87.281 105.244 91.7478 105.244 97.2583C105.244 102.769 100.777 107.236 95.2669 107.236Z" fill="white"/>
<path d="M114.984 81.3478C114.984 83.3468 113.363 84.9674 111.364 84.9674C109.365 84.9674 107.744 83.3468 107.744 81.3478C107.744 79.3481 109.365 77.7275 111.364 77.7275C113.363 77.7275 114.984 79.3481 114.984 81.3478Z" fill="white"/>
<defs>
<filter id="filter0_dd" x="0" y="0" width="190.519" height="195.519" filterUnits="userSpaceOnUse" color-interpolation-filters="sRGB">
<feFlood flood-opacity="0" result="BackgroundImageFix"/>
<feColorMatrix in="SourceAlpha" type="matrix" values="0 0 0 0 0 0 0 0 0 0 0 0 0 0 0 0 0 0 127 0"/>
<feOffset dx="3" dy="6"/>
<feGaussianBlur stdDeviation="2"/>
<feColorMatrix type="matrix" values="0 0 0 0 0.85 0 0 0 0 0.85 0 0 0 0 0.85 0 0 0 1 0"/>
<feBlend mode="normal" in2="BackgroundImageFix" result="effect1_dropShadow"/>
<feColorMatrix in="SourceAlpha" type="matrix" values="0 0 0 0 0 0 0 0 0 0 0 0 0 0 0 0 0 0 127 0"/>
<feOffset dy="-4"/>
<feGaussianBlur stdDeviation="4.5"/>
<feColorMatrix type="matrix" values="0 0 0 0 0 0 0 0 0 0 0 0 0 0 0 0 0 0 0.05 0"/>
<feBlend mode="normal" in2="effect1_dropShadow" result="effect2_dropShadow"/>
<feBlend mode="normal" in="SourceGraphic" in2="effect2_dropShadow" result="shape"/>
</filter>
<linearGradient id="paint0_linear" x1="95.2602" y1="37.7592" x2="95.2602" y2="160.759" gradientUnits="userSpaceOnUse">
<stop stop-color="#FADF02"/>
<stop offset="0.359375" stop-color="#FF356B"/>
<stop offset="0.838542" stop-color="#9C1CB3"/>
</linearGradient>
<linearGradient id="paint1_linear" x1="84.1894" y1="91.0315" x2="-76.7495" y2="0.503059" gradientUnits="userSpaceOnUse">
<stop stop-color="#A1B5D8" stop-opacity="0"/>
<stop offset="0.3094" stop-color="#90A2BD" stop-opacity="0.309804"/>
<stop offset="0.7554" stop-color="#7C8B9C" stop-opacity="0.756863"/>
<stop offset="1" stop-color="#748290"/>
</linearGradient>
<linearGradient id="paint2_linear" x1="89.8617" y1="91.7202" x2="66.3511" y2="68.2095" gradientUnits="userSpaceOnUse">
<stop stop-color="#833AB4" stop-opacity="0"/>
<stop offset="1" stop-color="#833AB4"/>
</linearGradient>
<linearGradient id="paint3_linear" x1="112.858" y1="136.649" x2="101.123" y2="81.3286" gradientUnits="userSpaceOnUse">
<stop stop-color="#833AB4" stop-opacity="0"/>
<stop offset="1" stop-color="#833AB4"/>
</linearGradient>
<linearGradient id="paint4_linear" x1="117.334" y1="119.334" x2="70.2018" y2="72.2014" gradientUnits="userSpaceOnUse">
<stop stop-color="#833AB4" stop-opacity="0"/>
<stop offset="1" stop-color="#833AB4"/>
</linearGradient>
<linearGradient id="paint5_linear" x1="120.815" y1="90.8123" x2="105.23" y2="75.2264" gradientUnits="userSpaceOnUse">
<stop stop-color="#833AB4" stop-opacity="0"/>
<stop offset="1" stop-color="#833AB4"/>
</linearGradient>
<linearGradient id="paint6_linear" x1="114.128" y1="78.5283" x2="75.6993" y2="116.957" gradientUnits="userSpaceOnUse">
<stop stop-color="#833AB4"/>
<stop offset="0.0922" stop-color="#9C3495"/>
<stop offset="0.2927" stop-color="#DC2546"/>
<stop offset="0.392" stop-color="#FD1D1D"/>
<stop offset="0.5589" stop-color="#FC6831"/>
<stop offset="0.6887" stop-color="#FC9B40"/>
<stop offset="0.7521" stop-color="#FCAF45"/>
<stop offset="0.7806" stop-color="#FDB750"/>
<stop offset="0.8656" stop-color="#FECB6A"/>
<stop offset="0.9415" stop-color="#FFD87A"/>
<stop offset="1" stop-color="#FFDC80"/>
</linearGradient>
</defs>
</svg>
