<svg width="59" height="36" viewBox="0 0 59 36" fill="none" xmlns="http://www.w3.org/2000/svg">
<path d="M58.9622 21.0655C58.9984 21.1785 59.0088 21.2984 58.9925 21.4161C58.9763 21.5339 58.9339 21.6462 58.8685 21.7446C58.8032 21.8429 58.7167 21.9247 58.6156 21.9836C58.5145 22.0425 58.4016 22.077 58.2854 22.0843H10.1571C8.65305 22.0843 8.65305 11.0605 10.1571 11.0605H58.2854C58.3997 11.0686 58.5107 11.1028 58.6102 11.1607C58.7097 11.2186 58.7951 11.2987 58.8602 11.395C58.9252 11.4913 58.9682 11.6014 58.9858 11.717C59.0035 11.8326 58.9954 11.9507 58.9622 12.0627C58.377 14.184 58.377 18.9709 58.9622 21.0655Z" fill="#FCD81C"/>
<path opacity="0.8" d="M58.8968 12.3569H29.6961C28.5452 12.3569 28.5452 20.7951 29.6961 20.7951H58.8968C58.3966 18.6806 58.3966 14.4748 58.8968 12.3569Z" fill="white"/>
<path opacity="0.5" d="M21.1788 11.8859C21.2129 11.7996 21.2267 11.7063 21.2191 11.6136C21.2115 11.5208 21.1827 11.4312 21.1349 11.3519C21.0872 11.2726 21.022 11.2059 20.9444 11.157C20.8668 11.1082 20.7792 11.0787 20.6884 11.0708H14.0511C12.5471 11.0708 12.5471 22.0946 14.0511 22.0946H20.6884C20.7793 22.0862 20.867 22.0562 20.9445 22.007C21.022 21.9578 21.0872 21.8908 21.1349 21.8113C21.1825 21.7318 21.2113 21.642 21.2189 21.549C21.2266 21.4561 21.2128 21.3627 21.1788 21.2762C20.5086 19.2284 20.5086 13.927 21.1788 11.8859Z" fill="white"/>
<path d="M55.5095 33.8996C55.5482 34.0461 55.5522 34.2 55.5212 34.3484C55.4901 34.4968 55.4249 34.6355 55.331 34.753C55.237 34.8706 55.117 34.9636 54.9809 35.0243C54.8448 35.085 54.6965 35.1117 54.5482 35.1022H4.54312C2.40808 35.1022 2.40481 22.0741 4.54312 22.0741H54.5679C54.7161 22.0646 54.8644 22.0914 55.0005 22.1521C55.1367 22.2128 55.2567 22.3058 55.3506 22.4233C55.4446 22.5409 55.5098 22.6796 55.5408 22.828C55.5718 22.9764 55.5678 23.1302 55.5291 23.2767C54.6758 25.7588 54.679 31.421 55.5095 33.8996Z" fill="#407BFF"/>
<path opacity="0.2" d="M55.5095 33.8996C55.5482 34.0461 55.5522 34.2 55.5212 34.3484C55.4901 34.4968 55.4249 34.6355 55.331 34.753C55.237 34.8706 55.117 34.9636 54.9809 35.0243C54.8448 35.085 54.6965 35.1117 54.5482 35.1022H4.54312C2.40808 35.1022 2.40481 22.0741 4.54312 22.0741H54.5679C54.7161 22.0646 54.8644 22.0914 55.0005 22.1521C55.1367 22.2128 55.2567 22.3058 55.3506 22.4233C55.4446 22.5409 55.5098 22.6796 55.5408 22.828C55.5718 22.9764 55.5678 23.1302 55.5291 23.2767C54.6758 25.7588 54.679 31.421 55.5095 33.8996Z" fill="white"/>
<path opacity="0.8" d="M55.4115 23.5977H25.1776C23.5428 23.5977 23.5428 33.5792 25.1776 33.5792H55.4147C54.7151 31.0771 54.7151 26.1031 55.4115 23.5977Z" fill="white"/>
<path opacity="0.5" d="M12.5635 22.5353C12.5907 22.4875 12.6046 22.4331 12.6036 22.3778C12.6025 22.3226 12.5866 22.2687 12.5575 22.2221C12.5285 22.1755 12.4874 22.138 12.4389 22.1137C12.3903 22.0894 12.3361 22.0792 12.2823 22.0843H9.2906C7.15883 22.0843 7.15883 35.1124 9.2906 35.1124H12.2954C12.3492 35.1175 12.4034 35.1073 12.4519 35.083C12.5005 35.0587 12.5416 35.0211 12.5706 34.9745C12.5997 34.9279 12.6156 34.8741 12.6166 34.8188C12.6177 34.7636 12.6038 34.7091 12.5765 34.6614C11.2785 32.6471 11.2785 24.5463 12.5635 22.5353Z" fill="white"/>
<path opacity="0.5" d="M17.2324 22.5348C17.2593 22.4869 17.2729 22.4323 17.2718 22.377C17.2706 22.3217 17.2547 22.2678 17.2258 22.2211C17.1969 22.1744 17.156 22.1366 17.1076 22.1118C17.0593 22.087 17.0052 22.0762 16.9512 22.0805H13.9595C11.8278 22.0805 11.8278 35.1086 13.9595 35.1086H16.9512C17.0048 35.113 17.0585 35.1023 17.1066 35.0778C17.1547 35.0532 17.1952 35.0156 17.2239 34.9691C17.2525 34.9226 17.2681 34.869 17.2691 34.8141C17.27 34.7592 17.2562 34.7051 17.2291 34.6576C15.9475 32.6466 15.9475 24.5425 17.2324 22.5348Z" fill="white"/>
<path d="M55.0191 4.13877C54.9611 3.211 54.7477 2.30027 54.3881 1.4463L54.6823 1.29932C55.0561 2.18947 55.2773 3.13865 55.3363 4.10538L55.0191 4.13877Z" fill="#407BFF"/>
<path d="M52.9691 0H44.8474V0.334054H52.9691V0Z" fill="#407BFF"/>
<path d="M0.0376723 10.1588C-0.129077 10.6131 0.279625 11.0708 0.832185 11.0708H52.9691C54.7314 11.0708 54.7314 1.16943 52.9691 1.16943H0.832185C0.279625 1.16943 -0.129077 1.63042 0.0376723 2.08474C0.724286 3.96546 0.724286 8.27142 0.0376723 10.1588Z" fill="#99EF56" fill-opacity="0.53"/>
<path opacity="0.2" d="M0.0376723 10.1588C-0.129077 10.6131 0.279625 11.0708 0.832185 11.0708H30.9124C32.678 11.0708 32.678 1.16943 30.9124 1.16943H0.832185C0.279625 1.16943 -0.129077 1.63042 0.0376723 2.08474C0.724286 3.96546 0.724286 8.27142 0.0376723 10.1588Z" fill="black"/>
<path opacity="0.8" d="M0.116211 2.32812H30.0395C31.3931 2.32812 31.3931 9.91449 30.0395 9.91449H0.116211C0.694928 8.01038 0.694928 4.23223 0.116211 2.32812Z" fill="white"/>
<path opacity="0.2" d="M37.0429 3.37748C36.9121 2.93987 37.2914 2.51562 37.8145 2.51562H49.9316C51.2166 2.51562 51.2166 9.72785 49.9316 9.72785H37.8145C37.2914 9.72785 36.9121 9.3036 37.0429 8.86265C37.4712 7.47633 37.4712 4.76714 37.0429 3.37748Z" fill="white"/>
</svg>
