<svg width="45" height="44" viewBox="0 0 45 44" fill="none" xmlns="http://www.w3.org/2000/svg">
<path d="M38.177 43.6517H4.93992C4.61322 43.6546 4.28933 43.6063 3.98923 43.5098C3.68913 43.4134 3.41951 43.2709 3.19783 43.0917C2.97615 42.9125 2.80735 42.7005 2.70236 42.4695C2.59737 42.2385 2.55853 41.9936 2.58836 41.7507L6.65908 1.90116C6.72248 1.38775 7.03738 0.909861 7.54344 0.55907C8.0495 0.20828 8.71113 0.00926064 9.40154 0.000148137H42.6386C42.9654 -0.00303537 43.2894 0.0451245 43.5897 0.141503C43.8899 0.237882 44.1597 0.380326 44.3814 0.559588C44.6032 0.73885 44.772 0.950926 44.8768 1.18205C44.9817 1.41317 45.0203 1.65818 44.9902 1.90116L40.9194 41.7507C40.8556 42.2639 40.5406 42.7416 40.0346 43.0924C39.5286 43.4431 38.8672 43.6422 38.177 43.6517Z" fill="#407BFF"/>
<path opacity="0.5" d="M38.177 43.6517H4.93992C4.61322 43.6546 4.28933 43.6063 3.98923 43.5098C3.68913 43.4134 3.41951 43.2709 3.19783 43.0917C2.97615 42.9125 2.80735 42.7005 2.70236 42.4695C2.59737 42.2385 2.55853 41.9936 2.58836 41.7507L6.65908 1.90116C6.72248 1.38775 7.03738 0.909861 7.54344 0.55907C8.0495 0.20828 8.71113 0.00926064 9.40154 0.000148137H42.6386C42.9654 -0.00303537 43.2894 0.0451245 43.5897 0.141503C43.8899 0.237882 44.1597 0.380326 44.3814 0.559588C44.6032 0.73885 44.772 0.950926 44.8768 1.18205C44.9817 1.41317 45.0203 1.65818 44.9902 1.90116L40.9194 41.7507C40.8556 42.2639 40.5406 42.7416 40.0346 43.0924C39.5286 43.4431 38.8672 43.6422 38.177 43.6517Z" fill="white"/>
<path d="M37.6837 43.6517H4.44456C4.11786 43.6546 3.79397 43.6063 3.49387 43.5098C3.19377 43.4134 2.92415 43.2709 2.70247 43.0917C2.48079 42.9125 2.31198 42.7005 2.20699 42.4695C2.102 42.2385 2.06317 41.9936 2.093 41.7507L6.16576 1.90116C6.2292 1.38749 6.5444 0.909394 7.05089 0.558568C7.55738 0.207741 8.21951 0.00888809 8.91027 0.000148137H42.1473C42.4741 -0.00303537 42.7982 0.0451245 43.0984 0.141503C43.3987 0.237882 43.6684 0.380326 43.8902 0.559588C44.1119 0.73885 44.2807 0.950926 44.3856 1.18205C44.4904 1.41317 44.529 1.65818 44.4989 1.90116L40.4282 41.7507C40.3647 42.2643 40.0495 42.7424 39.543 43.0932C39.0365 43.4441 38.3744 43.6429 37.6837 43.6517Z" fill="#407BFF"/>
<path opacity="0.7" d="M37.6837 43.6517H4.44456C4.11786 43.6546 3.79397 43.6063 3.49387 43.5098C3.19377 43.4134 2.92415 43.2709 2.70247 43.0917C2.48079 42.9125 2.31198 42.7005 2.20699 42.4695C2.102 42.2385 2.06317 41.9936 2.093 41.7507L6.16576 1.90116C6.2292 1.38749 6.5444 0.909394 7.05089 0.558568C7.55738 0.207741 8.21951 0.00888809 8.91027 0.000148137H42.1473C42.4741 -0.00303537 42.7982 0.0451245 43.0984 0.141503C43.3987 0.237882 43.6684 0.380326 43.8902 0.559588C44.1119 0.73885 44.2807 0.950926 44.3856 1.18205C44.4904 1.41317 44.529 1.65818 44.4989 1.90116L40.4282 41.7507C40.3647 42.2643 40.0495 42.7424 39.543 43.0932C39.0365 43.4441 38.3744 43.6429 37.6837 43.6517Z" fill="white"/>
<path d="M4.50997 43.0176C4.29205 43.0201 4.07589 42.9882 3.87557 42.9241C3.67525 42.86 3.49527 42.7651 3.34736 42.6455C3.19945 42.526 3.08693 42.3846 3.01713 42.2304C2.94733 42.0762 2.92182 41.9128 2.94226 41.7508L6.95977 2.43005C7.00116 2.08766 7.21075 1.76881 7.54819 1.53491C7.88562 1.30102 8.32703 1.16862 8.7874 1.16322H42.0244C42.2424 1.16078 42.4585 1.19266 42.6588 1.25677C42.8592 1.32089 43.0391 1.4158 43.1871 1.53532C43.335 1.65484 43.4475 1.79629 43.5173 1.95046C43.5871 2.10462 43.6126 2.26803 43.5921 2.43005L39.5746 41.7508C39.5333 42.0929 39.324 42.4116 38.987 42.6454C38.65 42.8793 38.2091 43.0119 37.7491 43.0176H4.50997Z" fill="#407BFF"/>
<path opacity="0.2" d="M37.5138 7.77715H13.728C13.5988 7.77843 13.4706 7.75939 13.3519 7.72127C13.2332 7.68315 13.1266 7.62681 13.0389 7.55589C12.9513 7.48498 12.8846 7.40109 12.8433 7.30968C12.8019 7.21826 12.7868 7.12137 12.7988 7.02531C12.8244 6.8228 12.9489 6.6344 13.1486 6.49602C13.3482 6.35764 13.6091 6.27897 13.8815 6.27499H37.6673C37.7964 6.27349 37.9245 6.29233 38.0432 6.33027C38.1619 6.36822 38.2686 6.42443 38.3562 6.49522C38.4439 6.56602 38.5106 6.64981 38.552 6.74115C38.5934 6.83249 38.6085 6.92931 38.5964 7.02531C38.5722 7.22834 38.4482 7.4175 38.2483 7.55632C38.0484 7.69514 37.7867 7.77381 37.5138 7.77715Z" fill="black"/>
<path opacity="0.3" d="M27.3666 0.775087H23.5251C23.4933 0.775398 23.4617 0.770717 23.4325 0.761349C23.4033 0.75198 23.377 0.738132 23.3554 0.720701C23.3338 0.70327 23.3173 0.682645 23.307 0.660162C23.2968 0.637678 23.293 0.613837 23.2958 0.590182C23.3023 0.540423 23.3329 0.494152 23.382 0.460091C23.431 0.426031 23.495 0.406533 23.5619 0.405275H27.4055C27.4371 0.405179 27.4684 0.410017 27.4974 0.419481C27.5264 0.428945 27.5524 0.442825 27.5738 0.460232C27.5952 0.477639 27.6114 0.498189 27.6216 0.520567C27.6317 0.542944 27.6355 0.566656 27.6326 0.590182C27.627 0.640192 27.5967 0.686848 27.5475 0.721039C27.4983 0.755231 27.4338 0.774501 27.3666 0.775087Z" fill="#407BFF"/>
<path d="M13.6175 7.0253C13.6516 6.75951 13.6101 6.49136 13.4959 6.23835C13.3816 5.98535 13.1972 5.75319 12.9546 5.55705C12.7119 5.3609 12.4166 5.20518 12.0879 5.10007C11.7592 4.99495 11.4045 4.94279 11.047 4.94701H35.1971C35.5546 4.94279 35.9093 4.99495 36.238 5.10007C36.5667 5.20518 36.862 5.3609 37.1046 5.55705C37.3472 5.75319 37.5317 5.98535 37.6459 6.23835C37.7602 6.49136 37.8016 6.75951 37.7676 7.0253H13.6175Z" fill="#F0F0F0"/>
<path d="M11.053 4.94678C10.2977 4.95546 9.5734 5.1726 9.01978 5.55635C8.46615 5.9401 8.12238 6.46328 8.05471 7.02506L5.58035 31.2416C5.51317 31.8032 5.16982 32.3264 4.61653 32.7102C4.06324 33.094 3.33921 33.3112 2.58411 33.3199H26.7342C27.4895 33.3112 28.2138 33.0941 28.7674 32.7103C29.321 32.3266 29.6648 31.8034 29.7325 31.2416L32.2068 7.02506C32.274 6.46342 32.6174 5.94025 33.1707 5.55647C33.7239 5.17269 34.448 4.95549 35.2031 4.94678H11.053Z" fill="white"/>
<path d="M24.1616 31.2412C24.1276 31.507 24.1691 31.7751 24.2833 32.0281C24.3975 32.2812 24.582 32.5133 24.8246 32.7095C25.0672 32.9056 25.3625 33.0613 25.6912 33.1664C26.0199 33.2716 26.3746 33.3237 26.7321 33.3195H2.58208C2.22454 33.3237 1.86983 33.2716 1.54113 33.1664C1.21243 33.0613 0.91713 32.9056 0.674525 32.7095C0.431919 32.5133 0.247466 32.2812 0.133222 32.0281C0.0189772 31.7751 -0.0224887 31.507 0.0115291 31.2412H24.1616Z" fill="#F0F0F0"/>
<path d="M10.0256 30.7631C10.1177 29.8783 9.7452 29.1631 8.56226 29.1631H27.1578C28.3408 29.1631 29.231 29.9715 28.6232 30.7631H10.0256Z" fill="#E0E0E0"/>
<path d="M24.1615 31.2416C24.2273 30.6791 24.57 30.1548 25.1235 29.7701C25.6769 29.3854 26.4017 29.1675 27.1578 29.1587H3.00772C2.25262 29.1674 1.52859 29.3846 0.975301 29.7684C0.42201 30.1522 0.0786585 30.6753 0.0114746 31.237L24.1615 31.2416Z" fill="#F0F0F0"/>
<path d="M35.5797 37.2454H7.85827C7.76445 37.2464 7.67142 37.2326 7.58521 37.2049C7.499 37.1773 7.42154 37.1364 7.35785 37.085C7.29416 37.0335 7.24568 36.9726 7.21553 36.9063C7.18539 36.84 7.17427 36.7696 7.18288 36.6999C7.20098 36.5527 7.29117 36.4156 7.43618 36.3149C7.58119 36.2143 7.77082 36.1571 7.96878 36.1543H35.6922C35.7859 36.1536 35.8787 36.1676 35.9647 36.1953C36.0506 36.223 36.1278 36.2639 36.1913 36.3154C36.2548 36.3668 36.3031 36.4276 36.3331 36.4938C36.3631 36.56 36.3742 36.6302 36.3656 36.6999C36.3475 36.8471 36.2573 36.9841 36.1123 37.0848C35.9673 37.1855 35.7776 37.2427 35.5797 37.2454Z" fill="white"/>
<path d="M21.5808 39.8675H7.59016C7.49625 39.8687 7.40307 39.8551 7.31671 39.8275C7.23035 39.7999 7.15275 39.7591 7.089 39.7076C7.02525 39.6561 6.97677 39.5951 6.94675 39.5286C6.91673 39.4622 6.90583 39.3918 6.91478 39.322C6.93288 39.1747 7.02307 39.0377 7.16807 38.937C7.31308 38.8364 7.50272 38.7792 7.70068 38.7764H21.6913C21.7852 38.7755 21.8782 38.7893 21.9644 38.8169C22.0506 38.8446 22.1281 38.8854 22.1918 38.9369C22.2554 38.9883 22.3039 39.0492 22.3341 39.1155C22.3642 39.1819 22.3753 39.2522 22.3667 39.322C22.3486 39.4692 22.2584 39.6062 22.1134 39.7069C21.9684 39.8076 21.7788 39.8647 21.5808 39.8675Z" fill="white"/>
<path d="M31.2675 39.8675H25.6004C25.5065 39.8687 25.4133 39.855 25.327 39.8275C25.2406 39.7999 25.163 39.759 25.0992 39.7075C25.0355 39.656 24.987 39.5951 24.957 39.5286C24.927 39.4622 24.9161 39.3918 24.925 39.3219C24.9431 39.1747 25.0333 39.0377 25.1783 38.937C25.3233 38.8363 25.513 38.7792 25.7109 38.7764H31.378C31.4717 38.7757 31.5646 38.7897 31.6507 38.8174C31.7367 38.8451 31.8141 38.886 31.8777 38.9374C31.9413 38.9888 31.9898 39.0495 32.0201 39.1158C32.0503 39.182 32.0617 39.2522 32.0534 39.3219C32.0353 39.4692 31.9451 39.6062 31.8001 39.7069C31.6551 39.8075 31.4655 39.8647 31.2675 39.8675Z" fill="white"/>
<path d="M29.2454 15.4893H9.28479L9.32572 15.0767H29.2884L29.2454 15.4893Z" fill="#407BFF"/>
<path d="M29.2454 15.4897H9.28479L9.15381 16.7566H29.1165L29.2454 15.4897Z" fill="#F0F0F0"/>
<path d="M28.9875 18.0215H9.02481L8.89587 19.2868H28.8586L28.9875 18.0215Z" fill="#F0F0F0"/>
<path d="M28.7276 20.5522H8.767L8.63806 21.8191H28.5987L28.7276 20.5522Z" fill="#F0F0F0"/>
<path d="M28.4697 23.0845H8.50699L8.37805 24.3498H28.3407L28.4697 23.0845Z" fill="#F0F0F0"/>
<path d="M28.169 26.0289H8.2063L8.24928 25.6147H28.212L28.169 26.0289Z" fill="#407BFF"/>
<path d="M25.8848 7.77686H30.0333L29.845 9.62438H25.6965L25.8848 7.77686Z" fill="#F0F0F0"/>
</svg>
