<svg width="57" height="61" viewBox="0 0 57 61" fill="none" xmlns="http://www.w3.org/2000/svg">
<path d="M7.23768 0.000216327C3.24784 0.000216327 0 2.82927 0 6.30204V54.6982C0 58.1709 3.24784 61 7.23768 61H49.7533C53.7431 61 56.991 58.1711 56.991 54.6982V14.9031C56.991 14.9031 57.1048 13.7378 56.5237 12.6039C55.9789 11.541 55.0911 10.8012 55.0911 10.8012C55.0889 10.7985 55.0866 10.7959 55.0844 10.7933L44.5361 1.78745C44.5304 1.78231 44.5245 1.77723 44.5186 1.7722C44.5186 1.7722 43.618 1.02575 42.283 0.527107C40.7111 -0.060025 39.0909 0.0019544 39.0909 0.0019544L39.115 0L7.23768 0.000216327Z" fill="#FF2116"/>
<path d="M7.2384 2.06958H39.1158C39.1238 2.06965 39.1319 2.06965 39.1399 2.06958C39.1399 2.06958 40.4146 2.08033 41.347 2.42859C42.2444 2.76378 42.8807 3.27117 42.8849 3.27457C42.8849 3.27458 42.8893 3.27848 42.8893 3.27848L53.4113 12.2634C53.4113 12.2634 54.0452 12.8459 54.3524 13.4454C54.6004 13.9293 54.6157 14.8147 54.6157 14.8147C54.6146 14.8293 54.6138 14.8439 54.6135 14.8585V54.6976C54.6135 57.0597 52.4677 58.9293 49.754 58.9293H7.2384C4.52466 58.9293 2.37891 57.0598 2.37891 54.6976V6.30143C2.37891 3.93918 4.52466 2.06965 7.2384 2.06965V2.06958Z" fill="#F5F5F5"/>
<path d="M14.2295 36.3189C12.5932 34.8946 14.3635 32.9375 19.1679 30.8592L22.191 29.5516L23.3687 27.3087C24.0164 26.0751 24.9831 24.0622 25.517 22.8357L26.4876 20.6057L25.8187 18.9553C24.9963 16.926 24.703 13.8766 25.2248 12.78C25.9316 11.2948 28.2468 11.4472 29.1633 13.0393C29.8792 14.2827 29.806 16.5346 28.9574 19.3745L28.2618 21.7027L28.8745 22.6082C29.2116 23.1061 30.196 24.2886 31.0621 25.2358L32.69 26.9984L34.7157 26.7683C41.151 26.0373 43.3551 27.2796 43.3551 29.0608C43.3551 31.3088 38.3021 31.4944 34.0588 28.9002C33.104 28.3166 32.4484 27.7367 32.4484 27.7367C32.4484 27.7367 29.7901 28.2078 28.4813 28.5148C27.1303 28.8318 26.4563 29.0303 24.4774 29.6117C24.4774 29.6117 23.783 30.4894 23.3306 31.1275C21.6472 33.5013 19.6818 35.4686 18.2781 36.1846C16.7066 36.9863 15.059 37.041 14.2295 36.3189ZM16.7974 35.5204C17.7171 35.0256 19.5788 33.1091 20.8674 31.3303L21.3892 30.6101L19.0135 31.6498C15.3443 33.2556 13.6657 34.7691 14.5385 35.6846C15.0289 36.1989 15.6155 36.1562 16.7974 35.5204ZM40.6311 29.6972C41.5308 29.1487 41.4002 28.0434 40.3831 27.5978C39.5916 27.251 38.9536 27.1798 36.8974 27.2062C35.6338 27.2812 33.602 27.5028 33.2576 27.5702C33.2576 27.5702 34.3738 28.2417 34.8694 28.4886C35.5291 28.8165 37.1323 29.4253 38.3027 29.7372C39.4573 30.0448 40.1251 30.0124 40.6311 29.6972V29.6972ZM31.0479 26.2302C30.5034 25.732 29.5776 24.6923 28.9906 23.9196C28.2228 23.0432 27.8378 22.4248 27.8378 22.4248C27.8378 22.4248 27.2766 23.996 26.8162 24.9414L25.3798 28.0318L24.9633 28.7328C24.9633 28.7328 27.1773 28.1009 28.3038 27.8448C29.4969 27.5735 31.9184 27.1591 31.9184 27.1591L31.0479 26.2302ZM27.9596 15.4499C28.0984 14.4355 28.1574 13.4226 27.7829 12.9119C26.7444 11.9236 25.4908 12.7477 25.7032 15.0973C25.7746 15.8877 26.0002 17.2388 26.3018 18.0716L26.8501 19.5858L27.2361 18.4454C27.4483 17.8181 27.7739 16.4702 27.9596 15.4499Z" fill="#FF2116"/>
<path d="M17.0137 42.9148H19.6702C20.519 42.9148 21.2081 42.9855 21.7373 43.1269C22.2665 43.2637 22.7119 43.5715 23.0734 44.0504C23.4349 44.5248 23.6157 45.0971 23.6157 45.7676C23.6157 46.3833 23.469 46.9123 23.1756 47.3547C22.8822 47.7972 22.4866 48.1164 21.9888 48.3125C21.4962 48.5086 20.7365 48.6067 19.7095 48.6067H18.7899V52.2531H17.0137V42.9148ZM18.7899 44.112V47.3684H19.6702C20.4562 47.3684 20.9985 47.2407 21.2971 46.9853C21.601 46.7299 21.753 46.3149 21.753 45.7402C21.753 45.3115 21.6534 44.9649 21.4543 44.7003C21.2552 44.4313 21.0352 44.2671 20.7941 44.2078C20.5583 44.1439 20.1837 44.112 19.6702 44.112L18.7899 44.112Z" fill="#2C2C2C"/>
<path d="M24.9746 42.9148H27.3875C28.556 42.9148 29.4886 43.0949 30.1855 43.4552C30.8876 43.8155 31.4168 44.3514 31.7731 45.0629C32.1347 45.7744 32.3155 46.5634 32.3155 47.43C32.3155 48.3422 32.153 49.1563 31.8282 49.8723C31.5085 50.5838 31.016 51.1585 30.3506 51.5963C29.6904 52.0342 28.7472 52.2531 27.5211 52.2531H24.9746V42.9148ZM26.7509 44.1531V51.0148H27.4897C28.5219 51.0148 29.2712 50.7047 29.7375 50.0844C30.2038 49.4596 30.437 48.6272 30.437 47.5874C30.437 45.2978 29.4546 44.1531 27.4897 44.1531H26.7509Z" fill="#2C2C2C"/>
<path d="M34.0215 42.9148H39.979V44.1531H35.7978V46.9443H39.1459V48.1825H35.7978V52.2531H34.0215V42.9148Z" fill="#2C2C2C"/>
</svg>
