<svg width="80" height="80" viewBox="0 0 80 80" fill="none" xmlns="http://www.w3.org/2000/svg">
<circle cx="40" cy="40" r="40" fill="#FDB9C8" fill-opacity="0.33"/>
<path d="M56.4663 19.9408C56.7654 20.3866 57.1998 20.2548 57.5948 20.2611C59.3384 20.2736 61.0819 20.2673 62.8255 20.2736C62.944 20.4243 63.1527 20.3741 63.2769 20.5185C63.3953 20.6755 63.6041 20.6253 63.7282 20.7697C63.8016 20.8576 63.8806 20.933 63.9596 21.0209C64.9414 21.6551 65.0881 22.6912 65.0881 23.8278C65.0824 31.4385 65.0825 39.0555 65.0825 46.6663C65.0825 50.39 65.0937 54.1137 65.0768 57.8375C65.0712 59.1247 64.7213 60.2174 63.5082 60.7072C63.085 60.9646 62.5715 60.9395 62.154 61.2033C55.4563 61.2033 48.7586 61.2095 42.0609 61.2095C41.6434 61.6554 41.113 61.6428 40.5939 61.6491C39.0704 61.6617 37.5469 61.6679 36.0178 61.6491C35.0134 61.6365 34.0204 61.6617 33.0498 61.9756C33.0442 61.4858 32.8862 61.1781 32.384 61.2095C32.085 61.2284 31.7803 61.2095 31.4812 61.2095C25.4324 61.2095 19.3836 61.2095 13.3349 61.2095C11.9017 61.2095 10.508 60.2425 10.3105 58.9552C10.1807 58.1012 9.99447 57.2472 10.0058 56.3618C10.0453 54.3586 10.0171 52.3492 10.0171 50.3398C10.0171 42.0194 10.0284 33.6991 10.0001 25.3788C9.9945 24.3616 10.1581 23.3882 10.2766 22.4024C10.412 21.2721 11.5405 20.2862 12.6182 20.2799C14.7229 20.2611 16.8276 20.2359 18.9322 20.2925C19.5473 20.3113 19.9084 20.0601 20.1905 19.5264C20.3937 19.6771 20.6419 19.7461 20.8169 19.9471C21.0821 20.3615 21.4827 20.2673 21.8438 20.2673C29.1509 20.2736 36.4523 20.2736 43.7593 20.2611C44.1374 20.2611 44.6283 20.4557 44.7694 19.7901C45.1531 19.608 45.2546 19.991 45.407 20.2171C45.5763 20.4746 45.7229 20.4871 45.9091 20.2611C48.6006 20.2611 51.2921 20.2611 53.9836 20.2673C54.3955 20.2673 54.8018 20.3176 55.2137 20.3427C55.7102 20.5562 55.9754 19.8215 56.4663 19.9408Z" fill="#ECECEC"/>
<path d="M42.2583 64.7008C42.326 65.737 42.2131 66.7794 42.484 67.8029C42.5912 68.2236 42.6815 68.4999 43.1103 68.4874C43.5843 68.4748 43.8833 68.8139 44.1203 69.1844C44.5492 69.8626 44.9724 70.5533 45.3335 71.2817C45.6833 71.9913 45.4915 72.3681 44.7861 72.4937C44.6056 72.5251 44.4137 72.5063 44.2275 72.5063C39.8038 72.5063 35.3801 72.5063 30.962 72.5063C30.7363 72.5063 30.5106 72.5251 30.2905 72.4811C29.7488 72.3807 29.478 71.916 29.7488 71.3948C30.2172 70.4968 30.7757 69.6554 31.3061 68.8076C31.3851 68.682 31.5601 68.5313 31.6729 68.5502C32.429 68.6632 32.5757 68.029 32.7958 67.4701C33.3262 67.6396 33.8227 67.5141 34.3362 67.332C36.7681 66.4779 39.2508 65.7998 41.615 64.726C41.8125 64.6381 42.0382 64.5815 42.2583 64.7008Z" fill="#ECECEC"/>
<path d="M42.2579 64.7007C40.2322 65.9441 37.9808 66.459 35.8085 67.2251C35.0241 67.5014 34.2229 67.7212 33.4499 68.0414C32.88 68.28 32.7953 67.9661 32.784 67.4763C32.7445 65.6364 33.1395 63.8216 33.038 61.9754C33.2693 61.3726 33.653 61.1779 34.2624 61.1842C36.858 61.2282 39.4535 61.2031 42.0491 61.2031C41.9419 62.3836 42.2635 63.5328 42.2579 64.7007Z" fill="#C8C8C8"/>
<path d="M71.1762 6.20092C71.0351 7.03609 70.4088 7.51961 69.9743 8.10988C68.7161 9.80534 67.486 11.5196 66.2728 13.2528C66.1374 13.4474 65.9625 13.617 65.8102 13.7991C65.466 14.2198 65.1838 14.2889 64.8397 13.7426C64.4165 13.0769 63.9651 12.4176 63.3105 11.9906C62.9889 11.7834 62.7575 11.482 62.5996 11.1052C62.5544 10.9984 62.5206 10.8854 62.5036 10.7661C62.498 10.6468 62.5262 10.5275 62.577 10.4207C64.8735 8.77551 67.3167 7.4317 69.7938 6.15069C69.8953 6.11301 70.0025 6.07533 70.1041 6.03137C70.2113 5.9937 70.3185 5.9623 70.4257 5.94346C70.7022 5.91206 70.9787 5.91835 71.1762 6.20092Z" fill="#EAEBEB"/>
<path d="M71.1762 6.20116C70.8772 6.20116 70.5725 6.20116 70.2734 6.20116C69.2408 6.34559 68.3775 6.97981 67.4634 7.4445C65.5563 8.40526 63.5306 9.0646 61.7194 10.2577C61.804 9.04576 60.8504 8.48689 60.3708 7.63288C60.1959 7.31891 59.8517 7.14308 59.7501 6.72864C59.9645 6.33303 60.3764 6.24511 60.7094 6.24511C62.5093 6.23255 64.2754 5.81183 66.0641 5.67996C67.9205 5.54182 69.7712 5.23412 71.6276 5.00178C71.7292 4.98922 71.8364 5.04574 72 5.08969C71.921 5.6674 71.5317 5.92486 71.1762 6.20116Z" fill="#EAEBEB"/>
<path d="M61.7136 10.2578C61.8885 9.90614 61.9731 9.53566 62.402 9.35355C64.8508 8.30488 67.2827 7.21225 69.7147 6.13218C69.9121 6.04426 70.1209 5.85588 70.2733 6.20753H70.2676C70.1717 6.308 70.0758 6.41475 69.9347 6.42731C67.4351 7.71461 65.0257 9.19656 62.622 10.6911C62.5656 11.6016 62.1368 12.3112 61.6459 12.9956C61.5556 13.0396 61.4878 13.0145 61.4935 12.914C61.5104 12.6314 61.5443 12.3551 61.5668 12.0726C61.6176 11.4634 61.6628 10.8606 61.7136 10.2578Z" fill="#118DCD"/>
<path d="M61.6455 12.9891C61.7979 12.1288 62.1251 11.3628 62.6217 10.6846H62.6104C62.6555 10.6971 62.5822 10.8478 62.7007 10.7788C62.9094 11.1806 63.3778 11.4193 63.3101 11.9907C62.7176 12.2544 62.2662 12.8008 61.6455 12.9891Z" fill="#202054"/>
<path d="M24.3435 15.1747C24.1065 15.1119 23.9146 14.9612 24.0331 14.754C24.3942 14.126 24.8739 13.6111 25.4776 13.2783C25.613 13.203 25.8726 13.4541 25.7428 13.6676C25.3704 14.2767 24.8513 14.7414 24.3435 15.1747Z" fill="#362A58"/>
<path d="M40.6956 11.2687C40.6787 11.5073 40.5094 11.7271 40.3571 11.5952C39.8605 11.1807 39.3866 10.7098 38.9521 10.2137C38.8054 10.0504 38.9351 9.80554 39.1552 9.77414C39.4486 9.73019 40.6505 10.9107 40.6956 11.2687Z" fill="#3C305D"/>
<path d="M42.6926 14.3833C42.6193 14.5654 42.4782 14.7852 42.3033 14.5968C41.8293 14.0819 41.4569 13.4665 41.2425 12.7695C41.1804 12.5748 41.4174 12.4304 41.6318 12.5309C41.8744 12.6439 42.7039 14.0945 42.6926 14.3833Z" fill="#352957"/>
<path d="M44.3795 17.5293C44.3061 17.6863 44.2835 17.8433 44.2102 17.8935C44.0748 17.9814 43.9111 17.9312 43.8322 17.7742C43.5557 17.2467 43.2905 16.7067 43.0253 16.1666C42.9463 16.0034 42.9858 15.8401 43.1325 15.7459C43.2735 15.658 43.4372 15.6957 43.5218 15.8464C43.8152 16.4053 44.0974 16.983 44.3795 17.5293Z" fill="#372A58"/>
<path d="M45.8969 20.2607C45.9364 20.3737 45.9703 20.493 46.021 20.5998C46.1226 20.8133 46.1057 20.9954 45.9082 21.121C45.7445 21.2214 45.6091 21.1021 45.5245 20.9828C45.2536 20.5935 45.011 20.1853 44.7515 19.7834C44.7571 19.526 44.4468 19.2183 44.8079 19.0299C45.0675 18.8918 45.1859 19.1681 45.3157 19.369C45.5076 19.6704 45.6091 20.0409 45.8969 20.2607Z" fill="#312453"/>
<path d="M26.8209 12.6692C26.7532 12.6252 26.629 12.5938 26.5839 12.5059C26.5387 12.418 26.5331 12.2359 26.5839 12.1731C27.024 11.677 27.5149 11.2375 28.1017 10.9675C28.1694 10.9361 28.333 11.024 28.3782 11.1056C28.4233 11.181 28.4064 11.3379 28.3669 11.4384C28.3161 11.5954 26.9845 12.6441 26.8209 12.6692Z" fill="#382B59"/>
<path d="M36.4412 8.34229C36.8193 8.46787 37.2199 8.5809 37.6093 8.73161C37.818 8.81324 38.0663 8.95767 37.9365 9.26536C37.818 9.55422 37.5697 9.45375 37.3497 9.37212C36.9942 9.24653 36.6331 9.13978 36.272 9.02675C36.0576 8.96395 35.7754 8.93256 35.8544 8.58718C35.9221 8.26693 36.2043 8.37368 36.4412 8.34229Z" fill="#392D5A"/>
<path d="M33.0165 9.17151C32.6948 9.20918 32.5199 9.12756 32.4861 8.88266C32.4635 8.70055 32.5876 8.55612 32.7287 8.52472C33.2422 8.41169 33.7613 8.3175 34.2804 8.24215C34.4892 8.21075 34.6472 8.37402 34.6415 8.60636C34.6359 8.7759 34.5061 8.89521 34.3424 8.92033C33.8628 9.00825 33.3719 9.00196 33.0165 9.17151Z" fill="#3A2D5B"/>
<path d="M58.8246 16.3865C58.4804 16.983 58.1362 17.5733 57.6566 18.038C57.5606 18.1322 57.4478 18.0694 57.3519 18.0129C57.2334 17.9375 57.2164 17.7994 57.2672 17.6926C57.555 17.1086 57.9331 16.5937 58.345 16.1102C58.4014 16.0411 58.5763 16.016 58.6553 16.06C58.7286 16.1039 58.7625 16.2546 58.8246 16.3865Z" fill="#302353"/>
<path d="M56.467 19.9407C56.2244 20.2296 55.9818 20.5247 55.7391 20.8136C55.6094 20.9706 55.4457 21.1025 55.2708 20.9957C55.0225 20.8387 55.1805 20.5687 55.2031 20.3489C55.22 20.1794 55.3103 20.0915 55.457 20.0601C55.6827 19.7838 55.9084 19.5075 56.1341 19.2375C56.2639 19.0742 56.4275 18.936 56.6137 19.0742C56.8169 19.2249 56.7153 19.4321 56.625 19.6205C56.5686 19.721 56.5178 19.834 56.467 19.9407Z" fill="#2E2151"/>
<path d="M60.9967 13.4352C60.9629 13.5294 60.9403 13.6613 60.8726 13.7492C60.5566 14.1574 60.2294 14.5592 59.8965 14.9486C59.7667 15.0993 59.6087 15.2374 59.4225 15.0365C59.2927 14.8983 59.3096 14.7162 59.4112 14.5844C59.7497 14.1448 60.0883 13.699 60.4607 13.2908C60.6357 13.1024 60.8613 13.0836 60.9967 13.4352Z" fill="#322554"/>
<path d="M21.9398 17.9062C21.7536 17.8685 21.6746 17.6801 21.7367 17.5482C22.0301 16.9203 22.4476 16.3928 22.9667 15.9909C23.136 15.8591 23.3335 15.9595 23.3335 16.2421C23.3335 16.4807 22.2727 17.8245 22.047 17.8999C22.0132 17.9062 21.9793 17.9062 21.9398 17.9062Z" fill="#2B1E4F"/>
<path d="M29.856 10.4963C29.4949 10.5528 29.4102 10.4523 29.3989 10.3393C29.3876 10.2326 29.4158 10.0567 29.4836 10.0065C29.9745 9.64229 30.4936 9.32204 31.0747 9.18389C31.1594 9.16505 31.3117 9.24668 31.3569 9.32832C31.3964 9.40367 31.3682 9.61717 31.3117 9.65485C30.77 9.98138 30.2115 10.2891 29.856 10.4963Z" fill="#2D2050"/>
<path d="M20.8052 19.9405C20.382 20.1917 20.1168 20.154 20.1789 19.5198C20.2071 19.4946 20.241 19.4758 20.2692 19.4507C20.5344 19.2435 20.6247 18.5151 21.0648 18.8981C21.4654 19.2435 20.8447 19.5637 20.8052 19.9405Z" fill="#3A2E5B"/>
<path d="M62.1426 61.2032C62.5037 60.726 62.989 60.682 63.4968 60.7072C63.1413 61.1781 62.656 61.2346 62.1426 61.2032Z" fill="#EDEDED"/>
<path d="M63.7229 20.7697C63.5367 20.7635 63.373 20.7132 63.2715 20.5186C63.4577 20.5248 63.6213 20.5751 63.7229 20.7697Z" fill="#EDEDED"/>
<path d="M63.2707 20.5183C63.0845 20.5121 62.9209 20.4618 62.8193 20.2734C63.0055 20.2734 63.1692 20.3237 63.2707 20.5183Z" fill="#EDEDED"/>
<path d="M63.954 21.0207C63.875 20.9391 63.8017 20.8512 63.7227 20.7695C63.8017 20.8512 63.875 20.9328 63.954 21.0207Z" fill="#EDEDED"/>
<path d="M55.4502 20.0537C55.4107 20.1981 55.3317 20.2986 55.1963 20.3426C55.2189 20.1793 55.3035 20.0788 55.4502 20.0537Z" fill="#EDEDED"/>
<path d="M62.5945 23.0363C62.5945 34.6721 62.5945 46.308 62.5945 57.9376C62.1261 58.2955 61.5844 58.2202 61.071 58.1825C59.4798 58.0695 57.8717 58.4965 56.3031 57.9439L56.2523 57.9188C55.7557 57.2845 55.8742 56.4996 55.8742 55.7649C55.8629 48.9705 55.8799 42.1698 55.8629 35.3754C55.8573 33.1588 56.162 30.8856 55.1463 28.8008C54.3338 28.2859 53.4592 28.4994 52.6354 28.6376C52.0768 28.7318 51.5238 28.7946 50.9652 28.7946C41.3842 28.7946 31.8088 28.8134 22.2278 28.782C20.6197 28.7757 20.0555 29.1022 19.4686 31.0426C19.1922 31.9531 19.0285 32.8825 19.0285 33.8621C19.0455 41.8056 19.0398 49.7492 19.0398 57.6927C18.9326 58.396 18.4135 58.1699 18.0524 58.1762C16.6248 58.2139 15.1973 58.2013 13.7697 58.1888C12.6017 58.1762 12.5001 58.0632 12.4945 56.7319C12.4888 50.082 12.4888 43.4383 12.4888 36.7883C12.4888 32.6502 12.4832 28.512 12.4888 24.3675C12.4888 22.9044 12.5001 22.8981 13.7923 22.8981C24.2366 22.8981 34.6809 22.8981 45.1252 22.8918C45.5315 22.8918 45.9547 23.0049 46.344 22.7725C46.4851 22.7725 46.6261 22.7788 46.7672 22.7788C47.1452 22.5339 47.3653 22.8918 47.6249 23.0677C47.8731 23.2372 48.1101 23.4507 48.3979 23.143C49.7972 22.7411 51.1966 22.7474 52.5959 23.1367C53.0304 23.4507 53.3972 22.6407 53.8373 23.0425C54.0517 23.0363 54.2604 23.0237 54.4749 23.0174C57.1833 22.8479 59.886 22.8102 62.5945 23.0363Z" fill="white"/>
<path d="M55.1407 28.8073C56.0096 29.385 56.2579 30.2453 56.2579 31.3505C56.2353 40.2046 56.2466 49.0649 56.2466 57.919C54.7062 57.9378 53.1658 57.9253 51.6253 57.9881C50.9652 58.0132 50.8072 57.7306 50.8128 57.0461C50.841 54.1199 50.8241 51.1937 50.8241 48.2674C50.8241 44.0414 50.8241 39.8215 50.8128 35.5954C50.8072 34.2516 50.8749 32.9204 51.1739 31.6143C51.7269 29.2092 52.4886 28.6001 54.6892 28.7697C54.8416 28.7822 54.994 28.7948 55.1407 28.8073Z" fill="#0186CB"/>
<path d="M35.4931 32.5752C39.3977 32.5752 43.308 32.5752 47.2126 32.5752C48.375 32.5752 48.375 32.5878 48.3863 33.9064C48.3919 34.8232 48.3637 35.7463 48.3919 36.6631C48.4145 37.379 48.1437 37.6616 47.523 37.5988C47.3368 37.5799 47.1449 37.5988 46.9587 37.5988C39.2962 37.5988 31.6336 37.5988 23.971 37.5988C23.7059 37.5988 23.4463 37.5988 23.1811 37.5925C22.741 37.5862 22.4476 37.3601 22.4419 36.8515C22.425 35.6396 22.4363 34.4276 22.4363 33.2157C22.4363 32.7196 22.7071 32.5815 23.0965 32.5815C23.9993 32.5815 24.9021 32.5815 25.7993 32.5815C29.0324 32.5752 32.2599 32.5752 35.4931 32.5752Z" fill="#BBEADB"/>
<path d="M42.9468 51.8968C41.4797 51.8968 40.0127 51.9031 38.5513 51.8968C37.5977 51.8906 37.5864 51.878 37.5751 50.8733C37.5639 49.9502 37.5582 49.0334 37.5751 48.1103C37.5921 47.1433 37.6033 47.1119 38.4666 47.1056C40.7575 47.093 43.054 47.0993 45.3449 47.0993C45.9825 47.0993 46.6257 47.0868 47.2633 47.1056C48.1492 47.1244 48.1718 47.1433 48.1887 48.0726C48.2057 49.0334 48.1661 50.0004 48.2 50.9612C48.2282 51.6708 47.9743 51.922 47.348 51.9094C45.8809 51.8717 44.4139 51.8968 42.9468 51.8968Z" fill="#FED067"/>
<path d="M46.35 22.7788C45.9324 23.2058 45.4189 23.0174 44.945 23.0174C34.6925 23.03 24.4344 23.0237 14.1819 23.0237C12.6189 23.0237 12.7149 22.9358 12.7149 24.6627C12.7149 35.1996 12.7149 45.7303 12.7149 56.2673C12.7149 56.6001 12.7205 56.9392 12.7205 57.272C12.7205 57.7429 12.9462 57.9439 13.3525 57.9439C15.1186 57.9376 16.8847 57.9376 18.6508 57.9188C18.7806 57.9188 18.9103 57.7743 19.0401 57.699C19.2602 57.9313 19.2038 58.1385 18.9837 58.3081C18.7524 58.4902 18.4815 58.4462 18.2219 58.4462C16.6815 58.4462 15.1411 58.4588 13.6007 58.4462C12.5456 58.4337 12.2747 58.1385 12.2747 56.9454C12.2691 45.9877 12.2691 35.0364 12.2747 24.0787C12.2747 22.8604 12.3707 22.7788 13.6685 22.7788C24.5585 22.7788 35.4542 22.7788 46.35 22.7788Z" fill="#ECECEC"/>
<path d="M25.6299 41.5294C27.8418 41.5231 27.8418 41.5231 27.7797 43.9533C27.7572 44.8889 27.7572 44.8952 26.8939 44.9078C25.9967 44.9203 25.0996 44.8826 24.208 44.9203C23.6551 44.9454 23.4914 44.688 23.5196 44.1103C23.5535 43.4446 23.5366 42.779 23.5253 42.1197C23.5196 41.6989 23.6889 41.5168 24.0613 41.5231C24.5861 41.5357 25.1108 41.5294 25.6299 41.5294Z" fill="#0588CC"/>
<path d="M30.584 44.9142C28.3834 44.9142 28.4059 44.9142 28.4511 42.4463C28.4624 41.7556 28.643 41.4793 29.2806 41.5107C30.2172 41.5546 31.1539 41.5295 32.0905 41.5232C32.5137 41.517 32.7169 41.7179 32.6999 42.1952C32.6943 42.2768 32.6999 42.3647 32.7056 42.4463C32.8015 44.9142 32.8015 44.9142 30.584 44.9142Z" fill="#0287CB"/>
<path d="M35.4987 44.9079C35.0078 44.9079 34.5225 44.8827 34.0373 44.9141C33.5407 44.9455 33.4222 44.6818 33.3884 44.1669C33.2304 41.5169 33.2191 41.5232 35.6059 41.5232C36.0178 41.5232 36.4354 41.5546 36.8473 41.5169C37.4623 41.4604 37.6485 41.7932 37.5921 42.4086C37.5864 42.4526 37.5921 42.4903 37.5921 42.5342C37.6372 44.9141 37.6372 44.9141 35.4987 44.9079Z" fill="#0186CB"/>
<path d="M38.6756 55.7087C38.117 55.7087 37.5527 55.7087 36.9941 55.7087C36.3339 55.7087 36.4581 55.1561 36.4637 54.7228C36.4694 54.3021 36.3001 53.7181 36.9603 53.7055C38.117 53.6867 39.2737 53.6867 40.4304 53.7055C41.0116 53.7118 40.8987 54.2267 40.9044 54.6223C40.9326 55.6522 40.8987 55.6836 40.0185 55.715C39.979 55.715 39.9452 55.715 39.9057 55.715C39.4938 55.715 39.0818 55.715 38.6756 55.715C38.6756 55.715 38.6756 55.715 38.6756 55.7087Z" fill="#F45B66"/>
<path d="M32.2549 55.7148C31.8768 55.7148 31.5044 55.7211 31.1264 55.7148C30.1841 55.7023 29.7778 54.9927 30.1333 54.0194C30.2462 53.7117 30.4606 53.7054 30.6806 53.7054C31.7696 53.6991 32.8586 53.6991 33.9533 53.7054C34.6699 53.7054 34.5344 54.3082 34.5514 54.7855C34.5683 55.2564 34.5909 55.7399 33.9533 55.7211C33.3834 55.7023 32.8192 55.7148 32.2549 55.7148Z" fill="#F45B65"/>
<path d="M45.0289 55.7085C44.5041 55.7085 43.9794 55.7022 43.4546 55.7085C42.7944 55.7148 42.9016 55.1684 42.9129 54.7352C42.9186 54.3144 42.7493 53.7242 43.4095 53.7116C44.5323 53.6928 45.6609 53.699 46.7837 53.7116C47.3705 53.7179 47.2577 54.2265 47.269 54.6221C47.2972 55.6582 47.269 55.6834 46.3774 55.7148C46.3379 55.7148 46.3041 55.7148 46.2646 55.7148C45.8527 55.7148 45.4408 55.7148 45.0289 55.7148C45.0289 55.7148 45.0289 55.7148 45.0289 55.7085Z" fill="#F45964"/>
<path d="M25.9183 55.7146C25.5064 55.7146 25.0945 55.7398 24.6826 55.7084C24.3722 55.6833 23.9378 55.8842 23.7967 55.4195C23.6556 54.9485 23.6613 54.4211 23.808 53.9438C23.8926 53.6612 24.1747 53.7052 24.3948 53.7052C25.4048 53.6989 26.4205 53.7303 27.4305 53.6926C28.2261 53.6675 28.0737 54.2766 28.1019 54.7978C28.1302 55.3756 28.0343 55.7837 27.3797 55.7209C26.8945 55.677 26.4035 55.7146 25.9183 55.7146Z" fill="#F45964"/>
<path d="M56.3027 57.9505C58.4018 57.9443 60.4951 57.9443 62.5941 57.938C62.4305 58.321 62.1371 58.4403 61.776 58.4466C60.371 58.4655 58.9603 58.5282 57.5554 58.4969C57.1209 58.4843 56.5397 58.6287 56.3027 57.9505Z" fill="#EDEDED"/>
<path d="M62.5942 23.0363C59.8858 23.03 57.183 23.0237 54.4746 23.0174C54.6721 22.7725 54.9317 22.7788 55.1969 22.7788C57.4257 22.7788 59.6545 22.7788 61.8832 22.7788C62.1428 22.7788 62.408 22.7788 62.5942 23.0363Z" fill="#EDEDED"/>
<path d="M52.6692 23.5264C52.3814 23.1873 52.0598 22.9801 51.5971 23.0115C50.9313 23.0617 50.2542 23.0931 49.594 23.0052C48.9677 22.9236 48.646 23.2689 48.3752 23.7839C48.2059 23.5578 47.9464 23.3694 48.1495 23.0115C49.1821 22.528 50.2598 22.8608 51.315 22.798C51.7664 22.7729 52.2911 22.5907 52.6748 23.0743C52.7989 23.2313 52.7933 23.382 52.6692 23.5264Z" fill="#EDEDED"/>
<path d="M48.1544 23.0112C48.3068 23.2435 48.5099 23.457 48.3801 23.7835C47.6466 23.8463 47.3306 23.074 46.772 22.7851C46.7325 22.5653 46.4729 22.3518 46.7099 22.1195C46.9356 21.8997 47.1105 22.1132 47.2798 22.2702C47.5506 22.5402 47.7877 22.873 48.1544 23.0112Z" fill="#2F2251"/>
<path d="M52.6689 23.5264C52.6746 23.3757 52.6746 23.225 52.6802 23.068C53.0808 22.71 53.4815 22.3458 53.8877 21.9942C54.0288 21.8686 54.1924 21.7053 54.373 21.8874C54.5987 22.1135 54.452 22.327 54.294 22.5154C54.1473 22.6975 53.9893 22.867 53.837 23.0428C53.4476 23.1998 53.1993 23.7901 52.6689 23.5264Z" fill="#312453"/>
<path d="M62.6959 10.7725L62.6226 10.7788L62.6113 10.6846L62.6903 10.6908L62.6959 10.7725Z" fill="#118DCD"/>
<path d="M69.9355 6.42095C70.0089 6.27652 70.1218 6.20117 70.2685 6.20117C70.1895 6.33932 70.0766 6.40839 69.9355 6.42095Z" fill="#EAEBEB"/>
<path d="M50.6886 23.9093C50.8805 23.8716 50.9877 23.8528 51.1005 23.8339C51.3262 23.7963 51.5971 23.7586 51.6648 24.0537C51.7494 24.4431 51.4447 24.5372 51.1852 24.5561C50.7451 24.5812 50.2993 24.5686 49.8592 24.5435C49.6673 24.531 49.498 24.4242 49.5093 24.1668C49.5206 23.9156 49.6899 23.8214 49.893 23.8339C50.1808 23.8465 50.4742 23.8842 50.6886 23.9093Z" fill="#443863"/>
<path d="M37.3665 33.1401C37.6204 33.1715 37.6712 33.3976 37.7389 33.5734C37.8517 33.8874 38.5514 33.7178 38.2693 34.3081C38.0379 34.7916 37.6655 34.1825 37.3665 34.3646C37.3326 34.3835 37.3044 34.4086 37.2593 34.44C37.3439 34.8544 37.7107 34.754 37.9364 34.9047C38.5345 35.3003 38.5965 35.7524 38.1169 36.2987C37.9871 36.4432 37.8179 36.5436 37.705 36.7006C37.6148 36.8199 37.6147 37.0146 37.3721 37.0899C37.0674 36.9078 36.9997 36.3489 36.5483 36.2673C36.379 36.2359 36.2944 35.9785 36.4185 35.7524C36.5201 35.5577 36.6725 35.608 36.8022 35.6833C37.0449 35.8215 37.2818 35.8843 37.6035 35.8026C37.5301 35.338 37.169 35.4133 36.9433 35.2814C36.3226 34.9109 36.2098 34.4086 36.7458 33.9376C37.0223 33.6927 37.0392 33.2532 37.3665 33.1401Z" fill="#121615"/>
<path d="M43.8948 36.5499C43.15 36.5248 42.8679 36.1041 43.0766 35.2689C43.1274 35.0617 43.133 34.8921 43.1217 34.6849C43.0935 33.9502 43.3249 33.6739 43.9117 33.6739C44.4929 33.6676 44.7694 33.9691 44.7581 34.6598C44.7525 34.8607 44.7355 35.0428 44.7863 35.2501C44.9951 36.1166 44.6678 36.5688 43.8948 36.5499Z" fill="#171D1B"/>
<path d="M39.3361 34.4147C39.6013 34.6031 39.6577 34.6596 39.7198 34.691C40.4815 35.0615 40.7185 35.4948 40.4477 36.0349C40.1881 36.5435 39.3587 36.713 38.8283 36.3614C38.6872 36.2672 38.6082 36.1479 38.659 35.9595C38.7098 35.7523 38.8396 35.7272 39.0032 35.7711C39.1104 35.8025 39.2176 35.8528 39.3305 35.859C39.5167 35.8779 39.7254 35.8841 39.7424 35.5953C39.7536 35.3567 39.5505 35.3378 39.4264 35.3504C38.6364 35.4383 38.7324 34.8418 38.7324 34.2892C38.7324 33.8559 38.9186 33.6863 39.2853 33.6989C39.5449 33.7052 39.8101 33.6926 40.0753 33.7115C40.2615 33.724 40.4703 33.7554 40.4533 34.0443C40.4364 34.3331 40.2276 34.3206 40.0414 34.3457C39.8552 34.3582 39.6747 34.3771 39.3361 34.4147Z" fill="#191F1D"/>
<path d="M45.9428 34.5089C46.1234 34.6093 46.2137 34.6847 46.3152 34.7161C46.7046 34.8229 47.0318 34.9987 47.0601 35.5136C47.0826 35.9343 46.9133 36.2295 46.5748 36.4116C46.1234 36.6565 45.7002 36.5434 45.2883 36.3048C45.1642 36.2357 45.1698 36.1039 45.1867 35.9846C45.2149 35.7962 45.3109 35.6957 45.4914 35.7648C45.5648 35.7899 45.6325 35.815 45.7058 35.8338C45.9259 35.8904 46.225 35.9469 46.2532 35.6392C46.287 35.2875 45.9598 35.3441 45.7566 35.3378C45.057 35.3315 45.2939 34.7538 45.2488 34.3456C45.1924 33.837 45.4576 33.6549 45.8582 33.7177C46.2306 33.7805 46.8513 33.4351 46.9077 34.0316C46.9641 34.5905 46.2814 34.1698 45.9428 34.5089Z" fill="#171D1B"/>
<path d="M41.9709 35.6708C41.954 35.3945 41.7791 35.3443 41.5872 35.3192C41.2374 35.2815 41.1132 35.112 41.3276 34.754C41.401 34.6284 41.5533 34.4777 41.3558 34.3647C41.1584 34.2517 40.7408 34.3521 40.9327 33.8937C41.0624 33.586 41.3953 33.7305 41.6436 33.7179C41.8637 33.7054 42.0894 33.7116 42.3094 33.7556C42.3941 33.7744 42.4561 33.9063 42.5295 33.9879C41.937 34.6222 42.5803 35.068 42.6932 35.608C42.7834 36.0539 42.4279 36.349 42.0442 36.4746C41.5928 36.6253 41.1414 36.5751 40.8142 36.1795C40.69 36.0225 40.848 35.7525 41.0681 35.765C41.3784 35.7839 41.6944 36.0664 41.9709 35.6708Z" fill="#131816"/>
<path d="M41.3612 49.611C41.1693 50.6157 40.8252 50.9862 40.2045 50.8543C39.5274 50.7162 39.1493 49.8496 39.3807 48.9642C39.5725 48.2232 40.1932 47.859 40.8703 48.0851C41.017 48.1353 41.1524 48.1918 41.1468 48.399C41.1355 48.6251 40.9831 48.6439 40.8364 48.6565C40.5938 48.6753 40.3117 48.5121 40.086 48.983C40.6728 48.8951 41.1186 49.0898 41.3838 49.6361L41.3612 49.611Z" fill="#1D180C"/>
<path d="M41.3725 49.6361C41.4345 49.3535 41.5079 49.0772 41.5643 48.7946C41.6151 48.5372 41.7449 48.3425 41.9367 48.2044C42.3825 47.8778 43.0145 48.0474 43.2909 48.5686C43.6351 49.2153 43.4546 50.3582 42.958 50.7036C42.4897 51.0301 41.948 50.8669 41.632 50.2891C41.5192 50.0819 41.4515 49.8433 41.3668 49.6172C41.3612 49.611 41.3725 49.6361 41.3725 49.6361Z" fill="#1D180C"/>
<path d="M45.2096 49.1276C45.3168 48.958 45.424 48.7885 45.5368 48.6252C45.7174 48.374 45.9092 47.9031 46.2027 48.1166C46.6484 48.4368 45.9769 48.6943 46.0503 49.0962C46.5581 49.1338 47.0829 49.2218 47.066 50.0318C47.0603 50.4651 46.8798 50.7853 46.5017 50.8419C45.8585 50.9423 45.6666 50.4463 45.6158 49.8371C45.0798 49.9879 45.0967 50.9046 44.3632 50.8293C44.2447 50.4023 44.572 50.1888 44.7356 49.9062C44.8823 49.6299 44.8654 49.2406 45.2096 49.1276Z" fill="#2B2311"/>
<path d="M45.2093 49.1277C45.1134 49.4291 45.0175 49.7306 44.7466 49.9001C44.5999 49.6364 44.346 49.7871 44.1485 49.7117C43.7423 49.561 43.5561 49.2408 43.6181 48.7761C43.6633 48.4307 43.8156 48.1481 44.1485 48.0728C44.5435 47.9849 44.8821 48.0791 45.0288 48.5689C45.0796 48.7572 45.0401 48.9833 45.2093 49.1277Z" fill="#43361B"/>
<path d="M44.256 35.5827C44.256 35.7962 44.1544 35.8967 43.9908 35.9218C43.7764 35.9532 43.624 35.8527 43.624 35.6016C43.624 35.3943 43.782 35.3315 43.9287 35.3378C44.0811 35.3504 44.2334 35.3943 44.256 35.5827Z" fill="#A2CBBE"/>
<path d="M40.6618 49.9189C40.673 50.0508 40.5715 50.1638 40.4078 50.1889C40.2442 50.214 40.1088 50.1387 40.0749 49.9503C40.0411 49.7493 40.1652 49.6363 40.3176 49.6112C40.4812 49.5798 40.611 49.6551 40.6618 49.9189Z" fill="#DFB659"/>
<path d="M42.7885 49.4481C42.732 49.7432 42.8844 50.2267 42.433 50.2016C42.1283 50.1891 42.1114 49.7872 42.117 49.492C42.1226 49.1655 42.0831 48.6946 42.4499 48.6757C42.8844 48.6506 42.732 49.153 42.7885 49.4481Z" fill="#DDB559"/>
<path d="M46.586 50.0757C46.5465 50.2013 46.5239 50.3834 46.3264 50.3331C46.1628 50.2892 46.1233 50.1259 46.1346 49.9564C46.1459 49.768 46.2531 49.655 46.4111 49.6864C46.5804 49.7115 46.6029 49.881 46.586 50.0757Z" fill="#DFB659"/>
</svg>
