<svg width="62" height="68" viewBox="0 0 62 68" fill="none" xmlns="http://www.w3.org/2000/svg">
<path d="M46.4663 14.9406C46.7654 15.3864 47.1998 15.2545 47.5948 15.2608C49.3384 15.2734 51.0819 15.2671 52.8255 15.2734C52.944 15.4241 53.1527 15.3739 53.2769 15.5183C53.3953 15.6753 53.6041 15.625 53.7282 15.7695C53.8016 15.8574 53.8806 15.9327 53.9596 16.0206C54.9414 16.6549 55.0881 17.691 55.0881 18.8276C55.0824 26.4383 55.0825 34.0553 55.0825 41.666C55.0825 45.3897 55.0937 49.1135 55.0768 52.8372C55.0712 54.1245 54.7213 55.2171 53.5082 55.7069C53.085 55.9644 52.5715 55.9393 52.154 56.203C45.4563 56.203 38.7586 56.2093 32.0609 56.2093C31.6434 56.6551 31.113 56.6426 30.5939 56.6489C29.0704 56.6614 27.5469 56.6677 26.0178 56.6489C25.0134 56.6363 24.0204 56.6614 23.0498 56.9754C23.0442 56.4856 22.8862 56.1779 22.384 56.2093C22.085 56.2281 21.7803 56.2093 21.4812 56.2093C15.4324 56.2093 9.38365 56.2093 3.33486 56.2093C1.90166 56.2093 0.507962 55.2422 0.310474 53.955C0.180696 53.1009 -0.00552938 52.2469 0.00575567 51.3615C0.0452533 49.3584 0.0170517 47.3489 0.0170517 45.3395C0.0170517 37.0192 0.0283547 28.6989 0.000142076 20.3786C-0.00550045 19.3613 0.158127 18.388 0.27662 17.4021C0.412041 16.2718 1.54053 15.2859 2.61825 15.2797C4.72291 15.2608 6.82757 15.2357 8.93223 15.2922C9.54727 15.3111 9.90841 15.0599 10.1905 14.5261C10.3937 14.6768 10.6419 14.7459 10.8169 14.9468C11.0821 15.3613 11.4827 15.2671 11.8438 15.2671C19.1509 15.2734 26.4523 15.2734 33.7593 15.2608C34.1374 15.2608 34.6283 15.4555 34.7694 14.7899C35.1531 14.6078 35.2546 14.9908 35.407 15.2169C35.5763 15.4743 35.7229 15.4869 35.9091 15.2608C38.6006 15.2608 41.2921 15.2608 43.9836 15.2671C44.3955 15.2671 44.8018 15.3173 45.2137 15.3425C45.7102 15.556 45.9754 14.8213 46.4663 14.9406Z" fill="#ECECEC"/>
<path d="M32.2583 59.7008C32.326 60.737 32.2131 61.7794 32.484 62.8029C32.5912 63.2236 32.6815 63.4999 33.1103 63.4874C33.5843 63.4748 33.8833 63.8139 34.1203 64.1844C34.5492 64.8626 34.9724 65.5533 35.3335 66.2817C35.6833 66.9913 35.4915 67.3681 34.7861 67.4937C34.6056 67.5251 34.4137 67.5063 34.2275 67.5063C29.8038 67.5063 25.3801 67.5063 20.962 67.5063C20.7363 67.5063 20.5106 67.5251 20.2905 67.4811C19.7488 67.3807 19.478 66.916 19.7488 66.3948C20.2172 65.4968 20.7757 64.6554 21.3061 63.8076C21.3851 63.682 21.5601 63.5313 21.6729 63.5502C22.429 63.6632 22.5757 63.029 22.7958 62.4701C23.3262 62.6396 23.8227 62.5141 24.3362 62.332C26.7681 61.4779 29.2508 60.7998 31.615 59.726C31.8125 59.6381 32.0382 59.5815 32.2583 59.7008Z" fill="#ECECEC"/>
<path d="M32.2579 59.7007C30.2322 60.9441 27.9808 61.459 25.8085 62.2251C25.0241 62.5014 24.2229 62.7212 23.4499 63.0414C22.88 63.28 22.7953 62.9661 22.784 62.4763C22.7445 60.6364 23.1395 58.8216 23.038 56.9754C23.2693 56.3726 23.653 56.1779 24.2624 56.1842C26.858 56.2282 29.4535 56.2031 32.0491 56.2031C31.9419 57.3836 32.2635 58.5328 32.2579 59.7007Z" fill="#C8C8C8"/>
<path d="M61.1762 1.20117C61.0351 2.03634 60.4088 2.51985 59.9743 3.11012C58.7161 4.80558 57.486 6.51988 56.2728 8.25302C56.1374 8.44768 55.9625 8.61722 55.8102 8.79933C55.466 9.22005 55.1838 9.28913 54.8397 8.74282C54.4165 8.07719 53.9651 7.41785 53.3105 6.99085C52.9889 6.78362 52.7575 6.48221 52.5996 6.10544C52.5544 5.99869 52.5206 5.88566 52.5036 5.76635C52.498 5.64704 52.5262 5.52773 52.577 5.42098C54.8735 3.77575 57.3167 2.43194 59.7938 1.15093C59.8953 1.11325 60.0025 1.07557 60.1041 1.03162C60.2113 0.993942 60.3185 0.962545 60.4257 0.943706C60.7022 0.912309 60.9787 0.918591 61.1762 1.20117Z" fill="#EAEBEB"/>
<path d="M61.1762 1.20116C60.8772 1.20116 60.5725 1.20116 60.2734 1.20116C59.2408 1.34559 58.3775 1.97981 57.4634 2.4445C55.5563 3.40526 53.5306 4.0646 51.7194 5.2577C51.804 4.04576 50.8504 3.48689 50.3708 2.63288C50.1959 2.31891 49.8517 2.14308 49.7501 1.72864C49.9645 1.33303 50.3764 1.24511 50.7094 1.24511C52.5093 1.23255 54.2754 0.811833 56.0641 0.679964C57.9205 0.541816 59.7712 0.23412 61.6276 0.00177948C61.7292 -0.0107795 61.8364 0.0457354 62 0.0896918C61.921 0.667404 61.5317 0.924865 61.1762 1.20116Z" fill="#EAEBEB"/>
<path d="M51.7136 5.25779C51.8885 4.90614 51.9731 4.53566 52.402 4.35355C54.8508 3.30488 57.2827 2.21225 59.7147 1.13218C59.9121 1.04426 60.1209 0.855877 60.2733 1.20753H60.2676C60.1717 1.308 60.0758 1.41475 59.9347 1.42731C57.4351 2.71461 55.0257 4.19656 52.622 5.69107C52.5656 6.6016 52.1368 7.31118 51.6459 7.99564C51.5556 8.0396 51.4878 8.01449 51.4935 7.91401C51.5104 7.63144 51.5443 7.35513 51.5668 7.07256C51.6176 6.46345 51.6628 5.86062 51.7136 5.25779Z" fill="#118DCD"/>
<path d="M51.6455 7.98938C51.7979 7.12909 52.1251 6.363 52.6217 5.68481H52.6104C52.6555 5.69737 52.5822 5.84808 52.7007 5.779C52.9094 6.18089 53.3778 6.41951 53.3101 6.99095C52.7176 7.25468 52.2662 7.801 51.6455 7.98938Z" fill="#202054"/>
<path d="M14.3435 10.1745C14.1065 10.1117 13.9146 9.96096 14.0331 9.75374C14.3942 9.12579 14.8739 8.61088 15.4776 8.27807C15.613 8.20271 15.8726 8.45389 15.7428 8.66739C15.3704 9.2765 14.8513 9.74118 14.3435 10.1745Z" fill="#362A58"/>
<path d="M30.6956 6.26865C30.6787 6.50727 30.5094 6.72706 30.3571 6.59519C29.8605 6.18074 29.3866 5.70978 28.9521 5.21371C28.8054 5.05044 28.9351 4.80554 29.1552 4.77414C29.4486 4.73019 30.6505 5.91072 30.6956 6.26865Z" fill="#3C305D"/>
<path d="M32.6926 9.38333C32.6193 9.56544 32.4782 9.78522 32.3033 9.59683C31.8293 9.08192 31.4569 8.46652 31.2425 7.7695C31.1804 7.57484 31.4174 7.43042 31.6318 7.53089C31.8744 7.64392 32.7039 9.09448 32.6926 9.38333Z" fill="#352957"/>
<path d="M34.3795 12.5293C34.3061 12.6863 34.2835 12.8433 34.2102 12.8935C34.0748 12.9814 33.9111 12.9312 33.8322 12.7742C33.5557 12.2467 33.2905 11.7067 33.0253 11.1666C32.9463 11.0034 32.9858 10.8401 33.1325 10.7459C33.2735 10.658 33.4372 10.6957 33.5218 10.8464C33.8152 11.4053 34.0974 11.983 34.3795 12.5293Z" fill="#372A58"/>
<path d="M35.8969 15.2609C35.9364 15.374 35.9703 15.4933 36.021 15.6C36.1226 15.8135 36.1057 15.9956 35.9082 16.1212C35.7445 16.2217 35.6091 16.1024 35.5245 15.9831C35.2536 15.5937 35.011 15.1856 34.7515 14.7837C34.7571 14.5262 34.4468 14.2185 34.8079 14.0301C35.0675 13.892 35.1859 14.1683 35.3157 14.3692C35.5076 14.6707 35.6091 15.0411 35.8969 15.2609Z" fill="#312453"/>
<path d="M16.8209 7.66895C16.7532 7.625 16.629 7.59359 16.5839 7.50568C16.5387 7.41777 16.5331 7.23566 16.5839 7.17287C17.024 6.67679 17.5149 6.23723 18.1017 5.96721C18.1694 5.93581 18.333 6.02373 18.3782 6.10536C18.4233 6.18071 18.4064 6.3377 18.3669 6.43817C18.3161 6.59516 16.9845 7.64384 16.8209 7.66895Z" fill="#382B59"/>
<path d="M26.4412 3.34253C26.8193 3.46812 27.2199 3.58115 27.6093 3.73185C27.818 3.81349 28.0663 3.95791 27.9365 4.2656C27.818 4.55446 27.5697 4.454 27.3497 4.37236C26.9942 4.24677 26.6331 4.14002 26.272 4.02699C26.0576 3.9642 25.7754 3.9328 25.8544 3.58743C25.9221 3.26718 26.2043 3.37393 26.4412 3.34253Z" fill="#392D5A"/>
<path d="M23.0165 4.17126C22.6948 4.20894 22.5199 4.12731 22.4861 3.88241C22.4635 3.70031 22.5876 3.55588 22.7287 3.52448C23.2422 3.41145 23.7613 3.31726 24.2804 3.2419C24.4892 3.21051 24.6472 3.37377 24.6415 3.60611C24.6359 3.77566 24.5061 3.89497 24.3424 3.92009C23.8628 4.008 23.3719 4.00172 23.0165 4.17126Z" fill="#3A2D5B"/>
<path d="M48.8246 11.3865C48.4804 11.983 48.1362 12.5733 47.6566 13.038C47.5606 13.1322 47.4478 13.0694 47.3519 13.0129C47.2334 12.9375 47.2164 12.7994 47.2672 12.6926C47.555 12.1086 47.9331 11.5937 48.345 11.1102C48.4014 11.0411 48.5763 11.016 48.6553 11.06C48.7286 11.1039 48.7625 11.2546 48.8246 11.3865Z" fill="#302353"/>
<path d="M46.467 14.9405C46.2244 15.2294 45.9818 15.5245 45.7391 15.8134C45.6094 15.9703 45.4457 16.1022 45.2708 15.9955C45.0225 15.8385 45.1805 15.5685 45.2031 15.3487C45.22 15.1791 45.3103 15.0912 45.457 15.0598C45.6827 14.7835 45.9084 14.5072 46.1341 14.2372C46.2639 14.0739 46.4275 13.9358 46.6137 14.0739C46.8169 14.2247 46.7153 14.4319 46.625 14.6203C46.5686 14.7207 46.5178 14.8338 46.467 14.9405Z" fill="#2E2151"/>
<path d="M50.9967 8.43498C50.9629 8.52917 50.9403 8.66104 50.8726 8.74895C50.5566 9.15712 50.2294 9.559 49.8965 9.94833C49.7667 10.099 49.6087 10.2372 49.4225 10.0362C49.2927 9.89809 49.3096 9.71599 49.4112 9.58412C49.7497 9.14455 50.0883 8.69871 50.4607 8.29055C50.6357 8.10216 50.8613 8.08333 50.9967 8.43498Z" fill="#322554"/>
<path d="M11.9398 12.9062C11.7536 12.8685 11.6746 12.6801 11.7367 12.5482C12.0301 11.9203 12.4476 11.3928 12.9667 10.9909C13.136 10.8591 13.3335 10.9595 13.3335 11.2421C13.3335 11.4807 12.2727 12.8245 12.047 12.8999C12.0132 12.9062 11.9793 12.9062 11.9398 12.9062Z" fill="#2B1E4F"/>
<path d="M19.856 5.4963C19.4949 5.55281 19.4102 5.45234 19.3989 5.33931C19.3876 5.23256 19.4158 5.05674 19.4836 5.0065C19.9745 4.64229 20.4936 4.32204 21.0747 4.18389C21.1594 4.16505 21.3117 4.24668 21.3569 4.32832C21.3964 4.40367 21.3682 4.61717 21.3117 4.65485C20.77 4.98138 20.2115 5.28908 19.856 5.4963Z" fill="#2D2050"/>
<path d="M10.8052 14.9407C10.382 15.1919 10.1168 15.1542 10.1789 14.52C10.2071 14.4949 10.241 14.4761 10.2692 14.4509C10.5344 14.2437 10.6247 13.5153 11.0648 13.8983C11.4654 14.2437 10.8447 14.564 10.8052 14.9407Z" fill="#3A2E5B"/>
<path d="M52.1426 56.203C52.5037 55.7258 52.989 55.6818 53.4968 55.7069C53.1413 56.1779 52.656 56.2344 52.1426 56.203Z" fill="#EDEDED"/>
<path d="M53.7229 15.7695C53.5367 15.7632 53.373 15.713 53.2715 15.5183C53.4577 15.5246 53.6213 15.5748 53.7229 15.7695Z" fill="#EDEDED"/>
<path d="M53.2707 15.5183C53.0845 15.5121 52.9209 15.4618 52.8193 15.2734C53.0055 15.2734 53.1692 15.3237 53.2707 15.5183Z" fill="#EDEDED"/>
<path d="M53.954 16.0207C53.875 15.9391 53.8017 15.8512 53.7227 15.7695C53.8017 15.8512 53.875 15.9328 53.954 16.0207Z" fill="#EDEDED"/>
<path d="M45.4502 15.0537C45.4107 15.1981 45.3317 15.2986 45.1963 15.3426C45.2189 15.1793 45.3035 15.0788 45.4502 15.0537Z" fill="#EDEDED"/>
<path d="M52.5945 18.0365C52.5945 29.6724 52.5945 41.3083 52.5945 52.9379C52.1261 53.2958 51.5844 53.2204 51.071 53.1827C49.4798 53.0697 47.8717 53.4967 46.3031 52.9441L46.2523 52.919C45.7557 52.2848 45.8742 51.4999 45.8742 50.7652C45.8629 43.9708 45.8799 37.1701 45.8629 30.3757C45.8573 28.159 46.162 25.8859 45.1463 23.8011C44.3338 23.2862 43.4592 23.4997 42.6354 23.6378C42.0768 23.732 41.5238 23.7948 40.9652 23.7948C31.3842 23.7948 21.8088 23.8136 12.2278 23.7822C10.6197 23.776 10.0555 24.1025 9.46864 26.0428C9.19215 26.9534 9.02854 27.8827 9.02854 28.8623C9.04547 36.8059 9.0398 44.7494 9.0398 52.6929C8.93259 53.3962 8.41348 53.1702 8.05236 53.1765C6.6248 53.2141 5.19726 53.2016 3.7697 53.189C2.6017 53.1765 2.50013 53.0634 2.49448 51.7322C2.48884 45.0822 2.48884 38.4385 2.48884 31.7886C2.48884 27.6504 2.48319 23.5122 2.48884 19.3678C2.48884 17.9046 2.50012 17.8984 3.79226 17.8984C14.2366 17.8984 24.6809 17.8984 35.1252 17.8921C35.5315 17.8921 35.9547 18.0051 36.344 17.7728C36.4851 17.7728 36.6261 17.7791 36.7672 17.7791C37.1452 17.5342 37.3653 17.8921 37.6249 18.0679C37.8731 18.2375 38.1101 18.451 38.3979 18.1433C39.7972 17.7414 41.1966 17.7477 42.5959 18.137C43.0304 18.451 43.3972 17.6409 43.8373 18.0428C44.0517 18.0365 44.2604 18.024 44.4749 18.0177C47.1833 17.8481 49.886 17.8105 52.5945 18.0365Z" fill="white"/>
<path d="M45.1407 23.8073C46.0096 24.385 46.2579 25.2453 46.2579 26.3505C46.2353 35.2046 46.2466 44.0649 46.2466 52.919C44.7062 52.9378 43.1658 52.9253 41.6253 52.9881C40.9652 53.0132 40.8072 52.7306 40.8128 52.0461C40.841 49.1199 40.8241 46.1937 40.8241 43.2674C40.8241 39.0414 40.8241 34.8215 40.8128 30.5954C40.8072 29.2516 40.8749 27.9204 41.1739 26.6143C41.7269 24.2092 42.4886 23.6001 44.6892 23.7697C44.8416 23.7822 44.994 23.7948 45.1407 23.8073Z" fill="#0186CB"/>
<path d="M25.4931 27.575C29.3977 27.575 33.308 27.575 37.2126 27.575C38.375 27.575 38.375 27.5875 38.3863 28.9062C38.3919 29.823 38.3637 30.7461 38.3919 31.6629C38.4145 32.3787 38.1437 32.6613 37.523 32.5985C37.3368 32.5797 37.1449 32.5985 36.9587 32.5985C29.2962 32.5985 21.6336 32.5985 13.971 32.5985C13.7059 32.5985 13.4463 32.5985 13.1811 32.5923C12.741 32.586 12.4476 32.3599 12.4419 31.8513C12.425 30.6393 12.4363 29.4274 12.4363 28.2155C12.4363 27.7194 12.7071 27.5812 13.0965 27.5812C13.9993 27.5812 14.9021 27.5812 15.7993 27.5812C19.0324 27.5749 22.2599 27.575 25.4931 27.575Z" fill="#BBEADB"/>
<path d="M32.9468 46.8968C31.4797 46.8968 30.0127 46.9031 28.5513 46.8968C27.5977 46.8906 27.5864 46.878 27.5751 45.8733C27.5639 44.9502 27.5582 44.0334 27.5751 43.1103C27.5921 42.1433 27.6033 42.1119 28.4666 42.1056C30.7575 42.093 33.054 42.0993 35.3449 42.0993C35.9825 42.0993 36.6257 42.0868 37.2633 42.1056C38.1492 42.1244 38.1718 42.1433 38.1887 43.0726C38.2057 44.0334 38.1661 45.0004 38.2 45.9612C38.2282 46.6708 37.9743 46.922 37.348 46.9094C35.8809 46.8717 34.4139 46.8968 32.9468 46.8968Z" fill="#FED067"/>
<path d="M36.35 17.7791C35.9324 18.2061 35.4189 18.0177 34.945 18.0177C24.6925 18.0302 14.4344 18.024 4.18192 18.024C2.61894 18.024 2.71487 17.936 2.71487 19.6629C2.71487 30.1999 2.71487 40.7305 2.71487 51.2675C2.71487 51.6003 2.72049 51.9394 2.72049 52.2722C2.72049 52.7432 2.94622 52.9441 3.35248 52.9441C5.11859 52.9379 6.88468 52.9378 8.65079 52.919C8.78056 52.919 8.91034 52.7746 9.04012 52.6992C9.26018 52.9316 9.20377 53.1388 8.98371 53.3083C8.75237 53.4904 8.4815 53.4465 8.22195 53.4465C6.68154 53.4465 5.14113 53.459 3.60072 53.4465C2.54557 53.4339 2.27474 53.1388 2.27474 51.9457C2.2691 40.988 2.2691 30.0366 2.27474 19.0789C2.27474 17.8607 2.37068 17.7791 3.66846 17.7791C14.5585 17.7791 25.4542 17.7791 36.35 17.7791Z" fill="#ECECEC"/>
<path d="M15.6299 36.5294C17.8418 36.5231 17.8418 36.5231 17.7797 38.9533C17.7572 39.8889 17.7572 39.8952 16.8939 39.9078C15.9967 39.9203 15.0996 39.8826 14.208 39.9203C13.6551 39.9454 13.4914 39.688 13.5196 39.1103C13.5535 38.4446 13.5366 37.779 13.5253 37.1197C13.5196 36.6989 13.6889 36.5168 14.0613 36.5231C14.5861 36.5357 15.1108 36.5294 15.6299 36.5294Z" fill="#0588CC"/>
<path d="M20.584 39.9142C18.3834 39.9142 18.4059 39.9142 18.4511 37.4463C18.4624 36.7556 18.643 36.4793 19.2806 36.5107C20.2172 36.5546 21.1539 36.5295 22.0905 36.5232C22.5137 36.517 22.7169 36.7179 22.6999 37.1952C22.6943 37.2768 22.6999 37.3647 22.7056 37.4463C22.8015 39.9142 22.8015 39.9142 20.584 39.9142Z" fill="#0287CB"/>
<path d="M25.4987 39.9079C25.0078 39.9079 24.5225 39.8827 24.0373 39.9141C23.5407 39.9455 23.4222 39.6818 23.3884 39.1669C23.2304 36.5169 23.2191 36.5232 25.6059 36.5232C26.0178 36.5232 26.4354 36.5546 26.8473 36.5169C27.4623 36.4604 27.6485 36.7932 27.5921 37.4086C27.5864 37.4526 27.5921 37.4903 27.5921 37.5342C27.6372 39.9141 27.6372 39.9141 25.4987 39.9079Z" fill="#0186CB"/>
<path d="M28.6756 50.7084C28.117 50.7084 27.5527 50.7084 26.9941 50.7084C26.3339 50.7084 26.4581 50.1558 26.4637 49.7226C26.4694 49.3018 26.3001 48.7178 26.9603 48.7053C28.117 48.6865 29.2737 48.6865 30.4304 48.7053C31.0116 48.7116 30.8987 49.2265 30.9044 49.6221C30.9326 50.6519 30.8987 50.6833 30.0185 50.7147C29.979 50.7147 29.9452 50.7147 29.9057 50.7147C29.4938 50.7147 29.0818 50.7147 28.6756 50.7147C28.6756 50.7147 28.6756 50.7147 28.6756 50.7084Z" fill="#F45B66"/>
<path d="M22.2549 50.7148C21.8768 50.7148 21.5044 50.7211 21.1264 50.7148C20.1841 50.7023 19.7778 49.9927 20.1333 49.0194C20.2462 48.7117 20.4606 48.7054 20.6806 48.7054C21.7696 48.6991 22.8586 48.6991 23.9533 48.7054C24.6699 48.7054 24.5344 49.3082 24.5514 49.7855C24.5683 50.2564 24.5909 50.7399 23.9533 50.7211C23.3834 50.7023 22.8192 50.7148 22.2549 50.7148Z" fill="#F45B65"/>
<path d="M35.0289 50.7085C34.5041 50.7085 33.9794 50.7022 33.4546 50.7085C32.7944 50.7148 32.9016 50.1684 32.9129 49.7352C32.9186 49.3144 32.7493 48.7242 33.4095 48.7116C34.5323 48.6928 35.6609 48.699 36.7837 48.7116C37.3705 48.7179 37.2577 49.2265 37.269 49.6221C37.2972 50.6582 37.269 50.6834 36.3774 50.7148C36.3379 50.7148 36.3041 50.7148 36.2646 50.7148C35.8527 50.7148 35.4408 50.7148 35.0289 50.7148C35.0289 50.7148 35.0289 50.7148 35.0289 50.7085Z" fill="#F45964"/>
<path d="M15.9183 50.7149C15.5064 50.7149 15.0945 50.74 14.6826 50.7086C14.3722 50.6835 13.9378 50.8844 13.7967 50.4197C13.6556 49.9488 13.6613 49.4213 13.808 48.9441C13.8926 48.6615 14.1747 48.7055 14.3948 48.7055C15.4048 48.6992 16.4205 48.7306 17.4305 48.6929C18.2261 48.6678 18.0737 49.2769 18.1019 49.7981C18.1302 50.3758 18.0343 50.784 17.3797 50.7212C16.8945 50.6772 16.4035 50.7149 15.9183 50.7149Z" fill="#F45964"/>
<path d="M46.3027 52.9503C48.4018 52.944 50.4951 52.944 52.5941 52.9377C52.4305 53.3208 52.1371 53.4401 51.776 53.4464C50.371 53.4652 48.9603 53.528 47.5554 53.4966C47.1209 53.484 46.5397 53.6285 46.3027 52.9503Z" fill="#EDEDED"/>
<path d="M52.5942 18.0363C49.8858 18.03 47.183 18.0237 44.4746 18.0174C44.6721 17.7725 44.9317 17.7788 45.1969 17.7788C47.4257 17.7788 49.6545 17.7788 51.8832 17.7788C52.1428 17.7788 52.408 17.7788 52.5942 18.0363Z" fill="#EDEDED"/>
<path d="M42.6692 18.5261C42.3814 18.1871 42.0598 17.9798 41.5971 18.0112C40.9313 18.0615 40.2542 18.0929 39.594 18.0049C38.9677 17.9233 38.646 18.2687 38.3752 18.7836C38.2059 18.5575 37.9464 18.3692 38.1495 18.0112C39.1821 17.5277 40.2598 17.8605 41.315 17.7977C41.7664 17.7726 42.2911 17.5905 42.6748 18.074C42.7989 18.231 42.7933 18.3817 42.6692 18.5261Z" fill="#EDEDED"/>
<path d="M38.1544 18.0114C38.3068 18.2438 38.5099 18.4572 38.3801 18.7838C37.6466 18.8466 37.3306 18.0742 36.772 17.7853C36.7325 17.5656 36.4729 17.3521 36.7099 17.1197C36.9356 16.8999 37.1105 17.1134 37.2798 17.2704C37.5506 17.5404 37.7877 17.8733 38.1544 18.0114Z" fill="#2F2251"/>
<path d="M42.6689 18.5264C42.6746 18.3757 42.6746 18.225 42.6802 18.068C43.0808 17.71 43.4815 17.3458 43.8877 16.9942C44.0288 16.8686 44.1924 16.7053 44.373 16.8874C44.5987 17.1135 44.452 17.327 44.294 17.5154C44.1473 17.6975 43.9893 17.867 43.837 18.0428C43.4476 18.1998 43.1993 18.7901 42.6689 18.5264Z" fill="#312453"/>
<path d="M52.6959 5.77273L52.6226 5.779L52.6113 5.68481L52.6903 5.69109L52.6959 5.77273Z" fill="#118DCD"/>
<path d="M59.9355 1.42095C60.0089 1.27652 60.1218 1.20117 60.2685 1.20117C60.1895 1.33932 60.0766 1.40839 59.9355 1.42095Z" fill="#EAEBEB"/>
<path d="M40.6886 18.9093C40.8805 18.8716 40.9877 18.8528 41.1005 18.8339C41.3262 18.7963 41.5971 18.7586 41.6648 19.0537C41.7494 19.4431 41.4447 19.5372 41.1852 19.5561C40.7451 19.5812 40.2993 19.5686 39.8592 19.5435C39.6673 19.531 39.498 19.4242 39.5093 19.1668C39.5206 18.9156 39.6899 18.8214 39.893 18.8339C40.1808 18.8465 40.4742 18.8842 40.6886 18.9093Z" fill="#443863"/>
<path d="M27.3665 28.1401C27.6204 28.1715 27.6712 28.3976 27.7389 28.5734C27.8517 28.8874 28.5514 28.7178 28.2693 29.3081C28.0379 29.7916 27.6655 29.1825 27.3665 29.3646C27.3326 29.3835 27.3044 29.4086 27.2593 29.44C27.3439 29.8544 27.7107 29.754 27.9364 29.9047C28.5345 30.3003 28.5965 30.7524 28.1169 31.2987C27.9871 31.4432 27.8179 31.5436 27.705 31.7006C27.6148 31.8199 27.6147 32.0146 27.3721 32.0899C27.0674 31.9078 26.9997 31.3489 26.5483 31.2673C26.379 31.2359 26.2944 30.9785 26.4185 30.7524C26.5201 30.5577 26.6725 30.608 26.8022 30.6833C27.0449 30.8215 27.2818 30.8843 27.6035 30.8026C27.5301 30.338 27.169 30.4133 26.9433 30.2814C26.3226 29.9109 26.2098 29.4086 26.7458 28.9376C27.0223 28.6927 27.0392 28.2532 27.3665 28.1401Z" fill="#121615"/>
<path d="M33.8948 31.5499C33.15 31.5248 32.8679 31.1041 33.0766 30.2689C33.1274 30.0617 33.133 29.8921 33.1217 29.6849C33.0935 28.9502 33.3249 28.6739 33.9117 28.6739C34.4929 28.6676 34.7694 28.9691 34.7581 29.6598C34.7525 29.8607 34.7355 30.0428 34.7863 30.2501C34.9951 31.1166 34.6678 31.5688 33.8948 31.5499Z" fill="#171D1B"/>
<path d="M29.3361 29.4147C29.6013 29.6031 29.6577 29.6596 29.7198 29.691C30.4815 30.0615 30.7185 30.4948 30.4477 31.0349C30.1881 31.5435 29.3587 31.713 28.8283 31.3614C28.6872 31.2672 28.6082 31.1479 28.659 30.9595C28.7098 30.7523 28.8396 30.7272 29.0032 30.7711C29.1104 30.8025 29.2176 30.8528 29.3305 30.859C29.5167 30.8779 29.7254 30.8841 29.7424 30.5953C29.7536 30.3567 29.5505 30.3378 29.4264 30.3504C28.6364 30.4383 28.7324 29.8418 28.7324 29.2892C28.7324 28.8559 28.9186 28.6863 29.2853 28.6989C29.5449 28.7052 29.8101 28.6926 30.0753 28.7115C30.2615 28.724 30.4703 28.7554 30.4533 29.0443C30.4364 29.3331 30.2276 29.3206 30.0414 29.3457C29.8552 29.3582 29.6747 29.3771 29.3361 29.4147Z" fill="#191F1D"/>
<path d="M35.9428 29.5091C36.1234 29.6096 36.2137 29.6849 36.3152 29.7163C36.7046 29.8231 37.0318 29.9989 37.0601 30.5138C37.0826 30.9346 36.9133 31.2297 36.5748 31.4118C36.1234 31.6567 35.7002 31.5437 35.2883 31.305C35.1642 31.236 35.1698 31.1041 35.1867 30.9848C35.2149 30.7964 35.3109 30.6959 35.4914 30.765C35.5648 30.7901 35.6325 30.8152 35.7058 30.8341C35.9259 30.8906 36.225 30.9471 36.2532 30.6394C36.287 30.2878 35.9598 30.3443 35.7566 30.338C35.057 30.3317 35.2939 29.754 35.2488 29.3458C35.1924 28.8372 35.4576 28.6551 35.8582 28.7179C36.2306 28.7807 36.8513 28.4353 36.9077 29.0319C36.9641 29.5907 36.2814 29.17 35.9428 29.5091Z" fill="#171D1B"/>
<path d="M31.9709 30.6708C31.954 30.3945 31.7791 30.3443 31.5872 30.3192C31.2374 30.2815 31.1132 30.112 31.3276 29.754C31.401 29.6284 31.5533 29.4777 31.3558 29.3647C31.1584 29.2517 30.7408 29.3521 30.9327 28.8937C31.0624 28.586 31.3953 28.7305 31.6436 28.7179C31.8637 28.7054 32.0894 28.7116 32.3094 28.7556C32.3941 28.7744 32.4561 28.9063 32.5295 28.9879C31.937 29.6222 32.5803 30.068 32.6932 30.608C32.7834 31.0539 32.4279 31.349 32.0442 31.4746C31.5928 31.6253 31.1414 31.5751 30.8142 31.1795C30.69 31.0225 30.848 30.7525 31.0681 30.765C31.3784 30.7839 31.6944 31.0664 31.9709 30.6708Z" fill="#131816"/>
<path d="M31.3612 44.6112C31.1693 45.6159 30.8252 45.9864 30.2045 45.8546C29.5274 45.7164 29.1493 44.8498 29.3807 43.9644C29.5725 43.2235 30.1932 42.8593 30.8703 43.0853C31.017 43.1356 31.1524 43.1921 31.1468 43.3993C31.1355 43.6253 30.9831 43.6442 30.8364 43.6567C30.5938 43.6756 30.3117 43.5123 30.086 43.9833C30.6728 43.8954 31.1186 44.09 31.3838 44.6363L31.3612 44.6112Z" fill="#1D180C"/>
<path d="M31.3725 44.6363C31.4345 44.3537 31.5079 44.0775 31.5643 43.7949C31.6151 43.5374 31.7449 43.3428 31.9367 43.2046C32.3825 42.8781 33.0145 43.0476 33.2909 43.5688C33.6351 44.2156 33.4546 45.3585 32.958 45.7038C32.4897 46.0304 31.948 45.8671 31.632 45.2894C31.5192 45.0822 31.4515 44.8435 31.3668 44.6175C31.3612 44.6112 31.3725 44.6363 31.3725 44.6363Z" fill="#1D180C"/>
<path d="M35.2096 44.1276C35.3168 43.958 35.424 43.7885 35.5368 43.6252C35.7174 43.374 35.9092 42.9031 36.2027 43.1166C36.6484 43.4368 35.9769 43.6943 36.0503 44.0962C36.5581 44.1338 37.0829 44.2218 37.066 45.0318C37.0603 45.4651 36.8798 45.7853 36.5017 45.8419C35.8585 45.9423 35.6666 45.4463 35.6158 44.8371C35.0798 44.9879 35.0967 45.9046 34.3632 45.8293C34.2447 45.4023 34.572 45.1888 34.7356 44.9062C34.8823 44.6299 34.8654 44.2406 35.2096 44.1276Z" fill="#2B2311"/>
<path d="M35.2093 44.1277C35.1134 44.4291 35.0175 44.7306 34.7466 44.9001C34.5999 44.6364 34.346 44.7871 34.1485 44.7117C33.7423 44.561 33.5561 44.2408 33.6181 43.7761C33.6633 43.4307 33.8156 43.1481 34.1485 43.0728C34.5435 42.9849 34.8821 43.0791 35.0288 43.5689C35.0796 43.7572 35.0401 43.9833 35.2093 44.1277Z" fill="#43361B"/>
<path d="M34.256 30.5827C34.256 30.7962 34.1544 30.8967 33.9908 30.9218C33.7764 30.9532 33.624 30.8527 33.624 30.6016C33.624 30.3943 33.782 30.3315 33.9287 30.3378C34.0811 30.3504 34.2334 30.3943 34.256 30.5827Z" fill="#A2CBBE"/>
<path d="M30.6618 44.9189C30.673 45.0508 30.5715 45.1638 30.4078 45.1889C30.2442 45.214 30.1088 45.1387 30.0749 44.9503C30.0411 44.7493 30.1652 44.6363 30.3176 44.6112C30.4812 44.5798 30.611 44.6551 30.6618 44.9189Z" fill="#DFB659"/>
<path d="M32.7885 44.4479C32.732 44.743 32.8844 45.2265 32.433 45.2014C32.1283 45.1888 32.1114 44.7869 32.117 44.4918C32.1226 44.1653 32.0831 43.6943 32.4499 43.6755C32.8844 43.6503 32.732 44.1527 32.7885 44.4479Z" fill="#DDB559"/>
<path d="M36.586 45.076C36.5465 45.2015 36.5239 45.3836 36.3264 45.3334C36.1628 45.2894 36.1233 45.1262 36.1346 44.9566C36.1459 44.7683 36.2531 44.6552 36.4111 44.6866C36.5804 44.7117 36.6029 44.8813 36.586 45.076Z" fill="#DFB659"/>
</svg>
