<svg width="33" height="44" viewBox="0 0 33 44" fill="none" xmlns="http://www.w3.org/2000/svg">
<path d="M0 38.6455L8.3994 24.9997L16.455 29.9582L8.05555 43.604L6.61221 36.926L0 38.6455Z" fill="#1A88E1" fill-opacity="0.5"/>
<path d="M32.5898 38.5117L23.9766 24.9999L16.0001 30.0846L24.6134 43.5964L25.9514 36.8966L32.5898 38.5117Z" fill="#1A88E1" fill-opacity="0.5"/>
<circle cx="15" cy="15" r="15" fill="#1A88E1"/>
<path d="M15.5 8.16063C15.2412 8.16063 15.0312 7.95063 15.0312 7.69188V6.46875C15.0312 6.21 15.2412 6 15.5 6C15.7587 6 15.9687 6.21 15.9687 6.46875V7.69188C15.9687 7.95063 15.7587 8.16063 15.5 8.16063Z" fill="#E7E7E7"/>
<path d="M19.6092 9.86156C19.4892 9.86156 19.3692 9.81594 19.278 9.72406C19.0948 9.54094 19.0948 9.24406 19.278 9.06094L20.1429 8.19594C20.326 8.01281 20.6229 8.01281 20.806 8.19594C20.9891 8.37906 20.9891 8.67594 20.806 8.85906L19.941 9.72406C19.8492 9.81531 19.7292 9.86156 19.6092 9.86156Z" fill="#E7E7E7"/>
<path d="M22.5277 13.9688H21.3047C21.0459 13.9688 20.8359 13.7588 20.8359 13.5C20.8359 13.2412 21.0459 13.0312 21.3047 13.0312H22.5277C22.7864 13.0312 22.9964 13.2412 22.9964 13.5C22.9964 13.7588 22.7864 13.9688 22.5277 13.9688Z" fill="#E7E7E7"/>
<path d="M20.4741 18.9407C20.3541 18.9407 20.2341 18.895 20.1429 18.8032L19.278 17.9382C19.0948 17.755 19.0948 17.4582 19.278 17.275C19.4611 17.0919 19.7579 17.0919 19.941 17.275L20.806 18.14C20.9891 18.3232 20.9891 18.62 20.806 18.8032C20.7141 18.895 20.5941 18.9407 20.4741 18.9407Z" fill="#E7E7E7"/>
<path d="M10.5272 18.9407C10.4072 18.9407 10.2872 18.895 10.1959 18.8032C10.0128 18.62 10.0128 18.3232 10.1959 18.14L11.0609 17.275C11.244 17.0919 11.5408 17.0919 11.7239 17.275C11.907 17.4582 11.907 17.755 11.7239 17.9382L10.859 18.8032C10.7671 18.895 10.6471 18.9407 10.5272 18.9407Z" fill="#E7E7E7"/>
<path d="M9.69174 13.9688H8.46871C8.20998 13.9688 8 13.7588 8 13.5C8 13.2412 8.20998 13.0312 8.46871 13.0312H9.69174C9.95047 13.0312 10.1605 13.2412 10.1605 13.5C10.1605 13.7588 9.95047 13.9688 9.69174 13.9688Z" fill="#E7E7E7"/>
<path d="M11.3921 9.86156C11.2721 9.86156 11.1521 9.81594 11.0609 9.72406L10.1959 8.85906C10.0128 8.67594 10.0128 8.37906 10.1959 8.19594C10.379 8.01281 10.6759 8.01281 10.859 8.19594L11.7239 9.06094C11.907 9.24406 11.907 9.54094 11.7239 9.72406C11.6314 9.81531 11.5121 9.86156 11.3921 9.86156Z" fill="#E7E7E7"/>
<path d="M17.3747 19.125V19.9062C17.3747 20.5063 16.881 21 16.281 21H14.7187C14.1937 21 13.625 20.6 13.625 19.725V19.125H17.3747Z" fill="#E7E7E7"/>
<path d="M18.2565 10.0991C17.2316 9.26789 15.8817 8.94289 14.563 9.22414C12.9069 9.56789 11.5633 10.9179 11.2195 12.5741C10.8696 14.2741 11.507 15.9616 12.8694 16.9929C13.2381 17.2679 13.4944 17.6929 13.5819 18.1866V18.1929C13.5944 18.1866 13.6131 18.1866 13.6256 18.1866H17.3753C17.3878 18.1866 17.3941 18.1866 17.4066 18.1929V18.1866C17.4941 17.7116 17.7753 17.2741 18.2065 16.9366C19.2627 16.0991 19.8751 14.8491 19.8751 13.4991C19.8751 12.1741 19.2877 10.9366 18.2565 10.0991ZM15.2661 13.3429H15.7348C16.4673 13.3429 17.0628 13.9385 17.0628 14.671C17.0628 15.3229 16.5897 15.8641 15.9692 15.9754V16.7804C15.9692 17.0391 15.7592 17.2491 15.5005 17.2491C15.2417 17.2491 15.0317 17.0391 15.0317 16.7804V15.9991H14.4068C14.1481 15.9991 13.9381 15.7891 13.9381 15.5304C13.9381 15.2716 14.1481 15.0616 14.4068 15.0616H15.7348C15.9504 15.0616 16.1254 14.8866 16.1254 14.671C16.1254 14.4554 15.9504 14.2804 15.7348 14.2804H15.2661C14.5337 14.2804 13.9381 13.6848 13.9381 12.9523C13.9381 12.3004 14.4112 11.7591 15.0317 11.6479V10.8429C15.0317 10.5841 15.2417 10.3741 15.5005 10.3741C15.7592 10.3741 15.9692 10.5841 15.9692 10.8429V11.6241H16.5941C16.8529 11.6241 17.0628 11.8341 17.0628 12.0929C17.0628 12.3516 16.8529 12.5616 16.5941 12.5616H15.2661C15.0505 12.5616 14.8755 12.7366 14.8755 12.9523C14.8755 13.1679 15.0505 13.3429 15.2661 13.3429Z" fill="#E7E7E7"/>
<path d="M13.5781 18.1875H13.6219C13.6094 18.1875 13.5906 18.1875 13.5781 18.1952V18.1875Z" fill="#E7E7E7"/>
<path d="M17.4062 18.1875V18.1952C17.3937 18.1875 17.3875 18.1875 17.375 18.1875H17.4062Z" fill="#E7E7E7"/>
<ellipse cx="15.5876" cy="13.7051" rx="3.31029" ry="3.83789" fill="#E7E7E7"/>
</svg>
