<svg width="161" height="95" viewBox="0 0 161 95" fill="none" xmlns="http://www.w3.org/2000/svg">
<path d="M149.748 44.2547C150.803 44.2547 151.853 44.2547 152.907 44.2547C153.812 44.2721 154.708 44.314 155.549 44.6556C156.473 45.0286 157.156 45.6351 157.717 46.3672C158.143 46.6426 158.226 47.0853 158.309 47.4827C158.574 48.7342 158.597 49.9996 158.293 51.2441C157.883 52.9034 156.189 54.2141 154.285 54.4163C153.966 54.5035 153.638 54.5139 153.31 54.5139C145.073 54.5139 136.833 54.5139 128.596 54.5104C128.055 54.5104 127.502 54.5209 127.04 54.2002C126.033 53.8655 125.173 53.3601 124.545 52.5722C124.122 52.0389 123.83 51.4567 123.759 50.8118C123.637 49.6858 123.546 48.5459 123.842 47.4339C124.343 45.5689 126.219 44.307 128.418 44.2721C128.829 44.2652 129.24 44.2617 129.65 44.2756C129.931 44.2826 129.982 44.2233 129.954 43.9514C129.828 42.7836 129.741 41.6019 129.998 40.441C130.377 38.7329 132.094 37.3734 134.069 37.2828C137.038 37.1433 140.015 37.1538 142.989 37.2793C144.422 37.3385 145.527 37.9939 146.369 39.0048C146.447 39.0989 146.523 39.1931 146.598 39.2872C147.154 39.7299 147.233 40.3434 147.316 40.9395C147.443 41.8598 147.498 42.7801 147.312 43.7004C147.245 44.0386 147.415 44.1362 147.766 44.1292C148.224 44.1187 148.682 44.1257 149.14 44.1292C149.354 44.1327 149.571 44.1222 149.748 44.2547Z" fill="#11EBD8"/>
<path d="M6.12409 63.7932C7.08359 62.5138 8.46163 62.0223 10.1635 62.0607C12.0825 62.106 14.0015 62.0711 15.9165 62.0851C17.4604 62.0955 18.6331 62.6184 19.5215 63.7026C20.1652 64.2359 20.2007 64.961 20.2639 65.6617C20.3152 66.2194 20.3113 66.7842 20.2086 67.3454C20.1296 67.7951 20.177 67.823 20.714 67.8369C21.0181 67.8439 21.3379 67.7777 21.6182 67.952C22.5659 67.9554 23.5175 67.9903 24.4612 67.9589C26.0959 67.9032 27.391 68.4261 28.3268 69.6217C28.8046 69.9808 28.9349 70.4793 28.9625 70.9882C29.006 71.7831 29.0099 72.5848 28.9665 73.3796C28.8796 74.9309 27.1423 76.388 25.3299 76.4647C25.1009 76.4752 24.8718 76.4682 24.6389 76.4682C17.6065 76.4752 10.5741 76.4612 3.54568 76.4543C3.0679 76.4612 2.64146 76.3288 2.2703 76.0638C0.619798 75.2516 -0.102789 74.0001 0.011719 72.3513C0.047256 71.8458 -0.0277665 71.3368 0.0827932 70.8314C0.434215 69.1651 2.00969 67.9868 3.93659 67.9659C4.41436 67.9624 4.89214 67.952 5.36596 67.9694C5.6779 67.9833 5.73318 67.9101 5.69764 67.6278C5.57919 66.69 5.55944 65.7488 5.71344 64.8111C5.77267 64.4451 5.98984 64.1348 6.12409 63.7932Z" fill="#11EBD8"/>
<path d="M125.039 14.8116C123.48 14.1702 121.916 13.5253 120.356 12.8839C119.551 12.5562 118.741 12.2355 117.936 11.9078C117.695 11.8102 117.45 11.7091 117.47 11.4128C117.49 11.1235 117.738 11.0468 117.995 10.9666C121.762 9.81275 125.529 8.65889 129.296 7.50504C129.371 7.48063 129.442 7.44577 129.513 7.41789C131.16 6.92288 132.806 6.43833 134.445 5.93635C140.818 3.99117 147.187 2.04252 153.56 0.10083C153.706 0.0555122 153.852 -0.038611 154.081 0.0171646C153.575 0.756191 153.082 1.48476 152.588 2.20984C148.814 7.73511 145.035 13.2569 141.26 18.7822C141.216 18.8449 141.189 18.9111 141.153 18.9739C140.679 19.6502 140.214 20.3299 139.736 21.0062C139.396 21.4873 139.132 21.557 138.543 21.306C136.759 20.5426 134.974 19.7722 133.189 19.0053C133.043 19.061 132.901 19.0332 132.767 18.9739C131.649 18.4719 130.512 18.0118 129.398 17.4958C129.035 17.2867 129.241 17.1124 129.454 16.952C130.078 16.4814 130.745 16.0561 131.389 15.6064C134.208 13.6299 137.023 11.6533 139.858 9.69074C142.484 7.87455 145.114 6.06184 147.736 4.23519C149.374 3.09528 151.001 1.93794 152.655 0.811966C152.837 0.689957 153.058 0.623725 153.141 0.529603C151.653 1.36624 150.038 2.18195 148.427 3.00464C147.558 3.44736 146.697 3.89705 145.828 4.33629C144.119 5.20081 142.429 6.0967 140.711 6.95077C139.294 7.65493 137.912 8.41139 136.498 9.1295C134.63 10.0777 132.771 11.0328 130.911 11.988C129.193 12.8734 127.452 13.7205 125.758 14.6373C125.541 14.7559 125.335 14.9476 125.039 14.8116Z" fill="#0283C3"/>
<path d="M3.45068 76.3421C6.4279 76.3421 9.40116 76.3386 12.3784 76.3386C16.5717 76.3386 20.7651 76.3386 24.9585 76.3386C27.1578 76.3386 28.8281 74.8745 28.8399 72.9328C28.8439 72.511 28.8162 72.0892 28.8439 71.6708C28.8952 70.9388 28.7057 70.2625 28.3227 69.6211C29.5743 70.1893 30.2653 71.1201 30.372 72.3297C30.4391 73.1175 30.4904 73.9193 30.3088 74.7106C29.9811 76.1608 28.99 77.0567 27.3947 77.4541C27.0947 77.5308 26.7867 77.5517 26.4708 77.5517C20.8678 77.5482 15.2608 77.5517 9.65782 77.5552C9.63018 77.5517 9.59859 77.5482 9.57095 77.5412C9.40116 77.4122 9.31824 77.2345 9.27086 77.0532C9.1682 76.6558 8.87995 76.5407 8.44561 76.5442C7.00439 76.5582 5.56316 76.5547 4.12194 76.5442C3.88897 76.5477 3.58888 76.6314 3.45068 76.3421Z" fill="#A5DBDB"/>
<path d="M154.384 54.2978C156.867 53.8167 158.332 52.2097 158.317 49.9647C158.309 48.9991 158.435 48.023 158.04 47.0888C157.937 46.8448 157.823 46.6077 157.712 46.3672C159.138 46.7193 160.125 47.5768 160.536 48.7586C161.132 50.4806 161.258 52.2794 160.279 53.9527C159.469 55.3401 158.111 56.0826 156.311 56.114C155.604 56.1279 154.897 56.1209 154.194 56.1209L154.182 56.1105C153.902 55.6015 154.044 55.0647 154.076 54.5383C154.084 54.3919 154.234 54.3326 154.384 54.2978Z" fill="#CDECEC"/>
<path d="M3.44975 76.3424C3.60374 76.4644 3.79327 76.4156 3.96701 76.4156C5.51089 76.419 7.05478 76.4365 8.59867 76.4086C9.0646 76.4016 9.30546 76.5167 9.38048 76.921C9.41997 77.1337 9.50684 77.3393 9.57001 77.545C8.23935 77.545 6.90474 77.5276 5.57407 77.5555C4.15259 77.5868 3.09832 77.0256 2.26123 76.0635C2.66398 76.1506 3.03515 76.3179 3.44975 76.3424Z" fill="#CDECEC"/>
<path d="M38.984 60.4604C38.984 56.2528 38.984 52.0452 38.9919 47.8376C38.9919 47.6877 38.9169 47.5169 39.0748 47.3879C39.7461 47.5797 40.2397 48.0329 40.8399 48.3257C40.9662 48.3884 41.0807 48.5453 41.2189 48.486C41.3966 48.4128 41.3097 48.2281 41.3137 48.0921C41.3453 47.137 41.2544 46.1783 41.3729 45.2232C41.4005 45.143 41.4677 45.1325 41.5506 45.1395C41.7401 45.2998 41.6927 45.5125 41.6967 45.7112C41.7046 46.5618 41.7164 47.4124 41.6927 48.2629C41.6809 48.6743 41.8507 48.9462 42.2574 49.1344C42.6167 49.3018 42.9523 49.5144 43.284 49.7201C46.2454 51.4247 49.2068 53.1259 52.1841 54.8061C52.3381 54.8932 52.4881 54.9769 52.6382 55.0675C52.9777 55.2802 53.3252 55.4789 53.6766 55.6776C55.3074 56.6153 56.9579 57.5217 58.5768 58.4733C59.3744 58.9335 60.1799 59.3867 60.9736 59.8468C62.6793 60.8055 64.3693 61.785 66.0751 62.7437C66.8174 63.2073 67.5992 63.6152 68.3574 64.0579C70.0276 65.02 71.7136 65.9612 73.3799 66.9268C74.1696 67.394 74.983 67.8332 75.7767 68.3003C77.0205 68.9801 78.2287 69.7017 79.4568 70.3989C79.7647 70.5732 79.9898 70.5732 80.3018 70.3989C81.5613 69.6912 82.8051 68.9592 84.0647 68.2515C84.8189 67.8088 85.5968 67.394 86.343 66.9408C88.0212 65.9891 89.6993 65.0374 91.3656 64.0718C92.1356 63.6465 92.9055 63.2212 93.6479 62.7576C95.4168 61.8059 97.1266 60.7776 98.8718 59.791C99.6497 59.3797 100.376 58.8986 101.154 58.4838C103.764 57.0092 106.35 55.5068 108.964 54.0392C109.154 53.9346 109.324 53.7777 109.584 53.8196C109.833 53.966 109.79 54.1995 109.79 54.4122C109.797 55.3848 109.774 56.3574 109.801 57.3299C109.813 57.7761 109.612 58.0655 109.197 58.2956C107.961 58.9858 106.729 59.683 105.494 60.3732C103.606 61.4295 101.695 62.4578 99.8155 63.521C97.6004 64.776 95.3616 65.9961 93.1385 67.2371C90.1771 68.886 87.2157 70.5383 84.2543 72.1837C82.9591 72.9018 81.6798 73.6373 80.3847 74.3589C80.0056 74.5716 79.7055 74.5855 79.3107 74.3554C76.4243 72.6822 73.5655 70.974 70.687 69.2903C67.615 67.495 64.5667 65.6684 61.4987 63.8731C58.9085 62.3567 56.334 60.8194 53.7516 59.2995C51.1535 57.7692 48.5514 56.2423 45.9532 54.712C44.3146 53.7464 42.6483 52.8121 41.0452 51.7942C40.9662 51.7419 40.8833 51.6966 40.7885 51.6652C40.6543 51.6234 40.52 51.6199 40.4292 51.728C40.3305 51.843 40.4016 51.9476 40.4963 52.0382C40.5871 52.1254 40.6977 52.1847 40.8083 52.2509C43.4262 53.8091 46.0598 55.3464 48.6817 56.9012C51.2601 58.4315 53.8504 59.9479 56.4367 61.4713C59.3783 63.2003 62.32 64.9363 65.2617 66.6654C68.2902 68.4432 71.303 70.235 74.3236 72.0198C75.9504 72.982 77.593 73.9197 79.2001 74.9027C79.6186 75.1607 79.9543 75.1572 80.4044 74.9062C83.2671 73.3097 86.1377 71.72 89.0004 70.1235C91.8631 68.5269 94.7219 66.9233 97.5846 65.3268C100.546 63.6744 103.5 62.0186 106.481 60.3941C107.278 59.9619 108.068 59.5157 108.842 59.0485C109.075 58.9091 109.347 58.6651 109.64 58.808C109.916 58.944 109.797 59.2577 109.797 59.4947C109.782 61.6421 109.849 63.7929 109.762 65.9438C109.43 66.5573 108.972 67.1116 108.664 67.7391C106.99 71.1728 107.164 74.5332 109.162 77.824C109.332 78.1029 109.561 78.3608 109.576 78.699C109.004 80.9614 107.519 82.5754 105.174 83.5968C103.93 84.1371 102.607 84.3114 101.249 84.3114C90.4101 84.3184 79.5713 84.3149 68.7325 84.3149C59.1414 84.3149 49.5543 84.3149 39.9633 84.3114C39.6434 84.3114 39.2999 84.3846 39.0156 84.1754C39.0117 84.1162 38.9998 84.0604 38.9998 84.0011C38.9998 76.2832 39.0038 68.5652 39.0038 60.8508C39.2881 60.7113 39.5763 60.8124 39.8606 60.8403C40.1015 60.8612 40.3423 60.91 40.6661 60.8403C40.2713 60.7323 39.9356 60.7288 39.6079 60.6765C39.3789 60.6416 39.138 60.6486 38.984 60.4604Z" fill="#1A88E1"/>
<path d="M39.0042 84.1755C59.8289 84.1755 80.6497 84.179 101.474 84.172C103.843 84.172 105.905 83.4504 107.535 81.9096C108.526 80.9719 109.154 79.8494 109.474 78.5945C109.691 78.5561 109.743 78.7235 109.849 78.8245C110.228 79.2812 110.639 79.71 111.097 80.1039C111.239 80.2259 111.346 80.3688 111.448 80.5187C112.357 81.69 113.49 82.6591 114.824 83.4504C116.459 84.4195 118.256 85.0017 120.21 85.2178C120.4 85.2387 120.605 85.2527 120.747 85.4026C120.747 86.6157 120.882 87.8323 120.72 89.0385C120.53 90.4259 119.768 91.5658 118.647 92.5349C118.611 92.744 118.426 92.8521 118.256 92.9602C116.917 93.8177 115.413 94.2116 113.762 94.1384C113.265 94.1175 112.779 94.1698 112.286 94.1698C90.1499 94.1663 68.0182 94.1663 45.8826 94.1663C44.3466 94.1663 42.9212 93.8421 41.6537 93.0508C41.4405 92.9183 41.2115 92.7928 41.1443 92.5419C40.1651 91.6739 39.4267 90.6838 39.1503 89.4637C39.0832 89.1674 39.0121 88.8642 39.0082 88.5644C38.9884 87.1003 39.0003 85.6396 39.0042 84.1755Z" fill="#6C1DEE"/>
<path d="M41.5575 24.841C39.1094 24.8375 36.6574 24.8305 34.2092 24.8271C31.3505 24.8236 29.5065 23.2096 29.5184 20.6962C29.5223 20.0025 29.4552 19.3053 29.6013 18.6116C29.9567 16.8895 31.6822 15.5369 33.6722 15.5021C35.5794 15.4672 37.4866 15.4777 39.3937 15.5021C39.8754 15.509 39.9149 15.3661 39.8675 15.0001C39.7412 14.0031 39.7096 12.9991 39.8952 12.0091C40.2032 10.3707 41.9879 8.99376 43.8753 8.96936C46.5051 8.9345 49.1387 8.93101 51.7685 8.96587C53.9718 8.99725 55.8355 10.6635 55.875 12.6087C55.8947 13.4907 55.9855 14.3796 55.7881 15.2581C55.7289 15.5265 55.9461 15.4881 56.1198 15.4916C56.7437 15.509 57.3715 15.4358 57.9914 15.5439C60.1868 15.9239 61.5965 17.4507 61.6004 19.4308C61.6004 19.5772 61.6122 19.7201 61.6162 19.8665C61.8334 20.2465 61.7623 20.6404 61.6794 21.0308C61.6517 21.0796 61.6122 21.118 61.557 21.1459C61.3082 21.2435 61.0397 21.2156 60.7791 21.2156C58.2125 21.2191 55.6499 21.2365 53.0834 21.2086C51.6579 21.1912 50.6392 21.6688 50.0864 22.8505C50.0272 22.9969 49.8969 23.0736 49.7468 23.1398C49.0479 23.4501 48.5544 23.9172 48.3056 24.5796C48.2424 24.7504 48.1398 24.8933 47.9226 24.9386C46.8249 25.0188 45.7272 24.963 44.6295 24.9735C43.8279 24.9839 43.0224 24.977 42.2209 24.9735C41.984 24.9665 41.751 24.9839 41.5575 24.841Z" fill="#11EBD8"/>
<path d="M109.766 78.8591C109.667 78.7719 109.572 78.6813 109.474 78.5941C108.862 77.6355 108.269 76.6664 107.926 75.5997C107.061 72.9155 107.227 70.2905 108.514 67.7283C108.838 67.08 109.288 66.4943 109.667 65.8773C110.058 65.0685 110.773 64.4829 111.491 63.9217C112.854 62.8549 114.394 62.0427 116.139 61.5442C117.493 61.1608 118.883 61.0004 120.301 60.969C120.466 60.9655 120.628 60.9934 120.767 61.0806C121.702 61.22 122.65 61.2828 123.566 61.5198C125.011 61.8963 126.37 62.4227 127.566 63.2454C128.881 64.9605 129.548 66.8568 129.647 68.9205C129.738 70.8727 129.335 72.7307 128.328 74.4807C127.317 76.2341 125.919 77.6773 124.075 78.7998C122.429 79.8038 120.628 80.4103 118.662 80.6683C116.032 81.0134 113.525 80.6718 111.152 79.6016C110.67 79.3785 110.173 79.1833 109.766 78.8591Z" fill="#FD693C"/>
<path d="M120.766 61.0775C118.492 61.0741 116.304 61.4227 114.267 62.3639C112.419 63.2179 110.903 64.4067 109.663 65.8777C109.663 64.0371 109.663 62.1966 109.663 60.356C109.663 59.9655 109.651 59.5716 109.667 59.1812C109.679 58.8709 109.596 58.7698 109.26 58.9616C108.478 59.4043 107.681 59.8331 106.895 60.2723C105.718 60.9311 104.546 61.5935 103.369 62.2488C101.71 63.1726 100.044 64.0859 98.4055 65.0306C96.9841 65.8533 95.5112 66.6063 94.07 67.4046C92.9368 68.0321 91.8193 68.6909 90.69 69.3219C89.3199 70.0853 87.9379 70.8278 86.5677 71.5878C85.4582 72.2048 84.3645 72.8392 83.2589 73.4562C82.2085 74.0454 81.1503 74.6206 80.0961 75.2062C79.871 75.3317 79.6775 75.2968 79.4603 75.1679C77.9244 74.258 76.3765 73.3621 74.8405 72.4523C72.4872 71.0614 70.1418 69.653 67.7884 68.2656C65.6246 66.9898 63.441 65.7348 61.2733 64.4659C58.9002 63.075 56.535 61.6806 54.1659 60.2827C51.7296 58.8465 49.2973 57.4103 46.8611 55.9741C44.8078 54.761 42.7546 53.5513 40.7053 52.3278C40.4446 52.1709 39.9827 52.014 40.2788 51.6445C40.5828 51.268 40.9185 51.5852 41.2067 51.7595C42.032 52.2546 42.8454 52.76 43.6746 53.2515C45.1829 54.1474 46.6952 55.0364 48.2075 55.9253C49.5974 56.741 50.9952 57.5463 52.3851 58.3655C54.6042 59.6727 56.8114 60.9939 59.0345 62.2976C61.0759 63.5003 63.1331 64.6786 65.1705 65.8847C67.1843 67.0769 69.1783 68.2935 71.1881 69.4857C72.5622 70.3014 73.9561 71.0893 75.3381 71.8945C76.7595 72.7242 78.1771 73.5539 79.5867 74.3975C79.7802 74.5125 79.9223 74.4776 80.0803 74.3905C81.2254 73.7421 82.3625 73.0867 83.5076 72.4453C84.475 71.905 85.4543 71.3856 86.4217 70.8487C87.8352 70.0644 89.2409 69.2696 90.6545 68.4852C92.7907 67.3 94.9387 66.1322 97.063 64.9261C98.37 64.1836 99.7085 63.4829 100.988 62.702C101.955 62.1129 103.029 61.6527 104.005 61.0741C105.308 60.3002 106.67 59.61 107.981 58.8465C108.419 58.592 108.861 58.3445 109.304 58.097C109.56 57.9541 109.675 57.7624 109.671 57.48C109.655 56.4203 109.663 55.3605 109.667 54.3008C109.667 54.1405 109.663 53.9801 109.564 53.8372C109.608 53.5444 109.92 53.4851 110.137 53.3561C111.1 52.7844 112.091 52.2511 113.051 51.6654C113.627 51.3621 114.2 51.0449 114.757 50.7103C115.763 50.156 116.747 49.5703 117.746 49.0056C118.129 48.7581 118.531 48.5315 118.934 48.3154C119.282 48.1306 119.436 47.8866 119.404 47.5311C119.38 47.2731 119.392 47.0116 119.404 46.7502C119.412 46.5968 119.384 46.426 119.554 46.3145C119.913 46.6317 120.269 46.9524 120.628 47.2696C120.77 47.3951 120.782 47.5485 120.782 47.7123C120.778 52.0036 120.778 56.2983 120.778 60.5895C120.778 60.7568 120.77 60.9172 120.766 61.0775Z" fill="#6C1DEE"/>
<path d="M68.603 19.8594C69.8113 18.716 71.0195 17.5691 72.2318 16.4292C73.3334 15.3939 74.4508 14.369 75.5525 13.3302C77.9216 11.0956 81.7517 11.0573 84.1485 13.2674C86.4663 15.4043 88.7604 17.5621 91.0624 19.713C91.1059 19.7548 91.1414 19.8036 91.1848 19.8489C90.9242 20.0685 90.5965 19.9988 90.2925 19.9988C84.3459 20.0023 78.3994 20.0023 72.4529 20.0023C71.4026 20.0023 70.3483 20.0058 69.298 19.9988C69.0611 20.0023 68.8044 20.0302 68.603 19.8594Z" fill="#F39500"/>
<path d="M109.765 78.8598C110.298 78.9783 110.736 79.2746 111.21 79.4942C112.387 80.0415 113.627 80.3692 114.938 80.5191C115.617 80.5958 116.292 80.7213 116.983 80.6899C118.997 80.5958 120.92 80.2228 122.724 79.3827C124.375 78.6123 125.788 77.5874 126.91 76.2906C127.739 75.332 128.406 74.2653 128.845 73.101C129.753 70.6747 129.772 68.2624 128.864 65.8327C128.541 64.9612 128.075 64.1594 127.534 63.3855C127.49 63.3228 127.502 63.281 127.569 63.2461C129.07 64.142 130.199 65.3342 131.154 66.6763C131.561 67.0144 131.774 67.4606 131.972 67.8999C133.847 72.1005 133.263 76.0292 130.08 79.5535C127.984 81.8751 125.188 83.2451 121.808 83.6112C121.484 83.646 121.161 83.7053 120.829 83.6913C119.479 83.7227 118.136 83.6879 116.829 83.3532C115.017 82.8861 113.331 82.2028 111.905 81.0734C111.696 80.906 111.53 80.7108 111.349 80.5261C110.819 79.9648 110.176 79.4977 109.765 78.8598Z" fill="#FD562E"/>
<path d="M125.039 14.8113C125.651 14.6927 126.105 14.3093 126.63 14.0513C128.344 13.2147 130.042 12.3536 131.724 11.4682C133.003 10.7954 134.287 10.14 135.578 9.48468C137.457 8.52953 139.329 7.56043 141.201 6.59481C142.314 6.01963 143.412 5.41307 144.545 4.86577C146.077 4.12326 147.558 3.30405 149.094 2.56503C150.472 1.90269 151.791 1.14972 153.137 0.438582C153.22 0.39675 153.287 0.316576 153.445 0.393268C152.253 1.21944 151.068 2.02819 149.895 2.84739C148.32 3.94896 146.752 5.06099 145.173 6.16256C144.067 6.93296 142.95 7.68244 141.844 8.45284C140.162 9.62413 138.504 10.8233 136.806 11.9737C135.25 13.0299 133.738 14.135 132.17 15.1808C131.246 15.7978 130.354 16.4566 129.442 17.0911C129.292 17.1957 129.213 17.2968 129.41 17.4223C129.094 17.6942 128.96 18.0567 128.79 18.4018C127.823 20.3714 126.844 22.3375 125.88 24.3071C125.679 24.7149 125.466 25.1263 125.248 25.5271C125.185 25.5934 125.126 25.6561 125.035 25.7537C125.039 22.076 125.039 18.4436 125.039 14.8113Z" fill="#07759F"/>
<path d="M110.853 21.0788C110.885 21.0788 110.92 21.0823 110.952 21.0823C111.418 21.532 111.54 22.4209 111.201 22.8846C110.968 22.9856 110.719 22.9682 110.474 22.9682C94.281 22.9682 78.088 22.9682 61.895 22.9682C61.6659 22.9682 61.433 22.9822 61.2119 22.909C61.046 22.8462 61.0026 22.7172 61.0658 22.5917C61.3066 22.1037 61.3461 21.5669 61.5791 21.0753L61.6146 21.0823C61.7528 20.9533 61.9345 20.9463 62.1161 20.9359C62.2977 20.9289 62.4794 20.9324 62.657 20.9324C78.3723 20.9324 94.0876 20.9324 109.799 20.9324C110.154 20.9324 110.525 20.8871 110.853 21.0788Z" fill="#D6D6D6"/>
<path d="M41.5592 24.8411C43.7309 24.8376 45.8986 24.8306 48.0704 24.8271C48.177 24.9073 48.2165 25.0224 48.2165 25.1374C48.2204 26.3889 48.2915 27.6438 48.1809 28.8953C48.0783 29.1428 47.8295 29.1149 47.6084 29.1358C46.8424 29.2055 46.2145 29.4809 45.7052 30.0038C45.3774 30.342 45.3103 30.7498 45.184 31.1472C45.1247 31.1995 45.0576 31.2413 44.9865 31.2762C43.9796 31.7608 43.5137 32.5277 43.4979 33.5212C43.4861 34.3195 43.494 35.1177 43.494 35.916C43.494 40.3153 43.494 44.7111 43.49 49.1104C43.49 49.3649 43.5611 49.6368 43.3281 49.8564C42.799 49.5671 42.2739 49.2708 41.7408 48.9884C41.5276 48.8769 41.5473 48.7061 41.5473 48.5353C41.5513 47.4058 41.5513 46.2764 41.5513 45.1434C41.3381 44.8192 41.5671 44.495 41.5671 44.1673C41.5513 39.524 41.5552 34.8807 41.5552 30.2409C41.5552 28.4386 41.5552 26.6399 41.5592 24.8411Z" fill="#ECECEC"/>
<path d="M110.852 21.0796C94.6351 21.0796 78.4183 21.0796 62.2056 21.0796C62.0081 21.0796 61.8107 21.0831 61.6133 21.0831C61.6133 20.6752 61.6133 20.2674 61.6133 19.863C63.9429 19.863 66.2765 19.8595 68.6062 19.8595C69.2458 19.863 69.8895 19.8735 70.5291 19.8735C77.2338 19.8735 83.9424 19.8735 90.647 19.8735C90.8287 19.8735 91.0064 19.8595 91.188 19.8525C91.4604 19.9432 91.7368 19.856 92.0132 19.856C97.0911 19.863 102.173 19.8665 107.251 19.8595C108.23 19.8595 109.213 19.8142 110.094 20.3022C110.161 20.4347 110.121 20.6439 110.386 20.6473C110.67 20.6822 110.698 20.9332 110.852 21.0796Z" fill="#ECECEC"/>
<path d="M111.246 22.8221C111.281 22.226 111.21 21.6404 110.95 21.0826C112.857 21.0826 114.764 21.0791 116.671 21.0826C118.377 21.0861 119.534 22.1179 119.538 23.6239C119.538 24.6418 119.534 25.6562 119.542 26.6741C119.542 26.8275 119.439 27.0436 119.739 27.0994C119.814 27.2284 119.502 27.2144 119.617 27.3574C119.502 27.4654 119.538 27.6049 119.538 27.7303C119.538 33.904 119.538 40.0777 119.542 46.2548C119.526 46.2618 119.506 46.2792 119.502 46.2757C118.811 45.7563 118.108 45.2509 117.639 44.5432C117.587 44.2678 117.603 43.9924 117.603 43.717C117.603 37.6514 117.599 31.5893 117.607 25.5237C117.607 24.8788 117.492 24.2827 116.959 23.8017C116.726 23.6448 116.849 23.474 116.932 23.3032C117.141 22.8604 117.433 22.4456 117.492 21.9541C117.196 22.2992 117.098 22.7245 116.869 23.0975C116.778 23.2404 116.734 23.4496 116.454 23.3485C115.933 23.0696 115.364 22.9615 114.76 22.965C113.808 22.972 112.857 22.9685 111.905 22.965C111.672 22.9511 111.431 22.9859 111.246 22.8221Z" fill="#BAD6D6"/>
<path d="M14.9811 48.793C12.7028 48.8696 10.6733 47.165 10.6851 45.0455C10.697 42.8494 12.5607 41.204 15.0522 41.211C17.4608 41.2144 19.368 42.8738 19.3482 45.0943C19.3364 47.1232 17.2397 48.9289 14.9811 48.793Z" fill="#E5F5F5"/>
<path d="M120.815 83.5754C126.623 83.3941 131.812 79.2981 132.688 74.2713C133.158 71.5697 132.637 69.0528 131.152 66.6719C131.898 67.0762 132.258 67.763 132.696 68.3765C133.731 69.8197 134.279 71.4058 134.461 73.1105C134.769 75.9899 133.944 78.5765 131.997 80.8946C130.11 83.1431 127.598 84.5375 124.523 85.1615C123.298 85.409 122.055 85.4264 120.807 85.3881C120.491 84.7815 120.459 84.1784 120.815 83.5754Z" fill="#AFC9C9"/>
<path d="M154.385 54.2968C154.195 54.4014 154.179 54.5618 154.183 54.743C154.191 55.1997 154.183 55.6563 154.183 56.1095C146.31 56.1095 138.441 56.1339 130.567 56.0921C129.051 56.0851 127.835 55.381 127.037 54.1992C127.89 54.384 128.763 54.3596 129.631 54.3596C137.311 54.3596 144.987 54.3596 152.667 54.3596C153.24 54.3596 153.816 54.3875 154.385 54.2968Z" fill="#A5DBDB"/>
<path d="M143.527 64.731C143.598 66.2822 141.991 67.8161 140.072 67.7603C137.901 67.6975 136.601 66.5646 136.566 64.6055C136.534 62.9671 138.039 61.5692 140.072 61.5971C142.035 61.6215 143.634 63.0542 143.527 64.731Z" fill="#E5F5F5"/>
<path d="M125.249 25.5237C125.174 25.224 125.344 24.9625 125.482 24.7289C126.058 23.7564 126.485 22.728 127.002 21.7345C127.523 20.7305 128.005 19.7126 128.506 18.6982C128.676 18.3566 128.846 18.0184 129.012 17.6768C129.087 17.5199 129.182 17.391 129.407 17.4189C130.662 17.9487 131.922 18.4786 133.178 19.0085C130.647 21.0966 128.116 23.1847 125.581 25.2728C125.482 25.3599 125.363 25.4401 125.249 25.5237Z" fill="#06637F"/>
<path d="M140.084 74.5021C138.808 74.6555 137.639 73.3587 137.695 72.4035C137.766 71.1277 138.725 70.2736 140.072 70.2457C141.521 70.2178 142.532 71.1486 142.544 72.4245C142.551 73.6062 141.442 74.5858 140.084 74.5021Z" fill="#E5F5F5"/>
<path d="M22.6641 40.3399C21.6059 40.4654 20.4806 39.5207 20.5201 38.3634C20.5556 37.3071 21.5743 36.4008 22.7707 36.4182C24.0027 36.4356 24.974 37.335 24.9701 38.4471C24.9661 39.5626 24.0185 40.3399 22.6641 40.3399Z" fill="#E5F5F5"/>
<path d="M33.8547 82.4712C34.0679 83.5135 32.6899 84.4722 31.8015 84.4408C30.3365 84.392 29.4718 83.6321 29.4639 82.4155C29.456 81.3244 30.5063 80.4668 31.7699 80.5051C32.9939 80.547 33.8547 81.3243 33.8547 82.4712Z" fill="#E5F5F5"/>
<path d="M66.7221 10.0117C67.9225 10.0222 68.8977 10.8762 68.8938 11.943C68.8938 13.0829 67.9383 13.9334 66.6668 13.9334C65.4349 13.9334 64.4477 13.0341 64.4517 11.9185C64.4596 10.8484 65.4507 10.0117 66.7221 10.0117Z" fill="#E5F5F5"/>
<path d="M120.813 83.5756C120.727 84.1787 120.742 84.7818 120.806 85.3883C120.786 85.3953 120.762 85.4023 120.742 85.4058C118.985 85.2384 117.299 84.841 115.74 84.0881C114.034 83.2619 112.608 82.1429 111.463 80.7555C111.408 80.6892 111.38 80.6021 111.341 80.5254C112.277 81.2261 113.236 81.8919 114.35 82.3799C116.158 83.1712 118.045 83.6174 120.071 83.5721C120.32 83.5652 120.565 83.5721 120.813 83.5756Z" fill="#D6820B"/>
<path d="M149.75 44.2541C148.98 44.261 148.21 44.2576 147.44 44.275C147.116 44.282 147.08 44.1878 147.128 43.9124C147.333 42.7481 147.309 41.5838 147.08 40.4195C147.001 40.0186 146.788 39.6561 146.599 39.29C147.921 39.6107 148.747 40.416 149.359 41.4513C149.888 42.3472 149.718 43.3094 149.75 44.2541Z" fill="#A5DBDB"/>
<path d="M117.766 44.6895C118.433 45.1426 118.922 45.7527 119.542 46.2477C119.55 46.2721 119.554 46.2965 119.558 46.3244C119.554 46.8333 119.538 47.3388 119.546 47.8443C119.55 48.0395 119.479 48.1545 119.282 48.2626C118.765 48.5415 118.267 48.8447 117.762 49.1375C117.588 48.9911 117.604 48.7924 117.6 48.6077C117.592 47.4782 117.592 46.3453 117.6 45.2158C117.604 45.0311 117.588 44.8359 117.766 44.6895Z" fill="#DC8700"/>
<path d="M21.6172 67.9516C21.175 67.955 20.7327 67.9516 20.2944 67.9655C20.0378 67.9725 19.9746 67.9237 20.018 67.6727C20.176 66.6966 20.1918 65.7205 19.9904 64.7445C19.9114 64.368 19.6824 64.0473 19.5205 63.7021C20.9736 64.3889 21.6211 65.4835 21.6132 66.9127C21.6132 67.2613 21.6172 67.6064 21.6172 67.9516Z" fill="#A5DBDB"/>
<path d="M41.3767 45.2236C41.5188 45.377 41.4517 45.5583 41.4517 45.7256C41.4596 46.7191 41.4556 47.7161 41.4556 48.8072C40.5988 48.3296 39.7973 47.9148 39.0786 47.3884C39.7973 46.6285 40.5909 45.9313 41.3767 45.2236Z" fill="#F39500"/>
<path d="M29.5262 56.7967C29.471 56.8595 29.4275 56.9188 29.3722 56.9676C29.2814 57.0443 29.2025 57.0129 29.1235 56.9397C28.4838 56.3192 27.9231 55.6464 27.4927 54.8934C27.4217 54.7714 27.4651 54.7086 27.5875 54.6564C27.7494 54.5866 27.8284 54.6703 27.8915 54.7818C28.1166 55.1827 28.3812 55.5627 28.697 55.9183C28.8984 56.1449 29.1077 56.368 29.313 56.5911C29.3801 56.6538 29.4433 56.7166 29.5262 56.7967Z" fill="#0886C4"/>
<path d="M38.9838 60.4605C39.5011 60.5267 40.0223 60.5929 40.5395 60.6592C40.6935 60.6801 40.8909 60.6522 40.8475 60.8858C40.808 61.0984 40.6382 61.0217 40.504 61.0078C39.9986 60.959 39.4971 60.9032 38.9917 60.8509C38.6442 60.7916 38.2928 60.7324 37.9453 60.6801C37.7834 60.6557 37.661 60.6139 37.7202 60.4326C37.7716 60.2722 37.9019 60.3071 38.0322 60.328C38.3481 60.3733 38.6679 60.4151 38.9838 60.4605Z" fill="#0D86BF"/>
<path d="M110.385 20.6469C110.279 20.7863 110.137 20.7794 110.026 20.6783C109.872 20.5423 110.097 20.4308 110.093 20.2983C110.532 19.6813 111.037 19.1131 111.704 18.6738C111.819 18.5971 111.953 18.3845 112.139 18.6216C112.297 18.8237 112.071 18.8656 111.961 18.9457C111.305 19.4198 110.741 19.9567 110.385 20.6469Z" fill="#0886C4"/>
<path d="M32.0384 58.4973C32.0976 58.5217 32.1568 58.5461 32.216 58.5775C32.9347 58.9331 33.6849 59.2259 34.4549 59.4839C34.6049 59.5327 34.8102 59.5571 34.7155 59.7662C34.6326 59.944 34.4746 59.8638 34.3404 59.822C33.5388 59.5571 32.7531 59.2642 32.0107 58.8877C31.9081 58.8355 31.7343 58.8041 31.833 58.6402C31.8686 58.5636 31.9002 58.4625 32.0384 58.4973Z" fill="#0886C4"/>
<path d="M32.2712 39.6663C32.1488 39.8057 32.1014 39.8615 32.0501 39.9138C31.4815 40.4925 30.905 41.0711 30.3404 41.6498C30.2456 41.7474 30.1666 41.8102 30.0205 41.7056C29.8666 41.594 29.9455 41.5104 30.0324 41.4162C30.5852 40.8027 31.1656 40.2136 31.7935 39.6593C31.8606 39.6 31.9238 39.5233 32.0422 39.5722C32.1133 39.6 32.1883 39.6314 32.2712 39.6663Z" fill="#0886C4"/>
<path d="M34.5852 37.8606C34.4786 37.871 34.4431 37.8013 34.3917 37.7455C34.3088 37.6584 34.3522 37.5817 34.4352 37.5224C35.1735 37.017 35.9119 36.515 36.6503 36.013C36.7767 35.9258 36.8556 36.0025 36.9306 36.0897C37.0136 36.1838 36.9622 36.2431 36.8754 36.3023C36.1488 36.7973 35.4262 37.2958 34.7037 37.7908C34.6642 37.8187 34.6207 37.8397 34.5852 37.8606Z" fill="#0786C4"/>
<path d="M27.201 46.6038C27.0588 46.5724 26.9641 46.5236 27.0233 46.3632C27.3036 45.5719 27.6511 44.8085 28.0815 44.0695C28.1526 43.9509 28.2355 43.944 28.354 44.0032C28.4803 44.066 28.4961 44.1392 28.4329 44.2507C28.0183 44.9619 27.6709 45.6939 27.4142 46.4643C27.3826 46.555 27.3273 46.6247 27.201 46.6038Z" fill="#0986C4"/>
<path d="M119.618 27.3541C119.57 27.2356 119.645 27.1624 119.74 27.0962C120.569 26.8556 121.327 26.4861 122.078 26.1026C122.184 26.0469 122.299 25.89 122.441 26.0782C122.579 26.263 122.437 26.3292 122.287 26.4094C121.556 26.7964 120.794 27.1345 120.001 27.4099C119.866 27.4587 119.72 27.511 119.618 27.3541Z" fill="#0786C4"/>
<path d="M115.37 17.618C116.29 17.6877 117.087 17.9736 117.628 18.6708C117.707 18.7753 117.889 18.9008 117.68 19.0368C117.474 19.1693 117.399 19.0124 117.308 18.8904C116.843 18.2699 116.14 18.0503 115.346 17.9701C115.212 17.9561 115.026 17.9805 115.042 17.7749C115.054 17.6424 115.137 17.6006 115.37 17.618Z" fill="#0987C5"/>
<path d="M26.7475 50.4315C26.7238 50.8812 26.7475 51.3309 26.8344 51.7736C26.862 51.9166 26.8501 52.0316 26.6409 52.0525C26.4198 52.0769 26.4592 51.934 26.4395 51.8294C26.2934 51.066 26.3329 50.2991 26.3526 49.5287C26.3566 49.4136 26.3487 49.2916 26.5461 49.2881C26.783 49.2847 26.7475 49.4346 26.7475 49.5601C26.7475 49.8529 26.7475 50.1422 26.7475 50.4315Z" fill="#0685C3"/>
<path d="M40.871 33.821C40.7999 33.8733 40.7486 33.9221 40.6854 33.9605C40.3774 34.1452 40.0615 34.3265 39.7575 34.5147C39.6311 34.5914 39.5324 34.6158 39.4337 34.4834C39.3271 34.3404 39.4337 34.2777 39.5443 34.2114C39.8523 34.0267 40.1602 33.8384 40.4722 33.6537C40.5472 33.6084 40.6301 33.5317 40.7249 33.6293C40.7723 33.6781 40.8118 33.7408 40.871 33.821Z" fill="#0A87C5"/>
<path d="M135.861 38.1602C136.576 38.1567 136.77 38.2927 136.849 38.7459C136.916 39.1223 136.675 39.4221 136.185 39.5163C135.771 39.5964 135.356 39.6731 134.953 39.7986C133.654 40.2065 132.975 41.0501 132.951 42.2562C132.939 42.814 133.026 43.3474 133.192 43.8807C133.311 44.2711 133.097 44.5814 132.651 44.7104C132.229 44.8324 131.85 44.6964 131.715 44.3025C131.147 42.6502 131.092 41.0362 132.45 39.6313C133.37 38.6831 134.633 38.2962 135.861 38.1602Z" fill="#25F6EF"/>
<path d="M12.256 62.8176C12.797 62.7793 13.1089 62.964 13.18 63.3719C13.2471 63.7554 13.0418 64.0168 12.6232 64.1249C12.1218 64.2539 11.6045 64.3236 11.1188 64.5014C9.97376 64.9162 9.3025 65.7947 9.27091 66.8927C9.25512 67.4505 9.36173 67.9838 9.53152 68.5137C9.64603 68.8763 9.40516 69.2667 9.04979 69.3538C8.6115 69.4619 8.13768 69.2667 8.01132 68.8972C7.61252 67.7224 7.5217 66.5441 8.03501 65.3729C8.59176 64.0935 9.72895 63.3928 11.1544 63.0059C11.5176 62.9048 11.8928 62.7863 12.256 62.8176Z" fill="#25F6EF"/>
<path d="M123.088 11.7539C122.713 11.7469 122.539 11.5796 122.468 11.339C122.393 11.0706 122.508 10.851 122.812 10.7464C123.621 10.4675 124.434 10.1922 125.244 9.91677C129.09 8.6165 132.936 7.31622 136.778 6.01595C137.804 5.66736 138.835 5.32573 139.858 4.97016C140.264 4.83072 140.556 4.95971 140.71 5.26299C140.876 5.58718 140.667 5.81726 140.312 5.93927C138.78 6.45868 137.248 6.97808 135.715 7.49749C131.593 8.89188 127.475 10.2863 123.353 11.6772C123.25 11.7155 123.139 11.7399 123.088 11.7539Z" fill="#04C3F0"/>
<path d="M43.3228 49.8529C43.3267 44.467 43.3346 39.0777 43.3228 33.6919C43.3188 32.4334 43.8637 31.5166 45.2102 31.0216C45.3602 30.8334 45.5932 30.8125 45.8222 30.795C46.0512 30.7776 46.2842 30.7846 46.5132 30.7846C67.6459 30.7846 88.7786 30.7846 109.907 30.7846C110.421 30.7846 110.93 30.7811 111.412 30.9658C111.747 31.0948 112.071 31.2343 112.249 31.541C112.292 31.7502 112.134 31.8931 112.028 32.0535C111.605 32.6914 111.084 33.2701 110.555 33.9638C110.831 33.8697 110.906 33.7267 111.009 33.6152C111.408 33.169 111.739 32.6844 112.107 32.2208C112.237 32.057 112.363 31.8617 112.659 31.9628C113.015 32.1894 113.082 32.538 113.153 32.8797C113.204 33.1376 113.185 33.3991 113.185 33.6605C113.185 39.3322 113.189 45.0074 113.177 50.679C113.177 51.0311 113.35 51.4006 113.114 51.7423C112.126 52.4185 111.029 52.9449 110.002 53.5689C109.856 53.6595 109.71 53.7537 109.564 53.8443C107.392 55.0748 105.224 56.3054 103.053 57.5359C102.429 57.888 101.801 58.2331 101.177 58.5783C100.881 58.6724 100.573 58.7037 100.257 58.7037C88.9997 58.7003 77.7424 58.7038 66.489 58.7003C66.177 58.7003 65.8611 58.7212 65.5768 58.5678C65.3715 58.4249 65.1504 58.4806 64.9332 58.5329C64.6687 58.5957 64.412 58.6863 64.1317 58.6759C62.6233 58.7038 61.1189 58.6933 59.6106 58.7003C59.2473 58.7003 58.8919 58.6724 58.5484 58.5678C56.89 57.6266 55.2316 56.6819 53.5732 55.7407C53.6601 55.5559 53.8536 55.5629 54.0313 55.5455C54.2129 55.528 54.3945 55.535 54.5722 55.535C60.9531 55.535 67.334 55.535 73.7148 55.535C73.9281 55.535 74.1413 55.542 74.3545 55.5524C74.4177 55.5455 74.4848 55.5455 74.548 55.5524C78.8401 55.5211 83.1321 55.542 87.4203 55.5385C92.4034 55.535 97.3825 55.5385 102.366 55.5385C102.63 55.5385 102.895 55.5559 103.151 55.4967C103.475 55.4235 103.594 55.2073 103.574 54.9354C103.554 54.6774 103.361 54.5589 103.08 54.538C102.835 54.5171 102.587 54.5241 102.342 54.5241C94.35 54.5241 86.3621 54.5241 78.3702 54.5241C78.0582 54.5241 77.7463 54.538 77.4344 54.5032C77.1066 54.3742 76.775 54.4543 76.4433 54.4997C70.7416 54.552 65.0438 54.5101 59.3421 54.5241C57.5692 54.5276 55.7923 54.5415 54.0194 54.5171C53.3798 54.5066 52.8467 54.5729 52.5979 55.1725C50.8171 54.165 49.0363 53.1611 47.2595 52.1466C45.9486 51.3832 44.6376 50.6163 43.3228 49.8529Z" fill="#FEFEFE"/>
<path d="M98.9113 59.8675C97.2056 60.8923 95.4761 61.8859 93.7111 62.834C93.3991 62.9421 93.0793 62.9735 92.7437 62.9735C84.1595 62.97 75.5754 62.97 66.9912 62.9735C66.6595 62.9735 66.3357 62.9421 66.0277 62.8271C64.3141 61.858 62.6004 60.8854 60.8867 59.9163C60.9617 59.749 61.1355 59.7455 61.2974 59.728C61.479 59.7071 61.6606 59.7141 61.8383 59.7141C73.8814 59.7141 85.9245 59.7141 97.9676 59.7176C98.2914 59.7176 98.6349 59.6409 98.9113 59.8675Z" fill="#FEFEFE"/>
<path d="M73.3545 67.0141C71.6448 66.0834 69.9587 65.1212 68.2964 64.1277C68.3556 63.9395 68.5491 63.9709 68.6991 63.9465C68.9755 63.8977 69.2559 63.9046 69.5362 63.9046C76.0948 63.9046 82.6494 63.9046 89.2079 63.9046C89.7844 63.9046 90.357 63.9221 90.9335 63.9465C91.1309 63.9534 91.3362 63.9534 91.4547 64.1347C89.7963 65.1317 88.1103 66.0973 86.3966 67.0246C86.0846 67.1326 85.7609 67.1571 85.4292 67.1571C81.7294 67.1536 78.0256 67.1536 74.3258 67.1571C73.9863 67.1536 73.6625 67.1326 73.3545 67.0141Z" fill="#FEFEFE"/>
<path d="M98.9105 59.8683C98.1879 59.8648 97.4653 59.8613 96.7388 59.8613C84.98 59.8613 73.2251 59.8613 61.4663 59.8613C61.2728 59.8613 61.0715 59.8195 60.8859 59.9136C60.108 59.4639 59.3262 59.0142 58.5483 58.5645C60.4515 58.5645 62.3547 58.5645 64.254 58.568C64.2145 58.7806 63.9934 58.7528 63.8394 58.8085C63.4959 58.9305 63.1208 58.9619 62.793 59.1397C63.7249 58.9201 64.7041 58.8434 65.5531 58.3867C65.6794 58.5959 65.9045 58.561 66.1138 58.561C69.0081 58.561 71.8984 58.561 74.7927 58.561C83.3729 58.561 91.9531 58.561 100.533 58.561C100.747 58.561 100.96 58.5715 101.173 58.5785C100.443 59.0351 99.6963 59.4813 98.9105 59.8683Z" fill="#B4BAC0"/>
<path d="M48.8597 75.6805C48.8597 76.5066 48.8321 77.3328 48.8676 78.159C48.9111 79.1629 47.8686 80.0379 46.7788 79.9926C46.0839 79.9647 45.3811 80.0832 44.7414 79.6719C44.1412 79.2849 43.8411 78.7865 43.8332 78.166C43.8095 76.4857 43.8174 74.802 43.8293 73.1218C43.8372 72.0864 44.7493 71.2846 45.926 71.2846C46.4314 71.2846 46.9407 71.2114 47.4382 71.3683C48.3109 71.6437 48.8518 72.3025 48.8558 73.1183C48.8637 73.9688 48.8597 74.8264 48.8597 75.6805Z" fill="#1F93F0"/>
<path d="M91.4526 64.1306C90.8089 64.0016 90.1574 64.0644 89.5099 64.0644C82.746 64.0504 75.9821 64.0574 69.2143 64.0609C68.9102 64.0609 68.6023 64.1027 68.2982 64.1271C67.5243 63.7193 66.7543 63.3044 66.0317 62.8269C67.0505 62.8234 68.0692 62.8164 69.0919 62.8164C77.0877 62.8164 85.0796 62.8164 93.0754 62.8164C93.2886 62.8164 93.5019 62.8269 93.7151 62.8338C92.9925 63.3114 92.2304 63.7367 91.4526 64.1306Z" fill="#B4BAC0"/>
<path d="M74.4375 55.6638C67.6776 55.6673 60.9137 55.6673 54.1538 55.6743C53.9603 55.6743 53.7589 55.6255 53.5773 55.737C53.2535 55.5453 52.9297 55.3536 52.6099 55.1618C52.6375 54.5309 52.7915 54.374 53.4193 54.374C61.0835 54.374 68.7476 54.374 76.4118 54.374C76.4789 54.374 76.5421 54.3845 76.6092 54.388C76.5895 54.5867 76.392 54.6215 76.242 54.6878C75.7642 54.8969 75.2746 55.0886 74.781 55.2629C74.556 55.3431 74.4335 55.4512 74.4375 55.6638Z" fill="#B5BAC0"/>
<path d="M48.8641 67.2337C48.8207 67.6242 48.9312 68.046 48.7615 68.4573C48.4495 69.2207 47.6953 69.7157 46.7793 69.7053C46.3252 69.7018 45.8672 69.7471 45.4091 69.646C44.6273 69.4717 44.1495 69.029 43.9403 68.3771C43.7191 67.6869 43.7665 66.9653 43.8731 66.2646C44.0034 65.3792 44.6313 64.8249 45.6381 64.6959C46.8267 64.546 47.9599 64.6715 48.5996 65.5988C48.9549 66.1112 48.8325 66.6655 48.8641 67.2337Z" fill="#1F93F0"/>
<path d="M73.3555 67.0137C77.6989 67.0172 82.0462 67.0172 86.3897 67.0207C85.6671 67.4947 84.901 67.9131 84.1232 68.3174C83.8349 68.436 83.527 68.4604 83.2111 68.4604C80.9959 68.4604 78.7847 68.4569 76.5696 68.4638C76.2695 68.4638 75.9852 68.4011 75.693 68.3767C74.9191 67.92 74.1373 67.4668 73.3555 67.0137Z" fill="#B4BAC0"/>
<path d="M75.7017 68.3734C75.7964 68.2967 75.9149 68.3071 76.0254 68.3071C78.7262 68.3106 81.4271 68.3141 84.1279 68.3141C82.7854 69.0915 81.4389 69.8654 80.1003 70.6497C79.9069 70.7647 79.7805 70.7124 79.6186 70.6183C78.3156 69.8688 77.0086 69.1228 75.7017 68.3734Z" fill="#FEFEFE"/>
<path d="M45.4954 60.9417C45.9218 60.9417 46.3482 60.9417 46.7747 60.9417C46.9208 60.9417 47.0748 60.9173 47.0906 61.116C47.1103 61.3286 46.9445 61.3112 46.8023 61.3077C45.9336 61.2972 45.065 61.2798 44.1963 61.2624C44.0818 61.2589 43.9238 61.3007 43.9238 61.1055C43.9278 60.9173 44.0462 60.9033 44.2121 60.9033C44.6385 60.9068 45.065 60.9033 45.4914 60.9033C45.4954 60.9173 45.4954 60.9277 45.4954 60.9417Z" fill="#1687B6"/>
<path d="M56.5469 60.5441C56.4917 60.565 56.4561 60.4744 56.4166 60.3663C56.3614 60.2234 56.4601 60.1815 56.5785 60.1606C57.4788 60.0037 58.3751 59.8504 59.2754 59.697C59.4018 59.6761 59.5005 59.7005 59.5202 59.8399C59.536 59.9619 59.4965 60.0247 59.3504 60.0491C58.4502 60.2025 57.5499 60.3663 56.5469 60.5441Z" fill="#0784C1"/>
<path d="M50.8804 61.1576C50.6395 61.168 50.525 61.1715 50.4105 61.175C50.2999 61.1785 50.217 61.1506 50.2091 61.0355C50.2012 60.924 50.2328 60.8368 50.3868 60.8264C51.2989 60.7497 52.215 60.6765 53.1271 60.5963C53.285 60.5824 53.3285 60.6625 53.3482 60.7706C53.3798 60.9379 53.2416 60.9554 53.1034 60.9658C52.3177 61.0355 51.5358 61.1018 50.8804 61.1576Z" fill="#0B85BD"/>
<path d="M117.765 44.6902C117.765 46.1718 117.761 47.6568 117.761 49.1383C116.774 49.6926 115.787 50.2469 114.8 50.7977C114.543 50.7663 114.575 50.5746 114.551 50.4282C114.52 50.226 114.535 50.0238 114.535 49.8181C114.535 43.763 114.535 37.7078 114.535 31.6492C114.535 31.2135 114.524 30.7812 114.279 30.3768C113.805 29.6029 113.051 29.2334 112.083 29.1602C111.787 29.1393 111.491 29.1463 111.195 29.1463C90.5006 29.1463 69.8062 29.1463 49.1118 29.1428C48.7604 29.1428 48.3813 29.2299 48.0694 28.9999C48.0694 27.6055 48.0654 26.2111 48.0654 24.8167C48.3142 23.8929 48.9499 23.262 49.9449 22.9134C50.17 22.7042 50.4701 22.6798 50.7662 22.6763C54.0199 22.6624 57.2774 22.6693 60.531 22.6728C60.7285 22.6728 60.9298 22.6763 61.0878 22.8088C61.1352 22.8088 61.1865 22.8123 61.2339 22.8123C77.9047 22.8123 94.5715 22.8123 111.242 22.8123C112.506 22.8123 113.773 22.7948 115.037 22.8262C115.598 22.8402 116.194 22.8785 116.581 23.3421C116.751 23.6419 116.34 23.8546 116.411 24.1613C116.648 24.0393 116.593 23.7326 116.881 23.6838C117.098 23.5687 117.169 23.7326 117.256 23.8441C117.603 24.2833 117.761 24.7714 117.761 25.3117C117.761 31.7817 117.765 38.2342 117.765 44.6902Z" fill="#F6F6F6"/>
<path d="M61.0886 22.8185C57.8982 22.8255 54.7078 22.8324 51.5173 22.8359C50.9922 22.8359 50.467 22.8255 49.9458 22.9231C50.1432 21.9226 51.3199 21.086 52.5637 21.0825C55.5646 21.0755 58.5655 21.079 61.5704 21.079C61.6375 21.7065 61.3492 22.2573 61.0886 22.8185Z" fill="#11BDAF"/>
<path d="M46.885 10.981C46.8692 11.2111 46.6442 11.4203 46.2414 11.4935C45.4517 11.6399 44.6817 11.7967 44.0263 12.2639C43.4419 12.6822 43.126 13.2016 43.0313 13.85C42.9365 14.4879 43.0155 15.1084 43.1971 15.7289C43.3866 16.3773 43.0115 16.7921 42.3481 16.7189C42.0796 16.6876 41.8743 16.5795 41.7914 16.3494C41.1636 14.6169 41.1438 12.9506 42.6048 11.5074C43.3629 10.7579 44.3974 10.4128 45.4833 10.1897C45.6255 10.1618 45.7715 10.1339 45.9137 10.113C46.4783 10.0293 46.889 10.3396 46.885 10.981Z" fill="#25F6EF"/>
<path d="M114.287 70.6045C114.334 69.4715 114.934 68.5512 116.17 68.0248C117.442 67.481 118.673 67.6239 119.767 68.4118C120.079 68.6384 120.225 68.607 120.513 68.3944C121.777 67.4566 123.629 67.4985 124.853 68.4641C126.057 69.4123 126.322 71.0158 125.465 72.2324C125.378 72.3544 125.268 72.4625 125.149 72.5636C123.593 73.9405 122.03 75.3105 120.482 76.6945C120.225 76.9245 120.083 76.9664 119.795 76.7084C118.287 75.3489 116.762 74.0068 115.226 72.6716C114.587 72.1174 114.318 71.4481 114.287 70.6045Z" fill="#FEFEFE"/>
<path d="M109.07 71.6116C109.473 68.272 110.938 65.5076 114.507 63.918C115.937 63.2836 117.489 63.0396 119.072 63.0082C120.138 62.9873 120.719 63.8169 120.245 64.6118C119.984 65.051 119.518 65.166 119.001 65.173C117.386 65.1939 115.889 65.539 114.563 66.3861C113.335 67.1705 112.553 68.2337 112.036 69.4712C111.692 70.2939 111.518 71.141 111.447 72.009C111.404 72.5563 110.859 73.0199 110.251 73.0164C109.619 73.0129 109.094 72.5598 109.074 72.002C109.066 71.873 109.07 71.744 109.07 71.6116Z" fill="#FEA66A"/>
<path d="M48.0751 29.007C62.7085 29.007 77.3458 29.0105 91.9791 29.0105C98.5732 29.0105 105.167 29.0244 111.761 29C113.483 28.9931 114.743 30.0667 114.727 31.618C114.672 37.83 114.703 44.0455 114.707 50.2575C114.707 50.4388 114.628 50.6375 114.802 50.7978C114.261 51.1395 113.72 51.4811 113.116 51.7356C112.954 50.8292 113.033 49.9159 113.029 49.0026C113.021 43.7806 113.025 38.5586 113.029 33.3366C113.029 32.9531 112.978 32.5871 112.784 32.242C112.713 32.113 112.65 31.9701 112.445 31.9666C112.298 31.9178 112.227 31.8028 112.137 31.7052C112.196 31.6006 112.184 31.5343 112.065 31.4507C111.572 31.109 111.027 30.9173 110.391 30.9208C88.9585 30.9243 67.5218 30.9243 46.089 30.9208C45.7889 30.9208 45.5046 30.9836 45.2164 31.0184C44.9992 30.5722 45.319 30.255 45.5836 29.9482C46.2075 29.2301 47.0722 28.9721 48.0751 29.007Z" fill="#DFDFDF"/>
<path d="M116.886 23.6942C116.799 23.865 116.704 24.0324 116.625 24.2067C116.562 24.3426 116.479 24.374 116.325 24.3078C116.175 24.245 116.199 24.1718 116.25 24.0672C116.369 23.8302 116.475 23.5896 116.586 23.3491C116.819 22.8715 117.048 22.394 117.285 21.9164C117.34 21.8048 117.356 21.6514 117.585 21.7386C117.81 21.8223 117.711 21.9408 117.66 22.0558C117.403 22.6031 117.143 23.1504 116.886 23.6942Z" fill="#0886C4"/>
<path d="M86.758 50.0373C86.9278 50.1732 87.1371 50.1105 87.3266 50.1105C92.211 50.1139 97.0993 50.1105 101.984 50.1174C102.422 50.1174 102.86 50.1418 103.299 50.1837C103.749 50.2255 103.836 50.5462 103.812 50.8599C103.788 51.1876 103.618 51.4526 103.16 51.4177C103.077 51.4107 102.994 51.4177 102.916 51.4177C86.45 51.4177 69.9845 51.4177 53.519 51.4177C52.8675 51.4177 52.6464 51.2818 52.6227 50.853C52.603 50.4904 52.7609 50.2255 53.1992 50.1593C53.3927 50.1279 53.5901 50.1209 53.7875 50.1209C64.0696 50.1174 74.3477 50.1174 84.6297 50.1209C84.9535 50.1209 85.2852 50.1 85.6011 50.1941C85.609 50.3998 85.6879 50.4695 85.9249 50.3615C86.1894 50.2325 86.4026 49.9815 86.758 50.0373Z" fill="#B4BAC0"/>
<path d="M59.7143 41.5003C59.7143 41.8489 59.7064 42.1975 59.7183 42.5461C59.7262 42.818 59.8367 43.0237 60.2 43.0446C60.5435 43.0656 60.7607 42.9645 60.8278 42.6333C61.0055 41.7513 60.9186 40.9008 60.504 40.085C60.2869 39.6563 59.8881 39.3704 59.3905 39.2101C58.51 38.9242 57.59 38.851 56.6739 38.9939C55.0353 39.2519 54.2337 40.0362 54.1153 41.4934C54.0679 42.0511 54.0679 42.6193 54.1706 43.1841C54.3798 44.324 55.0629 45.0804 56.3462 45.3279C57.3807 45.5266 58.4784 45.5755 59.4103 45.1014C60.0223 44.7911 60.6028 44.7702 61.2385 44.7702C61.4043 44.7702 61.5859 44.7597 61.6649 44.9236C61.7518 45.0979 61.6373 45.2234 61.507 45.3454C60.7765 46.0251 59.8525 46.3807 58.8338 46.5585C57.4834 46.7955 56.1527 46.7677 54.905 46.182C53.5151 45.5267 52.7609 44.4774 52.7175 43.0969C52.6898 42.2638 52.5556 41.4271 52.7965 40.594C53.2663 38.9416 54.7313 37.8296 56.666 37.7355C57.5505 37.6902 58.435 37.6902 59.3076 37.8889C61.0884 38.2967 62.1743 39.4262 62.2848 41.0576C62.3164 41.5143 62.3164 41.9779 62.3243 42.4381C62.3599 44.0765 60.4014 44.7144 58.9878 44.0242C58.8338 43.9475 58.7232 43.8115 58.4903 43.9963C57.5505 44.7353 56.1409 44.5366 55.4736 43.5989C54.7786 42.6228 54.9958 40.967 55.9158 40.2593C56.4923 39.8131 57.3965 39.7748 58.0086 40.1652C58.0796 40.2105 58.131 40.3709 58.2652 40.2036C58.5732 39.8306 59.0194 40.0083 59.4063 40.0188C59.6512 40.0258 59.7064 40.2628 59.7143 40.458C59.7143 40.8032 59.7104 41.1517 59.7143 41.5003C59.7104 41.5003 59.7104 41.5003 59.7143 41.5003Z" fill="#B4BAC0"/>
<path d="M92.0047 46.7083C91.4005 46.6038 90.7846 46.6351 90.1765 46.6351C82.4452 46.6282 74.7179 46.6316 66.9866 46.6316C66.7892 46.6316 66.5917 46.6386 66.3943 46.6247C65.96 46.5898 65.8257 46.3458 65.8297 45.9937C65.8336 45.6312 65.9995 45.4116 66.4299 45.3941C66.5128 45.3906 66.5957 45.3941 66.6747 45.3941C78.6151 45.3941 90.5555 45.3941 102.496 45.3941C103.147 45.3941 103.341 45.5301 103.345 45.9902C103.353 46.4295 103.045 46.7049 102.551 46.6805C100.135 46.5724 97.7182 46.6595 95.3057 46.6351C94.5317 46.6247 93.7618 46.6282 92.9879 46.6282C92.9049 46.3911 93.2524 46.4051 93.284 46.1924C93.0076 46.2482 92.8023 46.4085 92.5772 46.5236C92.3995 46.6038 92.2495 46.7676 92.0047 46.7083Z" fill="#B4BAC0"/>
<path d="M77.2613 54.3875C77.4272 54.3806 77.5891 54.3701 77.7549 54.3701C86.1416 54.3701 94.5323 54.3701 102.919 54.3701C103.657 54.3701 103.883 54.6037 103.76 55.2137C103.705 55.4926 103.5 55.6042 103.231 55.6599C103.105 55.6843 102.97 55.6739 102.836 55.6739C93.4781 55.6739 84.12 55.6739 74.7619 55.6739C74.679 55.6739 74.5961 55.6704 74.5171 55.6669C74.5368 55.4577 74.7461 55.4438 74.9001 55.381C75.6938 55.0569 76.4953 54.7536 77.2613 54.3875Z" fill="#B5BAC0"/>
<path d="M78.3197 42.4307C74.4383 42.4307 70.5569 42.4307 66.6754 42.4307C66.0516 42.4307 65.8265 42.246 65.8383 41.7579C65.8462 41.3466 66.0634 41.1549 66.5333 41.1305C66.6004 41.127 66.6636 41.1305 66.7307 41.1305C74.462 41.1305 82.1933 41.1305 89.9245 41.1305C90.6274 41.1305 90.8367 41.2978 90.8209 41.8346C90.809 42.2564 90.6155 42.4307 90.1141 42.4307C88.3688 42.4342 86.6275 42.4307 84.8822 42.4307C82.6947 42.4307 80.5072 42.4307 78.3197 42.4307Z" fill="#B4BAC0"/>
<path d="M82.8218 51.927C82.8297 52.0315 82.7271 52.0629 82.6441 52.1047C81.8702 52.4743 81.0924 52.8403 80.3145 53.2063C80.2 53.2586 80.0855 53.3179 79.9907 53.1645C79.8881 52.9972 79.9907 52.9414 80.1368 52.8717C80.9028 52.5196 81.6689 52.164 82.427 51.7945C82.6402 51.6899 82.7587 51.7143 82.8218 51.927Z" fill="#0986C4"/>
<path d="M106.168 38.1011C106.141 38.0558 106.113 37.9861 106.062 37.9303C105.975 37.8327 106.042 37.7804 106.121 37.7177C106.796 37.1704 107.471 36.6196 108.143 36.0688C108.253 35.9781 108.332 35.9816 108.427 36.0758C108.494 36.142 108.569 36.2047 108.466 36.2884C107.756 36.8671 107.045 37.4457 106.33 38.0209C106.311 38.0384 106.279 38.0488 106.168 38.1011Z" fill="#0886C4"/>
<path d="M86.7571 50.0371C86.4531 50.1939 86.149 50.3543 85.8411 50.5077C85.7187 50.5704 85.6081 50.6541 85.4738 50.4937C85.3317 50.3229 85.5094 50.2776 85.5883 50.187C86.307 49.8209 87.0177 49.4549 87.7403 49.0993C87.8667 49.0366 88.0128 48.8274 88.1865 49.0575C88.3642 49.2946 88.0878 49.319 87.9654 49.3922C87.5705 49.6153 87.1638 49.8209 86.7571 50.0371Z" fill="#0886C3"/>
<path d="M98.7138 43.0725C98.7256 43.1945 98.5993 43.2293 98.5124 43.2851C97.8135 43.7139 97.1146 44.1427 96.4157 44.5679C96.3012 44.6377 96.1907 44.7492 96.0525 44.5749C95.9222 44.4076 96.0485 44.3483 96.1749 44.2751C96.8896 43.8394 97.6042 43.4071 98.311 42.9679C98.5085 42.8459 98.6348 42.8563 98.7138 43.0725Z" fill="#0887C4"/>
<path d="M101.353 41.4827C101.258 41.4827 101.214 41.4234 101.163 41.3642C101.088 41.277 101.108 41.2108 101.203 41.148C101.949 40.6565 102.691 40.1615 103.433 39.6665C103.556 39.5828 103.639 39.6107 103.714 39.7118C103.769 39.785 103.82 39.8547 103.706 39.9314C102.948 40.4334 102.194 40.9389 101.439 41.4443C101.416 41.4653 101.384 41.4722 101.353 41.4827Z" fill="#0886C4"/>
<path d="M92.0052 46.7086C92.3606 46.5099 92.716 46.3112 93.0753 46.1195C93.2017 46.0497 93.3359 45.9033 93.482 46.0985C93.636 46.3042 93.403 46.3286 93.2925 46.4088C93.1938 46.482 93.0911 46.5517 92.9924 46.6214C92.3961 46.9526 91.7999 47.2838 91.2037 47.6115C91.0931 47.6707 90.9865 47.8136 90.8404 47.6359C90.6785 47.4441 90.8562 47.3884 90.9905 47.3082C91.3261 47.1095 91.6657 46.9073 92.0052 46.7086Z" fill="#0886C4"/>
<path d="M71.4968 56.6505C71.5205 56.7969 71.3823 56.8004 71.2836 56.8352C70.4741 57.1071 69.6647 57.3756 68.8513 57.6475C68.7289 57.6893 68.5946 57.7451 68.5196 57.5882C68.4446 57.4244 68.5512 57.3651 68.7131 57.3128C69.5265 57.0479 70.3359 56.776 71.1414 56.4971C71.3389 56.4274 71.4613 56.4483 71.4968 56.6505Z" fill="#0986C4"/>
<path d="M77.2614 54.3876C77.289 54.5933 77.0955 54.6038 76.9534 54.6595C76.14 54.9942 75.3305 55.3288 74.5171 55.6635H74.4776H74.4382C74.2407 55.4613 74.2684 55.3393 74.5685 55.2243C75.2595 54.9628 75.9584 54.7223 76.6099 54.3841C76.827 54.3946 77.0482 54.0704 77.2614 54.3876Z" fill="#0885C4"/>
<path d="M112.136 31.7119C112.298 31.7468 112.444 31.7921 112.444 31.9734C111.93 32.6218 111.425 33.2736 110.904 33.9185C110.829 34.0127 110.777 34.2183 110.54 34.0789C110.28 33.922 110.493 33.814 110.588 33.7059C111.145 33.0645 111.65 32.3952 112.136 31.7119Z" fill="#0886C4"/>
<path d="M65.5614 58.3859C65.5851 58.5602 65.4825 58.6439 65.3009 58.6892C64.4993 58.8879 63.6977 59.0866 62.9001 59.2923C62.754 59.3306 62.6198 59.3829 62.5448 59.1982C62.4421 58.9472 62.6908 58.982 62.8172 58.9472C63.295 58.8112 63.7806 58.6927 64.2663 58.5707C64.5901 58.4905 64.9139 58.4103 65.2377 58.3302C65.3522 58.2988 65.4825 58.236 65.5614 58.3859Z" fill="#0885C4"/>
<path d="M114.985 27.5734C115.416 27.7163 115.842 27.6919 116.265 27.7024C116.395 27.7059 116.577 27.6431 116.589 27.8593C116.604 28.1033 116.403 28.0475 116.253 28.0475C115.973 28.0475 115.676 28.0859 115.42 28.0127C114.875 27.8558 114.654 28.0789 114.492 28.4867C114.389 28.7447 114.235 28.9887 114.097 29.2327C114.046 29.3234 114.026 29.4593 113.825 29.3757C113.623 29.292 113.667 29.1944 113.738 29.0654C113.904 28.7656 114.05 28.4589 114.227 28.166C114.365 27.9394 114.318 27.8209 114.022 27.7826C113.896 27.7652 113.769 27.7233 113.647 27.685C113.54 27.6501 113.434 27.6187 113.485 27.4723C113.536 27.3224 113.623 27.2911 113.773 27.3433C113.848 27.3677 113.931 27.3852 114.002 27.4165C114.385 27.5734 114.63 27.5072 114.764 27.1202C114.804 27.0017 114.776 26.7124 115.104 26.8239C115.443 26.939 115.155 27.1063 115.128 27.2422C115.104 27.3573 115.041 27.4584 114.985 27.5734Z" fill="#0585C4"/>
<path d="M109.549 23.6383C109.533 23.5268 109.541 23.4362 109.699 23.4152C109.841 23.3978 109.92 23.4536 109.944 23.5721C110.09 24.346 110.445 25.0397 110.986 25.6567C111.093 25.7822 111.057 25.8624 110.939 25.9495C110.84 26.0193 110.773 26.0018 110.698 25.9147C110.094 25.2419 109.711 24.4819 109.549 23.6383Z" fill="#0886C4"/>
<path d="M56.5627 42.1447C56.5627 42.0436 56.5469 41.939 56.5667 41.8414C56.6298 41.4545 56.8904 41.1791 57.3208 41.1477C57.7275 41.1163 58.0237 41.3185 58.154 41.695C58.2803 42.0576 58.2724 42.4096 58.1066 42.7547C57.9644 43.0545 57.6723 43.2079 57.3248 43.18C56.9299 43.1487 56.6693 42.9221 56.5746 42.5804C56.5351 42.441 56.5548 42.2911 56.543 42.1482C56.5509 42.1447 56.5548 42.1447 56.5627 42.1447Z" fill="#FDFDFD"/>
</svg>
