<svg width="73" height="45" viewBox="0 0 73 45" fill="none" xmlns="http://www.w3.org/2000/svg">
<path d="M50.3394 17.8911C52.0209 17.8276 55.3526 18.8102 55.3526 18.8102C55.3526 18.8102 53.7023 25.5967 52.3742 24.6716C51.0462 23.7465 49.458 23.8351 49.458 23.8351C49.458 23.8351 48.6578 17.9546 50.3394 17.8911Z" fill="#C4C4C4"/>
<path d="M47.1144 37.602C47.1162 39.6142 47.1285 41.6263 47.1109 43.6384C47.1056 44.2589 46.6531 44.6544 46.0451 44.9312C46.0115 44.9813 45.9567 44.995 45.8948 44.9965C45.8365 44.9981 45.7764 44.9981 45.7181 44.9981C34.4006 44.9981 23.0849 44.9981 11.7693 44.9981C11.4794 44.9859 11.2602 44.8369 11.034 44.6985C10.9615 44.7867 11.0711 44.9129 10.9332 44.9737C10.8696 44.9889 10.813 44.9813 10.7653 44.9418C10.6946 44.8627 10.6663 44.7715 10.6699 44.6756C10.6769 44.4703 10.6221 44.2757 10.5302 44.0886C10.4489 43.9228 10.4401 43.7449 10.4242 43.57C10.3906 43.2384 10.3906 42.9053 10.4277 42.5723C10.4578 42.4856 10.4666 42.3989 10.4666 42.3092C10.4666 39.3206 10.4365 36.3321 10.4737 33.3436C10.555 26.7764 10.4825 20.2108 10.5108 13.6436C10.5108 13.5995 10.509 13.5554 10.5161 13.5113C10.6557 13.4444 10.7582 13.5235 10.8519 13.5858C11.3716 13.928 11.8895 14.2733 12.4126 14.6124C12.6177 14.7463 12.6813 14.9151 12.6813 15.1371C12.676 24.1529 12.676 33.1687 12.6742 42.1844C12.6742 42.3183 12.6813 42.4506 12.7379 42.5768C12.8545 42.878 13.0366 42.9951 13.4042 43.0012C13.5067 43.0027 13.611 43.0027 13.7135 43.0027C23.7707 43.0027 33.8297 43.0027 43.8869 43.0027C43.9965 43.0027 44.1078 43.0042 44.2174 43.0012C44.6346 42.9905 44.8732 42.7958 44.905 42.44C44.9121 42.3517 44.9085 42.262 44.9085 42.1738C44.9085 40.3366 44.9085 38.4994 44.9085 36.6621C44.9085 36.5542 44.8997 36.4462 44.9191 36.3412C44.9616 36.1891 45.0641 36.2135 45.1807 36.2774C45.414 36.4081 45.6403 36.5496 45.8577 36.6986C46.2236 36.9511 46.5983 37.1929 46.9695 37.4423C47.0366 37.4834 47.0808 37.5382 47.1144 37.602Z" fill="#527DE8"/>
<path d="M10.4859 42.6301C10.4028 43.4149 10.6997 44.1616 10.7863 44.9297C10.7262 45.0209 10.622 44.9966 10.53 44.9981C9.71875 44.9996 8.90746 44.9996 8.09616 44.9981C7.21063 44.8719 6.39581 44.6286 5.74006 44.0597C5.01184 43.4301 4.87043 42.691 5.12319 41.8697C5.26989 41.3967 5.53679 40.9632 5.77364 40.5191C6.04053 40.0203 6.24026 39.5062 6.21375 38.9465C6.20845 38.8523 6.23143 38.758 6.25087 38.6637C6.1837 38.1344 5.77541 37.812 5.31231 37.526C3.93011 36.6698 3.83113 36.323 4.5947 35.0075C5.26813 33.8501 5.19035 33.374 4.09626 32.4691C3.32385 31.8288 2.97565 31.0775 3.20366 30.1726C3.4193 29.3148 4.34194 28.9042 5.27343 29.2494C6.19254 29.5901 6.94551 30.1543 7.16821 30.9954C7.48283 32.1832 8.36483 32.6638 9.64451 32.8128C9.92732 32.8463 10.2048 32.9102 10.4841 32.9604C10.5318 33.0182 10.5071 33.0836 10.5071 33.1444C10.5088 35.9443 10.5088 38.7458 10.5071 41.5457C10.5071 41.6111 10.5353 41.6841 10.4664 41.7541C10.3462 41.6856 10.3391 41.5731 10.3144 41.4727C10.021 40.2956 9.64098 39.1382 9.19203 37.9975C8.70773 36.7671 8.13682 35.5656 7.50935 34.3839C6.9296 33.2934 6.27385 32.2395 5.57214 31.2038C5.51735 31.1216 5.46255 31.0395 5.39185 30.9665C5.67466 31.3787 5.94862 31.7954 6.21729 32.2151C7.25482 33.8334 8.12798 35.5139 8.8668 37.2477C9.52079 38.7777 10.0457 40.3397 10.4116 41.9412C10.4629 42.1663 10.477 42.3974 10.4859 42.6301Z" fill="#FEC857"/>
<path d="M51.0482 23.9978C51.6933 24.0632 52.3403 24.124 52.9854 24.194C53.2417 24.2214 53.2647 24.4693 53.4397 24.5773C53.5157 24.594 53.5652 24.6411 53.6076 24.6928C53.8957 25.0426 54.2103 25.3772 54.4931 25.7316C54.5338 25.7833 54.5903 25.8289 54.5726 25.9004C55.9831 27.3209 55.8506 29.1536 56.273 30.8189C57.3406 35.0151 58.2685 39.2385 59.2477 43.4514C59.2636 43.5198 59.3449 43.6126 59.1982 43.6582C59.0038 43.7677 58.7935 43.7175 58.5885 43.7069C58.3587 43.7236 58.2668 43.5943 58.1943 43.4362C57.809 42.5936 57.4307 41.748 57.0472 40.9039C56.3755 39.4226 55.7039 37.9427 55.0304 36.4614C54.1873 34.6029 53.346 32.7429 52.5011 30.8859C52.4375 30.7444 52.3968 30.5954 52.2978 30.4676C51.9019 29.581 51.5078 28.6958 51.0942 27.8152C51.0022 27.6175 50.9563 27.4198 50.9581 27.2069C50.9634 26.2381 50.9598 25.2708 50.9616 24.302C50.9669 24.197 50.9457 24.0845 51.0482 23.9978Z" fill="#527DE8"/>
<path d="M51.0491 23.9977C51.0491 24.4403 51.1075 24.8905 51.0421 25.3255C50.7734 27.0806 51.4945 28.641 52.2758 30.1953C52.3253 30.2926 52.3518 30.3991 52.3889 30.501C52.449 30.6607 52.4508 30.8189 52.4331 30.9862C52.3447 31.8363 52.2811 32.6865 52.1963 33.5367C52.1132 34.3671 52.0354 35.199 51.9488 36.0294C51.8781 36.7092 51.8233 37.3906 51.7561 38.0704C51.6907 38.7503 51.6236 39.4301 51.5546 40.1099C51.5016 40.6133 51.4592 41.1183 51.4097 41.6217C51.3478 42.2452 51.2948 42.8688 51.2259 43.4924C51.2029 43.6946 51.0916 43.7403 50.7398 43.7129C50.5171 43.7159 50.2891 43.7737 50.0788 43.6597C49.9745 43.6612 49.9091 43.6505 49.8985 43.5289C49.5061 38.9343 49.1932 34.3336 48.67 29.7497C48.442 27.7467 48.8503 25.873 49.3859 23.9764C49.423 23.8472 49.4884 23.8213 49.628 23.838C50.1 23.8958 50.5737 23.9445 51.0491 23.9977Z" fill="#1A55B4"/>
<path d="M68.2475 41.0622C68.244 41.0834 68.2387 41.1063 68.2351 41.1275C68.2263 41.2127 68.2599 41.3101 68.1415 41.3633C68.099 41.488 68.0549 41.6112 68.0124 41.7359C68.0407 41.8804 67.9435 41.9838 67.8534 42.0887C67.8198 42.1648 67.7862 42.2408 67.7508 42.3169C67.7579 42.364 67.765 42.4097 67.6925 42.4249C67.6077 42.5754 67.5211 42.726 67.4362 42.8766C67.4327 42.9526 67.4097 43.0226 67.3638 43.091C66.8441 43.8575 66.13 44.437 65.1879 44.805C64.967 44.8917 64.7372 44.9541 64.4986 44.9982C64.1769 44.9951 63.8552 45.0058 63.5335 44.9936C63.3585 44.9282 63.4116 44.8096 63.4487 44.7016C63.6767 44.0263 63.9418 43.3632 64.2405 42.7093C64.8892 41.2857 65.6669 39.9169 66.632 38.6303C67.3355 37.6919 68.1256 36.8113 69.1224 36.022C68.8379 36.168 68.6965 36.3748 68.502 36.536C68.3005 36.7033 68.122 36.8889 67.9453 37.0744C65.9568 39.1534 64.6488 41.5397 63.6661 44.0735C63.5724 44.3138 63.4929 44.5571 63.4045 44.799C63.3798 44.8659 63.3568 44.9328 63.2825 44.9738C63.2278 44.9967 63.1712 44.9982 63.1111 44.9891C62.7594 44.8902 62.4218 44.7731 62.1531 44.5389C61.865 44.2879 61.7218 43.9929 61.7059 43.6385C61.667 42.8294 61.9357 42.072 62.222 41.3207C62.5561 40.4462 63.0263 39.6219 63.5742 38.831C63.629 38.7717 63.6838 38.7124 63.7227 38.6424C64.3254 37.7923 65.0501 37.0227 65.8172 36.279C66.0134 36.0889 66.2484 35.9353 66.4694 35.771C66.5242 35.7299 66.5878 35.6934 66.6691 35.7041C67.0014 35.5262 67.3319 35.3497 67.6642 35.1718C68.3553 34.9132 69.0535 34.6805 69.8277 34.7475C70.3031 34.7885 70.6619 34.9376 70.5771 35.4364C70.6354 35.6235 70.4887 35.7482 70.3915 35.8896C70.3367 35.9931 70.2819 36.095 70.2271 36.1984C70.2077 36.2394 70.2042 36.2896 70.1476 36.3124C69.9691 36.5786 69.7888 36.8463 69.6103 37.1124C69.6067 37.2174 69.5997 37.3208 69.4653 37.3725C69.3964 37.5261 69.3257 37.6797 69.2568 37.8333C69.2585 37.8789 69.2462 37.9185 69.2002 37.9443C69.1896 37.9824 69.1772 38.0204 69.1666 38.0599C69.1949 38.1938 69.1277 38.3018 69.0376 38.4037C69.004 38.504 68.9722 38.6059 68.9386 38.7063C68.9793 38.7854 68.8944 38.8325 68.8714 38.8949C68.8661 38.9192 68.8608 38.9451 68.8555 38.9694C68.8114 39.0957 68.8432 39.2417 68.7318 39.3527C68.6134 39.7846 68.495 40.215 68.3748 40.647C68.4437 40.8082 68.3783 40.9435 68.2475 41.0622Z" fill="#FEC857"/>
<path d="M12.6407 42.5829C12.6283 42.4962 12.6071 42.4095 12.6071 42.3228C12.6054 33.377 12.6001 24.4312 12.6195 15.4839C12.6213 15.0124 12.4976 14.6976 12.0239 14.4436C11.5042 14.1638 11.0305 13.8185 10.5374 13.5007C10.502 13.4733 10.5073 13.4429 10.5285 13.4109C10.5268 10.4665 10.5162 7.52208 10.5321 4.57766C10.5356 3.87197 11.3257 3.30621 12.2183 3.30621C15.4564 3.30469 18.6945 3.30469 21.9326 3.30469C22.0263 3.36704 22.0227 3.4583 22.0227 3.54651C22.0245 4.03775 22.0245 4.53052 22.0227 5.02176C22.0227 5.10389 22.0174 5.18602 21.952 5.25446C21.8336 5.34267 21.6887 5.31985 21.5508 5.31985C18.9084 5.32137 16.2641 5.32137 13.6217 5.32137C13.5192 5.32137 13.4149 5.31986 13.3124 5.3229C13.0066 5.33506 12.8033 5.48411 12.7485 5.74418C12.7203 5.87497 12.699 6.00577 12.699 6.13961C12.7008 8.92738 12.6778 11.7151 12.7044 14.5014C12.7945 23.7438 12.7167 32.9862 12.7415 42.2285C12.7415 42.3533 12.7857 42.4901 12.6407 42.5829Z" fill="#6AA4FD"/>
<path d="M63.6465 38.8402C62.7415 40.1922 62.0133 41.6066 61.7976 43.1716C61.6633 44.1556 62.0274 44.5906 63.1038 44.9267C63.0597 45.0058 62.9748 44.9982 62.8935 44.9982C62.2643 44.9982 61.635 44.9997 61.0058 44.9967C60.9263 44.9967 60.8202 45.0241 60.7955 44.913C61.3611 44.913 61.9267 44.913 62.4163 44.913C60.3129 43.2462 59.993 41.1367 60.5003 38.8341C61.0588 36.3094 61.6898 33.8015 63.0508 31.4852C63.3195 31.0274 63.6111 30.4434 64.3234 30.4799C65.0393 30.5164 65.2496 31.1293 65.4829 31.6114C66.1192 32.9209 66.4056 34.311 66.6725 35.7041C65.4988 36.5315 64.6257 37.5763 63.7914 38.6501C63.7083 38.6029 63.726 38.5314 63.7313 38.4615C63.8056 37.4653 63.8833 36.4691 63.9505 35.4714C64.0159 34.4996 64.099 33.5293 64.1555 32.5574C64.1697 32.3171 64.1944 32.0783 64.2015 31.9339C64.1767 32.2958 64.1396 32.7521 64.1113 33.2099C64.0424 34.2821 63.954 35.3543 63.8833 36.4265C63.8356 37.1581 63.7843 37.8896 63.7119 38.6212C63.7048 38.6972 63.6783 38.7687 63.6465 38.8402Z" fill="#6AA4FD"/>
<path d="M35.6798 3.30469C38.8967 3.30621 42.1136 3.30621 45.3322 3.30773C46.4104 3.30773 47.1174 3.91456 47.1192 4.84382C47.121 7.85364 47.1192 10.8619 47.1192 13.8718C47.075 13.9782 47.052 14.0984 46.9 14.1394C46.4511 14.1425 46.0127 14.0558 45.5708 14.0086C45.433 13.9934 45.2933 13.9919 45.1572 13.9584C45.0795 13.9387 45.0017 13.9219 44.954 13.8565C44.8886 13.7486 44.9098 13.633 44.9098 13.5204C44.908 11.0764 44.9098 8.63081 44.908 6.18675C44.908 6.09854 44.9098 6.00881 44.9062 5.9206C44.8939 5.52213 44.6676 5.32594 44.2063 5.32594C42.8453 5.3229 41.4826 5.32441 40.1216 5.32441C38.7606 5.32441 37.3978 5.32442 36.0368 5.3229C35.906 5.3229 35.7699 5.34114 35.6568 5.2575C35.5843 5.18297 35.5861 5.09477 35.5843 5.00503C35.5826 4.52444 35.5826 4.04384 35.5843 3.56324C35.5861 3.47047 35.5755 3.37009 35.6798 3.30469Z" fill="#6AA4FD"/>
<path d="M47.1145 37.602C46.4092 37.1458 45.7058 36.6895 45.0005 36.2332C44.9192 36.1815 44.9121 36.1055 44.9086 36.0294C44.9051 35.9534 44.9068 35.8773 44.9068 35.8013C44.9068 29.7832 44.9068 23.7666 44.9086 17.7485C44.9086 17.6177 44.8803 17.4808 44.9546 17.3561C45.0217 17.2709 45.126 17.2648 45.2303 17.2724C45.5661 17.2983 45.9002 17.3378 46.2325 17.3804C46.3138 17.3911 46.3898 17.4139 46.4269 17.4869C46.2908 18.4207 46.1582 19.356 46.0151 20.2899C45.9408 20.7735 46.3774 21.1263 46.9395 21.0183C47.0703 20.9925 47.1233 20.991 47.1233 21.1263C47.1198 26.6182 47.118 32.1101 47.1145 37.602Z" fill="#6AA4FD"/>
<path d="M35.6803 3.30476C35.6803 3.95114 35.6803 4.59903 35.6803 5.24541C35.7263 5.28799 35.7599 5.33818 35.7581 5.39597C35.7546 5.63779 35.8005 5.88265 35.7263 6.12295C35.6574 6.22485 35.5566 6.19748 35.4541 6.17466C34.6782 5.99824 33.9199 5.77619 33.1528 5.57392C31.6822 5.18761 30.2152 4.79371 28.7463 4.40132C27.3058 4.01654 25.8635 3.63936 24.423 3.25458C23.7354 3.07055 23.0461 2.88652 22.3585 2.70097C22.2613 2.67512 22.1553 2.66143 22.1005 2.56257C22.1623 2.49718 22.2489 2.52607 22.3214 2.52607C23.4844 2.52455 24.6457 2.52608 25.8087 2.52303C25.8847 2.52303 25.9696 2.5565 26.0367 2.49566C25.8847 1.25006 27.1096 0.109399 28.711 0.00597952C30.1904 -0.0898359 31.5125 0.977823 31.5938 2.34813C31.6027 2.50174 31.6645 2.51543 31.8112 2.51543C32.9159 2.51086 34.0206 2.5352 35.1218 2.50174C35.5743 2.48805 35.7669 2.57627 35.675 2.9793C35.6556 3.08576 35.6786 3.19678 35.6803 3.30476Z" fill="#1A55B4"/>
<path d="M44.9901 13.8673C45.6423 13.9403 46.2927 14.0148 46.945 14.0878C47.0333 14.1243 47.051 14.2049 47.0881 14.2703C47.3144 14.6703 48.0214 14.7296 48.336 14.3768C48.3961 14.3083 48.4332 14.1912 48.5852 14.2551C49.3099 14.1836 49.9709 14.538 50.6921 14.4954C50.7345 14.5167 50.7593 14.5517 50.754 14.5897C50.7045 14.9775 50.7875 15.3699 50.6762 15.7562C50.5719 16.1227 50.3174 16.3478 49.8861 16.398C49.4248 16.4512 48.9953 16.5501 48.6524 16.8406C48.617 16.871 48.5658 16.8877 48.5127 16.8938C48.0903 16.9303 47.6802 16.8375 47.2684 16.7919C46.0453 16.6566 44.8222 16.5258 43.599 16.3858C42.0931 16.214 40.5854 16.0528 39.0777 15.8855C38.9681 15.8733 38.8585 15.8596 38.7649 15.8033C38.7436 15.7881 38.7295 15.7684 38.7189 15.7471C38.6606 15.4809 38.7542 15.2224 38.7878 14.9623C38.8479 14.4878 38.9257 14.0148 38.9911 13.5403C39.007 13.4277 39.0265 13.3152 39.1025 13.2179C39.2969 13.1083 39.4966 13.2072 39.6946 13.2072C40.2089 13.3137 40.7409 13.3213 41.2624 13.3806C42.4201 13.5114 43.5796 13.6346 44.7373 13.7654C44.8345 13.7775 44.9247 13.8003 44.9901 13.8673Z" fill="#FEC857"/>
<path d="M48.5342 16.8437C48.8223 16.5867 49.1599 16.3935 49.5806 16.3753C50.3989 16.3403 50.6817 15.9358 50.6658 15.2894C50.6588 15.0247 50.6835 14.7601 50.6923 14.497C51.1236 12.9077 52.7126 12.421 54.2133 13.4157C54.2698 13.4537 54.337 13.4902 54.4059 13.5008C55.4647 13.6696 55.9825 14.281 56.2123 15.1297C56.3343 15.2164 56.3237 15.3426 56.3467 15.4582C56.4315 15.8993 56.3679 16.3357 56.2866 16.7722C56.2318 17.0703 56.1611 17.3669 56.0267 17.6483C55.9454 17.8901 55.8305 18.1197 55.705 18.3463C55.6732 18.4041 55.6361 18.4574 55.5636 18.4832C55.2101 19.014 54.8831 19.563 54.1655 19.811C53.4302 20.0649 52.8576 19.8581 52.4652 19.1935C52.2902 19.0338 52.3061 18.8269 52.3114 18.6384C52.3238 18.1684 52.4051 17.7045 52.6278 17.2696C52.9088 16.7236 53.3931 16.3494 53.9905 16.0711C54.0772 16.03 54.1726 16.0224 54.2698 16.0255C54.3794 16.03 54.4589 15.9951 54.4872 15.9008C54.5137 15.811 54.5208 15.7091 54.4183 15.659C54.2557 15.5783 54.1973 15.4491 54.1284 15.3137C54.0506 15.1616 53.8916 15.0765 53.7378 14.9882C53.5222 14.8666 53.2924 14.7647 53.105 14.6095C52.9707 14.5 52.847 14.3845 52.7586 14.243C52.7144 14.1715 52.6631 14.1274 52.5748 14.202C52.368 14.3753 52.1187 14.5 51.8907 14.6506C51.7087 14.7708 51.5903 14.9244 51.5567 15.1251C51.5178 15.3563 51.4524 15.5844 51.4418 15.8202C51.4206 16.3084 51.6804 16.6551 52.1629 16.8909C52.4493 17.0308 52.4846 17.0779 52.4369 17.3608C52.4051 17.5433 52.4281 17.7274 52.3821 17.9083C52.3485 18.0391 52.2725 18.1167 52.1081 18.0908C51.919 18.0619 51.7069 18.103 51.5478 17.9692C50.9204 17.7684 50.4732 18.1578 49.9765 18.3448C48.9726 18.7235 48.8577 18.6794 48.7392 17.7243C48.6756 17.6437 48.6791 17.5555 48.7092 17.4688C48.8789 16.9867 49.2041 16.643 49.8121 16.5487C50.2434 16.4818 50.6022 16.3357 50.6906 15.9099C50.6004 16.3418 50.2328 16.4848 49.798 16.5487C49.5629 16.5836 49.3437 16.649 49.1405 16.7525C48.8099 16.9198 48.6102 17.1661 48.5696 17.4992C48.5607 17.5737 48.5678 17.6543 48.4812 17.7045C48.4529 18.0543 48.6155 18.3524 48.8188 18.6414C48.8471 18.6825 48.9885 18.7372 48.8453 18.7965C48.7498 18.8361 48.6509 18.9425 48.536 18.7935C48.2726 18.4498 48.1613 18.0726 48.1736 17.665C48.1029 17.6011 48.1206 17.5251 48.1418 17.4536C48.2107 17.2255 48.2567 16.9776 48.5342 16.8437Z" fill="#1A55B4"/>
<path d="M26.038 2.49865C25.7057 2.51538 25.3752 2.54276 25.0429 2.5458C24.0866 2.55189 23.1304 2.54732 22.0593 2.54732C23.4185 2.91081 24.6699 3.24693 25.9213 3.58152C29.117 4.43169 32.3127 5.28034 35.5101 6.12899C35.5596 6.14268 35.6109 6.14876 35.6604 6.15789C35.6816 6.1807 35.6798 6.202 35.6533 6.22177C35.5649 6.28108 35.4589 6.27348 35.3564 6.27348C30.9941 6.275 26.6319 6.275 22.2678 6.27348C22.1353 6.27348 21.9992 6.27652 21.902 6.17614C21.8189 5.86284 21.7694 5.55106 21.9285 5.24232C21.9285 4.59595 21.9285 3.95109 21.9285 3.30472C21.7517 2.56557 22.1742 2.45303 22.9289 2.49561C23.9629 2.55341 25.0022 2.50322 26.038 2.49865Z" fill="#2C6BC5"/>
<path d="M55.9521 17.6772C56.2385 16.8422 56.394 15.9981 56.212 15.1282C58.1509 15.3441 60.0899 15.5601 62.0307 15.7761C62.1084 15.8658 62.0961 15.9662 62.0819 16.0681C61.99 16.7266 61.8822 17.3836 61.785 18.0422C61.7708 18.1426 61.7585 18.2445 61.6736 18.3251C61.4332 18.4178 61.1946 18.3357 60.9595 18.3114C59.3864 18.1426 57.8169 17.9585 56.2438 17.7912C56.1324 17.7791 56.0193 17.7715 55.9521 17.6772Z" fill="#FEC857"/>
<path d="M48.5332 16.8436C48.3175 17.0885 48.2097 17.3683 48.1726 17.671C47.5911 17.6101 47.0096 17.5478 46.4281 17.4869C45.9508 17.4352 45.4718 17.382 44.9946 17.3303C44.8779 17.3881 44.7525 17.3683 44.6287 17.3546C43.0715 17.1828 41.5144 17.0003 39.9554 16.8375C39.5984 16.801 39.2431 16.7493 38.886 16.7128C38.7924 16.7037 38.6952 16.6885 38.6209 16.6292C38.5484 16.544 38.5714 16.4497 38.5838 16.3554C38.5997 16.217 38.6315 16.0801 38.6457 15.9417C38.6527 15.8718 38.6775 15.8033 38.7729 15.7805C40.6571 15.9889 42.5395 16.2003 44.4237 16.4056C45.7935 16.5531 47.1634 16.6976 48.5332 16.8436Z" fill="#E3B24D"/>
<path d="M51.5471 17.9705C52.2682 18.0359 52.521 17.7774 52.3761 17.1127C52.3672 17.0717 52.3036 17.0261 52.2523 17.0078C51.7415 16.8207 51.3863 16.4937 51.3792 16.0238C51.3703 15.4717 51.3102 14.871 51.9907 14.4984C52.3867 14.2824 52.6518 13.8809 53.152 14.512C53.4755 14.9212 54.1171 15.1736 54.5077 15.604C54.6155 15.7227 54.6244 15.8504 54.5607 15.9782C54.4989 16.1029 54.3575 16.0664 54.2355 16.0953C53.5232 16.2671 53.0371 16.6915 52.7296 17.2511C52.392 17.8671 52.3071 18.5211 52.4644 19.1948C52.2046 19.4032 51.9466 19.6115 51.6867 19.8199C51.6567 19.5127 51.6231 19.207 51.6001 18.8983C51.5754 18.5895 51.563 18.2808 51.5471 17.9705Z" fill="#FE746F"/>
<path d="M63.9569 15.9707C66.1168 16.0118 66.6489 17.738 65.8376 18.7128C65.3374 19.3136 64.5031 19.5539 63.4709 19.3577C63.3895 19.306 63.3807 19.2284 63.3913 19.1539C63.4302 18.8878 63.4443 18.617 63.5203 18.3554C63.5292 18.0072 63.6087 17.665 63.6529 17.3197C63.7042 16.9365 63.7572 16.5532 63.8208 16.173C63.8367 16.0893 63.8456 16.0042 63.9569 15.9707Z" fill="#FD917F"/>
<path d="M55.9521 17.677C57.8027 17.8808 59.6533 18.0831 61.5057 18.2884C61.5552 18.2945 61.6029 18.3127 61.6524 18.3249C61.6612 18.3325 61.6718 18.3401 61.6807 18.3462C61.7461 18.5819 61.6648 18.807 61.6153 19.0336C61.5976 19.1188 61.5092 19.1492 61.4103 19.1401C59.4607 18.9196 57.5111 18.7006 55.5615 18.48C55.6923 18.2139 55.8231 17.9462 55.9521 17.677Z" fill="#E3B24D"/>
<path d="M63.9572 15.9707C63.8335 16.7677 63.7115 17.5646 63.5878 18.3616C63.5736 18.3752 63.5595 18.3965 63.5383 18.3981C62.9356 18.4619 62.3311 18.5456 61.7336 18.3707C61.7054 18.3631 61.6859 18.3418 61.6665 18.3235L61.6523 18.3266C61.7778 17.4764 61.9051 16.6278 62.0306 15.7776C62.6139 15.8263 63.1954 15.9023 63.784 15.8156C63.9165 15.7958 63.9696 15.8612 63.9572 15.9707Z" fill="#D2E9F4"/>
<path d="M10.5275 13.4109C10.531 13.4413 10.5328 13.4702 10.5363 13.5006C10.5345 23.0852 10.531 32.6698 10.5275 42.2528C10.5275 42.3776 10.4992 42.5038 10.485 42.6285C9.94771 40.0658 9.04981 37.6005 7.83375 35.2173C7.09493 33.7679 6.2695 32.3565 5.31327 31.0029C5.26731 30.936 5.10116 30.8402 5.25317 30.7717C5.39457 30.7078 5.43169 30.8751 5.48295 30.9512C7.78957 34.2865 9.49169 37.8286 10.4373 41.6308C10.4444 41.6582 10.4532 41.6855 10.5027 41.8483C10.5027 41.1928 10.5045 40.6757 10.5027 40.1586C10.4974 37.7586 10.4903 35.3587 10.4833 32.9587C10.4868 26.5422 10.4903 20.1271 10.4974 13.7105C10.4974 13.6116 10.5169 13.5113 10.5275 13.4109Z" fill="#6BA5FA"/>
<path d="M61.6647 18.3235C62.3028 18.4528 62.9461 18.3585 63.5877 18.3615C63.5489 18.6931 63.51 19.0261 63.4711 19.3577C63.3297 19.6223 63.031 19.493 62.9214 19.4246C62.4548 19.1356 61.9104 19.2421 61.4102 19.1417C61.723 18.9212 61.5374 18.5866 61.6647 18.3235Z" fill="#BDD1DB"/>
<path d="M3.33283 41.6491C2.75131 41.0955 2.12915 40.5784 1.41507 40.1511C1.33376 40.1024 1.22771 40.0841 1.13226 40.0522C1.1959 40.113 1.25069 40.183 1.32492 40.2332C1.86402 40.5982 2.42963 40.9374 2.84323 41.4195C2.79374 41.4438 2.74248 41.4392 2.69652 41.4195C2.49679 41.3297 2.29883 41.24 2.0938 41.1609C2.04607 41.1427 2.01249 41.1092 2.00188 41.0621C1.67313 40.91 1.33376 40.7716 1.01738 40.6012C0.768154 40.4674 0.598473 40.2666 0.692152 39.9929C0.784063 39.7222 1.06333 39.7739 1.29841 39.7617C2.42963 40.0294 2.87681 40.8431 3.33283 41.6491Z" fill="#6AA4FC"/>
<path d="M54.5732 25.902C54.195 25.461 53.8167 25.0199 53.4385 24.5789C53.716 24.2686 53.9599 24.223 54.1755 24.6321C54.423 25.1005 54.8012 25.356 55.4446 25.1933C55.6231 25.1477 55.8017 25.2344 55.837 25.4184C55.8724 25.6054 55.7292 25.6997 55.5418 25.7347C55.2219 25.7971 54.8967 25.8457 54.5732 25.902Z" fill="#F8716D"/>
<path d="M48.5856 14.2565C48.3169 14.506 48.0801 14.763 47.5887 14.6611C47.2016 14.5805 47.0054 14.4086 46.9453 14.0893C47.0125 14.0223 46.9223 13.8611 47.1203 13.8702C47.5286 13.9311 47.9351 13.998 48.3434 14.0482C48.499 14.0664 48.5785 14.1227 48.5856 14.2565Z" fill="#FD746F"/>
<path d="M48.4829 17.7107C48.4263 17.0886 48.9195 16.6156 49.7626 16.5046C50.2646 16.4377 50.6039 16.2308 50.7294 15.7305C50.7241 16.2415 50.4555 16.4924 49.95 16.5776C49.2164 16.7008 48.8117 17.0871 48.7392 17.7289C48.6526 17.7213 48.5677 17.7152 48.4829 17.7107Z" fill="#ECBB54"/>
<path d="M59.4451 44.3152C59.2913 44.5053 59.0562 44.2482 58.8936 44.3897C58.6886 44.1768 58.5489 43.941 58.5312 43.6597C58.754 43.6597 58.9767 43.6597 59.2011 43.6612C59.2824 43.8772 59.3638 44.0962 59.4451 44.3152Z" fill="#FD746F"/>
<path d="M50.6392 44.297C50.4519 44.4156 50.2663 44.4141 50.0807 44.2939C50.0789 44.0825 50.0789 43.8711 50.0771 43.6597C50.2999 43.6597 50.5208 43.6582 50.7435 43.6582C50.8425 43.8879 50.8054 44.1008 50.6392 44.297Z" fill="#FD746F"/>
<path d="M38.6434 16.6109C40.7609 16.8512 42.8783 17.0899 44.9958 17.3287C44.9976 23.6297 44.9994 29.9322 45.0011 36.2332C44.9976 38.2606 44.9905 40.2879 44.9958 42.3152C44.9976 42.8384 44.7342 43.0802 44.1191 43.0802C33.8993 43.0757 23.6777 43.0772 13.4579 43.0787C13.0373 43.0787 12.7439 42.9555 12.6413 42.5829C12.6413 33.3709 12.6449 24.1605 12.6431 14.9485C12.6431 11.9646 12.6307 8.98213 12.6201 5.99817C12.6184 5.47802 12.8747 5.23012 13.5163 5.23468C16.3213 5.24989 19.1264 5.24228 21.9314 5.24381C21.9332 5.54646 21.935 5.84912 21.9367 6.15177C21.9968 6.2993 22.1206 6.34949 22.2955 6.34797C22.9053 6.34492 23.5169 6.34644 24.1285 6.34644C27.8226 6.34644 31.5149 6.34644 35.2091 6.34797C35.3911 6.34797 35.5679 6.35253 35.6633 6.18371C35.6651 6.17459 35.6633 6.16698 35.6598 6.15786C35.6651 5.85368 35.6722 5.54951 35.6775 5.24685C38.5691 5.24533 41.4608 5.23924 44.3525 5.24837C44.7767 5.24989 44.9852 5.50692 44.987 5.85368C44.9923 8.52586 44.9888 11.198 44.987 13.8702C43.2248 13.6725 41.4608 13.4748 39.6986 13.2771C39.7675 13.1919 39.8753 13.195 39.9778 13.1934C40.2642 13.1904 40.5523 13.1965 40.8386 13.1904C40.927 13.1889 41.0666 13.2117 41.0702 13.1037C41.0755 12.9896 40.9358 13.017 40.8475 13.0079C40.7891 13.0018 40.729 13.0064 40.6707 13.0064C35.2586 13.0064 29.8446 13.0064 24.4325 13.0064C24.3441 13.0064 24.2557 13.0033 24.1674 13.0109C24.109 13.017 24.0383 13.0201 24.0348 13.087C24.0295 13.1615 24.1037 13.1767 24.1691 13.1843C24.2787 13.198 24.3901 13.1919 24.4996 13.1919C29.0952 13.1919 33.6908 13.1919 38.2863 13.1934C38.426 13.1934 38.5674 13.1752 38.7017 13.2208C38.8307 13.2847 38.7635 13.3425 38.6893 13.3912C38.6009 13.4489 38.4896 13.4657 38.3853 13.4946C38.1272 13.5645 37.8674 13.6238 37.6129 13.7045C37.5086 13.7364 37.4026 13.7577 37.2912 13.7258C36.9183 13.7668 36.5453 13.7303 36.1724 13.7303C32.4181 13.7303 28.6622 13.7303 24.9079 13.7288C24.664 13.7288 24.4236 13.7531 24.1815 13.7668C24.1143 13.7714 24.0366 13.7729 24.033 13.8474C24.0277 13.9219 24.102 13.9372 24.1691 13.9463C24.2787 13.96 24.3901 13.9554 24.4996 13.9554C28.1814 13.9554 31.8631 13.9554 35.5431 13.9569C35.6739 13.9569 35.81 13.9372 35.9337 13.9919C36.0575 14.0771 35.9373 14.1029 35.8825 14.144C35.4494 14.287 35.0058 14.4071 34.5498 14.4923C34.4084 14.544 34.2599 14.5288 34.1132 14.5288C30.8892 14.5303 27.6653 14.5288 24.4413 14.5303C24.3388 14.5303 24.2345 14.5242 24.132 14.5409C24.079 14.5485 24.0277 14.5668 24.0277 14.6215C24.0277 14.6748 24.079 14.6945 24.132 14.7037C24.2416 14.7234 24.3512 14.7174 24.4625 14.7174C27.7307 14.7174 30.9988 14.7174 34.267 14.7174C34.525 14.7174 34.7813 14.7098 35.0376 14.7387C35.3381 14.7402 35.5361 14.9257 35.7747 15.0398C36.6496 15.4991 37.5227 15.9645 38.3994 16.4253C38.5002 16.4694 38.5815 16.5303 38.6434 16.6109Z" fill="#F1F2F4"/>
<path d="M11.6299 44.925C11.4072 44.9266 11.1862 44.9281 10.9635 44.9296C10.9494 44.8079 10.9352 44.6847 10.9229 44.5676C11.1703 44.6923 11.4001 44.8095 11.6299 44.925Z" fill="#F0C15D"/>
<path d="M69.9154 40.367C70.5606 39.7008 71.3365 39.1624 72.1443 38.6545C72.2203 38.6073 72.2733 38.5313 72.3352 38.4689C72.2468 38.4963 72.1461 38.5069 72.0736 38.551C71.1492 39.1199 70.3061 39.7662 69.5602 40.5069C69.5142 40.554 69.4417 40.5814 69.3799 40.6179C69.5001 40.4065 69.6203 40.1966 69.7405 39.9852C69.7493 39.9274 69.7758 39.8788 69.8306 39.8438C69.9349 39.7069 70.0409 39.57 70.1452 39.4347C70.2018 39.2917 70.2955 39.1716 70.4386 39.0834C70.7479 38.7564 71.0732 38.4461 71.5115 38.2408C71.6494 38.1358 71.8049 38.0704 71.9958 38.0902C72.0117 38.0887 72.0276 38.0872 72.0435 38.0857C72.1089 38.0674 72.1655 38.0339 72.2291 38.0111C72.3104 37.9959 72.39 37.999 72.4713 38.0081C72.565 38.0233 72.6516 38.0492 72.7046 38.1267C73.2048 38.513 73.0068 38.8993 72.5756 39.129C71.7201 39.5852 70.8063 39.9594 69.9154 40.367Z" fill="#1A55B4"/>
<path d="M69.96 43.0833C70.6758 43.2552 71.2785 43.602 71.8707 43.97C71.9219 44.002 71.9961 44.005 72.0598 44.0217C72.0262 43.9731 72.005 43.9107 71.9573 43.8788C71.381 43.5001 70.7536 43.2004 70.0855 42.9617C70.8225 43.0225 71.549 43.1244 72.1199 43.5761C72.3514 43.7601 72.5688 44.0217 72.332 44.2727C72.0828 44.5388 71.7469 44.4019 71.4906 44.221C70.9728 43.8499 70.469 43.4636 69.96 43.0833Z" fill="#1B55B4"/>
<path d="M68.2461 41.062C68.2903 40.9221 68.3327 40.7837 68.3769 40.6438C68.4759 40.6438 68.5678 40.6742 68.5395 40.7685C68.5024 40.9023 68.4653 41.0544 68.2461 41.062Z" fill="#DBE5EE"/>
<path d="M70.1504 36.3095C70.1769 36.2714 70.2034 36.2334 70.2299 36.1954C70.3431 36.1346 70.4544 36.0752 70.5675 36.0144C70.4544 36.1422 70.5658 36.5133 70.1504 36.3095Z" fill="#DBE5EE"/>
<path d="M72.2197 38.0629C72.1614 38.0705 72.1013 38.0796 72.043 38.0872C72.1596 38.0096 72.2038 37.8104 72.4053 37.888C72.5237 37.9336 72.7323 37.9321 72.704 38.1283C72.6298 38.1085 72.5538 38.0887 72.4795 38.069C72.3947 37.9731 72.3081 37.9792 72.2197 38.0629Z" fill="#DBE5EE"/>
<path d="M70.3945 35.8866C70.4564 35.736 70.5183 35.5854 70.5801 35.4333C70.7639 35.66 70.5218 35.7558 70.3945 35.8866Z" fill="#DBE5EE"/>
<path d="M68.2364 42.1267C68.1675 42.2438 68.1003 42.3609 68.0314 42.478C67.9748 42.3062 67.9324 42.1419 68.2364 42.1267Z" fill="#DBE5EE"/>
<path d="M69.8314 39.8454C69.8014 39.8926 69.7713 39.9397 69.7413 39.9869C69.7006 39.8819 69.4638 39.9701 69.4938 39.7998C69.607 39.815 69.7183 39.8302 69.8314 39.8454Z" fill="#DBE5EE"/>
<path d="M67.8545 42.0887C67.9075 41.9716 67.9605 41.8529 68.0136 41.7358C68.2858 41.9625 67.9111 41.9716 67.8545 42.0887Z" fill="#DBE5EE"/>
<path d="M71.996 38.0917C71.8352 38.1419 71.6726 38.1921 71.5117 38.2423C71.6125 38.0461 71.7892 38.0324 71.996 38.0917Z" fill="#DBE5EE"/>
<path d="M70.4389 39.085C70.3417 39.2021 70.2427 39.3192 70.1455 39.4363C70.1526 39.2629 70.1985 39.1123 70.4389 39.085Z" fill="#DBE5EE"/>
<path d="M69.2012 37.9414C69.2206 37.9049 69.2383 37.8669 69.2577 37.8304C69.3479 37.8212 69.4398 37.8121 69.5405 37.803C69.484 37.9748 69.332 37.9383 69.2012 37.9414Z" fill="#DBE5EE"/>
<path d="M69.4678 37.3694C69.5155 37.2828 69.565 37.1961 69.6127 37.1094C69.7241 37.263 69.7011 37.3588 69.4678 37.3694Z" fill="#DBE5EE"/>
<path d="M69.0391 38.4006C69.0815 38.2865 69.1257 38.171 69.1681 38.0569C69.3307 38.2287 69.1681 38.3094 69.0391 38.4006Z" fill="#DBE5EE"/>
<path d="M68.9416 41.1762C68.8992 41.2233 68.8585 41.272 68.8161 41.3192C68.8002 41.2462 68.7825 41.1716 68.7666 41.0986C68.8249 41.1245 68.8833 41.1503 68.9416 41.1762Z" fill="#DBE5EE"/>
<path d="M68.1406 41.3632C68.1724 41.2841 68.2025 41.2065 68.2343 41.1274C68.2396 41.2157 68.4676 41.3708 68.1406 41.3632Z" fill="#DBE5EE"/>
<path d="M68.7363 39.3496C68.777 39.2218 68.8176 39.0941 68.8601 38.9663C68.8459 39.1001 68.9255 39.2568 68.7363 39.3496Z" fill="#DBE5EE"/>
<path d="M68.7112 40.1616C68.736 40.1936 68.7695 40.2194 68.7642 40.2346C68.7519 40.2666 68.7218 40.2939 68.6988 40.3228C68.6706 40.3015 68.6158 40.2742 68.6193 40.259C68.6281 40.2285 68.6688 40.2042 68.7112 40.1616Z" fill="#DBE5EE"/>
<path d="M68.4686 41.7876C68.4244 41.853 68.3802 41.9184 68.3343 41.9838C68.2158 41.8347 68.2971 41.7891 68.4686 41.7876Z" fill="#DBE5EE"/>
<path d="M68.875 38.8917C68.898 38.8294 68.9192 38.7655 68.9422 38.7031C69.1596 38.8294 68.8768 38.8233 68.875 38.8917Z" fill="#DBE5EE"/>
<path d="M68.0335 42.4766C67.9999 42.5374 67.9663 42.5982 67.9327 42.6591C67.7683 42.5161 67.8885 42.4918 68.0335 42.4766Z" fill="#DBE5EE"/>
<path d="M68.6709 41.5183C68.6019 41.608 68.5348 41.6993 68.4658 41.789C68.4711 41.6643 68.5295 41.567 68.6709 41.5183Z" fill="#DBE5EE"/>
<path d="M67.6934 42.4234C67.7128 42.3869 67.7322 42.3519 67.7517 42.3154C67.7782 42.3489 67.8065 42.3824 67.833 42.4158C67.787 42.4189 67.7411 42.4219 67.6934 42.4234Z" fill="#DBE5EE"/>
<path d="M70.0182 39.3482C69.9935 39.374 69.9776 39.3907 69.9634 39.4075C69.9387 39.3892 69.9069 39.374 69.8927 39.3512C69.8857 39.3405 69.9139 39.3147 69.9245 39.2949C69.951 39.3101 69.9776 39.3253 70.0182 39.3482Z" fill="#DBE5EE"/>
<path d="M63.4575 44.9251C63.4027 44.9251 63.3479 44.9251 63.2949 44.9251C64.3926 41.7297 65.9745 38.7549 68.6647 36.2941C68.8379 36.1359 68.9704 35.9124 69.2674 35.8789C69.225 36.1207 68.9669 36.2135 68.8008 36.3641C66.123 38.8051 64.5587 41.7571 63.4575 44.9251Z" fill="#6BA5FA"/>
<path d="M63.6475 38.84C63.803 36.6013 63.9515 34.361 64.1212 32.1238C64.1371 31.9139 64.0133 31.6691 64.2449 31.4866C64.404 31.701 64.2714 31.9261 64.2573 32.1405C64.1123 34.3108 63.9497 36.4796 63.7906 38.6484C63.7447 38.7123 63.697 38.7761 63.6475 38.84Z" fill="#1C56B6"/>
<path d="M3.06623 43.2734C2.35215 42.989 1.60979 42.8035 0.816174 42.8065C0.749008 42.8065 0.681843 42.8445 0.616444 42.8643C0.681843 42.8825 0.745473 42.9145 0.810871 42.916C1.56207 42.9373 2.28322 43.0559 2.94427 43.3799C2.14712 43.3464 1.34997 43.3251 0.554581 43.2734C0.222287 43.2521 -0.0393063 43.0711 0.00488176 42.7639C0.0473023 42.4719 0.370758 42.405 0.664167 42.3898C1.631 42.3396 2.35569 42.7959 3.06623 43.2734Z" fill="#6AA5FC"/>
<path d="M2.80277 43.4604C2.38033 43.6627 1.95436 43.8604 1.53899 44.0718C1.45768 44.1129 1.40819 44.2011 1.34456 44.268C1.43117 44.2361 1.52662 44.2163 1.60085 44.1722C1.98971 43.9441 2.38033 43.7175 2.83458 43.5928C2.47931 43.8711 2.13111 44.1585 1.7617 44.4247C1.58318 44.5524 1.3481 44.6437 1.15367 44.4536C0.962778 44.265 1.12716 44.0871 1.27563 43.9547C1.691 43.5867 2.246 43.5167 2.80277 43.4604Z" fill="#6AA4FB"/>
<path d="M29.8874 3.38222C29.3041 3.85673 28.279 3.89019 27.7841 3.44914C27.0983 2.83774 27.0541 2.02712 27.678 1.48112C27.7805 1.42333 27.8459 1.4872 27.906 1.53891C28.5494 2.08339 29.1875 2.63242 29.8203 3.18602C29.8804 3.23773 29.9528 3.29553 29.8874 3.38222Z" fill="#6AA4FD"/>
<path d="M29.8862 3.38226C29.2039 2.7009 28.4686 2.06822 27.6768 1.48116C28.2477 0.926036 29.3064 0.919953 29.9339 1.46747C30.5384 1.99369 30.5154 2.91382 29.8862 3.38226Z" fill="#527EE8"/>
<path d="M38.7676 13.2741C33.9441 13.2726 29.1223 13.2695 24.2987 13.2665C24.1343 13.2665 23.8939 13.3228 23.8869 13.0946C23.8798 12.8559 24.1255 12.9182 24.2863 12.9182C29.824 12.9152 35.3616 12.9152 40.8993 12.9167C41.0513 12.9167 41.2422 12.8924 41.2386 13.0916C41.2351 13.2832 41.0477 13.2665 40.894 13.268C40.4963 13.2711 40.0986 13.2726 39.7009 13.2741C39.5082 13.2619 39.3138 13.2483 39.1211 13.2361C39.0169 13.3304 38.902 13.3669 38.7676 13.2741Z" fill="#6BA5FD"/>
<path d="M38.7668 13.2741C38.8852 13.2619 39.0019 13.2483 39.1203 13.2361C39.0001 14.071 38.8817 14.9045 38.7615 15.7394C38.6696 15.814 38.5671 15.7851 38.4716 15.7547C37.625 15.487 36.7766 15.2193 35.9299 14.9501C35.8681 14.9303 35.808 14.906 35.7709 14.8528C35.7249 14.5927 35.7938 14.3402 35.8522 14.0878C35.8964 14.0695 35.9388 14.0513 35.983 14.033C35.9989 14.0026 36.0254 13.9798 36.0607 13.9707C36.4832 13.8551 36.8985 13.7106 37.3475 13.6832C37.823 13.5479 38.2949 13.411 38.7668 13.2741Z" fill="#FEF3DC"/>
<path d="M35.815 14.8635C36.6776 15.1312 37.5383 15.3989 38.4027 15.6635C38.5193 15.6985 38.643 15.7152 38.7632 15.7396C38.7668 15.7517 38.7703 15.7654 38.7738 15.7776C38.7297 16.0544 38.6872 16.3327 38.6431 16.6095C37.6815 16.1015 36.72 15.5951 35.7585 15.0871C35.7125 15.0019 35.7143 14.9244 35.815 14.8635Z" fill="#E3D8C3"/>
<path d="M35.6653 6.18233C35.7201 6.37852 35.6246 6.42719 35.4002 6.42719C31.0132 6.42262 26.6244 6.42111 22.2374 6.42871C21.9758 6.42871 21.8875 6.36331 21.9387 6.15039C22.0465 6.16104 22.1544 6.18081 22.2639 6.18081C26.7305 6.18233 31.1988 6.18233 35.6653 6.18233Z" fill="#C0D4EF"/>
<path d="M52.2586 15.6665C52.4159 15.7532 52.7659 15.6072 52.8154 15.8886C52.8472 16.0695 52.6033 16.1136 52.4283 16.106C52.2109 16.0984 51.9988 16.0437 51.9793 15.8064C51.967 15.6574 52.096 15.6589 52.2586 15.6665Z" fill="#FDFCFC"/>
<path d="M32.5359 21.9949C29.7538 21.9949 26.9699 21.9949 24.1879 21.9964C24.0359 21.9964 23.8874 21.9842 23.8838 21.823C23.8803 21.6466 24.0429 21.6375 24.1985 21.6375C29.7715 21.6375 35.3462 21.6375 40.9192 21.6375C41.0695 21.6375 41.2391 21.6344 41.2409 21.8139C41.2427 22.0055 41.0677 22.0025 40.9086 22.0025C38.1177 22.0025 35.3268 22.0025 32.5376 22.0025C32.5359 21.9994 32.5359 21.9979 32.5359 21.9949Z" fill="#6DA6FD"/>
<path d="M32.5588 20.1167C35.3056 20.1167 38.0523 20.1152 40.7973 20.1197C40.9687 20.1197 41.2374 20.0437 41.2356 20.3038C41.2321 20.5456 40.9776 20.4802 40.8079 20.4802C35.2791 20.4802 29.7485 20.4756 24.2197 20.4741C24.0553 20.4741 23.8803 20.4802 23.8838 20.2931C23.8874 20.1045 24.0747 20.1167 24.2303 20.1167C27.0071 20.1167 29.7821 20.1167 32.5588 20.1167Z" fill="#6DA6FC"/>
<path d="M32.5637 19.3562C35.3016 19.3562 38.0412 19.3546 40.7791 19.3592C40.9506 19.3592 41.2263 19.2786 41.2352 19.5265C41.244 19.7911 40.9523 19.7181 40.7791 19.7181C35.6339 19.7227 30.4886 19.7227 25.3434 19.7227C24.9686 19.7227 24.5922 19.7242 24.2174 19.7227C24.0584 19.7227 23.8799 19.7166 23.8869 19.528C23.894 19.3516 24.0672 19.3577 24.2174 19.3577C26.9978 19.3562 29.7798 19.3562 32.5637 19.3562Z" fill="#6DA6FC"/>
<path d="M32.5381 21.2419C29.7843 21.2419 27.0323 21.2419 24.2785 21.2404C24.1159 21.2404 23.8932 21.2738 23.8879 21.064C23.8808 20.8328 24.1159 20.8784 24.2838 20.8769C29.7967 20.8754 35.3113 20.8754 40.8243 20.8769C40.9886 20.8769 41.229 20.8191 41.2361 21.0472C41.2432 21.2921 40.9833 21.2373 40.8189 21.2373C38.0581 21.2434 35.2972 21.2419 32.5381 21.2419Z" fill="#6DA6FC"/>
<path d="M32.5629 12.5076C29.802 12.5076 27.0411 12.5076 24.282 12.5061C24.1141 12.5061 23.8808 12.5502 23.8879 12.319C23.8949 12.1031 24.1141 12.1532 24.2785 12.1532C29.7401 12.1487 35.2018 12.1426 40.6634 12.138C40.7376 12.138 40.8119 12.1365 40.8843 12.1456C41.0346 12.1654 41.252 12.1198 41.2396 12.3342C41.229 12.538 41.0257 12.5061 40.8684 12.5061C38.0987 12.5076 35.3308 12.5076 32.5629 12.5076Z" fill="#6BA5FD"/>
<path d="M32.5554 29.2037C29.7945 29.2037 27.0354 29.2037 24.2746 29.2022C24.1173 29.2022 23.891 29.2585 23.884 29.0349C23.8769 28.8083 24.1031 28.8585 24.2622 28.8585C29.8052 28.857 35.3463 28.857 40.8893 28.857C41.0395 28.857 41.2339 28.8266 41.2357 29.0243C41.2393 29.2372 41.036 29.2022 40.8787 29.2022C38.1054 29.2037 35.3304 29.2037 32.5554 29.2037Z" fill="#6AA4FD"/>
<path d="M32.5571 28.4433C29.7821 28.4433 27.007 28.4433 24.232 28.4418C24.0818 28.4418 23.8874 28.4753 23.8838 28.2745C23.8803 28.0631 24.0836 28.0966 24.2409 28.0966C29.7909 28.0966 35.3409 28.0966 40.8909 28.0966C41.0412 28.0966 41.2338 28.0631 41.2374 28.2639C41.2409 28.4783 41.0376 28.4418 40.8803 28.4418C38.1071 28.4433 35.3321 28.4433 32.5571 28.4433Z" fill="#6AA4FC"/>
<path d="M32.5553 27.3362C35.3373 27.3362 38.1194 27.3362 40.9015 27.3362C41.0553 27.3362 41.2409 27.3149 41.2373 27.5141C41.2338 27.6981 41.0606 27.6829 40.9121 27.6829C35.3479 27.6829 29.7838 27.6829 24.2179 27.6829C24.0641 27.6829 23.875 27.7027 23.882 27.5035C23.8873 27.3057 24.08 27.3362 24.2302 27.3362C27.007 27.3362 29.782 27.3362 32.5553 27.3362Z" fill="#6AA4FD"/>
<path d="M32.5375 26.9225C29.7625 26.9225 26.9875 26.9225 24.2125 26.9225C24.0658 26.9225 23.8873 26.9437 23.8819 26.7582C23.8766 26.5605 24.0587 26.5757 24.2142 26.5757C29.7784 26.5757 35.3443 26.5757 40.9085 26.5757C41.0552 26.5757 41.2319 26.5544 41.2373 26.7399C41.2443 26.9392 41.0623 26.9225 40.905 26.9225C38.1158 26.9225 35.3267 26.9225 32.5375 26.9225Z" fill="#6AA4FC"/>
<path d="M32.5388 36.0645C35.3297 36.0645 38.1206 36.0644 40.9115 36.066C41.0529 36.066 41.2367 36.0508 41.2403 36.2363C41.242 36.431 41.0635 36.4219 40.9062 36.4219C35.3456 36.4219 29.7867 36.4219 24.2261 36.4219C24.067 36.4219 23.885 36.4295 23.8867 36.2394C23.8885 36.0416 24.0812 36.069 24.2332 36.069C27.0029 36.0675 29.7708 36.069 32.5405 36.069C32.5388 36.069 32.5388 36.066 32.5388 36.0645Z" fill="#6AA4FD"/>
<path d="M32.5729 33.7893C35.3479 33.7893 38.1229 33.7893 40.898 33.7893C41.05 33.7893 41.2409 33.7665 41.2391 33.9642C41.2373 34.1558 41.0517 34.1406 40.8962 34.1406C35.3391 34.1406 29.782 34.1406 24.2249 34.1406C24.0711 34.1406 23.8838 34.1558 23.8838 33.9627C23.8838 33.7649 24.0747 33.7893 24.2267 33.7893C27.0088 33.7893 29.7909 33.7893 32.5729 33.7893Z" fill="#6AA4FD"/>
<path d="M32.5689 34.5437C35.3457 34.5437 38.1225 34.5437 40.8975 34.5452C41.0442 34.5452 41.2421 34.5224 41.2404 34.7216C41.2386 34.9148 41.053 34.9011 40.8992 34.9011C35.3386 34.9011 29.778 34.9011 24.2191 34.9011C24.06 34.9011 23.8815 34.9026 23.8868 34.7125C23.8921 34.5285 24.0742 34.5498 24.2191 34.5498C27.003 34.5498 29.7868 34.5498 32.5707 34.5498C32.5689 34.5483 32.5689 34.5452 32.5689 34.5437Z" fill="#6AA4FD"/>
<path d="M32.5564 35.3102C35.3314 35.3102 38.1064 35.3102 40.8815 35.3117C41.0388 35.3117 41.2456 35.2783 41.2403 35.4897C41.2332 35.6935 41.0299 35.6631 40.8709 35.6631C35.3367 35.6646 29.8009 35.6646 24.2667 35.6631C24.1059 35.6631 23.885 35.7026 23.8867 35.4821C23.8885 35.2722 24.1006 35.3133 24.2544 35.3133C27.0205 35.3102 29.7885 35.3102 32.5564 35.3102Z" fill="#6AA4FD"/>
<path d="M37.3494 13.6848C36.8951 13.8019 36.4391 13.9175 35.9849 14.0346C32.0892 14.0331 28.1954 14.0315 24.2998 14.027C24.1336 14.027 23.8968 14.0802 23.8879 13.8551C23.8791 13.6224 24.1106 13.6757 24.2821 13.6757C28.4782 13.6757 32.6761 13.6757 36.8722 13.6772C37.0312 13.6757 37.1903 13.6817 37.3494 13.6848Z" fill="#6BA5FD"/>
<path d="M21.675 11.9265C21.9101 11.9098 21.9048 11.446 22.2883 11.6923C22.6242 11.9083 22.5871 12.0619 22.2848 12.3022C21.2844 13.0961 20.3105 13.9159 19.3383 14.7341C19.1934 14.8558 19.1156 14.8512 18.9654 14.7447C18.4776 14.3995 17.9756 14.0664 17.4736 13.7364C17.357 13.6603 17.2986 13.5737 17.4418 13.5083C17.6079 13.4337 17.5761 13.0414 17.9031 13.2528C19.0821 14.0147 19.0821 14.0254 20.1832 13.1691C20.6357 12.8178 21.0599 12.4391 21.4983 12.0741C21.5477 12.0148 21.5654 11.9311 21.675 11.9265Z" fill="#FD746F"/>
<path d="M21.673 33.5643C21.9134 33.4122 22.099 33.0213 22.4613 33.473C22.5833 33.6251 22.585 33.6753 22.4383 33.797C21.3884 34.6563 20.3456 35.5232 19.3063 36.3931C19.1932 36.4889 19.1295 36.4935 19.0023 36.4053C18.5127 36.0616 18.0125 35.7254 17.5087 35.3969C17.3638 35.3026 17.3496 35.254 17.4522 35.1049C17.6749 34.7795 17.8481 34.822 18.1556 35.0395C19.1154 35.7163 19.126 35.7041 20.0115 34.9544C20.5047 34.5376 21.0031 34.1255 21.4998 33.7118C21.544 33.651 21.5634 33.5673 21.673 33.5643Z" fill="#FD746F"/>
<path d="M21.6752 26.349C21.9121 26.3369 21.8997 25.8198 22.3222 26.1391C22.635 26.3764 22.559 26.4981 22.2921 26.711C21.2793 27.5216 20.2913 28.3535 19.2979 29.1824C19.1919 29.2722 19.1265 29.2782 19.0098 29.1976C18.5008 28.8433 17.9864 28.495 17.465 28.1543C17.336 28.0691 17.3201 27.984 17.4456 27.9231C17.6064 27.8471 17.5657 27.4927 17.9086 27.6722C17.9157 27.6752 17.921 27.6798 17.9263 27.6828C19.1565 28.4767 19.1565 28.4767 20.2542 27.5429C20.6678 27.1916 21.0831 26.8433 21.4985 26.495C21.5409 26.4327 21.5586 26.346 21.6752 26.349Z" fill="#FD746F"/>
<path d="M21.6754 19.1342C21.9087 19.1174 21.8964 18.6657 22.2711 18.8923C22.6387 19.1144 22.5733 19.2786 22.2605 19.5265C21.2707 20.3113 20.3109 21.1265 19.3494 21.9387C19.2009 22.0649 19.1125 22.0618 18.9552 21.9508C18.4851 21.6162 18.0008 21.2938 17.5147 20.9759C17.3768 20.8862 17.2814 20.795 17.4599 20.6931C17.6101 20.6079 17.5925 20.2414 17.9583 20.4893C19.132 21.2832 19.1355 21.2755 20.2049 20.3691C20.6344 20.0041 21.0674 19.6436 21.4987 19.2802C21.5376 19.2132 21.5535 19.1265 21.6754 19.1342Z" fill="#FD746F"/>
<path d="M35.1499 14.7828C31.4858 14.7843 27.8217 14.7873 24.1576 14.7888C24.0145 14.7888 23.8784 14.763 23.8819 14.6094C23.8854 14.439 24.0374 14.4375 24.1842 14.4375C27.5248 14.4375 30.8654 14.4375 34.206 14.436C34.3386 14.436 34.4694 14.4284 34.6019 14.4238C34.7451 14.4831 34.8847 14.5516 35.0138 14.6307C35.0739 14.6687 35.1552 14.6976 35.1499 14.7828Z" fill="#6BA5FD"/>
<path d="M21.6746 11.9266C21.6162 11.9752 21.5561 12.0239 21.4978 12.0741C21.6693 11.3745 21.2999 11.2452 20.5487 11.2817C19.2637 11.3441 17.9734 11.3015 16.6849 11.2954C16.5205 11.2954 16.4568 11.3213 16.4568 11.4794C16.4639 12.8026 16.4639 14.1273 16.4568 15.452C16.4551 15.6101 16.5187 15.636 16.6831 15.636C18.2138 15.6314 19.7462 15.6299 21.2769 15.636C21.4519 15.636 21.4978 15.598 21.4943 15.4474C21.4837 14.8588 21.4925 14.2687 21.4872 13.6801C21.4872 13.5706 21.5102 13.4824 21.6657 13.4246C21.6657 14.1942 21.6657 14.9486 21.6657 15.7044C21.6657 15.8231 21.5561 15.7835 21.4872 15.7835C19.8169 15.785 18.1448 15.7835 16.4745 15.7881C16.3154 15.7881 16.2801 15.744 16.2801 15.6147C16.2854 14.1836 16.2854 12.7509 16.2783 11.3197C16.2783 11.1737 16.3313 11.1418 16.4904 11.1433C18.037 11.1479 19.5836 11.1631 21.1284 11.1357C21.5774 11.1281 21.7576 11.2118 21.6693 11.6057C21.6481 11.7076 21.6728 11.8186 21.6746 11.9266Z" fill="#1C56B4"/>
<path d="M21.6744 19.1341C21.6161 19.1828 21.556 19.2314 21.4977 19.2786C21.6726 18.5653 21.2679 18.4664 20.5397 18.4984C19.2547 18.5547 17.9644 18.5166 16.6759 18.5106C16.5009 18.509 16.4567 18.5501 16.4567 18.6991C16.4638 20.0162 16.4638 21.3348 16.4567 22.6519C16.4567 22.7964 16.492 22.8466 16.6723 22.8451C18.2101 22.839 19.7496 22.839 21.2873 22.8451C21.4552 22.8451 21.4941 22.804 21.4924 22.6641C21.4835 22.0755 21.4906 21.4854 21.4871 20.8968C21.4853 20.7873 21.5083 20.6976 21.6656 20.6276C21.6656 21.4033 21.6673 22.1622 21.6585 22.9211C21.6585 22.9454 21.5401 22.9911 21.4765 22.9911C19.8132 22.9956 18.15 22.9926 16.485 22.9971C16.3171 22.9971 16.2782 22.953 16.2782 22.8146C16.2835 21.3896 16.2852 19.9645 16.2764 18.5395C16.2746 18.3782 16.3436 18.3585 16.5044 18.3585C18.0722 18.363 19.64 18.3737 21.2078 18.3524C21.5896 18.3463 21.7345 18.4223 21.6691 18.7539C21.6479 18.8786 21.6726 19.0079 21.6744 19.1341Z" fill="#1B56B5"/>
<path d="M21.6728 33.5641C21.6145 33.6127 21.5561 33.6614 21.4978 33.7116C21.6816 32.9877 21.268 32.8842 20.5292 32.9177C19.2513 32.9724 17.9681 32.9344 16.6866 32.9299C16.5275 32.9299 16.4551 32.9466 16.4551 33.1108C16.4639 34.4416 16.4621 35.7724 16.4568 37.1016C16.4568 37.2385 16.5063 37.2704 16.6566 37.2689C18.2032 37.2644 19.7497 37.2628 21.2945 37.2704C21.4713 37.2704 21.4943 37.2172 21.4925 37.0849C21.4854 36.4963 21.4907 35.9062 21.4872 35.3176C21.4872 35.2081 21.5049 35.1184 21.6657 35.0606C21.6657 35.8287 21.6657 36.5845 21.6657 37.3389C21.6657 37.4575 21.5544 37.4165 21.4854 37.4165C19.8134 37.418 18.1431 37.4165 16.471 37.421C16.3101 37.421 16.2783 37.3754 16.2783 37.2476C16.2836 35.8165 16.2836 34.3838 16.2783 32.9527C16.2783 32.8036 16.3366 32.7763 16.494 32.7778C18.0405 32.7823 19.5871 32.7991 21.1319 32.7686C21.588 32.7595 21.7541 32.8553 21.6693 33.2432C21.6481 33.3451 21.671 33.4561 21.6728 33.5641Z" fill="#1C56B5"/>
<path d="M21.6749 26.3491C21.6166 26.3978 21.5565 26.4465 21.4982 26.4936C21.6661 25.8001 21.2914 25.6815 20.5561 25.7149C19.264 25.7742 17.9667 25.7332 16.6711 25.7286C16.512 25.7286 16.4572 25.7575 16.459 25.905C16.466 27.2282 16.466 28.5529 16.459 29.8761C16.459 30.019 16.5049 30.057 16.6693 30.057C18.2 30.0525 19.7324 30.0525 21.2631 30.057C21.4381 30.057 21.5017 30.0266 21.4982 29.8608C21.4858 29.2723 21.4964 28.6822 21.4911 28.0936C21.4893 27.9795 21.5247 27.902 21.6714 27.8457C21.6714 28.6076 21.6696 29.3529 21.6732 30.0981C21.6732 30.2243 21.5795 30.203 21.4964 30.203C19.8173 30.2046 18.1399 30.203 16.4607 30.2076C16.3034 30.2076 16.284 30.1513 16.284 30.0373C16.2875 28.6061 16.2875 27.1734 16.2822 25.7423C16.2822 25.6054 16.3317 25.5735 16.482 25.575C18.1452 25.5796 19.8102 25.5796 21.4734 25.5735C21.6484 25.5735 21.6802 25.6237 21.6732 25.7575C21.6608 25.9567 21.6732 26.1529 21.6749 26.3491Z" fill="#1C56B6"/>
<path d="M35.1503 14.7829C34.9665 14.6627 34.7844 14.5426 34.6006 14.4224C35.0177 14.3114 35.4366 14.2004 35.8538 14.0894C35.8396 14.3479 35.8272 14.6065 35.8131 14.865C35.7937 14.9395 35.776 15.0141 35.7565 15.0886C35.555 14.9867 35.3518 14.8848 35.1503 14.7829Z" fill="#2A294F"/>
<path d="M72.2207 38.063C72.2649 38.025 72.3108 37.987 72.355 37.949C72.3975 37.9885 72.4381 38.0296 72.4805 38.0691C72.3939 38.0661 72.3073 38.0646 72.2207 38.063Z" fill="#DBE5EE"/>
</svg>
