<svg width="50" height="50" viewBox="0 0 50 50" fill="none" xmlns="http://www.w3.org/2000/svg">
<path d="M50 0H0V50H50V0Z" fill="#50ABF1"/>
<path d="M6.62318 37.0638C9.9508 39.1743 13.8981 40.3956 18.1294 40.3956C30.0168 40.3956 39.6531 30.7582 39.6531 18.872C39.6531 18.5752 39.6468 18.2806 39.6354 17.9869C40.0654 17.6485 42.7246 15.5171 43.3764 14.1469C43.3764 14.1469 41.2169 15.0444 39.1034 15.2558C39.0992 15.2558 39.0941 15.2568 39.0899 15.2568C39.0899 15.2568 39.0941 15.2547 39.1013 15.2495C39.2961 15.1194 42.0187 13.266 42.3874 11.0577C42.3874 11.0577 40.8599 11.873 38.7213 12.5862C38.3672 12.7038 37.9966 12.8195 37.6145 12.9267C36.2359 11.4554 34.2764 10.5371 32.1014 10.5371C27.9293 10.5371 24.5486 13.9168 24.5486 18.0858C24.5486 18.674 24.6162 19.2466 24.7443 19.7964C24.1613 19.7725 15.2829 19.2747 9.24292 11.9603C9.24292 11.9603 5.63312 16.8883 11.3941 21.9558C11.3941 21.9558 9.64283 21.886 8.13196 20.9833C8.13196 20.9833 7.57703 26.9535 14.1012 28.4799C14.1012 28.4799 12.8174 28.9662 10.7694 28.6195C10.7694 28.6195 11.9147 33.4434 17.7111 33.8942C17.7111 33.8942 13.1276 38.0348 6.62109 37.0633L6.62318 37.0638Z" fill="white"/>
</svg>
