<svg width="25" height="20" viewBox="0 0 25 20" fill="none" xmlns="http://www.w3.org/2000/svg">
<path d="M21.7742 0H3.22581C1.44708 0 0 1.56033 0 3.47826V16.5217C0 18.4397 1.44708 20 3.22581 20H21.7742C23.5529 20 25 18.4397 25 16.5217C25 15.9154 25 3.73299 25 3.47826C25 1.56033 23.5529 0 21.7742 0ZM3.22581 1.73913H21.7742C22.6636 1.73913 23.3871 2.51929 23.3871 3.47826H1.6129C1.6129 2.51929 2.33644 1.73913 3.22581 1.73913ZM1.6129 5.21739H23.3871V7.3913H1.6129V5.21739ZM21.7742 18.2609H3.22581C2.33644 18.2609 1.6129 17.4807 1.6129 16.5217V9.13043H23.3871V16.5217C23.3871 17.4807 22.6636 18.2609 21.7742 18.2609ZM6.45161 10.8696H5.64516C4.53347 10.8696 3.62903 11.8448 3.62903 13.0435V13.913C3.62903 15.1117 4.53347 16.087 5.64516 16.087H6.45161C7.56331 16.087 8.46774 15.1117 8.46774 13.913V13.0435C8.46774 11.8448 7.56331 10.8696 6.45161 10.8696ZM6.85484 13.913C6.85484 14.1528 6.67394 14.3478 6.45161 14.3478H5.64516C5.42283 14.3478 5.24194 14.1528 5.24194 13.913V13.0435C5.24194 12.8038 5.42283 12.6087 5.64516 12.6087H6.45161C6.67394 12.6087 6.85484 12.8038 6.85484 13.0435V13.913ZM21.371 11.7391C21.371 12.2194 21.0099 12.6087 20.5645 12.6087H13.3065C12.861 12.6087 12.5 12.2194 12.5 11.7391C12.5 11.2589 12.861 10.8696 13.3065 10.8696H20.5645C21.0099 10.8696 21.371 11.2589 21.371 11.7391ZM17.7419 15.2174C17.7419 15.6977 17.3809 16.087 16.9355 16.087H13.3065C12.861 16.087 12.5 15.6977 12.5 15.2174C12.5 14.7371 12.861 14.3478 13.3065 14.3478H16.9355C17.3809 14.3478 17.7419 14.7371 17.7419 15.2174Z" fill="#727272"/>
</svg>
