<svg width="50" height="35" viewBox="0 0 50 35" fill="none" xmlns="http://www.w3.org/2000/svg">
<path d="M10.57 0.957974C10.0181 1.21386 9.54491 1.6513 9.21025 2.215C8.8756 2.77869 8.69452 3.4433 8.68991 4.12479C8.6853 4.80627 8.85738 5.47402 9.18437 6.04357C9.51137 6.61312 9.9786 7.0589 10.527 7.32452C11.0753 7.59014 11.6802 7.66368 12.2651 7.53584C12.85 7.40799 13.3886 7.08451 13.8129 6.60629C14.2371 6.12807 14.5279 5.51661 14.6485 4.84922C14.7691 4.18184 14.714 3.48851 14.4903 2.85694C14.3419 2.43759 14.1228 2.05581 13.8454 1.73341C13.5681 1.41102 13.2379 1.15431 12.8739 0.97797C12.5098 0.801626 12.119 0.709096 11.7237 0.705665C11.3284 0.702234 10.9363 0.78797 10.57 0.957974ZM12.2292 5.64208C11.9715 5.76171 11.6885 5.79115 11.4162 5.72668C11.1438 5.66221 10.8943 5.50672 10.6992 5.27988C10.504 5.05305 10.3721 4.76507 10.32 4.45238C10.268 4.1397 10.2981 3.81636 10.4067 3.52329C10.5152 3.23022 10.6973 2.98059 10.9298 2.80599C11.1624 2.63138 11.4349 2.53965 11.713 2.5424C11.9912 2.54516 12.2623 2.64227 12.4922 2.82145C12.722 3.00063 12.9003 3.25383 13.0044 3.549C13.1438 3.94425 13.1405 4.38665 12.9951 4.77908C12.8498 5.17151 12.5743 5.48189 12.2292 5.64208Z" fill="#51A311"/>
<path d="M11.1535 0.841873L10.0805 1.33982L9.83258 0.443091L10.7866 0L11.1535 0.841873Z" fill="#51A311"/>
<path d="M9.25831 2.20278L8.80756 3.42339L8.07751 2.98979L8.47849 1.90527L9.25831 2.20278Z" fill="#51A311"/>
<path d="M8.75871 4.69873L9.19378 5.92673L8.41027 6.21052L8.02405 5.11861L8.75871 4.69873Z" fill="#51A311"/>
<path d="M9.94781 6.86768L11.0143 7.38461L10.6355 8.2191L9.68787 7.76019L9.94781 6.86768Z" fill="#51A311"/>
<path d="M12.1287 7.43984L13.2017 6.94189L13.4506 7.83863L12.4965 8.28172L12.1287 7.43984Z" fill="#51A311"/>
<path d="M14.0239 6.07893L14.4756 4.85938L15.2056 5.29192L14.8037 6.37749L14.0239 6.07893Z" fill="#51A311"/>
<path d="M14.5235 3.58307L14.0894 2.35508L14.8719 2.07129L15.2591 3.16319L14.5235 3.58307Z" fill="#51A311"/>
<path d="M13.3344 1.41344L12.2689 0.8965L12.6468 0.0620117L13.5953 0.520928L13.3344 1.41344Z" fill="#51A311"/>
<path d="M20.6552 7.63594C19.9426 7.63531 19.2459 7.87658 18.6531 8.32923C18.0604 8.78187 17.5982 9.42555 17.3251 10.1789C17.0521 10.9321 16.9803 11.7612 17.119 12.5612C17.2577 13.3611 17.6006 14.0961 18.1042 14.673C18.6079 15.2499 19.2498 15.6429 19.9486 15.8022C20.6475 15.9615 21.3719 15.8801 22.0303 15.5681C22.6887 15.2562 23.2515 14.7277 23.6475 14.0497C24.0434 13.3716 24.2547 12.5744 24.2547 11.7588C24.2538 10.6662 23.8743 9.6187 23.1996 8.84584C22.5248 8.07299 21.6098 7.63789 20.6552 7.63594ZM20.6552 15.0029C20.0943 15.0033 19.5459 14.8133 19.0793 14.4569C18.6128 14.1005 18.2491 13.5938 18.0342 13.0008C17.8194 12.4078 17.763 11.7552 17.8723 11.1256C17.9816 10.4959 18.2516 9.91748 18.6481 9.46347C19.0447 9.00946 19.55 8.70027 20.1001 8.57501C20.6502 8.44974 21.2204 8.51403 21.7386 8.75975C22.2568 9.00546 22.6997 9.42156 23.0112 9.9554C23.3227 10.4892 23.4889 11.1168 23.4887 11.7588C23.4887 12.619 23.1902 13.444 22.6589 14.0523C22.1275 14.6607 21.4068 15.0026 20.6552 15.0029ZM20.6552 7.63594C19.9426 7.63531 19.2459 7.87658 18.6531 8.32923C18.0604 8.78187 17.5982 9.42555 17.3251 10.1789C17.0521 10.9321 16.9803 11.7612 17.119 12.5612C17.2577 13.3611 17.6006 14.0961 18.1042 14.673C18.6079 15.2499 19.2498 15.6429 19.9486 15.8022C20.6475 15.9615 21.3719 15.8801 22.0303 15.5681C22.6887 15.2562 23.2515 14.7277 23.6475 14.0497C24.0434 13.3716 24.2547 12.5744 24.2547 11.7588C24.2538 10.6662 23.8743 9.6187 23.1996 8.84584C22.5248 8.07299 21.6098 7.63789 20.6552 7.63594ZM20.6552 15.0029C20.0943 15.0033 19.5459 14.8133 19.0793 14.4569C18.6128 14.1005 18.2491 13.5938 18.0342 13.0008C17.8194 12.4078 17.763 11.7552 17.8723 11.1256C17.9816 10.4959 18.2516 9.91748 18.6481 9.46347C19.0447 9.00946 19.55 8.70027 20.1001 8.57501C20.6502 8.44974 21.2204 8.51403 21.7386 8.75975C22.2568 9.00546 22.6997 9.42156 23.0112 9.9554C23.3227 10.4892 23.4889 11.1168 23.4887 11.7588C23.4887 12.619 23.1902 13.444 22.6589 14.0523C22.1275 14.6607 21.4068 15.0026 20.6552 15.0029ZM20.6552 4.80859C19.4543 4.80818 18.2802 5.21536 17.2815 5.97864C16.2828 6.74192 15.5043 7.82702 15.0444 9.09671C14.5845 10.3664 14.464 11.7637 14.698 13.1118C14.932 14.4599 15.51 15.6983 16.359 16.6704C17.208 17.6425 18.2898 18.3047 19.4676 18.5731C20.6454 18.8415 21.8663 18.7042 22.9759 18.1784C24.0854 17.6527 25.0339 16.7622 25.7013 15.6195C26.3686 14.4768 26.7249 13.1333 26.7251 11.7588C26.7251 9.91604 26.0857 8.1487 24.9474 6.84538C23.8092 5.54206 22.2653 4.80943 20.6552 4.80859ZM20.6552 16.2762C19.8742 16.2768 19.1106 16.0123 18.461 15.5162C17.8114 15.02 17.3049 14.3145 17.0057 13.4888C16.7065 12.6632 16.628 11.7545 16.7801 10.8778C16.9321 10.001 17.308 9.19564 17.8601 8.56344C18.4123 7.93125 19.1158 7.50067 19.8818 7.32619C20.6477 7.15171 21.4417 7.24115 22.1633 7.58321C22.8848 7.92528 23.5015 8.50458 23.9353 9.24785C24.3691 9.99112 24.6006 10.8649 24.6004 11.7588C24.5989 12.956 24.1829 14.1037 23.4434 14.9505C22.7039 15.7973 21.7013 16.274 20.6552 16.2762ZM20.6552 7.63594C19.9426 7.63531 19.2459 7.87658 18.6531 8.32923C18.0604 8.78187 17.5982 9.42555 17.3251 10.1789C17.0521 10.9321 16.9803 11.7612 17.119 12.5612C17.2577 13.3611 17.6006 14.0961 18.1042 14.673C18.6079 15.2499 19.2498 15.6429 19.9486 15.8022C20.6475 15.9615 21.3719 15.8801 22.0303 15.5681C22.6887 15.2562 23.2515 14.7277 23.6475 14.0497C24.0434 13.3716 24.2547 12.5744 24.2547 11.7588C24.2538 10.6662 23.8743 9.6187 23.1996 8.84584C22.5248 8.07299 21.6098 7.63789 20.6552 7.63594ZM20.6552 15.0029C20.0943 15.0033 19.5459 14.8133 19.0793 14.4569C18.6128 14.1005 18.2491 13.5938 18.0342 13.0008C17.8194 12.4078 17.763 11.7552 17.8723 11.1256C17.9816 10.4959 18.2516 9.91748 18.6481 9.46347C19.0447 9.00946 19.55 8.70027 20.1001 8.57501C20.6502 8.44974 21.2204 8.51403 21.7386 8.75975C22.2568 9.00546 22.6997 9.42156 23.0112 9.9554C23.3227 10.4892 23.4889 11.1168 23.4887 11.7588C23.4887 12.619 23.1902 13.444 22.6589 14.0523C22.1275 14.6607 21.4068 15.0026 20.6552 15.0029Z" fill="#51A311"/>
<path d="M21.3686 4.93499H19.9786L20.1168 3.34619H21.2303L21.3686 4.93499Z" fill="#51A311"/>
<path d="M18.2917 5.44053L17.0879 6.23599L16.5145 4.78223L17.4787 4.14502L18.2917 5.44053Z" fill="#51A311"/>
<path d="M15.8491 7.64016L15.154 9.01796L14.0212 8.08642L14.5779 6.98291L15.8491 7.64016Z" fill="#51A311"/>
<path d="M14.694 10.9424V12.5333L13.3058 12.375V11.1006L14.694 10.9424Z" fill="#51A311"/>
<path d="M15.1356 14.4624L15.8306 15.8402L14.5604 16.4975L14.0037 15.3939L15.1356 14.4624Z" fill="#51A311"/>
<path d="M17.0566 17.2593L18.2613 18.0547L17.4474 19.3513L16.4832 18.7141L17.0566 17.2593Z" fill="#51A311"/>
<path d="M19.9426 18.5815H21.3327L21.1944 20.1703H20.0809L19.9426 18.5815Z" fill="#51A311"/>
<path d="M23.0186 18.0752L24.2225 17.2798L24.7967 18.7346L23.8325 19.3718L23.0186 18.0752Z" fill="#51A311"/>
<path d="M25.4623 15.8763L26.1573 14.4985L27.2892 15.4301L26.7334 16.5336L25.4623 15.8763Z" fill="#51A311"/>
<path d="M26.6172 12.5743V10.9834L28.0045 11.1416V12.4161L26.6172 12.5743Z" fill="#51A311"/>
<path d="M26.1748 9.05304L25.4798 7.67524L26.7509 7.01904L27.3077 8.12255L26.1748 9.05304Z" fill="#51A311"/>
<path d="M24.2538 6.25706L23.05 5.46161L23.8639 4.16504L24.8281 4.80225L24.2538 6.25706Z" fill="#51A311"/>
<path d="M36.1955 9.11088C35.8221 8.35049 35.2602 7.73386 34.5807 7.33892C33.9012 6.94398 33.1347 6.78848 32.378 6.89206C31.6213 6.99564 30.9084 7.35366 30.3294 7.92085C29.7505 8.48805 29.3315 9.23897 29.1253 10.0787C28.9192 10.9184 28.9352 11.8092 29.1714 12.6385C29.4075 13.4678 29.8532 14.1983 30.452 14.7378C31.0509 15.2772 31.776 15.6013 32.5358 15.6692C33.2956 15.7371 34.0559 15.5456 34.7206 15.119C35.1623 14.8355 35.5509 14.4552 35.8641 13.9998C36.1773 13.5443 36.409 13.0227 36.5459 12.4647C36.6829 11.9068 36.7225 11.3234 36.6623 10.7479C36.6022 10.1724 36.4435 9.61615 36.1955 9.11088ZM31.2676 12.2843C31.0931 11.9293 31.0144 11.5231 31.0416 11.1169C31.0688 10.7108 31.2006 10.323 31.4204 10.0026C31.6401 9.68225 31.938 9.44364 32.2762 9.317C32.6145 9.19036 32.978 9.18136 33.3207 9.29116C33.6634 9.40095 33.97 9.6246 34.2016 9.93381C34.4333 10.243 34.5796 10.6239 34.6221 11.0283C34.6646 11.4327 34.6014 11.8425 34.4404 12.2057C34.2794 12.569 34.0279 12.8695 33.7177 13.0692C33.3019 13.3369 32.8101 13.4045 32.3507 13.2573C31.8912 13.1102 31.5016 12.7601 31.2676 12.2843Z" fill="#51A311"/>
<path d="M36.4185 9.94006L35.6921 8.46098L36.6471 7.95459L37.2933 9.26909L36.4185 9.94006Z" fill="#51A311"/>
<path d="M34.6007 7.40569L33.1738 6.94783L33.5352 5.81689L34.8045 6.22412L34.6007 7.40569Z" fill="#51A311"/>
<path d="M31.7497 7.08508L30.4573 7.91746L30.0149 6.8245L31.1634 6.08496L31.7497 7.08508Z" fill="#51A311"/>
<path d="M29.5356 9.16674L29.1355 10.7999L28.1474 10.3863L28.5032 8.93359L29.5356 9.16674Z" fill="#51A311"/>
<path d="M29.2554 12.4297L29.9827 13.9077L29.0277 14.4152L28.3815 13.0996L29.2554 12.4297Z" fill="#51A311"/>
<path d="M31.074 14.9639L32.5009 15.4207L32.1396 16.5516L30.8703 16.1454L31.074 14.9639Z" fill="#51A311"/>
<path d="M33.9251 15.2845L35.2174 14.4521L35.6599 15.5451L34.5104 16.2846L33.9251 15.2845Z" fill="#51A311"/>
<path d="M36.1392 13.2029L36.5393 11.5698L37.5265 11.9834L37.1716 13.4361L36.1392 13.2029Z" fill="#51A311"/>
<path d="M47.0881 17.8408V34.9104H0V30.6388H11.772V26.3735H23.5431V22.1072H35.3161V17.8408H47.0881Z" fill="#9C78D7"/>
<path opacity="0.1" d="M49.9604 17.791V34.8817H0V30.6048H12.4901V26.3342H24.9792V22.0626H37.4703V17.791H49.9604Z" fill="black"/>
<path d="M50 17.8408V34.9104H2.91187V30.6388H14.6839V26.3735H26.455V22.1072H38.228V17.8408H50Z" fill="#9C78D7"/>
<path d="M3.30183 34.8355L3.14697 34.3386L9.20674 31.8604L9.24085 31.8583L14.8075 31.544L20.787 27.7186L26.3905 28.167L31.9295 23.7255L38.205 24.0515L42.8092 19.1479L43.1236 19.5341L38.3773 24.5885L32.065 24.2604L26.5214 28.7061L20.8921 28.2556L14.9374 32.0651L9.298 32.3837L3.30183 34.8355Z" fill="#58C105" fill-opacity="0.53"/>
<path d="M43.5024 20.5658L44.1772 18.0518L41.9373 18.6404L43.5024 20.5658Z" fill="#51A311"/>
<path d="M9.25192 32.9733C9.6266 32.9733 9.93034 32.6257 9.93034 32.1969C9.93034 31.768 9.6266 31.4204 9.25192 31.4204C8.87723 31.4204 8.57349 31.768 8.57349 32.1969C8.57349 32.6257 8.87723 32.9733 9.25192 32.9733Z" fill="white"/>
<path d="M9.25189 33.2372C9.07213 33.2372 8.89641 33.1761 8.74695 33.0619C8.59748 32.9476 8.48099 32.7851 8.4122 32.595C8.34341 32.4049 8.32541 32.1958 8.36048 31.994C8.39555 31.7922 8.48211 31.6069 8.60922 31.4614C8.73633 31.3159 8.89827 31.2169 9.07458 31.1767C9.25088 31.1366 9.43363 31.1572 9.5997 31.2359C9.76578 31.3147 9.90772 31.448 10.0076 31.619C10.1075 31.7901 10.1608 31.9912 10.1608 32.1969C10.1605 32.4727 10.0647 32.7372 9.89429 32.9322C9.7239 33.1272 9.49286 33.2369 9.25189 33.2372ZM9.25189 31.6842C9.16329 31.6842 9.07668 31.7143 9.003 31.7706C8.92933 31.827 8.87191 31.9071 8.83801 32.0007C8.8041 32.0944 8.79523 32.1975 8.81251 32.297C8.8298 32.3964 8.87247 32.4878 8.93512 32.5595C8.99777 32.6312 9.07759 32.68 9.16449 32.6998C9.25139 32.7196 9.34147 32.7094 9.42333 32.6706C9.50519 32.6318 9.57515 32.5661 9.62438 32.4818C9.6736 32.3975 9.69987 32.2984 9.69987 32.1969C9.69963 32.0611 9.65235 31.9308 9.56839 31.8347C9.48443 31.7386 9.37063 31.6845 9.25189 31.6842Z" fill="#51A311"/>
<path d="M32.0088 24.7712C32.3834 24.7712 32.6872 24.4236 32.6872 23.9947C32.6872 23.5659 32.3834 23.2183 32.0088 23.2183C31.6341 23.2183 31.3303 23.5659 31.3303 23.9947C31.3303 24.4236 31.6341 24.7712 32.0088 24.7712Z" fill="white"/>
<path d="M32.0087 25.0345C31.8289 25.0351 31.6529 24.9747 31.5031 24.8608C31.3532 24.7468 31.2363 24.5846 31.1671 24.3946C31.0979 24.2046 31.0795 23.9953 31.1142 23.7933C31.149 23.5913 31.2353 23.4057 31.3623 23.2599C31.4893 23.1141 31.6513 23.0147 31.8276 22.9743C32.004 22.9339 32.1869 22.9543 32.3532 23.033C32.5194 23.1116 32.6615 23.2449 32.7615 23.4161C32.8615 23.5872 32.9149 23.7884 32.9149 23.9943C32.9146 24.2696 32.8192 24.5335 32.6494 24.7284C32.4796 24.9233 32.2492 25.0334 32.0087 25.0345ZM32.0087 23.4816C31.92 23.481 31.8331 23.5105 31.7591 23.5665C31.6851 23.6224 31.6272 23.7023 31.5929 23.7959C31.5586 23.8895 31.5493 23.9927 31.5663 24.0924C31.5832 24.192 31.6257 24.2837 31.6882 24.3557C31.7508 24.4277 31.8306 24.4769 31.9176 24.4969C32.0045 24.517 32.0948 24.507 32.1768 24.4683C32.2588 24.4296 32.3289 24.3639 32.3783 24.2795C32.4276 24.1951 32.454 24.0958 32.454 23.9943C32.4537 23.859 32.4068 23.7292 32.3235 23.6332C32.2401 23.5372 32.127 23.4827 32.0087 23.4816Z" fill="#51A311"/>
<path d="M20.8515 28.7639C21.2262 28.7639 21.53 28.4162 21.53 27.9874C21.53 27.5586 21.2262 27.2109 20.8515 27.2109C20.4768 27.2109 20.1731 27.5586 20.1731 27.9874C20.1731 28.4162 20.4768 28.7639 20.8515 28.7639Z" fill="white"/>
<path d="M20.8516 29.0278C20.6716 29.0281 20.4955 28.9671 20.3458 28.8528C20.196 28.7385 20.0793 28.5758 20.0103 28.3855C19.9413 28.1952 19.9232 27.9858 19.9583 27.7837C19.9934 27.5816 20.08 27.396 20.2073 27.2503C20.3346 27.1046 20.4968 27.0054 20.6734 26.9653C20.85 26.9251 21.033 26.9458 21.1992 27.0248C21.3655 27.1037 21.5076 27.2373 21.6075 27.4087C21.7074 27.5801 21.7606 27.7816 21.7604 27.9876C21.7602 28.2634 21.6644 28.5278 21.494 28.7229C21.3236 28.9179 21.0925 29.0276 20.8516 29.0278ZM20.8516 27.4739C20.7627 27.4736 20.6759 27.5036 20.6019 27.5599C20.528 27.6163 20.4703 27.6964 20.4362 27.7903C20.4021 27.8841 20.393 27.9875 20.4103 28.0872C20.4275 28.1869 20.4702 28.2786 20.5329 28.3506C20.5956 28.4225 20.6756 28.4715 20.7627 28.4915C20.8498 28.5114 20.9401 28.5013 21.0222 28.4624C21.1043 28.4235 21.1745 28.3577 21.2238 28.2732C21.2732 28.1887 21.2996 28.0893 21.2996 27.9876C21.2996 27.8516 21.2524 27.721 21.1684 27.6247C21.0844 27.5284 20.9705 27.4741 20.8516 27.4739Z" fill="#51A311"/>
</svg>
